<svg width="147" height="21" viewBox="0 0 147 21" fill="none" xmlns="http://www.w3.org/2000/svg">
<path d="M16.4786 13.2704L13.6801 1.14355L11.8145 11.4047L13.6801 19.3338H15.5458L16.4786 13.2704Z" fill="#9D9D9E"/>
<path d="M4.81798 1.14355H0.153809L4.35156 19.3338H10.415L13.6799 1.14355H9.48215L7.15006 12.804L4.81798 1.14355Z" fill="#9D9D9E"/>
<path d="M18.8098 1.61084L16.4778 13.2713L15.5449 19.3347H19.7427L23.474 1.61084H18.8098Z" fill="#9D9D9E"/>
<path d="M31.2583 19.8544C29.2906 19.8544 27.6364 19.2363 26.2956 18C24.9722 16.7462 24.3105 15.092 24.3105 13.0373C24.3105 11.087 24.9635 9.46764 26.2695 8.17909C27.5755 6.87312 29.2123 6.22014 31.1799 6.22014C33.0083 6.22014 34.5493 6.77735 35.8031 7.89177C37.0568 9.0062 37.6837 10.5734 37.6837 12.5933C37.6837 13.0982 37.6575 13.5597 37.6053 13.9776H28.124C28.2284 14.7263 28.5854 15.301 29.1949 15.7015C29.8043 16.0845 30.5095 16.2761 31.3105 16.2761C32.0245 16.2761 32.66 16.1368 33.2172 15.8582C33.7745 15.5622 34.1924 15.2052 34.471 14.7873L37.3963 16.9813C36.7695 17.8694 35.9249 18.5746 34.8628 19.097C33.8006 19.6019 32.5991 19.8544 31.2583 19.8544ZM28.2284 11.3918H33.7657C33.609 10.7475 33.2782 10.2599 32.7732 9.92908C32.2682 9.59824 31.7023 9.43282 31.0755 9.43282C30.4138 9.43282 29.813 9.59824 29.2732 9.92908C28.7334 10.2425 28.3852 10.7301 28.2284 11.3918Z" fill="#9D9D9E"/>
<path d="M47.195 19.8544C45.9412 19.8544 44.9139 19.4801 44.1129 18.7313V19.5671H40.1689V0.5H44.1129V7.31715C44.9313 6.58581 45.9587 6.22014 47.195 6.22014C49.0756 6.22014 50.6166 6.89053 51.8181 8.23133C53.0196 9.55471 53.6203 11.1567 53.6203 13.0373C53.6203 14.9179 53.0196 16.5286 51.8181 17.8694C50.6166 19.1927 49.0756 19.8544 47.195 19.8544ZM46.5942 16.2761C47.4649 16.2761 48.1701 15.9627 48.7099 15.3358C49.2671 14.7089 49.5457 13.9428 49.5457 13.0373C49.5457 12.1318 49.2671 11.3656 48.7099 10.7388C48.1701 10.1119 47.4649 9.79849 46.5942 9.79849C45.5843 9.79849 44.7572 10.2077 44.1129 11.0261V15.0224C44.7398 15.8582 45.5669 16.2761 46.5942 16.2761Z" fill="#9D9D9E"/>
<path d="M61.7263 19.8806C60.194 19.8806 58.7661 19.4453 57.4428 18.5747C56.1194 17.6866 55.2749 16.5374 54.9092 15.1269L58.6965 13.6381C58.9577 14.352 59.3582 14.9267 59.898 15.362C60.4378 15.7799 61.082 15.9888 61.8308 15.9888C62.684 15.9888 63.3196 15.7799 63.7375 15.362C64.1554 14.9441 64.3644 14.4043 64.3644 13.7426C64.3644 13.0112 64.0945 12.4192 63.5547 11.9665C63.0323 11.5137 62.3532 11.2874 61.5174 11.2874H59.0622V8.04856L62.1965 4.83589H56.2935V1.02246H67.4465V4.10454L63.633 8.02245C65.148 8.2314 66.3059 8.85826 67.1069 9.90304C67.9079 10.9478 68.3084 12.2277 68.3084 13.7426C68.3084 15.6232 67.7077 17.1207 66.5062 18.2351C65.3047 19.3321 63.7114 19.8806 61.7263 19.8806Z" fill="#9D9D9E"/>
<path d="M74.7809 18.168C74.7809 19.456 73.7368 20.5001 72.4488 20.5001C71.1608 20.5001 70.1167 19.456 70.1167 18.168C70.1167 16.88 71.1608 15.8359 72.4488 15.8359C73.7368 15.8359 74.7809 16.88 74.7809 18.168Z" fill="#9D9D9E"/>
<path d="M91.1056 13.2704L88.3071 1.14355L86.4414 11.4047L88.3071 19.3338H90.1727L91.1056 13.2704Z" fill="#9D9D9E"/>
<path d="M79.444 1.14355H74.7798L78.9775 19.3338H85.041L88.3059 1.14355H84.1081L81.776 12.804L79.444 1.14355Z" fill="#9D9D9E"/>
<path d="M93.4373 1.61084L91.1052 13.2713L90.1724 19.3347H94.3701L98.1015 1.61084H93.4373Z" fill="#9D9D9E"/>
<path d="M110.64 17.8956C109.299 19.2015 107.68 19.8545 105.781 19.8545C103.883 19.8545 102.264 19.2015 100.923 17.8956C99.5825 16.5722 98.9121 14.9528 98.9121 13.0374C98.9121 11.1219 99.5825 9.51125 100.923 8.20528C102.264 6.8819 103.883 6.22021 105.781 6.22021C107.68 6.22021 109.299 6.8819 110.64 8.20528C111.98 9.51125 112.651 11.1219 112.651 13.0374C112.651 14.9528 111.98 16.5722 110.64 17.8956ZM103.692 15.3097C104.249 15.8844 104.946 16.1717 105.781 16.1717C106.617 16.1717 107.305 15.8844 107.845 15.3097C108.402 14.7351 108.681 13.9777 108.681 13.0374C108.681 12.0971 108.402 11.3396 107.845 10.765C107.305 10.1904 106.617 9.90304 105.781 9.90304C104.946 9.90304 104.249 10.1904 103.692 10.765C103.152 11.3396 102.882 12.0971 102.882 13.0374C102.882 13.9777 103.152 14.7351 103.692 15.3097Z" fill="#9D9D9E"/>
<path d="M115.077 19.5672V6.50753H119.021V7.97021C119.23 7.50006 119.604 7.11698 120.144 6.82096C120.684 6.50753 121.276 6.35081 121.92 6.35081C122.512 6.35081 123.044 6.43788 123.514 6.61201L122.913 10.2948C122.774 10.1904 122.408 10.1381 121.816 10.1381C120.51 10.1381 119.578 10.5299 119.021 11.3135V19.5672H115.077Z" fill="#9D9D9E"/>
<path d="M128.884 1.84277H125.153V19.5666H131.683V16.7681H128.884V1.84277Z" fill="#9D9D9E"/>
<path d="M139.877 19.8544C137.996 19.8544 136.455 19.1927 135.254 17.8694C134.052 16.5286 133.452 14.9179 133.452 13.0373C133.452 11.1567 134.052 9.55471 135.254 8.23133C136.455 6.89053 137.996 6.22014 139.877 6.22014C141.113 6.22014 142.141 6.58581 142.959 7.31715V0.5H146.903V19.5671H142.959V18.7313C142.158 19.4801 141.131 19.8544 139.877 19.8544ZM140.478 16.2761C141.505 16.2761 142.332 15.8582 142.959 15.0224V11.0261C142.315 10.2077 141.488 9.79849 140.478 9.79849C139.607 9.79849 138.893 10.1119 138.336 10.7388C137.796 11.3656 137.526 12.1318 137.526 13.0373C137.526 13.9428 137.796 14.7089 138.336 15.3358C138.893 15.9627 139.607 16.2761 140.478 16.2761Z" fill="#9D9D9E"/>
</svg>
