<svg width="76" height="41" viewBox="0 0 76 41" fill="none" xmlns="http://www.w3.org/2000/svg">
<g clip-path="url(#clip0_11758_49729)">
<path fill-rule="evenodd" clip-rule="evenodd" d="M18.0803 2.42382H11.9048L11.7764 6.88281H17.9805C18.0375 5.20713 18.0803 3.72068 18.0803 2.42382Z" fill="#9D9D9E"/>
<path fill-rule="evenodd" clip-rule="evenodd" d="M7.35518 2.42369H1.23666C1.26521 6.69326 0.908673 16.6604 0.166992 32.3107L6.04308 32.3398C6.04308 28.4783 6.47091 18.511 7.35518 2.42369Z" fill="#9D9D9E"/>
<path fill-rule="evenodd" clip-rule="evenodd" d="M17.6808 10.2342H11.7049C11.5338 20.0702 11.2629 27.4291 10.9062 32.3107L17.2102 32.3398C17.1674 30.3726 17.3242 23.0139 17.6808 10.2342Z" fill="#9D9D9E"/>
<path fill-rule="evenodd" clip-rule="evenodd" d="M20.9331 10.1031L20.1914 14.5912L23.2577 14.562L22.7158 32.3107L28.7916 32.3398L28.9484 14.6203H32.9419L33.8262 10.0593H28.8486V9.37443C28.8486 7.50933 29.0768 6.40171 29.519 6.09582C30.0609 5.6731 31.801 5.49837 34.7247 5.5421L35.5376 1.35997C33.1131 1.24331 31.3446 1.24331 30.2321 1.35997C28.1069 1.50566 26.4668 2.1031 25.3259 3.21055C24.2276 4.27427 23.6287 6.35816 23.5145 9.44736V10.1031H20.9331Z" fill="#9D9D9E"/>
<path fill-rule="evenodd" clip-rule="evenodd" d="M52.5377 13.5274C50.655 11.1084 47.9595 9.89898 44.451 9.89898C41.5842 9.84074 39.1169 10.6421 37.0062 12.2888C34.2535 14.4454 32.7416 17.4327 32.4708 21.2797C32.2282 24.7186 33.084 27.5019 35.0666 29.6002C36.892 31.5237 39.4878 32.5438 42.8393 32.6603C45.8202 32.7477 48.53 32.4855 50.9974 31.9025L51.8673 27.3416C49.8849 28.2305 47.3605 28.6822 44.3228 28.6822C41.513 28.6822 39.773 27.8515 39.0598 26.2049C38.6321 25.2724 38.4181 24.2961 38.4181 23.2614L38.5465 21.9936H54.4915L54.5487 21.4836C54.7483 18.1903 54.0781 15.5383 52.5377 13.5274ZM40.5573 14.8972C41.4844 13.8917 42.7253 13.3817 44.3228 13.3962C45.9057 13.3817 47.118 14.0082 47.9453 15.2468C48.5728 16.267 48.8152 17.4034 48.6868 18.6713L48.6156 19.225L38.8459 19.1813C38.9458 17.4764 39.5162 16.0483 40.5573 14.8972Z" fill="#9D9D9E"/>
<path fill-rule="evenodd" clip-rule="evenodd" d="M64.8178 16.209L64.9604 10.3365H58.143L58.0146 16.209H64.8178Z" fill="#9D9D9E"/>
<path fill-rule="evenodd" clip-rule="evenodd" d="M72.9756 6.83878C71.6491 3.47272 70.6936 1.35979 70.1232 0.499996H66.1582C67.998 3.90978 69.1533 7.65484 69.6525 11.7495C69.8949 13.7458 69.9806 16.6311 69.8807 20.3906C69.8095 25.1412 68.8111 29.9353 66.8857 34.7586C66.1298 36.6676 65.2313 38.5911 64.1758 40.5H68.5828C69.7667 38.664 70.822 36.755 71.7205 34.7586C72.1485 33.8115 72.5478 32.8497 72.9042 31.8734C74.3305 27.837 75.0864 24.0775 75.1578 20.5947C75.2576 15.5091 74.5303 10.9335 72.9756 6.83878Z" fill="#9D9D9E"/>
<path fill-rule="evenodd" clip-rule="evenodd" d="M57.3447 26.6273L57.2021 32.4561H64.0765L64.2191 26.6273H57.3447Z" fill="#9D9D9E"/>
</g>
<defs>
<clipPath id="clip0_11758_49729">
<rect width="75" height="40" fill="white" transform="translate(0.166992 0.5)"/>
</clipPath>
</defs>
</svg>
