<svg width="110" height="41" viewBox="0 0 110 41" fill="none" xmlns="http://www.w3.org/2000/svg">
<g clip-path="url(#clip0_11758_49698)">
<path d="M94.1784 5.08618V3.41572L95.4648 3.17274C95.5546 3.38535 95.7341 3.65869 95.8836 3.90167C96.0033 4.17502 96.1529 4.47874 96.2426 4.75209C95.8836 4.96469 94.6271 5.11655 94.1784 5.08618ZM99.0847 4.11428C99.2044 3.96242 99.9523 3.41572 100.192 3.26386C100.491 3.41572 101.717 4.75209 101.837 5.11655C101.478 5.35953 100.64 5.87585 100.222 5.99734C100.012 5.60251 99.354 4.35725 99.0847 4.11428ZM95.8836 2.99051L96.7512 2.50456C97.0504 2.62605 98.2172 3.74981 98.3368 3.99279C98.1274 4.14465 96.9607 4.66097 96.6615 4.69134L95.8836 2.99051ZM97.1402 2.17046C97.2299 2.0186 97.4692 1.74525 97.6487 1.65414C98.3667 1.83637 99.2942 2.62604 99.8327 2.92976C99.7429 3.08162 98.9651 3.62832 98.7258 3.68906C98.4864 3.47646 98.2172 3.112 97.9479 2.92976C97.7086 2.71716 97.3795 2.41344 97.1402 2.17046ZM89.5413 3.20311C89.6609 3.3246 89.8105 3.38535 90.0199 3.41572C91.7551 1.98823 90.5884 2.47418 92.0244 2.99051C91.9047 3.35497 91.5158 3.8713 91.426 4.17502L91.7551 4.418L92.3834 3.23348L93.58 3.44609C93.6997 3.62832 93.6399 3.99279 93.6399 4.23576C93.6399 4.50911 93.6399 4.81283 93.6399 5.11655L92.4133 5.05581L92.6825 5.48102L93.6399 5.57213V8.63971H94.0587L94.0886 7.91078C94.5075 7.88041 94.9562 7.85004 95.3451 7.78929C95.6742 7.75892 95.9734 7.85004 96.3025 7.27297L94.0587 7.4552V5.51139C94.4776 5.48102 94.8665 5.48102 95.2255 5.3899C95.4947 5.32916 96.0931 5.23804 96.3324 5.23804L96.8709 6.93887L97.2598 6.78701L96.7213 5.05581C97.4094 4.87357 97.9479 4.47874 98.4864 4.32688C98.7557 4.47874 99.5933 5.81511 99.6532 6.20995C99.4138 6.30106 99.1147 6.39218 98.9053 6.51367C99.3839 6.60478 99.2942 6.72627 99.8626 6.60478C100.042 6.81739 99.9523 6.87813 100.551 7.06036L100.281 6.39218L101.987 5.42027C103.303 7.75892 103.961 10.1279 103.303 12.9829C103.153 13.5904 102.974 14.1978 102.735 14.7445C102.286 15.7164 101.658 16.8098 100.94 17.5691C100.7 17.8121 100.012 18.541 99.713 18.6929C99.2942 18.5106 98.9651 18.1765 98.7258 17.8424C98.4864 17.5083 98.3967 17.2046 98.3967 16.7794C98.3967 16.7187 98.3967 16.5972 98.3967 16.5364L98.4266 16.4453C98.5762 16.0505 99.4438 16.6276 100.91 15.6557C101.508 15.2608 102.076 14.7749 102.465 14.0156C104.29 10.4317 101.029 6.42255 97.7385 7.24259C96.1828 7.63743 95.9435 8.79157 94.9562 9.18641C94.2382 9.45976 93.1911 9.03455 93.5501 9.94571C93.7595 10.462 93.5202 10.4013 93.4005 10.4317C93.0415 10.5835 93.2809 10.6746 93.1911 11.0087C93.1014 11.2821 92.9219 11.1302 92.7424 11.3732C92.6825 11.6162 92.7723 11.6162 92.7125 11.8288C92.6526 12.0414 91.9945 12.497 92.4731 13.1348C92.8022 13.5904 93.3407 13.803 93.7895 14.3193C94.328 14.9571 94.0288 15.5342 94.2681 16.3238C94.8066 17.9943 93.8194 17.4172 91.5158 18.2676C90.5285 18.6321 89.6011 19.0877 88.4643 18.9358C88.1053 18.9055 87.8958 18.6625 87.6565 18.4803C87.1479 18.0854 86.8488 17.7817 87.477 16.8402C88.7335 17.5995 90.1097 16.9009 90.9174 16.8402C91.3064 16.8098 91.9346 17.235 92.5629 16.749C92.8022 16.5972 93.3108 15.5645 92.892 15.2304C92.6526 15.109 92.5928 15.2304 92.2936 15.2608V15.2304C92.2936 15.2608 92.2936 15.109 92.2039 14.9875L92.174 14.9571C91.9945 14.7749 91.4859 15.0482 91.3363 15.2001C90.8875 15.5949 91.2166 15.3519 90.0499 15.2912C88.554 15.2608 88.8831 14.6837 88.7036 13.3778C88.6438 12.8614 88.5839 12.4362 88.4942 11.9503C88.4044 11.4947 88.1651 10.8872 88.7036 10.8265C89.2122 10.7354 90.1994 11.3125 90.708 10.7961C90.7978 10.705 90.8277 10.6443 90.8875 10.5835C91.2166 10.3102 90.9474 10.7961 91.3064 10.1887C91.4559 9.94571 91.3363 10.2798 91.4559 9.91533C91.5158 9.67236 91.3662 9.85459 91.5457 9.67236C91.6055 9.61161 91.7551 9.55087 91.785 9.55087C91.815 9.00417 91.5756 8.88268 91.8748 8.39673C92.1141 8.06264 92.2039 8.0019 92.3834 7.51594C92.862 5.99734 91.4859 4.72171 90.3789 4.20539C89.7507 3.90167 88.913 3.68907 88.1053 3.93204C87.3873 4.17502 86.8787 4.60023 86.5197 5.08618C86.1008 5.66325 85.9213 6.45292 86.041 7.39445C86.1607 8.33599 86.6094 8.88268 85.7717 9.45975C85.6222 9.55087 85.4726 9.61162 85.323 9.70273C85.0238 9.91534 84.3058 10.5228 84.0964 10.5835C84.0366 7.63743 85.7717 4.78246 87.8061 3.112C88.1651 2.80828 89.6011 1.83637 90.1994 1.74526C90.3789 1.92749 90.5285 2.07935 90.6781 2.26158C90.5584 2.41344 89.7806 3.05125 89.5413 3.20311ZM94.8066 0.5H93.1313C92.7723 0.65186 91.6055 0.439258 89.3019 1.5934C85.8615 3.3246 83.6476 7.15148 83.7673 11.1606C83.9169 16.6276 88.3745 21.1226 93.8493 21.1226C99.3839 21.1226 103.901 16.7794 104.081 11.2821C104.201 8.15376 103.004 5.54176 101.448 3.8713C101.239 3.62832 101.059 3.47646 100.85 3.26386C98.3668 0.712606 95.1656 0.65186 94.8066 0.5Z" fill="#9D9D9E"/>
<path d="M55.047 14.4409C54.9872 12.74 55.795 10.8873 57.231 10.2191C57.7994 9.9458 58.2182 9.85468 58.9362 9.85468C61.5091 9.85468 62.9451 11.7985 62.7656 14.4712H55.047V14.4409ZM65.6675 18.8448H62.5861C62.4365 19.9078 62.1074 20.9101 61.18 21.4568C60.3423 21.9428 58.8166 22.1554 57.7396 21.8213C55.7351 21.1835 54.8376 19.0574 55.047 16.4454H65.8171C65.9368 15.7469 65.8171 13.7119 65.6675 13.0437C65.0692 9.9458 63.1844 8.03236 60.0133 7.72864C55.2864 7.24269 52.7135 10.0977 52.0853 14.2283C51.7562 16.3847 51.9955 18.8144 52.8033 20.5456C53.5512 22.2161 54.718 23.4006 56.7224 23.9473C59.4149 24.6762 62.975 23.9777 64.6803 21.5783C65.1589 20.8797 65.5778 19.8775 65.6675 18.8448Z" fill="#9D9D9E"/>
<path d="M19.1765 10.4013V8.09301H16.3943C16.2746 8.48785 16.3643 18.4499 16.3643 19.7863C16.3643 21.0315 16.3045 22.5197 16.3943 23.7346H19.2962C19.3859 22.6412 19.2962 16.5972 19.2962 14.9267C19.2962 13.6207 19.5056 12.2236 20.1339 11.4036C20.7322 10.6746 21.6895 9.94571 23.0059 9.88497C26.5959 9.73311 26.8053 12.1629 26.8053 14.866V23.7043H29.7372V12.6185C29.6474 9.3079 27.1942 7.51595 23.7239 7.57669C21.899 7.60706 20.2835 8.54859 19.356 10.1279C19.3261 10.1887 19.2962 10.2191 19.2663 10.2494C19.2064 10.4013 19.2962 10.3709 19.1765 10.4013Z" fill="#9D9D9E"/>
<path d="M0.059543 8.12334C-0.0302076 8.45744 0.0296243 14.5622 0.0296243 15.443C0.0296243 17.8728 -0.20971 20.0596 0.897214 21.9123C1.82464 23.4916 3.3504 24.4028 5.89333 24.2205C7.86785 24.0687 9.24402 23.2183 10.2911 21.73C10.4108 21.5478 10.3509 21.6085 10.5005 21.5174V23.7953H13.3426L13.3127 8.15371H10.4706C10.3809 8.51818 10.4407 11.9502 10.4407 12.6184C10.4407 16.2631 11.1288 21.7604 6.64125 22.0945C5.11549 22.216 4.09832 21.6085 3.58973 20.667C3.02131 19.5736 2.99139 18.2676 2.99139 16.8097C2.99139 15.6556 3.08115 8.54855 2.90165 8.03223C2.69223 8.15371 2.69223 8.12334 2.27339 8.12334H0.059543Z" fill="#9D9D9E"/>
<path d="M47.7769 18.4803C47.6572 19.5737 47.3879 20.6671 46.4904 21.3353C45.6228 21.9731 44.3663 22.1857 43.1697 21.7908C41.255 21.1227 40.6267 18.6321 40.5968 16.0505C40.5968 13.4385 41.0755 10.9784 42.9303 10.128C43.8877 9.67239 45.4134 9.70277 46.2511 10.3102C47.1187 10.948 47.4478 11.7377 47.5973 13.1044H50.4694C50.4993 11.0695 49.3026 9.42942 48.1658 8.67012C44.845 6.42259 37.5752 7.42486 37.5752 16.1416C37.5752 20.4545 39.3104 23.4309 43.05 24.0687C45.0843 24.4028 47.0588 23.9473 48.3453 22.9754C49.3325 22.2464 50.6788 20.4848 50.619 18.5107H47.7769V18.4803Z" fill="#9D9D9E"/>
<path d="M74.4634 0.5H73.177C73.0274 0.591116 72.2795 0.682235 72.0102 0.773351C68.4501 1.83637 69.1681 5.29879 69.1083 8.12339H66.5055L66.4756 10.1583L69.1083 10.1887V23.7042H72.0102V10.1583H75.5105V8.09301H72.0102C72.0102 7.33371 72.0102 6.54404 72.0102 5.78474C72.0102 4.44837 71.8905 3.3246 73.895 3.14237C74.4634 3.08162 75.6302 3.26386 75.9592 3.20311V0.80372L74.4634 0.5Z" fill="#9D9D9E"/>
<path d="M32.4893 23.7647H35.3613C35.451 23.0662 35.3912 13.6205 35.3912 12.0411C35.3912 11.373 35.4809 8.51798 35.3613 8.09277H32.5491L32.4893 23.7647Z" fill="#9D9D9E"/>
<path d="M85.0537 23.1276C86.2205 23.7957 89.0626 24.3121 90.5883 23.7957C91.7551 23.4009 91.1268 22.8238 92.3833 23.1883C92.6825 23.2794 93.0714 23.4009 93.2809 23.5528L92.4133 24.1602C91.8149 24.6158 90.3789 25.7699 90.1396 26.3774C90.3789 26.5292 90.4388 26.6507 90.7678 26.7722C91.2465 26.1648 91.6653 25.7092 92.2338 25.1625C92.4432 24.9802 93.6997 23.9172 93.9689 23.9476C94.2681 23.978 95.4648 25.0106 95.7041 25.1929C96.3922 25.8307 96.841 26.4685 97.1401 26.7418C97.4094 26.6507 97.5889 26.4989 97.7684 26.3774C97.4692 25.6788 96.1529 24.6158 95.4947 24.1602L94.657 23.5528C94.8964 23.3705 95.2853 23.2794 95.6144 23.1883C96.2127 23.0364 96.2127 22.9757 96.5717 23.3402C96.9905 23.7654 97.7385 23.978 98.4864 24.0083C99.2941 24.0387 100.162 23.978 100.94 23.7957C100.999 23.7957 102.794 23.2794 102.824 23.1579L102.854 23.1276C101.179 22.429 97.8881 22.2771 95.9135 22.6416C95.5545 22.7023 93.939 23.1883 93.939 23.1883C93.6997 23.1883 92.2038 22.3683 89.5113 22.429C88.4343 22.4594 85.8016 22.7327 85.0537 23.1276Z" fill="#9D9D9E"/>
<path d="M32.1914 4.44805H35.6917L35.7216 1.19824H32.2213L32.1914 4.44805Z" fill="#9D9D9E"/>
<path d="M101.238 22.2767C102.555 22.6715 103.811 22.2767 104.679 21.6388C105.337 21.1833 106.294 20.0899 106.623 19.1787C105.457 19.4217 104.559 19.9076 103.662 20.424C102.914 20.8492 101.508 21.6388 101.238 22.2767Z" fill="#9D9D9E"/>
<path d="M86.6696 22.2463C86.1909 21.3048 82.4214 19.2091 81.3145 19.1787C82.0325 20.5758 83.0796 21.9426 84.6951 22.307C85.1737 22.3981 86.2507 22.4589 86.6696 22.2463Z" fill="#9D9D9E"/>
<path d="M89.302 22.0947C89.5114 21.3354 86.0112 18.3285 85.4727 18.207C85.712 20.4242 86.6693 22.4591 89.302 22.0947Z" fill="#9D9D9E"/>
<path d="M98.5762 22.0642C99.0848 22.1857 99.7429 22.0946 100.222 21.9427C101.628 21.4871 102.376 19.7863 102.435 18.2373C101.987 18.3588 98.7258 21.0315 98.5762 22.0642Z" fill="#9D9D9E"/>
<path d="M104.38 19.5131C106.205 19.3613 108.508 16.2937 108.508 14.5625C107.132 15.2914 104.709 18.1768 104.38 19.5131Z" fill="#9D9D9E"/>
<path d="M83.5279 19.5131C83.2886 18.2375 80.6858 15.2611 79.3994 14.5625C79.4592 15.8989 80.8354 17.9945 81.9423 18.7842C82.3014 19.0272 82.9894 19.5131 83.5279 19.5131Z" fill="#9D9D9E"/>
<path d="M102.734 20.2723C103.452 19.9686 104.17 19.0878 104.469 18.2374C104.828 17.1136 104.619 15.8988 104.29 14.8965C103.572 15.4128 102.226 19.6042 102.734 20.2723Z" fill="#9D9D9E"/>
<path d="M85.2331 20.3027C85.5023 19.6041 84.9937 18.0248 84.8142 17.3566C84.6646 16.8707 84.3356 15.9291 84.0962 15.4736C83.9766 15.2609 83.827 15.1091 83.7372 14.8965C83.5876 15.0483 83.5278 15.3521 83.468 15.595C83.2585 16.4455 83.2585 17.4174 83.4979 18.2374C83.6774 18.7841 83.8868 19.1182 84.186 19.4523C84.6347 19.999 84.9638 20.0597 85.2331 20.3027Z" fill="#9D9D9E"/>
<path d="M106.594 15.4132C106.743 15.4132 106.893 15.2613 107.132 15.0487C107.731 14.5627 108.09 14.1072 108.419 13.3782C108.718 12.6493 109.077 10.8877 108.867 9.97656C108.479 10.1588 107.641 11.9507 107.461 12.4063C107.072 13.196 106.594 14.4109 106.594 15.4132Z" fill="#9D9D9E"/>
<path d="M79.0406 10.5233C79.0406 12.133 79.3398 13.5301 80.3271 14.6235C80.4767 14.8057 81.075 15.3221 81.3442 15.4132C81.3442 14.1375 80.357 11.8596 79.6988 10.7663C79.5492 10.5536 79.4595 10.4018 79.2501 10.1588C79.1603 10.0373 79.1304 9.88546 79.0406 10.0373C79.0107 10.1284 79.0406 10.4018 79.0406 10.5233Z" fill="#9D9D9E"/>
<path d="M81.792 14.8962C81.792 15.6859 82.1211 16.597 82.5399 17.0222C83.1383 16.5059 83.4075 12.5879 82.9288 11.7375L82.8989 11.7071L82.869 11.6768C82.5399 12.0109 82.3006 12.5575 82.1211 13.0435C81.8817 13.6813 81.792 14.1369 81.792 14.8962Z" fill="#9D9D9E"/>
<path d="M105.368 17.0223C105.966 16.4453 106.235 15.1089 106.116 14.1977C105.996 13.4688 105.428 11.8895 104.979 11.6465C104.62 12.6791 104.71 16.2934 105.368 17.0223Z" fill="#9D9D9E"/>
<path d="M107.312 11.404C108.927 9.94613 108.239 6.36223 107.761 5.78516C107.731 5.81553 107.731 5.81553 107.701 5.90664C107.222 6.93929 106.803 10.5839 107.312 11.404Z" fill="#9D9D9E"/>
<path d="M80.5957 11.4039L80.7154 11.1305C80.8051 10.7661 80.8051 10.4016 80.8051 10.0068C80.8051 8.91338 80.6855 6.63547 80.147 5.81543C80.0273 5.96729 79.9675 6.24064 79.9076 6.45324C79.4589 8.03259 79.399 10.2194 80.5957 11.4039Z" fill="#9D9D9E"/>
<path d="M106.594 13.4993C107.103 12.8007 106.923 11.434 106.594 10.6443C106.295 9.97612 105.517 8.82198 105.038 8.60938C104.978 10.4317 105.786 12.3148 106.594 13.4993Z" fill="#9D9D9E"/>
<path d="M81.3444 13.4688C81.3744 13.4384 81.3744 13.4384 81.4342 13.3777C82.2719 12.2843 82.93 9.94565 82.9001 8.63965C82.6309 8.73076 82.212 9.24709 82.0325 9.49007C81.7932 9.82416 81.5838 10.1582 81.3744 10.5835C81.0453 11.3428 80.8359 12.6791 81.3444 13.4688Z" fill="#9D9D9E"/>
<path d="M81.3145 9.52024C81.8829 9.06466 82.3915 8.45722 82.8402 7.69792C83.1693 7.1816 83.7976 6.08821 83.8873 5.38965C82.3616 6.05783 81.0452 7.60681 81.3145 9.52024Z" fill="#9D9D9E"/>
<path d="M106.594 9.52034C106.774 8.42695 106.444 7.48542 105.936 6.84761C105.577 6.36166 104.59 5.48086 104.081 5.35938C104.32 6.14905 104.679 7.02984 105.098 7.66765C105.697 8.60919 105.876 8.82179 106.594 9.52034Z" fill="#9D9D9E"/>
<path d="M106.863 7.2428C107.102 6.90871 107.042 6.30127 106.953 5.93681C106.743 4.9649 105.606 3.4463 104.948 3.14258C104.948 4.72192 106.055 6.72648 106.863 7.2428Z" fill="#9D9D9E"/>
<path d="M81.0447 7.243C81.8823 6.96965 82.9892 4.17542 82.9593 3.08203C82.8397 3.29464 82.0917 3.81096 81.4934 4.75249C81.1643 5.26882 80.6258 6.4837 81.0447 7.243Z" fill="#9D9D9E"/>
<path d="M5.08587 40.3174V39.1329C4.48753 40.0137 3.64986 40.4693 2.63269 40.4693C2.15402 40.4693 1.73518 40.3782 1.34626 40.1959C0.95734 40.0137 0.658171 39.8011 0.478669 39.5278C0.269251 39.2544 0.149585 38.9203 0.0897515 38.5255C0.0299178 38.2825 0 37.8573 0 37.2802V32.3903H1.31634V36.7639C1.31634 37.4625 1.34626 37.9484 1.40609 38.1914C1.49584 38.5559 1.67534 38.8292 1.9446 39.0114C2.21385 39.224 2.54293 39.3152 2.93185 39.3152C3.32077 39.3152 3.70969 39.1937 4.03878 39.0114C4.39778 38.7988 4.63712 38.5255 4.7867 38.161C4.93628 37.7966 4.99612 37.2802 4.99612 36.6121V32.3903H6.31246V40.3174H5.08587ZM8.37672 40.3174V32.3903H9.5734V33.5141C10.1418 32.6637 10.9795 32.2081 12.0565 32.2081C12.5352 32.2081 12.954 32.2992 13.3429 32.4815C13.7318 32.6333 14.031 32.8763 14.2105 33.1496C14.4199 33.423 14.5396 33.7571 14.6293 34.1215C14.6892 34.3645 14.7191 34.8201 14.7191 35.4275V40.2871H13.4028V35.4883C13.4028 34.9416 13.3728 34.5164 13.2532 34.2734C13.1634 34.0001 12.9839 33.7874 12.7147 33.6356C12.4454 33.4837 12.1462 33.3926 11.7872 33.3926C11.2188 33.3926 10.7402 33.5748 10.3213 33.9393C9.90248 34.3038 9.72298 35.0023 9.72298 36.0046V40.3174H8.37672ZM16.7235 30.9021V29.3531H18.0399V30.9021H16.7235ZM16.7235 40.3174V32.3903H18.0399V40.3174H16.7235ZM22.9462 39.1026L23.1257 40.2871C22.7667 40.3782 22.4077 40.4086 22.1385 40.4086C21.6598 40.4086 21.3008 40.3174 21.0316 40.1656C20.7623 40.0137 20.5828 39.8011 20.4631 39.5581C20.3435 39.3152 20.3136 38.7685 20.3136 37.9788V33.423H19.3263V32.3903H20.3136V30.4162L21.6299 29.5961V32.36H22.9462V33.3926H21.6299V38.0395C21.6299 38.4344 21.6598 38.6774 21.6897 38.7685C21.7197 38.89 21.8094 38.9811 21.9291 39.0418C22.0487 39.1026 22.1684 39.1329 22.3778 39.1329C22.5274 39.1633 22.7069 39.1329 22.9462 39.1026ZM29.5878 37.7358L30.964 37.918C30.7545 38.7381 30.3656 39.3455 29.7673 39.8011C29.1989 40.2567 28.4509 40.4693 27.5534 40.4693C26.4166 40.4693 25.5191 40.1048 24.831 39.4063C24.1728 38.7077 23.8437 37.7054 23.8437 36.3994C23.8437 35.0631 24.1728 34.0304 24.8609 33.3015C25.549 32.5726 26.4166 32.2081 27.4936 32.2081C28.5407 32.2081 29.3784 32.5726 30.0365 33.3015C30.6947 34.0304 31.0238 35.0327 31.0238 36.3387C31.0238 36.4298 31.0238 36.5513 31.0238 36.7032H25.2199C25.2798 37.584 25.5191 38.2521 25.9379 38.7077C26.3867 39.1633 26.9252 39.4063 27.5834 39.4063C28.062 39.4063 28.4809 39.2848 28.8099 39.0114C29.1091 38.7381 29.3784 38.3129 29.5878 37.7358ZM25.2498 35.6098H29.6177C29.5579 34.9416 29.3784 34.4253 29.1091 34.1215C28.6903 33.6052 28.1518 33.3622 27.4637 33.3622C26.8653 33.3622 26.3568 33.5748 25.9379 33.9697C25.5191 34.3341 25.2798 34.9112 25.2498 35.6098ZM37.0969 40.3174V33.423H35.9302V32.3903H37.0969V31.5399C37.0969 30.9932 37.1268 30.5984 37.2465 30.3554C37.3662 29.9909 37.6055 29.7176 37.9047 29.505C38.2338 29.2924 38.6825 29.1709 39.2509 29.1709C39.6099 29.1709 40.0288 29.2013 40.4775 29.2924L40.2681 30.4769C39.9989 30.4465 39.7296 30.4162 39.4903 30.4162C39.1013 30.4162 38.8022 30.5073 38.6526 30.6591C38.503 30.8414 38.4133 31.1451 38.4133 31.631V32.36H39.939V33.3926H38.4432V40.2871H37.0969V40.3174ZM40.4775 36.3387C40.4775 34.8808 40.8664 33.7874 41.6742 33.0889C42.3623 32.5118 43.17 32.2081 44.1274 32.2081C45.2044 32.2081 46.072 32.5726 46.7601 33.2711C47.4482 33.9697 47.7772 34.972 47.7772 36.2172C47.7772 37.2195 47.6277 38.0395 47.3285 38.6166C47.0293 39.1937 46.5806 39.6493 46.0121 39.9833C45.4437 40.3174 44.8155 40.4693 44.1274 40.4693C43.0205 40.4693 42.1529 40.1048 41.4648 39.4063C40.8066 38.7077 40.4775 37.6751 40.4775 36.3387ZM41.8238 36.3387C41.8238 37.341 42.0332 38.1003 42.482 38.6166C42.9307 39.1026 43.4692 39.3759 44.1274 39.3759C44.7856 39.3759 45.3241 39.1329 45.7728 38.6166C46.2216 38.1003 46.431 37.341 46.431 36.3083C46.431 35.3364 46.2216 34.6075 45.7728 34.0912C45.3241 33.5748 44.7856 33.3319 44.1274 33.3319C43.4393 33.3319 42.9008 33.5748 42.482 34.0912C42.0631 34.5771 41.8238 35.3364 41.8238 36.3387ZM49.3329 40.3174V32.3903H50.5296V33.6052C50.8288 33.0282 51.1279 32.6637 51.3673 32.5118C51.6365 32.3296 51.9058 32.2385 52.2049 32.2385C52.6537 32.2385 53.1024 32.3903 53.5512 32.6637L53.0725 33.9089C52.7434 33.7267 52.4443 33.6356 52.1152 33.6356C51.816 33.6356 51.5468 33.7267 51.3374 33.9089C51.098 34.0912 50.9484 34.3341 50.8587 34.6379C50.7091 35.1238 50.6194 35.6401 50.6194 36.2172V40.3478H49.3329V40.3174ZM63.6332 37.4017L64.9196 37.584C64.77 38.4647 64.411 39.1937 63.8426 39.71C63.2443 40.2263 62.5263 40.4693 61.6886 40.4693C60.6415 40.4693 59.7739 40.1048 59.1157 39.4063C58.4875 38.7077 58.1584 37.6751 58.1584 36.3691C58.1584 35.5187 58.308 34.7594 58.5772 34.1215C58.8465 33.4837 59.2653 32.9978 59.8337 32.6941C60.4022 32.36 61.0304 32.2081 61.6886 32.2081C62.5263 32.2081 63.2443 32.4207 63.7828 32.8459C64.3213 33.3015 64.6504 33.9089 64.8299 34.6986L63.5434 34.9112C63.4238 34.3949 63.1844 33.9697 62.8853 33.6963C62.5562 33.423 62.1972 33.3015 61.7484 33.3015C61.0902 33.3015 60.5517 33.5445 60.1329 34.0304C59.7141 34.5164 59.5047 35.2757 59.5047 36.3387C59.5047 37.4017 59.7141 38.161 60.103 38.647C60.4919 39.1329 61.0304 39.3759 61.6587 39.3759C62.1673 39.3759 62.616 39.224 62.9451 38.89C63.3041 38.5559 63.5434 38.0699 63.6332 37.4017ZM66.0564 40.3174V29.3835H67.3728V33.3319C68.001 32.6029 68.7789 32.2385 69.7063 32.2385C70.2747 32.2385 70.7833 32.36 71.2021 32.6029C71.621 32.8459 71.9202 33.1496 72.0997 33.5445C72.2792 33.9393 72.3689 34.5467 72.3689 35.3364V40.3478H71.0526V35.3364C71.0526 34.6682 70.903 34.1823 70.6038 33.8786C70.3346 33.5748 69.9157 33.423 69.4071 33.423C69.0182 33.423 68.6592 33.5445 68.3002 33.7267C67.9412 33.9393 67.7019 34.2127 67.5523 34.5771C67.4027 34.9416 67.3429 35.4275 67.3429 36.035V40.3478H66.0564V40.3174ZM74.4033 30.9021V29.3531H75.7196V30.9021H74.4033ZM74.4033 40.3174V32.3903H75.7196V40.3174H74.4033ZM77.724 40.3174V29.3835H79.0404V40.3174H77.724ZM86.1307 40.3174V39.3152C85.652 40.0745 84.9041 40.4997 83.9467 40.4997C83.3185 40.4997 82.7501 40.3174 82.2415 39.9833C81.7329 39.6493 81.314 39.1633 81.0149 38.5255C80.7456 37.918 80.596 37.1891 80.596 36.3691C80.596 35.5794 80.7157 34.8808 80.985 34.2127C81.2542 33.5748 81.6132 33.0889 82.1517 32.7548C82.6603 32.4207 83.2587 32.2385 83.8869 32.2385C84.3656 32.2385 84.7545 32.36 85.1434 32.5422C85.5024 32.7548 85.8016 32.9978 86.0409 33.3319V29.3835H87.3573V40.3174H86.1307ZM81.9423 36.3691C81.9423 37.3713 82.1517 38.1306 82.5706 38.647C82.9894 39.1633 83.498 39.4063 84.0664 39.4063C84.6348 39.4063 85.1434 39.1633 85.5323 38.6773C85.9512 38.1914 86.1307 37.4625 86.1307 36.4906C86.1307 35.3972 85.9212 34.6075 85.5024 34.1215C85.1135 33.6052 84.575 33.3622 83.9767 33.3622C83.3783 33.3622 82.8996 33.6052 82.5107 34.0912C82.1517 34.5467 81.9423 35.306 81.9423 36.3691ZM89.4514 40.3174V32.3903H90.6481V33.6052C90.9473 33.0282 91.2165 32.6637 91.4858 32.5118C91.755 32.3296 92.0243 32.2385 92.3235 32.2385C92.7722 32.2385 93.221 32.3903 93.6697 32.6637L93.1911 33.9089C92.862 33.7267 92.5628 33.6356 92.2337 33.6356C91.9645 33.6356 91.6952 33.7267 91.4559 33.9089C91.2165 34.0912 91.067 34.3341 90.9772 34.6379C90.8276 35.1238 90.7678 35.6401 90.7678 36.2172V40.3478H89.4514V40.3174ZM99.8027 37.7358L101.179 37.918C100.969 38.7381 100.551 39.3455 99.9822 39.8011C99.4138 40.2567 98.6658 40.4693 97.7384 40.4693C96.6016 40.4693 95.7041 40.1048 95.0459 39.4063C94.3578 38.7077 94.0586 37.7054 94.0586 36.3994C94.0586 35.0631 94.3877 34.0304 95.0758 33.3015C95.7639 32.5726 96.6315 32.2081 97.7085 32.2081C98.7556 32.2081 99.5933 32.5726 100.251 33.3015C100.91 34.0304 101.239 35.0327 101.239 36.3387C101.239 36.4298 101.239 36.5513 101.239 36.7032H95.4348C95.4947 37.584 95.734 38.2521 96.1528 38.7077C96.6016 39.1633 97.1401 39.4063 97.7683 39.4063C98.247 39.4063 98.6658 39.2848 98.9949 39.0114C99.324 38.7381 99.5933 38.3129 99.8027 37.7358ZM95.4647 35.6098H99.8027C99.7429 34.9416 99.5933 34.4253 99.2941 34.1215C98.8753 33.6052 98.3368 33.3622 97.6487 33.3622C97.0503 33.3622 96.5417 33.5748 96.1229 33.9697C95.734 34.3341 95.4947 34.9112 95.4647 35.6098ZM102.824 40.3174V32.3903H104.021V33.5141C104.589 32.6637 105.427 32.2081 106.504 32.2081C106.983 32.2081 107.402 32.2992 107.79 32.4815C108.179 32.6333 108.479 32.8763 108.658 33.1496C108.867 33.423 108.987 33.7571 109.077 34.1215C109.107 34.3645 109.167 34.8201 109.167 35.4275V40.2871H107.85V35.4883C107.85 34.9416 107.79 34.5164 107.701 34.2734C107.611 34.0001 107.431 33.7874 107.162 33.6356C106.893 33.4837 106.594 33.3926 106.235 33.3926C105.666 33.3926 105.188 33.5748 104.799 33.9393C104.38 34.3038 104.2 35.0023 104.2 36.0046V40.3174H102.824Z" fill="#9D9D9E"/>
</g>
<defs>
<clipPath id="clip0_11758_49698">
<rect width="109.167" height="40" fill="white" transform="translate(0 0.5)"/>
</clipPath>
</defs>
</svg>
