<svg width="40" height="40" viewBox="0 0 40 40" fill="none" xmlns="http://www.w3.org/2000/svg">
<rect width="40" height="40" rx="8" fill="#1A1A1C"/>
<path d="M29.8175 16.5188L28.4634 14.9389C28.441 14.9127 28.4436 14.8735 28.4693 14.8505C29.8628 13.6037 31.2309 12.3384 32.6019 10.1006C33.2541 9.03592 32.6582 8.61387 31.6583 8.76975C29.1299 9.16391 27.1707 10.5957 25.9106 11.5286C25.8832 11.5489 25.8451 11.5435 25.8239 11.5168L24.4527 9.79382C24.4113 9.74177 24.3367 9.73068 24.2819 9.76844L15.9082 15.5426C15.8945 15.552 15.8777 15.5557 15.8614 15.5528L9.03972 14.3643C9.02218 14.3612 9.00415 14.3657 8.99008 14.3766L7.16961 15.7888C7.14419 15.8086 7.13761 15.8442 7.15432 15.8717L8.70594 18.4249C8.72549 18.4571 8.76867 18.4652 8.79854 18.4422L9.89525 17.6001C9.92669 17.5759 9.97232 17.5863 9.99023 17.6217L10.0697 17.7786C10.0821 17.8031 10.0773 17.8329 10.0577 17.8522L9.04719 18.8499C9.0266 18.8702 9.02243 18.902 9.03707 18.9269L10.4688 21.3686C10.484 21.3945 10.4789 21.4276 10.4565 21.4477L9.06219 22.6992C9.03507 22.7235 9.03407 22.7657 9.06 22.7913L9.50577 23.2314C9.53086 23.2562 9.53086 23.2967 9.50577 23.3214L8.52134 24.2934C8.49521 24.3192 8.49646 24.3617 8.52406 24.3859L9.63676 25.3625C9.66373 25.3861 9.66563 25.4275 9.64094 25.4535L7.7104 27.4902C7.68671 27.5152 7.68736 27.5546 7.71187 27.5788L7.80255 27.6683L10.2289 25.8051C10.0492 26.0713 9.95576 26.7367 10.495 27.2691C11.134 27.9 12.0885 27.8905 12.5016 27.8047C12.5119 27.8025 12.5211 27.7978 12.5291 27.7909L13.5775 26.8852C13.589 26.8753 13.6037 26.8698 13.6189 26.8698L14.3781 26.8698C14.3948 26.8698 14.4107 26.8764 14.4226 26.888L16.3881 28.8286C16.41 28.8503 16.4444 28.853 16.4694 28.835L17.8489 27.8445C17.8804 27.8219 17.9247 27.8327 17.9422 27.8673L18.0203 28.0214C18.0339 28.0483 18.0267 28.081 18.0031 28.0997L16.7536 29.0866C16.7232 29.1106 16.7213 29.1561 16.7497 29.1825L18.9449 31.2224C18.9689 31.2447 19.0059 31.245 19.0302 31.2231L20.4522 29.9468C20.4637 29.9365 20.471 29.9224 20.4728 29.9071L21.2756 23.0374C21.2777 23.0201 21.2868 23.0043 21.3008 22.9939L29.7967 16.7028C29.8557 16.6591 29.8653 16.5746 29.8175 16.5188Z" fill="#4B4B4B" stroke="white" stroke-opacity="0.3" stroke-width="0.0189803" stroke-linecap="round" stroke-linejoin="round"/>
</svg>
