<svg width="450" height="232" viewBox="0 0 450 232" fill="none" xmlns="http://www.w3.org/2000/svg">
<g opacity="0.2">
<mask id="path-1-inside-1_16039_31937" fill="white">
<path fill-rule="evenodd" clip-rule="evenodd" d="M101.068 169.012C95.0199 158.574 87.2615 149.349 77.9399 141.65L467.05 141.65L467.05 91.0346L77.8143 91.0346C87.1901 83.3133 94.9921 74.0501 101.068 63.5632C111.072 46.3289 116.405 25.7811 116.405 3.35813C116.405 2.4324 116.392 1.50665 116.368 0.580912L57.9876 0.580915C58.0124 1.49435 58.0244 2.4201 58.0244 3.35814C58.0244 36.512 44.6003 57.7046 17.948 63.6488C12.848 64.7935 7.26994 65.3782 1.20144 65.3782C0.796869 65.3782 0.404564 65.3782 -2.26326e-06 65.3659L-1.88627e-08 116.278C0.000201745 116.278 0.000403513 116.278 0.000605284 116.278L0.000605285 116.303L-5.05728e-06 116.303L-2.83207e-06 167.21C0.404563 167.198 0.796868 167.198 1.20144 167.198C7.26994 167.198 12.848 167.782 17.948 168.927C44.6003 174.87 58.0244 196.073 58.0244 229.211C58.0244 230.149 58.0124 231.087 57.9876 232L116.368 232C116.392 231.074 116.405 230.149 116.405 229.211C116.405 206.79 111.072 186.245 101.068 169.012Z"/>
</mask>
<path d="M77.9399 141.65L77.9399 140.65L75.1589 140.65L77.3031 142.421L77.9399 141.65ZM101.068 169.012L100.203 169.513L100.203 169.514L101.068 169.012ZM467.05 141.65L467.05 142.65L468.05 142.65L468.05 141.65L467.05 141.65ZM467.05 91.0346L468.05 91.0346L468.05 90.0346L467.05 90.0346L467.05 91.0346ZM77.8143 91.0346L77.1786 90.2626L75.027 92.0346L77.8143 92.0346L77.8143 91.0346ZM101.068 63.5632L100.203 63.0611L100.203 63.0618L101.068 63.5632ZM116.368 0.580912L117.368 0.554637L117.342 -0.419088L116.368 -0.419088L116.368 0.580912ZM57.9876 0.580915L57.9876 -0.419085L56.9601 -0.419085L56.988 0.60806L57.9876 0.580915ZM17.948 63.6488L17.7303 62.6727L17.729 62.673L17.948 63.6488ZM-2.26326e-06 65.3659L0.0303831 64.3664L-1 64.335L-1 65.3659L-2.26326e-06 65.3659ZM-1.88627e-08 116.278L-1 116.278L-1 117.278L2.48487e-08 117.278L-1.88627e-08 116.278ZM0.000605284 116.278L1.00061 116.278L1.00061 115.278L0.00060524 115.278L0.000605284 116.278ZM0.000605285 116.303L0.0255979 117.302L1.00061 117.278L1.00061 116.303L0.000605285 116.303ZM-5.05728e-06 116.303L-0.0249977 115.303L-1.00001 115.328L-1.00001 116.303L-5.05728e-06 116.303ZM-2.83207e-06 167.21L-1 167.21L-1 168.241L0.0303826 168.209L-2.83207e-06 167.21ZM17.948 168.927L17.729 169.903L17.7304 169.903L17.948 168.927ZM57.9876 232L56.988 231.973L56.9601 233L57.9876 233L57.9876 232ZM116.368 232L116.368 233L117.342 233L117.368 232.026L116.368 232ZM77.3031 142.421C86.5313 150.043 94.213 159.176 100.203 169.513L101.933 168.511C95.8267 157.972 87.9916 148.655 78.5768 140.879L77.3031 142.421ZM467.05 140.65L77.9399 140.65L77.9399 142.65L467.05 142.65L467.05 140.65ZM466.05 91.0346L466.05 141.65L468.05 141.65L468.05 91.0346L466.05 91.0346ZM77.8143 92.0346L467.05 92.0346L467.05 90.0346L77.8143 90.0346L77.8143 92.0346ZM100.203 63.0618C94.1855 73.4476 86.4606 82.6186 77.1786 90.2626L78.45 91.8065C87.9196 84.008 95.7987 74.6526 101.933 64.0645L100.203 63.0618ZM115.405 3.35813C115.405 25.6223 110.11 45.9939 100.203 63.0611L101.933 64.0652C112.034 46.664 117.405 25.9399 117.405 3.35813L115.405 3.35813ZM115.368 0.607188C115.392 1.52433 115.405 2.44132 115.405 3.35813L117.405 3.35813C117.405 2.42347 117.392 1.48896 117.368 0.554637L115.368 0.607188ZM57.9876 1.58091L116.368 1.58091L116.368 -0.419088L57.9876 -0.419085L57.9876 1.58091ZM59.0244 3.35814C59.0244 2.41165 59.0123 1.47682 58.9873 0.553769L56.988 0.60806C57.0126 1.51188 57.0244 2.42856 57.0244 3.35814L59.0244 3.35814ZM18.1657 64.6248C31.7224 61.6013 41.9739 54.6778 48.8167 44.2559C55.6444 33.8571 59.0244 20.0596 59.0244 3.35814L57.0244 3.35814C57.0244 19.8105 53.6923 33.1862 47.1449 43.1582C40.6126 53.1072 30.8259 59.7521 17.7303 62.6728L18.1657 64.6248ZM1.20144 66.3782C7.33377 66.3782 12.9861 65.7874 18.167 64.6245L17.729 62.673C12.7099 63.7997 7.20612 64.3782 1.20144 64.3782L1.20144 66.3782ZM-0.0303877 66.3654C0.391819 66.3783 0.799165 66.3782 1.20144 66.3782L1.20144 64.3782C0.794573 64.3782 0.417308 64.3781 0.0303831 64.3664L-0.0303877 66.3654ZM1 116.278L0.999998 65.3659L-1 65.3659L-1 116.278L1 116.278ZM0.00060524 115.278C0.0128967 115.278 0.0228215 115.278 0.0288019 115.279C0.034258 115.279 0.0389262 115.279 0.0380884 115.279C0.0380883 115.279 0.0380667 115.279 0.0380421 115.279C0.0380154 115.279 0.0379734 115.279 0.0379221 115.279C0.0378216 115.279 0.0376598 115.279 0.037461 115.279C0.0370718 115.279 0.0364368 115.279 0.0356543 115.279C0.0341223 115.279 0.0316064 115.279 0.0284997 115.279C0.0224185 115.278 0.0123926 115.278 -6.2574e-08 115.278L2.48487e-08 117.278C-0.0122918 117.278 -0.0222168 117.278 -0.0281971 117.278C-0.0336531 117.278 -0.0383212 117.277 -0.0374831 117.277C-0.037483 117.277 -0.0374614 117.277 -0.0374368 117.277C-0.0374101 117.277 -0.037368 117.277 -0.0373168 117.277C-0.0372163 117.277 -0.0370544 117.277 -0.0368556 117.277C-0.0364663 117.277 -0.0358313 117.277 -0.0350488 117.277C-0.0335167 117.278 -0.0310007 117.278 -0.027894 117.278C-0.0218127 117.278 -0.011787 117.278 0.000605327 117.278L0.00060524 115.278ZM1.00061 116.303L1.00061 116.278L-0.999395 116.278L-0.999395 116.303L1.00061 116.303ZM0.0249876 117.303L0.0255979 117.302L-0.0243873 115.303L-0.0249977 115.303L0.0249876 117.303ZM0.999997 167.21L0.999995 116.303L-1.00001 116.303L-1 167.21L0.999997 167.21ZM1.20144 166.198C0.799164 166.198 0.391818 166.197 -0.0303883 166.21L0.0303826 168.209C0.417308 168.198 0.794572 168.198 1.20144 168.198L1.20144 166.198ZM18.167 167.951C12.9861 166.788 7.33377 166.198 1.20144 166.198L1.20144 168.198C7.20612 168.198 12.7099 168.776 17.729 169.903L18.167 167.951ZM59.0244 229.211C59.0244 212.517 55.6444 198.721 48.8167 188.322C41.974 177.9 31.7226 170.974 18.1657 167.951L17.7304 169.903C30.8258 172.823 40.6125 179.47 47.1449 189.42C53.6924 199.392 57.0244 212.767 57.0244 229.211L59.0244 229.211ZM58.9873 232.027C59.0123 231.104 59.0244 230.157 59.0244 229.211L57.0244 229.211C57.0244 230.141 57.0126 231.069 56.988 231.973L58.9873 232.027ZM116.368 231L57.9876 231L57.9876 233L116.368 233L116.368 231ZM115.405 229.211C115.405 230.14 115.392 231.057 115.368 231.974L117.368 232.026C117.392 231.092 117.405 230.158 117.405 229.211L115.405 229.211ZM100.203 169.514C110.11 186.58 115.405 206.949 115.405 229.211L117.405 229.211C117.405 206.631 112.034 185.91 101.933 168.51L100.203 169.514Z" fill="#CDF765" mask="url(#path-1-inside-1_16039_31937)"/>
</g>
</svg>
