<svg width="418" height="172" viewBox="0 0 418 172" fill="none" xmlns="http://www.w3.org/2000/svg">
<g opacity="0.2">
<mask id="path-1-inside-1_16065_23182" fill="white">
<path fill-rule="evenodd" clip-rule="evenodd" d="M101.068 155.775C95.0198 146.127 87.2613 137.599 77.9396 130.482L467.05 130.482L467.05 83.6942L77.8142 83.6942C87.1901 76.5567 94.9921 67.9941 101.068 58.3001C111.072 42.3691 116.405 23.3751 116.405 2.64778C116.405 1.79205 116.392 0.936305 116.368 0.0805766L57.9876 0.0805791C58.0124 0.924939 58.0244 1.78068 58.0244 2.64778C58.0244 33.2945 44.6003 52.8845 17.948 58.3792C12.848 59.4374 7.26994 59.9779 1.20144 59.9779C0.796868 59.9779 0.404563 59.9779 -3.93549e-06 59.9665L-1.87834e-06 107.029C0.000171049 107.029 0.000343979 107.029 0.000516911 107.029L0.000516912 107.052L-4.67485e-06 107.052L-2.60038e-06 154.109C0.404563 154.098 0.796868 154.098 1.20144 154.098C7.26994 154.098 12.848 154.638 17.948 155.697C44.6003 161.19 58.0244 180.79 58.0244 211.422C58.0244 212.289 58.0124 213.156 57.9876 214L116.368 214C116.392 213.144 116.405 212.289 116.405 211.422C116.405 190.697 111.072 171.705 101.068 155.775Z"/>
</mask>
<path d="M77.9396 130.482L77.9396 129.482L74.982 129.482L77.3328 131.277L77.9396 130.482ZM101.068 155.775L100.221 156.306L100.221 156.307L101.068 155.775ZM467.05 130.482L467.05 131.482L468.05 131.482L468.05 130.482L467.05 130.482ZM467.05 83.6942L468.05 83.6942L468.05 82.6942L467.05 82.6942L467.05 83.6942ZM77.8142 83.6942L77.2085 82.8985L74.8496 84.6942L77.8142 84.6942L77.8142 83.6942ZM101.068 58.3001L100.221 57.7683L100.221 57.769L101.068 58.3001ZM116.368 0.0805766L117.367 0.0521494L117.34 -0.919423L116.368 -0.919423L116.368 0.0805766ZM57.9876 0.0805791L57.9876 -0.919421L56.9578 -0.919421L56.9881 0.109952L57.9876 0.0805791ZM17.948 58.3792L17.7461 57.3998L17.7449 57.4001L17.948 58.3792ZM-3.93549e-06 59.9665L0.0280836 58.9669L-1 58.938L-1 59.9665L-3.93549e-06 59.9665ZM-1.87834e-06 107.029L-1 107.029L-1 108.029L-1.83462e-06 108.029L-1.87834e-06 107.029ZM0.000516911 107.029L1.00052 107.029L1.00052 106.029L0.000516867 106.029L0.000516911 107.029ZM0.000516912 107.052L0.029759 108.051L1.00052 108.023L1.00052 107.052L0.000516912 107.052ZM-4.67485e-06 107.052L-0.0292468 106.052L-1 106.081L-1 107.052L-4.67485e-06 107.052ZM-2.60038e-06 154.109L-1 154.109L-1 155.138L0.0280875 155.109L-2.60038e-06 154.109ZM17.948 155.697L17.7449 156.676L17.7461 156.676L17.948 155.697ZM57.9876 214L56.9881 213.971L56.9578 215L57.9876 215L57.9876 214ZM116.368 214L116.368 215L117.34 215L117.368 214.028L116.368 214ZM77.3328 131.277C86.5599 138.322 94.2368 146.76 100.221 156.306L101.915 155.244C95.8029 145.493 87.9626 136.876 78.5464 129.687L77.3328 131.277ZM467.05 129.482L77.9396 129.482L77.9396 131.482L467.05 131.482L467.05 129.482ZM466.05 83.6942L466.05 130.482L468.05 130.482L468.05 83.6942L466.05 83.6942ZM77.8142 84.6942L467.05 84.6942L467.05 82.6942L77.8142 82.6942L77.8142 84.6942ZM100.221 57.769C94.2093 67.36 86.4894 75.8333 77.2085 82.8985L78.4199 84.4899C87.8907 77.2801 95.7749 68.6281 101.915 58.8311L100.221 57.769ZM115.405 2.64778C115.405 23.2014 110.118 42.0085 100.221 57.7683L101.915 58.8319C112.026 42.7298 117.405 23.5488 117.405 2.64778L115.405 2.64778ZM115.368 0.109004C115.392 0.955439 115.405 1.80171 115.405 2.64778L117.405 2.64778C117.405 1.78239 117.392 0.91717 117.367 0.0521494L115.368 0.109004ZM57.9876 1.08058L116.368 1.08058L116.368 -0.919423L57.9876 -0.919421L57.9876 1.08058ZM59.0244 2.64778C59.0244 1.77153 59.0123 0.905973 58.9872 0.0512059L56.9881 0.109952C57.0126 0.943906 57.0244 1.78984 57.0244 2.64778L59.0244 2.64778ZM18.1499 59.3586C31.6868 56.5678 41.9416 50.1749 48.7961 40.5246C55.6386 30.8913 59.0244 18.1093 59.0244 2.64778L57.0244 2.64778C57.0244 17.833 53.6982 30.1694 47.1655 39.3664C40.645 48.5465 30.8616 54.6959 17.7461 57.3998L18.1499 59.3586ZM1.20144 60.9779C7.32883 60.9779 12.9758 60.4322 18.1512 59.3584L17.7449 57.4001C12.7203 58.4426 7.21106 58.9779 1.20144 58.9779L1.20144 60.9779ZM-0.0280915 60.9661C0.392777 60.9779 0.798972 60.9779 1.20144 60.9779L1.20144 58.9779C0.794765 58.9779 0.41635 58.9778 0.0280836 58.9669L-0.0280915 60.9661ZM0.999998 107.029L0.999996 59.9665L-1 59.9665L-1 107.029L0.999998 107.029ZM0.000516867 106.029C0.0148739 106.029 0.0264681 106.029 0.0334577 106.029C0.0370298 106.029 0.0399127 106.03 0.0416479 106.03C0.0432305 106.03 0.0445839 106.03 0.044333 106.03C0.0443326 106.03 0.0443259 106.03 0.0443183 106.03C0.0443101 106.03 0.0442974 106.03 0.044282 106.03C0.0442519 106.03 0.0442038 106.03 0.044145 106.03C0.0440299 106.03 0.0438431 106.03 0.0436133 106.03C0.0431634 106.03 0.0424269 106.03 0.0415185 106.03C0.0397402 106.029 0.036814 106.029 0.0331987 106.029C0.0261228 106.029 0.0144419 106.029 -1.92205e-06 106.029L-1.83462e-06 108.029C-0.0143592 108.029 -0.0259536 108.028 -0.0329431 108.028C-0.0365151 108.028 -0.039398 108.028 -0.0411331 108.028C-0.0427157 108.028 -0.044069 108.028 -0.043818 108.028C-0.0438176 108.028 -0.0438108 108.028 -0.0438032 108.028C-0.043795 108.028 -0.0437823 108.028 -0.0437669 108.028C-0.0437368 108.028 -0.0436887 108.028 -0.0436299 108.028C-0.0435147 108.028 -0.0433279 108.028 -0.0430981 108.028C-0.0426482 108.028 -0.0419116 108.028 -0.0410032 108.028C-0.0392247 108.028 -0.0362986 108.028 -0.0326833 108.028C-0.0256072 108.028 -0.0139265 108.029 0.000516955 108.029L0.000516867 106.029ZM1.00052 107.052L1.00052 107.029L-0.999483 107.029L-0.999483 107.052L1.00052 107.052ZM0.0292374 108.051L0.029759 108.051L-0.0287252 106.052L-0.0292468 106.052L0.0292374 108.051ZM0.999997 154.109L0.999995 107.052L-1 107.052L-1 154.109L0.999997 154.109ZM1.20144 153.098C0.79899 153.098 0.392781 153.098 -0.0280927 153.11L0.0280875 155.109C0.416345 155.098 0.794747 155.098 1.20144 155.098L1.20144 153.098ZM18.1512 154.717C12.9758 153.644 7.32883 153.098 1.20144 153.098L1.20144 155.098C7.21106 155.098 12.7203 155.633 17.7449 156.676L18.1512 154.717ZM59.0244 211.422C59.0244 195.968 55.6385 183.187 48.7961 173.553C41.9416 163.903 31.6869 157.508 18.1499 154.717L17.7461 156.676C30.8615 159.379 40.6449 165.531 47.1655 174.711C53.6982 183.909 57.0244 196.244 57.0244 211.422L59.0244 211.422ZM58.9872 214.029C59.0123 213.175 59.0244 212.298 59.0244 211.422L57.0244 211.422C57.0244 212.28 57.0126 213.137 56.9881 213.971L58.9872 214.029ZM116.368 213L57.9876 213L57.9876 215L116.368 215L116.368 213ZM115.405 211.422C115.405 212.279 115.392 213.125 115.368 213.972L117.368 214.028C117.392 213.163 117.405 212.298 117.405 211.422L115.405 211.422ZM100.221 156.307C110.118 172.066 115.405 190.87 115.405 211.422L117.405 211.422C117.405 190.523 112.026 171.344 101.915 155.243L100.221 156.307Z" fill="#CDF765" mask="url(#path-1-inside-1_16065_23182)"/>
</g>
</svg>
