<svg width="316" height="232" viewBox="0 0 316 232" fill="none" xmlns="http://www.w3.org/2000/svg">
<g opacity="0.2">
<mask id="path-1-inside-1_16065_23140" fill="white">
<path fill-rule="evenodd" clip-rule="evenodd" d="M101.068 168.512C95.0199 158.074 87.2615 148.849 77.9399 141.15L467.05 141.15L467.05 90.5346L77.8143 90.5346C87.1901 82.8133 94.9921 73.5501 101.068 63.0632C111.072 45.8289 116.405 25.2811 116.405 2.85813C116.405 1.9324 116.392 1.00665 116.368 0.0809123L57.9876 0.0809148C58.0124 0.994352 58.0244 1.9201 58.0244 2.85814C58.0244 36.012 44.6003 57.2046 17.948 63.1488C12.848 64.2935 7.26994 64.8782 1.20144 64.8782C0.796869 64.8782 0.404564 64.8782 -2.26326e-06 64.8659L-1.88627e-08 115.778C0.000201745 115.778 0.000403513 115.778 0.000605284 115.778L0.000605285 115.803L-5.05728e-06 115.803L-2.83207e-06 166.71C0.404563 166.698 0.796868 166.698 1.20144 166.698C7.26994 166.698 12.848 167.282 17.948 168.427C44.6003 174.37 58.0244 195.573 58.0244 228.711C58.0244 229.649 58.0124 230.587 57.9876 231.5L116.368 231.5C116.392 230.574 116.405 229.649 116.405 228.711C116.405 206.29 111.072 185.745 101.068 168.512Z"/>
</mask>
<path d="M77.9399 141.15L77.9399 140.15L75.1589 140.15L77.3031 141.921L77.9399 141.15ZM101.068 168.512L100.203 169.013L100.203 169.014L101.068 168.512ZM467.05 141.15L467.05 142.15L468.05 142.15L468.05 141.15L467.05 141.15ZM467.05 90.5346L468.05 90.5346L468.05 89.5346L467.05 89.5346L467.05 90.5346ZM77.8143 90.5346L77.1786 89.7626L75.027 91.5346L77.8143 91.5346L77.8143 90.5346ZM101.068 63.0632L100.203 62.5611L100.203 62.5618L101.068 63.0632ZM116.368 0.0809123L117.368 0.0546366L117.342 -0.919088L116.368 -0.919088L116.368 0.0809123ZM57.9876 0.0809148L57.9876 -0.919085L56.9601 -0.919085L56.988 0.10806L57.9876 0.0809148ZM17.948 63.1488L17.7303 62.1727L17.729 62.173L17.948 63.1488ZM-2.26326e-06 64.8659L0.0303831 63.8664L-1 63.835L-1 64.8659L-2.26326e-06 64.8659ZM-1.88627e-08 115.778L-1 115.778L-1 116.778L2.48487e-08 116.778L-1.88627e-08 115.778ZM0.000605284 115.778L1.00061 115.778L1.00061 114.778L0.00060524 114.778L0.000605284 115.778ZM0.000605285 115.803L0.0255979 116.802L1.00061 116.778L1.00061 115.803L0.000605285 115.803ZM-5.05728e-06 115.803L-0.0249977 114.803L-1.00001 114.828L-1.00001 115.803L-5.05728e-06 115.803ZM-2.83207e-06 166.71L-1 166.71L-1 167.741L0.0303826 167.709L-2.83207e-06 166.71ZM17.948 168.427L17.729 169.403L17.7304 169.403L17.948 168.427ZM57.9876 231.5L56.988 231.473L56.9601 232.5L57.9876 232.5L57.9876 231.5ZM116.368 231.5L116.368 232.5L117.342 232.5L117.368 231.526L116.368 231.5ZM77.3031 141.921C86.5313 149.543 94.213 158.676 100.203 169.013L101.933 168.011C95.8267 157.472 87.9916 148.155 78.5768 140.379L77.3031 141.921ZM467.05 140.15L77.9399 140.15L77.9399 142.15L467.05 142.15L467.05 140.15ZM466.05 90.5346L466.05 141.15L468.05 141.15L468.05 90.5346L466.05 90.5346ZM77.8143 91.5346L467.05 91.5346L467.05 89.5346L77.8143 89.5346L77.8143 91.5346ZM100.203 62.5618C94.1855 72.9476 86.4606 82.1186 77.1786 89.7626L78.45 91.3065C87.9196 83.508 95.7987 74.1526 101.933 63.5645L100.203 62.5618ZM115.405 2.85813C115.405 25.1223 110.11 45.4939 100.203 62.5611L101.933 63.5652C112.034 46.164 117.405 25.4399 117.405 2.85813L115.405 2.85813ZM115.368 0.107188C115.392 1.02433 115.405 1.94132 115.405 2.85813L117.405 2.85813C117.405 1.92347 117.392 0.988963 117.368 0.0546366L115.368 0.107188ZM57.9876 1.08091L116.368 1.08091L116.368 -0.919088L57.9876 -0.919085L57.9876 1.08091ZM59.0244 2.85814C59.0244 1.91165 59.0123 0.976819 58.9873 0.0537694L56.988 0.10806C57.0126 1.01188 57.0244 1.92856 57.0244 2.85814L59.0244 2.85814ZM18.1657 64.1248C31.7224 61.1013 41.9739 54.1778 48.8167 43.7559C55.6444 33.3571 59.0244 19.5596 59.0244 2.85814L57.0244 2.85814C57.0244 19.3105 53.6923 32.6862 47.1449 42.6582C40.6126 52.6072 30.8259 59.2521 17.7303 62.1728L18.1657 64.1248ZM1.20144 65.8782C7.33377 65.8782 12.9861 65.2874 18.167 64.1245L17.729 62.173C12.7099 63.2997 7.20612 63.8782 1.20144 63.8782L1.20144 65.8782ZM-0.0303877 65.8654C0.391819 65.8783 0.799165 65.8782 1.20144 65.8782L1.20144 63.8782C0.794573 63.8782 0.417308 63.8781 0.0303831 63.8664L-0.0303877 65.8654ZM1 115.778L0.999998 64.8659L-1 64.8659L-1 115.778L1 115.778ZM0.00060524 114.778C0.0128967 114.778 0.0228215 114.778 0.0288019 114.779C0.034258 114.779 0.0389262 114.779 0.0380884 114.779C0.0380883 114.779 0.0380667 114.779 0.0380421 114.779C0.0380154 114.779 0.0379734 114.779 0.0379221 114.779C0.0378216 114.779 0.0376598 114.779 0.037461 114.779C0.0370718 114.779 0.0364368 114.779 0.0356543 114.779C0.0341223 114.779 0.0316064 114.779 0.0284997 114.779C0.0224185 114.778 0.0123926 114.778 -6.2574e-08 114.778L2.48487e-08 116.778C-0.0122918 116.778 -0.0222168 116.778 -0.0281971 116.778C-0.0336531 116.778 -0.0383212 116.777 -0.0374831 116.777C-0.037483 116.777 -0.0374614 116.777 -0.0374368 116.777C-0.0374101 116.777 -0.037368 116.777 -0.0373168 116.777C-0.0372163 116.777 -0.0370544 116.777 -0.0368556 116.777C-0.0364663 116.777 -0.0358313 116.777 -0.0350488 116.777C-0.0335167 116.778 -0.0310007 116.778 -0.027894 116.778C-0.0218127 116.778 -0.011787 116.778 0.000605327 116.778L0.00060524 114.778ZM1.00061 115.803L1.00061 115.778L-0.999395 115.778L-0.999395 115.803L1.00061 115.803ZM0.0249876 116.803L0.0255979 116.802L-0.0243873 114.803L-0.0249977 114.803L0.0249876 116.803ZM0.999997 166.71L0.999995 115.803L-1.00001 115.803L-1 166.71L0.999997 166.71ZM1.20144 165.698C0.799164 165.698 0.391818 165.697 -0.0303883 165.71L0.0303826 167.709C0.417308 167.698 0.794572 167.698 1.20144 167.698L1.20144 165.698ZM18.167 167.451C12.9861 166.288 7.33377 165.698 1.20144 165.698L1.20144 167.698C7.20612 167.698 12.7099 168.276 17.729 169.403L18.167 167.451ZM59.0244 228.711C59.0244 212.017 55.6444 198.221 48.8167 187.822C41.974 177.4 31.7226 170.474 18.1657 167.451L17.7304 169.403C30.8258 172.323 40.6125 178.97 47.1449 188.92C53.6924 198.892 57.0244 212.267 57.0244 228.711L59.0244 228.711ZM58.9873 231.527C59.0123 230.604 59.0244 229.657 59.0244 228.711L57.0244 228.711C57.0244 229.641 57.0126 230.569 56.988 231.473L58.9873 231.527ZM116.368 230.5L57.9876 230.5L57.9876 232.5L116.368 232.5L116.368 230.5ZM115.405 228.711C115.405 229.64 115.392 230.557 115.368 231.474L117.368 231.526C117.392 230.592 117.405 229.658 117.405 228.711L115.405 228.711ZM100.203 169.014C110.11 186.08 115.405 206.449 115.405 228.711L117.405 228.711C117.405 206.131 112.034 185.41 101.933 168.01L100.203 169.014Z" fill="#CDF765" mask="url(#path-1-inside-1_16065_23140)"/>
</g>
</svg>
