<svg width="91" height="90" viewBox="0 0 91 90" fill="none" xmlns="http://www.w3.org/2000/svg">
<g clip-path="url(#clip0_2001_1014)">
<path d="M7.72288 70.4369L9.11165 65.8511L5.43329 62.9767L10.102 62.869L11.6221 58.6877L13.2 62.869L17.8153 62.9767L14.1672 65.854L15.478 70.4326L11.6264 67.6877L7.72288 70.4384V70.4369Z" fill="#EDEFEE"/>
<path d="M7.72288 31.3211L9.11165 26.7352L5.43329 23.8609L10.102 23.7532L11.6221 19.5719L13.2 23.7532L17.8153 23.8609L14.1672 26.7381L15.478 31.3167L11.6264 28.5719L7.72288 31.3225V31.3211Z" fill="#EDEFEE"/>
<path d="M2.55491 50.8768L3.94512 46.2909L0.26532 43.418L4.93401 43.3103L6.45415 39.129L8.03203 43.3103L12.6473 43.418L8.99926 46.2953L10.3101 50.8739L6.45848 48.129L2.55491 50.8797V50.8768Z" fill="#EDEFEE"/>
<path d="M80.1729 50.8768L81.5617 46.2909L77.8833 43.4165L82.552 43.3088L84.0721 39.1276L85.65 43.3088L90.2653 43.4165L86.6172 46.2938L87.9281 50.8724L84.0765 48.1276L80.1729 50.8782V50.8768Z" fill="#EDEFEE"/>
<path d="M74.9617 70.4369L76.3505 65.8511L72.6721 62.9767L77.3408 62.869L78.8609 58.6877L80.4388 62.869L85.0541 62.9767L81.4061 65.854L82.7169 70.4326L78.8653 67.6877L74.9617 70.4384V70.4369Z" fill="#EDEFEE"/>
<path d="M74.9617 31.3211L76.3505 26.7352L72.6721 23.8609L77.3408 23.7532L78.8609 19.5719L80.4388 23.7532L85.0541 23.8609L81.4061 26.7381L82.7169 31.3167L78.8653 28.5719L74.9617 31.3225V31.3211Z" fill="#EDEFEE"/>
<path d="M41.3392 11.7492L42.728 7.16332L39.0496 4.28897L43.7183 4.18127L45.2384 0L46.8163 4.18127L51.4316 4.28897L47.7836 7.16623L49.0944 11.7448L45.2428 9L41.3392 11.7506V11.7492Z" fill="#EDEFEE"/>
<path d="M21.9662 84.7607L23.3549 80.1748L19.6766 77.3004L24.3453 77.1927L25.8654 73.0115L27.4433 77.1927L32.0586 77.3004L28.4105 80.1777L29.7213 84.7563L25.8697 82.0115L21.9662 84.7621V84.7607Z" fill="#EDEFEE"/>
<path d="M60.7535 84.7607L62.1423 80.1748L58.4639 77.3004L63.1326 77.1927L64.6528 73.0115L66.2306 77.1927L70.8459 77.3004L67.1979 80.1777L68.5087 84.7563L64.6571 82.0115L60.7535 84.7621V84.7607Z" fill="#EDEFEE"/>
<path d="M21.9662 16.9958L23.3549 12.4099L19.6766 9.53555L24.3453 9.42786L25.8654 5.24658L27.4433 9.42786L32.0586 9.53555L28.4105 12.4128L29.7213 16.9914L25.8697 14.2466L21.9662 16.9972V16.9958Z" fill="#EDEFEE"/>
<path d="M60.7535 16.9958L62.1423 12.4099L58.4639 9.53555L63.1326 9.42786L64.6528 5.24658L66.2306 9.42786L70.8459 9.53555L67.1979 12.4128L68.5087 16.9914L64.6571 14.2466L60.7535 16.9972V16.9958Z" fill="#EDEFEE"/>
<path d="M41.3392 90.0001L42.728 85.4142L39.0496 82.5398L43.7183 82.4321L45.2384 78.2509L46.8163 82.4321L51.4316 82.5398L47.7836 85.4171L49.0944 89.9957L45.2428 87.2509L41.3392 90.0015V90.0001Z" fill="#EDEFEE"/>
<path d="M56.3794 35.2228H55.5681V30.9091C55.5681 25.2637 51.012 20.672 45.4136 20.672H45.236C39.6362 20.672 35.0816 25.2651 35.0816 30.9091V35.2228H34.0912C33.3564 35.2228 32.7617 35.8224 32.7617 36.5632V53.4192C32.7617 54.16 33.3564 54.7596 34.0912 54.7596H56.3808C57.1156 54.7596 57.7104 54.16 57.7104 53.4192V36.5632C57.7104 35.8224 57.1156 35.2228 56.3808 35.2228H56.3794ZM46.3058 45.2226V48.3822C46.3058 48.9789 45.8265 49.4621 45.2346 49.4621C44.6427 49.4621 44.1634 48.9789 44.1634 48.3822V45.2226C43.4315 44.834 42.932 44.0627 42.932 43.1705C42.932 41.8884 43.9628 40.8492 45.2346 40.8492C46.5064 40.8492 47.5372 41.8884 47.5372 43.1705C47.5372 44.0627 47.0377 44.834 46.3058 45.2226ZM52.8483 35.2228H37.7999V30.9091C37.7999 26.7758 41.1347 23.4139 45.2346 23.4139H45.4122C49.5121 23.4139 52.8468 26.7758 52.8468 30.9091V35.2228H52.8483Z" fill="#EDEFEE"/>
<path d="M31.7812 64.7974V63.0146H35.7353V67.2133C35.3369 67.6587 34.7724 68.0429 34.0419 68.3631C33.3115 68.6847 32.5781 68.8448 31.8418 68.8448C30.9454 68.8448 30.1528 68.6352 29.4685 68.2161C28.7828 67.7969 28.24 67.1682 27.8401 66.3328C27.4388 65.496 27.2396 64.5122 27.2396 63.3814C27.2396 62.2505 27.4431 61.2289 27.8488 60.4051C28.2544 59.5799 28.7814 58.9643 29.4281 58.5568C30.0748 58.1493 30.8501 57.9456 31.7523 57.9456C32.8365 57.9456 33.7041 58.2075 34.3566 58.7329C35.0092 59.2583 35.4293 60.0282 35.6155 61.044L33.8008 61.4399C33.6651 60.8985 33.4154 60.4837 33.053 60.1956C32.6907 59.9074 32.2562 59.7648 31.7523 59.7648C30.9713 59.7648 30.339 60.0529 29.8554 60.6307C29.3718 61.2085 29.1293 62.089 29.1293 63.2737C29.1293 64.5442 29.3906 65.5091 29.916 66.1713C30.365 66.7418 30.9713 67.0271 31.7379 67.0271C32.0959 67.0271 32.4669 66.947 32.8538 66.7869C33.2393 66.6268 33.5829 66.4085 33.886 66.1306V64.7974H31.7841H31.7812Z" fill="#EDEFEE"/>
<path d="M37.4212 58.1261H40.7675C41.6135 58.1261 42.2516 58.2163 42.6818 58.3953C43.112 58.5743 43.509 58.8785 43.8713 59.3049C44.2337 59.7314 44.5181 60.2859 44.7245 60.9655C44.9309 61.6466 45.0349 62.4922 45.0349 63.5037C45.0349 64.4147 44.9266 65.2065 44.7101 65.8803C44.4935 66.5541 44.2192 67.0868 43.8872 67.4797C43.5552 67.8727 43.1538 68.1681 42.6832 68.3675C42.2126 68.5669 41.6063 68.6659 40.8671 68.6659H37.4226V58.1261H37.4212ZM39.2503 59.9089V66.883H40.6261C41.2165 66.883 41.6424 66.8307 41.908 66.7244C42.1722 66.6196 42.3887 66.4595 42.5591 66.2471C42.728 66.0346 42.868 65.6984 42.9792 65.2385C43.0903 64.7786 43.1452 64.1732 43.1452 63.4207C43.1452 62.6683 43.0889 62.025 42.9748 61.5753C42.8608 61.1256 42.6847 60.7705 42.445 60.5129C42.2054 60.2538 41.9152 60.085 41.5716 60.0021C41.3147 59.9395 40.8181 59.9089 40.0818 59.9089H39.2503Z" fill="#EDEFEE"/>
<path d="M46.5913 68.6659V58.1261H49.5406C50.6392 58.1261 51.3582 58.1756 51.696 58.2775C52.2359 58.4405 52.6805 58.7883 53.0299 59.3195C53.3807 59.8522 53.5554 60.5376 53.5554 61.3759C53.5554 62.1385 53.4038 62.7775 53.1021 63.2927C52.7989 63.8079 52.4221 64.1702 51.9674 64.3784C51.5141 64.5865 50.7331 64.6913 49.6244 64.6913H48.4218V68.6673H46.5928L46.5913 68.6659ZM48.4204 59.9089V62.907H49.4353C50.1166 62.907 50.5815 62.8604 50.8255 62.7702C51.0709 62.6799 51.2715 62.514 51.4275 62.2768C51.5848 62.0396 51.6628 61.7471 51.6628 61.4007C51.6628 61.0543 51.5819 60.7545 51.4202 60.5144C51.2586 60.2742 51.0593 60.1127 50.8211 60.0312C50.5844 59.9497 50.0806 59.9089 49.314 59.9089H48.4189H48.4204Z" fill="#EDEFEE"/>
<path d="M55.0671 68.6659V58.1261H58.9302C59.9177 58.1261 60.6236 58.2207 61.0466 58.4099C61.4696 58.5991 61.8175 58.9265 62.0903 59.3952C62.3632 59.8623 62.4989 60.4227 62.4989 61.0747C62.4989 61.8999 62.291 62.5635 61.8752 63.0656C61.4595 63.5692 60.869 63.885 60.1024 64.0145C60.4951 64.2838 60.8214 64.5763 61.0783 64.895C61.3353 65.2137 61.6861 65.7857 62.1293 66.6094L63.2337 68.6659H61.0451L59.717 66.3722C59.2392 65.5427 58.9143 65.0245 58.7426 64.815C58.5708 64.6069 58.3903 64.4628 58.1983 64.3842C58.0063 64.3056 57.6988 64.2663 57.2758 64.2663H56.8976V68.6659H55.0685H55.0671ZM56.8962 62.5839H58.2575C59.089 62.5839 59.6188 62.549 59.8455 62.4791C60.0721 62.4092 60.2555 62.2695 60.3969 62.0585C60.5384 61.8475 60.6092 61.568 60.6092 61.2173C60.6092 60.8666 60.5384 60.6119 60.3969 60.4081C60.2555 60.2044 60.0649 60.0646 59.8224 59.9875C59.6506 59.9351 59.154 59.9089 58.3326 59.9089H56.8962V62.5839Z" fill="#EDEFEE"/>
</g>
<defs>
<clipPath id="clip0_2001_1014">
<rect width="90" height="90" fill="white" transform="translate(0.5)"/>
</clipPath>
</defs>
</svg>
