<svg width="71" height="96" viewBox="0 0 71 96" fill="none" xmlns="http://www.w3.org/2000/svg">
<g clip-path="url(#clip0_2001_1034)">
<path d="M0.512167 22.416L34.5687 2.46242C34.7303 2.36768 34.93 2.36664 35.0926 2.45967L69.9861 22.4169C70.1502 22.5108 70.2515 22.6859 70.2515 22.8757V75.2054C70.2515 75.3962 70.1491 75.5723 69.9835 75.6657L35.0899 95.3531C34.9287 95.4446 34.7316 95.4428 34.5713 95.3505L0.514849 75.6666C0.35195 75.5724 0.251526 75.3979 0.251526 75.2091V22.872C0.251526 22.6842 0.350779 22.5106 0.512167 22.416Z" fill="#0F0F10"/>
<path d="M1.823 23.8509L34.5828 4.50011C34.7453 4.40412 34.9465 4.40307 35.11 4.49734L68.6751 23.8519C68.8383 23.9459 68.9389 24.1206 68.9389 24.3097V74.3913C68.9389 74.5816 68.8372 74.7571 68.6725 74.8507L35.1073 93.9439C34.9452 94.0363 34.7466 94.0345 34.5854 93.9413L1.82569 74.8516C1.66369 74.7572 1.56396 74.5833 1.56396 74.395V24.306C1.56396 24.1189 1.66252 23.9458 1.823 23.8509Z" fill="#EDEFEE"/>
<path fill-rule="evenodd" clip-rule="evenodd" d="M28.7855 26.6239H30.0467V18.9906H28.7855V26.6239Z" fill="#0F0F10"/>
<path fill-rule="evenodd" clip-rule="evenodd" d="M34.3083 24.2136C34.3083 25.3795 33.3152 25.472 33.0199 25.472C32.2819 25.472 32.1474 24.7899 32.1474 24.379V21.4636H30.9125V24.3726C30.9125 25.0946 31.1423 25.6905 31.5453 26.0882C31.9009 26.4391 32.4336 26.6315 33.0108 26.6315C33.42 26.6315 33.9996 26.5055 34.3083 26.2274V26.6433H35.5432V21.4636H34.3083V24.2136Z" fill="#0F0F10"/>
<path fill-rule="evenodd" clip-rule="evenodd" d="M38.0055 19.6332H36.7707V21.4621H35.8445V22.681H36.7707V26.6434H38.0055V22.681H38.9316V21.4621H38.0055V19.6332Z" fill="#0F0F10"/>
<path fill-rule="evenodd" clip-rule="evenodd" d="M42.8272 25.0923C42.5579 25.3307 42.2013 25.4637 41.811 25.4637C40.9493 25.4637 40.3167 24.8406 40.3167 23.9849C40.3167 23.1297 40.9292 22.5331 41.811 22.5331C42.1946 22.5331 42.5579 22.6593 42.8339 22.8977L43.022 23.0568L43.8568 22.2347L43.648 22.0489C43.157 21.6115 42.5041 21.3662 41.811 21.3662C40.263 21.3662 39.1388 22.4666 39.1388 23.9784C39.1388 25.4834 40.2899 26.6238 41.811 26.6238C42.5176 26.6238 43.1771 26.3785 43.6614 25.9341L43.8635 25.749L43.0158 24.9268L42.8272 25.0923Z" fill="#0F0F10"/>
<path fill-rule="evenodd" clip-rule="evenodd" d="M48.2574 21.9055C47.9012 21.5538 47.4837 21.361 46.9059 21.361C46.4954 21.361 46.0309 21.4872 45.7217 21.7659V19.01H44.4847V26.6433H45.7217V23.7839C45.7217 22.6156 46.5621 22.5224 46.8579 22.5224C47.5972 22.5224 47.5771 23.2065 47.5771 23.6178V26.6433H48.8141V23.6246C48.8141 22.9011 48.6607 22.3034 48.2574 21.9055Z" fill="#0F0F10"/>
<path fill-rule="evenodd" clip-rule="evenodd" d="M41.7645 23.1188C42.2583 23.1188 42.6587 23.5152 42.6587 24.0048C42.6587 24.4943 42.2583 24.8908 41.7645 24.8908C41.2707 24.8908 40.8704 24.4943 40.8704 24.0048C40.8704 23.5152 41.2707 23.1188 41.7645 23.1188Z" fill="#0F0F10"/>
<path fill-rule="evenodd" clip-rule="evenodd" d="M27.0191 24.7355C26.5494 25.2141 25.9118 25.4735 25.2405 25.4735C23.8641 25.4735 22.8639 24.403 22.8639 22.9341C22.8639 21.4581 23.8641 20.3878 25.2405 20.3878C25.9046 20.3878 26.5356 20.6471 27.0124 21.1189L27.2001 21.3051L28.026 20.4875L27.845 20.3013C27.1599 19.6034 26.2335 19.2245 25.2405 19.2245C23.213 19.2245 21.6891 20.82 21.6891 22.9405C21.6891 25.0546 23.2197 26.6436 25.2405 26.6436C26.2407 26.6436 27.1671 26.2578 27.8517 25.5599L28.0327 25.3737L27.214 24.5429L27.0191 24.7355Z" fill="#0F0F10"/>
<path d="M3.57656 34.6853H36.2859H67.2766C67.4698 34.6853 67.6265 34.8428 67.6265 35.0372V72.5314C67.6265 72.8488 67.4565 73.1415 67.1816 73.2974L35.459 91.2945C35.1892 91.4475 34.8589 91.4458 34.5908 91.2901L3.66333 73.299C3.39301 73.1418 3.22656 72.8517 3.22656 72.5377V35.0372C3.22656 34.8428 3.38327 34.6853 3.57656 34.6853Z" fill="#0F0F10"/>
<path d="M3.51706 31.275H36.2042H67.1738C67.367 31.275 67.5236 31.4125 67.5236 31.5821V72.6256C67.5236 72.8507 67.2571 72.9993 67.0252 72.9036L36.5662 60.3433C36.3363 60.2484 36.0709 60.246 35.8389 60.3368L3.65932 72.9168C3.428 73.0073 3.1673 72.8586 3.1673 72.6363V31.5821C3.1673 31.4125 3.32389 31.275 3.51706 31.275Z" fill="#0F0F10"/>
<path d="M23.3614 38.3401V41.0917H23.0023V38.3401H23.3614ZM24.2458 38.3401V38.6387H22.1198V38.3401H24.2458ZM26.7196 39.6289V39.8028C26.7196 40.0094 26.6938 40.1946 26.6421 40.3584C26.5905 40.5222 26.5161 40.6614 26.4191 40.7761C26.3221 40.8907 26.2056 40.9783 26.0695 41.0388C25.9347 41.0992 25.7835 41.1295 25.6159 41.1295C25.4534 41.1295 25.3041 41.0992 25.1681 41.0388C25.0332 40.9783 24.9161 40.8907 24.8165 40.7761C24.7183 40.6614 24.6421 40.5222 24.5879 40.3584C24.5337 40.1946 24.5066 40.0094 24.5066 39.8028V39.6289C24.5066 39.4223 24.5331 39.2378 24.586 39.0752C24.6402 38.9114 24.7164 38.7722 24.8147 38.6576C24.9129 38.5417 25.0295 38.4535 25.1643 38.393C25.3003 38.3325 25.4496 38.3023 25.6122 38.3023C25.7797 38.3023 25.9309 38.3325 26.0657 38.393C26.2018 38.4535 26.3183 38.5417 26.4153 38.6576C26.5136 38.7722 26.5886 38.9114 26.6402 39.0752C26.6931 39.2378 26.7196 39.4223 26.7196 39.6289ZM26.3586 39.8028V39.6252C26.3586 39.4614 26.3416 39.3165 26.3076 39.1905C26.2749 39.0645 26.2264 38.9587 26.1621 38.873C26.0979 38.7873 26.0191 38.7225 25.9259 38.6784C25.8339 38.6343 25.7293 38.6122 25.6122 38.6122C25.4988 38.6122 25.3961 38.6343 25.3041 38.6784C25.2134 38.7225 25.1353 38.7873 25.0698 38.873C25.0055 38.9587 24.9558 39.0645 24.9205 39.1905C24.8852 39.3165 24.8676 39.4614 24.8676 39.6252V39.8028C24.8676 39.9679 24.8852 40.114 24.9205 40.2413C24.9558 40.3672 25.0062 40.4737 25.0717 40.5606C25.1384 40.6463 25.2172 40.7112 25.3079 40.7553C25.3999 40.7994 25.5026 40.8214 25.6159 40.8214C25.7344 40.8214 25.8396 40.7994 25.9315 40.7553C26.0235 40.7112 26.101 40.6463 26.164 40.5606C26.2282 40.4737 26.2768 40.3672 26.3095 40.2413C26.3423 40.114 26.3586 39.9679 26.3586 39.8028ZM28.2806 40.0126H27.5455V39.7159H28.2806C28.423 39.7159 28.5382 39.6932 28.6264 39.6478C28.7146 39.6025 28.7789 39.5395 28.8192 39.4589C28.8608 39.3782 28.8816 39.2863 28.8816 39.1829C28.8816 39.0885 28.8608 38.9996 28.8192 38.9165C28.7789 38.8333 28.7146 38.7666 28.6264 38.7162C28.5382 38.6645 28.423 38.6387 28.2806 38.6387H27.6305V41.0917H27.2658V38.3401H28.2806C28.4885 38.3401 28.6642 38.376 28.8079 38.4478C28.9515 38.5196 29.0605 38.6191 29.1348 38.7464C29.2091 38.8724 29.2463 39.0166 29.2463 39.1792C29.2463 39.3556 29.2091 39.5061 29.1348 39.6308C29.0605 39.7556 28.9515 39.8507 28.8079 39.9162C28.6642 39.9805 28.4885 40.0126 28.2806 40.0126ZM32.3286 40.2167H32.6915C32.6726 40.3905 32.6228 40.5461 32.5422 40.6835C32.4615 40.8208 32.3475 40.9298 32.2001 41.0104C32.0527 41.0898 31.8688 41.1295 31.6483 41.1295C31.487 41.1295 31.3402 41.0992 31.2079 41.0388C31.0769 40.9783 30.9642 40.8926 30.8697 40.7817C30.7752 40.6696 30.7021 40.5354 30.6504 40.3792C30.6001 40.2217 30.5749 40.0466 30.5749 39.8538V39.5798C30.5749 39.387 30.6001 39.2126 30.6504 39.0563C30.7021 38.8988 30.7758 38.764 30.8716 38.6519C30.9686 38.5398 31.0851 38.4535 31.2212 38.393C31.3572 38.3325 31.5103 38.3023 31.6804 38.3023C31.8883 38.3023 32.064 38.3413 32.2077 38.4195C32.3513 38.4976 32.4628 38.6059 32.5422 38.7445C32.6228 38.8818 32.6726 39.0412 32.6915 39.2226H32.3286C32.311 39.0941 32.2782 38.9839 32.2303 38.8919C32.1825 38.7987 32.1144 38.7269 32.0262 38.6765C31.9381 38.6261 31.8228 38.6009 31.6804 38.6009C31.5582 38.6009 31.4505 38.6242 31.3572 38.6708C31.2653 38.7174 31.1878 38.7836 31.1248 38.8692C31.0631 38.9549 31.0164 39.0576 30.9849 39.1773C30.9535 39.297 30.9377 39.4299 30.9377 39.576V39.8538C30.9377 39.9886 30.9516 40.1153 30.9793 40.2337C31.0083 40.3521 31.0517 40.4561 31.1097 40.5455C31.1676 40.635 31.2413 40.7055 31.3308 40.7572C31.4202 40.8076 31.5261 40.8328 31.6483 40.8328C31.8032 40.8328 31.9267 40.8082 32.0187 40.7591C32.1107 40.7099 32.18 40.6394 32.2266 40.5474C32.2744 40.4554 32.3085 40.3452 32.3286 40.2167ZM35.307 39.6289V39.8028C35.307 40.0094 35.2812 40.1946 35.2295 40.3584C35.1778 40.5222 35.1035 40.6614 35.0065 40.7761C34.9095 40.8907 34.793 40.9783 34.6569 41.0388C34.5221 41.0992 34.3709 41.1295 34.2033 41.1295C34.0408 41.1295 33.8915 41.0992 33.7554 41.0388C33.6206 40.9783 33.5035 40.8907 33.4039 40.7761C33.3057 40.6614 33.2294 40.5222 33.1753 40.3584C33.1211 40.1946 33.094 40.0094 33.094 39.8028V39.6289C33.094 39.4223 33.1205 39.2378 33.1734 39.0752C33.2275 38.9114 33.3038 38.7722 33.402 38.6576C33.5003 38.5417 33.6169 38.4535 33.7517 38.393C33.8877 38.3325 34.037 38.3023 34.1995 38.3023C34.3671 38.3023 34.5183 38.3325 34.6531 38.393C34.7892 38.4535 34.9057 38.5417 35.0027 38.6576C35.101 38.7722 35.176 38.9114 35.2276 39.0752C35.2805 39.2378 35.307 39.4223 35.307 39.6289ZM34.946 39.8028V39.6252C34.946 39.4614 34.929 39.3165 34.895 39.1905C34.8622 39.0645 34.8137 38.9587 34.7495 38.873C34.6852 38.7873 34.6065 38.7225 34.5133 38.6784C34.4213 38.6343 34.3167 38.6122 34.1995 38.6122C34.0862 38.6122 33.9835 38.6343 33.8915 38.6784C33.8008 38.7225 33.7227 38.7873 33.6572 38.873C33.5929 38.9587 33.5431 39.0645 33.5079 39.1905C33.4726 39.3165 33.455 39.4614 33.455 39.6252V39.8028C33.455 39.9679 33.4726 40.114 33.5079 40.2413C33.5431 40.3672 33.5935 40.4737 33.6591 40.5606C33.7258 40.6463 33.8046 40.7112 33.8953 40.7553C33.9873 40.7994 34.0899 40.8214 34.2033 40.8214C34.3218 40.8214 34.427 40.7994 34.5189 40.7553C34.6109 40.7112 34.6884 40.6463 34.7514 40.5606C34.8156 40.4737 34.8641 40.3672 34.8969 40.2413C34.9297 40.114 34.946 39.9679 34.946 39.8028ZM35.9684 38.3401H36.3218L37.2233 40.5833L38.1228 38.3401H38.4781L37.3593 41.0917H37.0834L35.9684 38.3401ZM35.8531 38.3401H36.165L36.216 40.0183V41.0917H35.8531V38.3401ZM38.2797 38.3401H38.5915V41.0917H38.2287V40.0183L38.2797 38.3401ZM40.247 40.0126H39.5119V39.7159H40.247C40.3894 39.7159 40.5046 39.6932 40.5928 39.6478C40.681 39.6025 40.7453 39.5395 40.7856 39.4589C40.8272 39.3782 40.848 39.2863 40.848 39.1829C40.848 39.0885 40.8272 38.9996 40.7856 38.9165C40.7453 38.8333 40.681 38.7666 40.5928 38.7162C40.5046 38.6645 40.3894 38.6387 40.247 38.6387H39.5969V41.0917H39.2322V38.3401H40.247C40.4549 38.3401 40.6306 38.376 40.7743 38.4478C40.9179 38.5196 41.0269 38.6191 41.1012 38.7464C41.1755 38.8724 41.2127 39.0166 41.2127 39.1792C41.2127 39.3556 41.1755 39.5061 41.1012 39.6308C41.0269 39.7556 40.9179 39.8507 40.7743 39.9162C40.6306 39.9805 40.4549 40.0126 40.247 40.0126ZM42.4316 38.5839L41.5207 41.0917H41.1485L42.1973 38.3401H42.4373L42.4316 38.5839ZM43.1951 41.0917L42.2823 38.5839L42.2767 38.3401H42.5167L43.5693 41.0917H43.1951ZM43.1479 40.0731V40.3716H41.602V40.0731H43.1479ZM46.0544 38.3401V41.0917H45.6878L44.3026 38.9694V41.0917H43.9378V38.3401H44.3026L45.6935 40.468V38.3401H46.0544ZM46.7745 38.3401L47.4888 39.7215L48.2051 38.3401H48.6189L47.6703 40.0636V41.0917H47.3055V40.0636L46.3568 38.3401H46.7745Z" fill="#EDEFEE"/>
<path d="M24.3141 69.0231H46.1891V76.9397H24.3141V69.0231Z" fill="#0F0F10"/>
<path d="M0.251526 52.3102H70.2515V69.0231H0.251526V52.3102Z" fill="#EDEFEE"/>
<path d="M13.8683 60.7537H12.9687L12.9639 60.2582H13.7192C13.8523 60.2582 13.9613 60.2414 14.0463 60.2077C14.1313 60.1724 14.1946 60.1219 14.2363 60.0562C14.2796 59.9888 14.3012 59.9071 14.3012 59.8108C14.3012 59.7018 14.2804 59.6136 14.2387 59.5463C14.1986 59.4789 14.1353 59.43 14.0487 59.3996C13.9637 59.3691 13.8539 59.3539 13.7192 59.3539H13.2189V62.2906H12.4973V58.7886H13.7192C13.9228 58.7886 14.1048 58.8079 14.2652 58.8463C14.4271 58.8848 14.5642 58.9434 14.6765 59.0219C14.7887 59.1005 14.8745 59.1999 14.9338 59.3202C14.9931 59.4388 15.0228 59.5799 15.0228 59.7435C15.0228 59.8878 14.9899 60.0209 14.9242 60.1428C14.8601 60.2646 14.7582 60.3641 14.6187 60.441C14.4808 60.518 14.3004 60.5605 14.0776 60.5685L13.8683 60.7537ZM13.837 62.2906H12.7715L13.0529 61.7278H13.837C13.9637 61.7278 14.0671 61.7078 14.1473 61.6677C14.2275 61.626 14.2868 61.5699 14.3253 61.4993C14.3638 61.4288 14.383 61.3478 14.383 61.2564C14.383 61.1538 14.3654 61.0648 14.3301 60.9894C14.2964 60.9141 14.2419 60.8563 14.1665 60.8162C14.0912 60.7745 13.9918 60.7537 13.8683 60.7537H13.1732L13.178 60.2582H14.0439L14.2098 60.453C14.4231 60.4498 14.5947 60.4875 14.7246 60.5661C14.856 60.6431 14.9515 60.7433 15.0108 60.8667C15.0717 60.9902 15.1022 61.1225 15.1022 61.2636C15.1022 61.4881 15.0533 61.6773 14.9555 61.8312C14.8577 61.9836 14.7141 62.0982 14.5249 62.1752C14.3373 62.2522 14.108 62.2906 13.837 62.2906ZM16.3313 58.5962V62.2906H15.6361V58.5962H16.3313ZM16.7931 61.0159V60.9654C16.7931 60.7745 16.8203 60.599 16.8748 60.4386C16.9294 60.2767 17.0087 60.1364 17.113 60.0177C17.2172 59.899 17.3455 59.8068 17.4978 59.7411C17.6501 59.6738 17.8249 59.6401 18.0221 59.6401C18.2194 59.6401 18.395 59.6738 18.5489 59.7411C18.7028 59.8068 18.8319 59.899 18.9361 60.0177C19.042 60.1364 19.1221 60.2767 19.1767 60.4386C19.2312 60.599 19.2584 60.7745 19.2584 60.9654V61.0159C19.2584 61.2051 19.2312 61.3807 19.1767 61.5426C19.1221 61.703 19.042 61.8433 18.9361 61.9635C18.8319 62.0822 18.7036 62.1744 18.5513 62.2401C18.399 62.3059 18.2242 62.3388 18.027 62.3388C17.8297 62.3388 17.6541 62.3059 17.5002 62.2401C17.3479 62.1744 17.2188 62.0822 17.113 61.9635C17.0087 61.8433 16.9294 61.703 16.8748 61.5426C16.8203 61.3807 16.7931 61.2051 16.7931 61.0159ZM17.4858 60.9654V61.0159C17.4858 61.1249 17.4954 61.2267 17.5146 61.3213C17.5339 61.4159 17.5643 61.4993 17.606 61.5715C17.6493 61.642 17.7055 61.6974 17.7744 61.7374C17.8434 61.7775 17.9275 61.7976 18.027 61.7976C18.1232 61.7976 18.2057 61.7775 18.2747 61.7374C18.3436 61.6974 18.399 61.642 18.4407 61.5715C18.4823 61.4993 18.5128 61.4159 18.5321 61.3213C18.5529 61.2267 18.5633 61.1249 18.5633 61.0159V60.9654C18.5633 60.8595 18.5529 60.7601 18.5321 60.6671C18.5128 60.5725 18.4815 60.4891 18.4382 60.417C18.3966 60.3432 18.3412 60.2855 18.2723 60.2438C18.2033 60.2021 18.12 60.1813 18.0221 60.1813C17.9243 60.1813 17.8409 60.2021 17.772 60.2438C17.7047 60.2855 17.6493 60.3432 17.606 60.417C17.5643 60.4891 17.5339 60.5725 17.5146 60.6671C17.4954 60.7601 17.4858 60.8595 17.4858 60.9654ZM20.7593 61.7976C20.8443 61.7976 20.9197 61.7815 20.9854 61.7495C21.0511 61.7158 21.1024 61.6693 21.1393 61.61C21.1778 61.549 21.1979 61.4777 21.1995 61.3959H21.8513C21.8497 61.5787 21.8008 61.7415 21.7046 61.8842C21.6084 62.0253 21.4793 62.1367 21.3173 62.2185C21.1554 62.2987 20.9742 62.3388 20.7737 62.3388C20.5717 62.3388 20.3953 62.3051 20.2446 62.2377C20.0955 62.1704 19.9712 62.0774 19.8718 61.9587C19.7724 61.8385 19.6978 61.699 19.6481 61.5402C19.5984 61.3799 19.5735 61.2083 19.5735 61.0255V60.9557C19.5735 60.7713 19.5984 60.5998 19.6481 60.441C19.6978 60.2807 19.7724 60.1412 19.8718 60.0225C19.9712 59.9022 20.0955 59.8084 20.2446 59.7411C20.3937 59.6738 20.5685 59.6401 20.7689 59.6401C20.9822 59.6401 21.169 59.681 21.3293 59.7627C21.4913 59.8445 21.618 59.9616 21.7094 60.1139C21.8024 60.2646 21.8497 60.4434 21.8513 60.6503H21.1995C21.1979 60.5637 21.1794 60.4851 21.1441 60.4146C21.1105 60.344 21.0608 60.2879 20.995 60.2462C20.9309 60.2029 20.8515 60.1813 20.7569 60.1813C20.6559 60.1813 20.5733 60.2029 20.5092 60.2462C20.445 60.2879 20.3953 60.3456 20.36 60.4194C20.3248 60.4915 20.2999 60.5741 20.2855 60.6671C20.2726 60.7585 20.2662 60.8547 20.2662 60.9557V61.0255C20.2662 61.1265 20.2726 61.2235 20.2855 61.3165C20.2983 61.4095 20.3224 61.4921 20.3576 61.5643C20.3945 61.6364 20.445 61.6933 20.5092 61.735C20.5733 61.7767 20.6567 61.7976 20.7593 61.7976ZM22.9457 58.5938V62.2906H22.253V58.5938H22.9457ZM24.586 59.6882L23.4556 60.9774L22.8495 61.5907L22.5969 61.0904L23.078 60.4795L23.7538 59.6882H24.586ZM23.8669 62.2906L23.0972 61.088L23.5758 60.6695L24.6654 62.2906H23.8669ZM25.9113 61.7976C25.9963 61.7976 26.0717 61.7815 26.1374 61.7495C26.2032 61.7158 26.2545 61.6693 26.2913 61.61C26.3298 61.549 26.3499 61.4777 26.3515 61.3959H27.0033C27.0017 61.5787 26.9528 61.7415 26.8566 61.8842C26.7604 62.0253 26.6313 62.1367 26.4693 62.2185C26.3074 62.2987 26.1262 62.3388 25.9258 62.3388C25.7237 62.3388 25.5473 62.3051 25.3966 62.2377C25.2475 62.1704 25.1232 62.0774 25.0238 61.9587C24.9244 61.8385 24.8498 61.699 24.8001 61.5402C24.7504 61.3799 24.7255 61.2083 24.7255 61.0255V60.9557C24.7255 60.7713 24.7504 60.5998 24.8001 60.441C24.8498 60.2807 24.9244 60.1412 25.0238 60.0225C25.1232 59.9022 25.2475 59.8084 25.3966 59.7411C25.5457 59.6738 25.7205 59.6401 25.9209 59.6401C26.1342 59.6401 26.321 59.681 26.4814 59.7627C26.6433 59.8445 26.77 59.9616 26.8614 60.1139C26.9544 60.2646 27.0017 60.4434 27.0033 60.6503H26.3515C26.3499 60.5637 26.3314 60.4851 26.2962 60.4146C26.2625 60.344 26.2128 60.2879 26.147 60.2462C26.0829 60.2029 26.0035 60.1813 25.9089 60.1813C25.8079 60.1813 25.7253 60.2029 25.6612 60.2462C25.597 60.2879 25.5473 60.3456 25.5121 60.4194C25.4768 60.4915 25.4519 60.5741 25.4375 60.6671C25.4247 60.7585 25.4182 60.8547 25.4182 60.9557V61.0255C25.4182 61.1265 25.4247 61.2235 25.4375 61.3165C25.4503 61.4095 25.4744 61.4921 25.5096 61.5643C25.5465 61.6364 25.597 61.6933 25.6612 61.735C25.7253 61.7767 25.8087 61.7976 25.9113 61.7976ZM28.0808 58.5962V62.2906H27.3881V58.5962H28.0808ZM27.9822 60.898H27.7922C27.7938 60.7168 27.8179 60.5501 27.8644 60.3977C27.9109 60.2438 27.9774 60.1107 28.064 59.9985C28.1506 59.8846 28.254 59.7964 28.3743 59.7339C28.4961 59.6713 28.6308 59.6401 28.7784 59.6401C28.9066 59.6401 29.0229 59.6585 29.1271 59.6954C29.233 59.7307 29.3235 59.7884 29.3989 59.8686C29.4759 59.9471 29.5352 60.0506 29.5769 60.1789C29.6186 60.3071 29.6394 60.4627 29.6394 60.6455V62.2906H28.9419V60.6407C28.9419 60.5252 28.9251 60.4346 28.8914 60.3689C28.8593 60.3015 28.812 60.2542 28.7495 60.227C28.6886 60.1981 28.6132 60.1837 28.5234 60.1837C28.424 60.1837 28.339 60.2021 28.2685 60.239C28.1995 60.2759 28.1442 60.3272 28.1025 60.3929C28.0608 60.4571 28.0303 60.5324 28.0111 60.619C27.9919 60.7056 27.9822 60.7986 27.9822 60.898ZM31.5708 61.7038V60.5444C31.5708 60.4611 31.5572 60.3897 31.53 60.3304C31.5027 60.2694 31.4602 60.2221 31.4025 60.1885C31.3464 60.1548 31.2734 60.138 31.1836 60.138C31.1066 60.138 31.0401 60.1516 30.984 60.1789C30.9278 60.2045 30.8845 60.2422 30.8541 60.2919C30.8236 60.34 30.8084 60.3969 30.8084 60.4627H30.1157C30.1157 60.352 30.1413 60.247 30.1926 60.1476C30.244 60.0482 30.3185 59.9608 30.4163 59.8854C30.5141 59.8084 30.6304 59.7483 30.7651 59.705C30.9014 59.6617 31.0537 59.6401 31.2221 59.6401C31.4241 59.6401 31.6037 59.6738 31.7609 59.7411C31.918 59.8084 32.0415 59.9095 32.1313 60.0442C32.2227 60.1789 32.2684 60.3472 32.2684 60.5493V61.6629C32.2684 61.8056 32.2772 61.9226 32.2948 62.014C32.3125 62.1038 32.3381 62.1824 32.3718 62.2498V62.2906H31.6719C31.6382 62.2201 31.6125 62.1319 31.5949 62.0261C31.5789 61.9186 31.5708 61.8112 31.5708 61.7038ZM31.6622 60.7056L31.6671 61.0977H31.2798C31.1884 61.0977 31.109 61.1081 31.0417 61.1289C30.9743 61.1498 30.919 61.1794 30.8757 61.2179C30.8324 61.2548 30.8004 61.2981 30.7795 61.3478C30.7603 61.3975 30.7507 61.452 30.7507 61.5114C30.7507 61.5707 30.7643 61.6244 30.7915 61.6725C30.8188 61.719 30.8581 61.7559 30.9094 61.7831C30.9607 61.8088 31.0208 61.8216 31.0898 61.8216C31.194 61.8216 31.2846 61.8008 31.3616 61.7591C31.4386 61.7174 31.4979 61.6661 31.5396 61.6052C31.5829 61.5442 31.6053 61.4865 31.6069 61.432L31.7897 61.7254C31.7641 61.7912 31.7288 61.8593 31.6839 61.9299C31.6406 62.0004 31.5853 62.067 31.5179 62.1295C31.4506 62.1904 31.3696 62.2409 31.275 62.281C31.1804 62.3195 31.0681 62.3388 30.9383 62.3388C30.7731 62.3388 30.6232 62.3059 30.4885 62.2401C30.3554 62.1728 30.2496 62.0806 30.171 61.9635C30.094 61.8449 30.0555 61.7102 30.0555 61.5595C30.0555 61.4232 30.0812 61.3021 30.1325 61.1963C30.1838 61.0904 30.2592 61.0014 30.3586 60.9293C30.4596 60.8555 30.5855 60.8002 30.7362 60.7633C30.887 60.7248 31.0617 60.7056 31.2606 60.7056H31.6622ZM33.5335 59.6882V62.2906H32.8384V59.6882H33.5335ZM32.7951 59.0099C32.7951 58.9089 32.8304 58.8255 32.9009 58.7598C32.9715 58.694 33.0661 58.6611 33.1848 58.6611C33.3018 58.6611 33.3956 58.694 33.4662 58.7598C33.5383 58.8255 33.5744 58.9089 33.5744 59.0099C33.5744 59.1109 33.5383 59.1943 33.4662 59.2601C33.3956 59.3258 33.3018 59.3587 33.1848 59.3587C33.0661 59.3587 32.9715 59.3258 32.9009 59.2601C32.8304 59.1943 32.7951 59.1109 32.7951 59.0099ZM34.7842 60.2438V62.2906H34.0915V59.6882H34.7409L34.7842 60.2438ZM34.6832 60.898H34.4956C34.4956 60.7056 34.5205 60.5324 34.5702 60.3785C34.6199 60.2229 34.6896 60.0907 34.7794 59.9816C34.8692 59.871 34.9759 59.7868 35.0993 59.7291C35.2244 59.6697 35.3639 59.6401 35.5178 59.6401C35.6397 59.6401 35.7511 59.6577 35.8522 59.693C35.9532 59.7283 36.0398 59.7844 36.1119 59.8614C36.1857 59.9383 36.2418 60.0401 36.2803 60.1668C36.3204 60.2935 36.3404 60.4482 36.3404 60.631V62.2906H35.6429V60.6286C35.6429 60.5132 35.6269 60.4234 35.5948 60.3592C35.5627 60.2951 35.5154 60.2502 35.4529 60.2246C35.392 60.1973 35.3166 60.1837 35.2268 60.1837C35.1338 60.1837 35.0528 60.2021 34.9839 60.239C34.9165 60.2759 34.8604 60.3272 34.8155 60.3929C34.7722 60.4571 34.7393 60.5324 34.7169 60.619C34.6944 60.7056 34.6832 60.7986 34.6832 60.898ZM40.1672 61.1289H40.8863C40.8719 61.3646 40.807 61.5739 40.6915 61.7567C40.5777 61.9395 40.4181 62.0822 40.2129 62.1848C40.0092 62.2874 39.7639 62.3388 39.4769 62.3388C39.2524 62.3388 39.0511 62.3003 38.8731 62.2233C38.6952 62.1447 38.5428 62.0325 38.4161 61.8866C38.2911 61.7407 38.1957 61.5643 38.1299 61.3574C38.0642 61.1506 38.0313 60.9189 38.0313 60.6623V60.4194C38.0313 60.1628 38.065 59.9311 38.1323 59.7243C38.2013 59.5158 38.2991 59.3386 38.4258 59.1927C38.554 59.0468 38.7072 58.9345 38.8852 58.856C39.0632 58.7774 39.262 58.7381 39.4817 58.7381C39.7735 58.7381 40.0196 58.791 40.2201 58.8969C40.4221 59.0027 40.5785 59.1486 40.6891 59.3346C40.8013 59.5206 40.8687 59.7323 40.8911 59.9696H40.1696C40.1615 59.8285 40.1335 59.709 40.0854 59.6112C40.0373 59.5118 39.9643 59.4372 39.8665 59.3875C39.7703 59.3362 39.642 59.3106 39.4817 59.3106C39.3614 59.3106 39.2564 59.333 39.1666 59.3779C39.0768 59.4228 39.0014 59.491 38.9405 59.5824C38.8796 59.6738 38.8339 59.7892 38.8034 59.9287C38.7745 60.0666 38.7601 60.2286 38.7601 60.4146V60.6623C38.7601 60.8435 38.7737 61.003 38.801 61.1409C38.8282 61.2772 38.8699 61.3927 38.9261 61.4873C38.9838 61.5803 39.0575 61.6509 39.1473 61.699C39.2387 61.7455 39.3486 61.7687 39.4769 61.7687C39.6276 61.7687 39.7519 61.7447 39.8497 61.6966C39.9475 61.6485 40.022 61.5771 40.0734 61.4825C40.1263 61.3879 40.1575 61.27 40.1672 61.1289ZM41.2062 61.0159V60.9654C41.2062 60.7745 41.2335 60.599 41.288 60.4386C41.3425 60.2767 41.4219 60.1364 41.5261 60.0177C41.6303 59.899 41.7586 59.8068 41.911 59.7411C42.0633 59.6738 42.2381 59.6401 42.4353 59.6401C42.6325 59.6401 42.8081 59.6738 42.962 59.7411C43.116 59.8068 43.2451 59.899 43.3493 60.0177C43.4551 60.1364 43.5353 60.2767 43.5898 60.4386C43.6443 60.599 43.6716 60.7745 43.6716 60.9654V61.0159C43.6716 61.2051 43.6443 61.3807 43.5898 61.5426C43.5353 61.703 43.4551 61.8433 43.3493 61.9635C43.2451 62.0822 43.1168 62.1744 42.9645 62.2401C42.8121 62.3059 42.6373 62.3388 42.4401 62.3388C42.2429 62.3388 42.0673 62.3059 41.9134 62.2401C41.761 62.1744 41.632 62.0822 41.5261 61.9635C41.4219 61.8433 41.3425 61.703 41.288 61.5426C41.2335 61.3807 41.2062 61.2051 41.2062 61.0159ZM41.8989 60.9654V61.0159C41.8989 61.1249 41.9086 61.2267 41.9278 61.3213C41.947 61.4159 41.9775 61.4993 42.0192 61.5715C42.0625 61.642 42.1186 61.6974 42.1876 61.7374C42.2565 61.7775 42.3407 61.7976 42.4401 61.7976C42.5363 61.7976 42.6189 61.7775 42.6878 61.7374C42.7568 61.6974 42.8121 61.642 42.8538 61.5715C42.8955 61.4993 42.926 61.4159 42.9452 61.3213C42.9661 61.2267 42.9765 61.1249 42.9765 61.0159V60.9654C42.9765 60.8595 42.9661 60.7601 42.9452 60.6671C42.926 60.5725 42.8947 60.4891 42.8514 60.417C42.8097 60.3432 42.7544 60.2855 42.6854 60.2438C42.6165 60.2021 42.5331 60.1813 42.4353 60.1813C42.3375 60.1813 42.2541 60.2021 42.1852 60.2438C42.1178 60.2855 42.0625 60.3432 42.0192 60.417C41.9775 60.4891 41.947 60.5725 41.9278 60.6671C41.9086 60.7601 41.8989 60.8595 41.8989 60.9654ZM44.79 60.227V62.2906H44.0949V59.6882H44.7467L44.79 60.227ZM44.6938 60.898H44.5014C44.5014 60.7168 44.523 60.5501 44.5663 60.3977C44.6112 60.2438 44.6762 60.1107 44.7612 59.9985C44.8478 59.8846 44.9544 59.7964 45.0811 59.7339C45.2077 59.6713 45.3545 59.6401 45.5212 59.6401C45.6367 59.6401 45.7425 59.6577 45.8387 59.693C45.9349 59.7267 46.0175 59.7804 46.0865 59.8541C46.157 59.9263 46.2115 60.0209 46.25 60.138C46.2885 60.2534 46.3077 60.3921 46.3077 60.5541V62.2906H45.615V60.631C45.615 60.5124 45.599 60.421 45.5669 60.3568C45.5348 60.2927 45.4891 60.2478 45.4298 60.2221C45.3721 60.1965 45.3023 60.1837 45.2206 60.1837C45.1308 60.1837 45.0522 60.2021 44.9849 60.239C44.9191 60.2759 44.8646 60.3272 44.8213 60.3929C44.778 60.4571 44.7459 60.5324 44.7251 60.619C44.7042 60.7056 44.6938 60.7986 44.6938 60.898ZM46.2428 60.8186L45.9951 60.8499C45.9951 60.6799 46.0159 60.522 46.0576 60.3761C46.1009 60.2302 46.1642 60.1019 46.2476 59.9912C46.3326 59.8806 46.4376 59.7948 46.5627 59.7339C46.6878 59.6713 46.8321 59.6401 46.9956 59.6401C47.1207 59.6401 47.2345 59.6585 47.3372 59.6954C47.4398 59.7307 47.5272 59.7876 47.5993 59.8662C47.6731 59.9431 47.7292 60.0442 47.7677 60.1692C47.8078 60.2943 47.8278 60.4474 47.8278 60.6286V62.2906H47.1327V60.6286C47.1327 60.5084 47.1167 60.417 47.0846 60.3544C47.0542 60.2903 47.0093 60.2462 46.9499 60.2221C46.8922 60.1965 46.8233 60.1837 46.7431 60.1837C46.6597 60.1837 46.5867 60.2005 46.5242 60.2342C46.4617 60.2662 46.4096 60.3111 46.3679 60.3689C46.3262 60.4266 46.2949 60.4939 46.2741 60.5709C46.2532 60.6463 46.2428 60.7288 46.2428 60.8186ZM49.0569 60.1885V63.2912H48.3642V59.6882H49.0064L49.0569 60.1885ZM50.7045 60.9606V61.0111C50.7045 61.2003 50.6821 61.3759 50.6372 61.5378C50.5939 61.6998 50.5297 61.8409 50.4447 61.9611C50.3598 62.0798 50.2539 62.1728 50.1272 62.2401C50.0022 62.3059 49.8579 62.3388 49.6943 62.3388C49.5356 62.3388 49.3977 62.3067 49.2806 62.2425C49.1635 62.1784 49.0649 62.0886 48.9848 61.9732C48.9062 61.8561 48.8429 61.7206 48.7947 61.5667C48.7466 61.4127 48.7098 61.2476 48.6841 61.0712V60.9389C48.7098 60.7497 48.7466 60.5765 48.7947 60.4194C48.8429 60.2606 48.9062 60.1235 48.9848 60.0081C49.0649 59.891 49.1627 59.8004 49.2782 59.7363C49.3953 59.6721 49.5324 59.6401 49.6895 59.6401C49.8547 59.6401 49.9998 59.6713 50.1248 59.7339C50.2515 59.7964 50.3573 59.8862 50.4423 60.0033C50.5289 60.1203 50.5939 60.2598 50.6372 60.4218C50.6821 60.5837 50.7045 60.7633 50.7045 60.9606ZM50.0094 61.0111V60.9606C50.0094 60.8499 49.9998 60.7481 49.9805 60.6551C49.9629 60.5605 49.934 60.4779 49.8939 60.4073C49.8555 60.3368 49.8041 60.2823 49.74 60.2438C49.6775 60.2037 49.6013 60.1837 49.5115 60.1837C49.4169 60.1837 49.3359 60.1989 49.2686 60.2294C49.2028 60.2598 49.1491 60.3039 49.1074 60.3616C49.0657 60.4194 49.0345 60.4883 49.0136 60.5685C48.9928 60.6487 48.9799 60.7393 48.9751 60.8403V61.1746C48.9832 61.2933 49.0056 61.3999 49.0425 61.4945C49.0794 61.5875 49.1363 61.6613 49.2133 61.7158C49.2902 61.7703 49.3912 61.7976 49.5163 61.7976C49.6077 61.7976 49.6847 61.7775 49.7472 61.7374C49.8098 61.6958 49.8603 61.6388 49.8987 61.5667C49.9388 61.4945 49.9669 61.4111 49.9829 61.3165C50.0006 61.2219 50.0094 61.1201 50.0094 61.0111ZM52.5397 61.7038V60.5444C52.5397 60.4611 52.5261 60.3897 52.4988 60.3304C52.4716 60.2694 52.4291 60.2221 52.3713 60.1885C52.3152 60.1548 52.2423 60.138 52.1525 60.138C52.0755 60.138 52.0089 60.1516 51.9528 60.1789C51.8967 60.2045 51.8534 60.2422 51.8229 60.2919C51.7925 60.34 51.7772 60.3969 51.7772 60.4627H51.0845C51.0845 60.352 51.1102 60.247 51.1615 60.1476C51.2128 60.0482 51.2874 59.9608 51.3852 59.8854C51.483 59.8084 51.5993 59.7483 51.7339 59.705C51.8702 59.6617 52.0226 59.6401 52.1909 59.6401C52.393 59.6401 52.5726 59.6738 52.7297 59.7411C52.8869 59.8084 53.0103 59.9095 53.1001 60.0442C53.1915 60.1789 53.2372 60.3472 53.2372 60.5493V61.6629C53.2372 61.8056 53.246 61.9226 53.2637 62.014C53.2813 62.1038 53.307 62.1824 53.3406 62.2498V62.2906H52.6407C52.607 62.2201 52.5814 62.1319 52.5638 62.0261C52.5477 61.9186 52.5397 61.8112 52.5397 61.7038ZM52.6311 60.7056L52.6359 61.0977H52.2487C52.1573 61.0977 52.0779 61.1081 52.0105 61.1289C51.9432 61.1498 51.8879 61.1794 51.8446 61.2179C51.8013 61.2548 51.7692 61.2981 51.7484 61.3478C51.7291 61.3975 51.7195 61.452 51.7195 61.5114C51.7195 61.5707 51.7331 61.6244 51.7604 61.6725C51.7877 61.719 51.8269 61.7559 51.8783 61.7831C51.9296 61.8088 51.9897 61.8216 52.0587 61.8216C52.1629 61.8216 52.2535 61.8008 52.3304 61.7591C52.4074 61.7174 52.4667 61.6661 52.5084 61.6052C52.5517 61.5442 52.5742 61.4865 52.5758 61.432L52.7586 61.7254C52.7329 61.7912 52.6976 61.8593 52.6527 61.9299C52.6095 62.0004 52.5541 62.067 52.4868 62.1295C52.4194 62.1904 52.3385 62.2409 52.2439 62.281C52.1492 62.3195 52.037 62.3388 51.9071 62.3388C51.742 62.3388 51.592 62.3059 51.4573 62.2401C51.3243 62.1728 51.2184 62.0806 51.1399 61.9635C51.0629 61.8449 51.0244 61.7102 51.0244 61.5595C51.0244 61.4232 51.0501 61.3021 51.1014 61.1963C51.1527 61.0904 51.228 61.0014 51.3275 60.9293C51.4285 60.8555 51.5544 60.8002 51.7051 60.7633C51.8558 60.7248 52.0306 60.7056 52.2294 60.7056H52.6311ZM54.4495 60.2438V62.2906H53.7568V59.6882H54.4062L54.4495 60.2438ZM54.3484 60.898H54.1608C54.1608 60.7056 54.1857 60.5324 54.2354 60.3785C54.2851 60.2229 54.3549 60.0907 54.4446 59.9816C54.5344 59.871 54.6411 59.7868 54.7645 59.7291C54.8896 59.6697 55.0291 59.6401 55.1831 59.6401C55.3049 59.6401 55.4164 59.6577 55.5174 59.693C55.6184 59.7283 55.705 59.7844 55.7772 59.8614C55.8509 59.9383 55.907 60.0401 55.9455 60.1668C55.9856 60.2935 56.0056 60.4482 56.0056 60.631V62.2906H55.3081V60.6286C55.3081 60.5132 55.2921 60.4234 55.26 60.3592C55.228 60.2951 55.1807 60.2502 55.1181 60.2246C55.0572 60.1973 54.9818 60.1837 54.892 60.1837C54.799 60.1837 54.718 60.2021 54.6491 60.239C54.5817 60.2759 54.5256 60.3272 54.4807 60.3929C54.4374 60.4571 54.4046 60.5324 54.3821 60.619C54.3597 60.7056 54.3484 60.7986 54.3484 60.898ZM57.3045 61.9972L57.9948 59.6882H58.738L57.6917 62.6827C57.6693 62.7484 57.6388 62.819 57.6003 62.8944C57.5634 62.9697 57.5129 63.0411 57.4488 63.1084C57.3863 63.1774 57.3069 63.2335 57.2107 63.2768C57.1161 63.3201 56.9998 63.3417 56.8619 63.3417C56.7962 63.3417 56.7425 63.3377 56.7008 63.3297C56.6591 63.3217 56.6094 63.3105 56.5516 63.296V62.7885C56.5693 62.7885 56.5877 62.7885 56.607 62.7885C56.6262 62.7901 56.6446 62.7909 56.6623 62.7909C56.7537 62.7909 56.8282 62.7805 56.886 62.7597C56.9437 62.7388 56.9902 62.7068 57.0255 62.6635C57.0607 62.6218 57.0888 62.5673 57.1097 62.4999L57.3045 61.9972ZM57.0158 59.6882L57.5811 61.5739L57.6797 62.3075L57.2083 62.358L56.2726 59.6882H57.0158Z" fill="#0F0F10"/>
<path d="M32.4513 73.6622V73.8972H30.9778V73.6916L31.7153 72.8705C31.806 72.7695 31.8761 72.6839 31.9256 72.6139C31.9761 72.5427 32.0112 72.4793 32.0307 72.4237C32.0514 72.367 32.0617 72.3092 32.0617 72.2505C32.0617 72.1763 32.0462 72.1093 32.0153 72.0495C31.9854 71.9887 31.9411 71.9402 31.8823 71.9041C31.8235 71.8681 31.7524 71.85 31.6689 71.85C31.5689 71.85 31.4854 71.8696 31.4184 71.9088C31.3525 71.9469 31.303 72.0005 31.27 72.0696C31.237 72.1386 31.2205 72.218 31.2205 72.3077H30.9345C30.9345 72.1809 30.9623 72.0649 31.018 71.9598C31.0736 71.8547 31.1561 71.7712 31.2654 71.7093C31.3746 71.6464 31.5091 71.615 31.6689 71.615C31.8112 71.615 31.9328 71.6402 32.0338 71.6908C32.1349 71.7402 32.2122 71.8103 32.2658 71.901C32.3204 71.9907 32.3477 72.0959 32.3477 72.2165C32.3477 72.2824 32.3364 72.3494 32.3137 72.4175C32.2921 72.4845 32.2616 72.5515 32.2225 72.6185C32.1843 72.6855 32.1395 72.7515 32.088 72.8164C32.0374 72.8813 31.9833 72.9453 31.9256 73.0081L31.3226 73.6622H32.4513ZM34.1707 72.5922V72.9355C34.1707 73.12 34.1542 73.2756 34.1212 73.4024C34.0883 73.5292 34.0408 73.6313 33.979 73.7086C33.9171 73.7859 33.8424 73.8421 33.7548 73.8771C33.6682 73.9111 33.5703 73.9281 33.461 73.9281C33.3744 73.9281 33.2945 73.9173 33.2213 73.8957C33.1481 73.874 33.0822 73.8395 33.0234 73.7921C32.9657 73.7436 32.9162 73.6807 32.875 73.6034C32.8337 73.5261 32.8023 73.4323 32.7807 73.322C32.759 73.2117 32.7482 73.0829 32.7482 72.9355V72.5922C32.7482 72.4077 32.7647 72.2531 32.7977 72.1283C32.8317 72.0036 32.8796 71.9036 32.9415 71.8284C33.0033 71.7521 33.0775 71.6975 33.1641 71.6645C33.2517 71.6315 33.3497 71.615 33.4579 71.615C33.5455 71.615 33.6259 71.6258 33.6991 71.6475C33.7733 71.6681 33.8393 71.7016 33.897 71.748C33.9548 71.7933 34.0037 71.8541 34.0439 71.9304C34.0852 72.0057 34.1166 72.0979 34.1382 72.2072C34.1599 72.3165 34.1707 72.4448 34.1707 72.5922ZM33.8831 72.9819V72.5443C33.8831 72.4433 33.8769 72.3546 33.8646 72.2783C33.8532 72.201 33.8362 72.135 33.8135 72.0804C33.7909 72.0258 33.762 71.9814 33.7269 71.9474C33.6929 71.9134 33.6532 71.8887 33.6079 71.8732C33.5636 71.8567 33.5136 71.8485 33.4579 71.8485C33.3899 71.8485 33.3296 71.8614 33.277 71.8871C33.2244 71.9119 33.1801 71.9516 33.144 72.0062C33.109 72.0608 33.0822 72.1325 33.0636 72.2211C33.0451 72.3098 33.0358 72.4175 33.0358 72.5443V72.9819C33.0358 73.0829 33.0415 73.172 33.0528 73.2493C33.0652 73.3267 33.0832 73.3937 33.1069 73.4504C33.1306 73.506 33.1595 73.5519 33.1935 73.588C33.2275 73.6241 33.2667 73.6509 33.311 73.6684C33.3564 73.6849 33.4064 73.6931 33.461 73.6931C33.5311 73.6931 33.5924 73.6797 33.645 73.6529C33.6976 73.6261 33.7414 73.5844 33.7764 73.5277C33.8125 73.4699 33.8393 73.3962 33.8568 73.3066C33.8744 73.2158 33.8831 73.1076 33.8831 72.9819ZM36.0138 73.6622V73.8972H34.5403V73.6916L35.2778 72.8705C35.3685 72.7695 35.4386 72.6839 35.4881 72.6139C35.5386 72.5427 35.5737 72.4793 35.5932 72.4237C35.6139 72.367 35.6242 72.3092 35.6242 72.2505C35.6242 72.1763 35.6087 72.1093 35.5778 72.0495C35.5479 71.9887 35.5036 71.9402 35.4448 71.9041C35.386 71.8681 35.3149 71.85 35.2314 71.85C35.1314 71.85 35.0479 71.8696 34.9809 71.9088C34.915 71.9469 34.8655 72.0005 34.8325 72.0696C34.7995 72.1386 34.783 72.218 34.783 72.3077H34.497C34.497 72.1809 34.5248 72.0649 34.5805 71.9598C34.6361 71.8547 34.7186 71.7712 34.8279 71.7093C34.9371 71.6464 35.0716 71.615 35.2314 71.615C35.3737 71.615 35.4953 71.6402 35.5963 71.6908C35.6974 71.7402 35.7747 71.8103 35.8283 71.901C35.8829 71.9907 35.9102 72.0959 35.9102 72.2165C35.9102 72.2824 35.8989 72.3494 35.8762 72.4175C35.8546 72.4845 35.8241 72.5515 35.785 72.6185C35.7468 72.6855 35.702 72.7515 35.6505 72.8164C35.5999 72.8813 35.5458 72.9453 35.4881 73.0081L34.8851 73.6622H36.0138ZM36.7374 72.6309H36.9415C37.0415 72.6309 37.124 72.6144 37.1889 72.5814C37.2549 72.5474 37.3039 72.5015 37.3358 72.4438C37.3688 72.385 37.3853 72.319 37.3853 72.2458C37.3853 72.1593 37.3709 72.0866 37.342 72.0278C37.3132 71.9691 37.2699 71.9248 37.2121 71.8949C37.1544 71.865 37.0812 71.85 36.9926 71.85C36.9122 71.85 36.841 71.866 36.7792 71.8979C36.7184 71.9289 36.6704 71.9732 36.6354 72.0309C36.6014 72.0887 36.5844 72.1567 36.5844 72.235H36.2983C36.2983 72.1206 36.3272 72.0165 36.3849 71.9227C36.4426 71.8289 36.5236 71.7542 36.6277 71.6985C36.7328 71.6428 36.8544 71.615 36.9926 71.615C37.1286 71.615 37.2477 71.6392 37.3498 71.6877C37.4518 71.7351 37.5312 71.8062 37.5879 71.901C37.6446 71.9948 37.6729 72.1118 37.6729 72.252C37.6729 72.3087 37.6595 72.3695 37.6327 72.4345C37.6069 72.4984 37.5662 72.5582 37.5106 72.6139C37.4559 72.6695 37.3848 72.7154 37.2972 72.7515C37.2096 72.7865 37.1044 72.804 36.9818 72.804H36.7374V72.6309ZM36.7374 72.8659V72.6943H36.9818C37.125 72.6943 37.2436 72.7113 37.3374 72.7453C37.4312 72.7793 37.5049 72.8247 37.5585 72.8813C37.6131 72.938 37.6513 73.0004 37.6729 73.0684C37.6956 73.1354 37.7069 73.2024 37.7069 73.2694C37.7069 73.3746 37.6889 73.4679 37.6528 73.5493C37.6178 73.6308 37.5678 73.6998 37.5028 73.7565C37.4389 73.8132 37.3637 73.856 37.2771 73.8848C37.1905 73.9137 37.0962 73.9281 36.9941 73.9281C36.8962 73.9281 36.8039 73.9142 36.7173 73.8864C36.6318 73.8586 36.556 73.8184 36.4901 73.7658C36.4241 73.7122 36.3725 73.6467 36.3354 73.5694C36.2983 73.4911 36.2798 73.4019 36.2798 73.3019H36.5658C36.5658 73.3803 36.5828 73.4488 36.6168 73.5076C36.6519 73.5663 36.7014 73.6122 36.7653 73.6452C36.8302 73.6771 36.9065 73.6931 36.9941 73.6931C37.0817 73.6931 37.157 73.6782 37.2199 73.6483C37.2838 73.6174 37.3327 73.571 37.3668 73.5091C37.4018 73.4473 37.4193 73.3694 37.4193 73.2756C37.4193 73.1818 37.3997 73.105 37.3606 73.0452C37.3214 72.9844 37.2657 72.9396 37.1936 72.9107C37.1225 72.8808 37.0384 72.8659 36.9415 72.8659H36.7374Z" fill="#EDEFEE"/>
<path d="M40.0638 47.58H65.8763" stroke="#EDEFEE" stroke-width="0.175926"/>
<path d="M4.97626 47.58H30.7888" stroke="#EDEFEE" stroke-width="0.175926"/>
<path d="M35.4262 45.6293L36.0872 46.0344L35.9118 45.2704L36.5054 44.7593L35.7257 44.6913L35.4262 43.9735L35.1214 44.6913L34.3471 44.7593L34.9352 45.2704L34.7518 46.0344L35.4262 45.6293ZM33.2679 47.2606L33.9288 47.6658L33.7535 46.9017L34.3471 46.3906L33.5674 46.3226L33.2679 45.6048L32.963 46.3226L32.1887 46.3906L32.7769 46.9017L32.5934 47.6658L33.2679 47.2606ZM37.5846 46.4449L38.2456 46.8501L38.0702 46.086L38.6637 45.5749L37.884 45.507L37.5846 44.7892L37.2797 45.507L36.5054 45.5749L37.0935 46.086L36.91 46.8501L37.5846 46.4449ZM36.2356 49.955H34.6168V46.4205H36.2356V49.955ZM34.0772 49.955H32.4585V48.3237H34.0772V49.955ZM38.394 49.955H36.7752V47.2361H38.394V49.955Z" fill="#EDEFEE"/>
</g>
<defs>
<clipPath id="clip0_2001_1034">
<rect width="70" height="95" fill="white" transform="translate(0.5 0.5)"/>
</clipPath>
</defs>
</svg>
