<svg width="91" height="90" viewBox="0 0 91 90" fill="none" xmlns="http://www.w3.org/2000/svg">
<circle cx="45.5" cy="45" r="43.3078" fill="#0F0F10" stroke="#EDEFEE" stroke-width="3.38437"/>
<path d="M45.4312 8.9552L46.6653 12.8H50.6721L47.4346 15.1747L48.6687 19.0114L45.4312 16.6367L42.1858 19.0114L43.4278 15.1747L40.1824 12.8H44.1891L45.4312 8.9552Z" fill="#EDEFEE"/>
<path d="M45.4312 70.9967L46.6653 74.8334H50.6721L47.4346 77.2081L48.6687 81.0448L45.4312 78.6701L42.1858 81.0448L43.4278 77.2081L40.1824 74.8334H44.1891L45.4312 70.9967Z" fill="#EDEFEE"/>
<path d="M76.2587 40.0769L77.4928 43.9217H81.4995L78.2621 46.2964L79.4961 50.1331L76.2587 47.7584L73.0132 50.1331L74.2553 46.2964L71.0098 43.9217H75.0166L76.2587 40.0769Z" fill="#EDEFEE"/>
<path d="M14.651 39.98L15.8931 43.8167H19.8998L16.6544 46.1914L17.8965 50.0281L14.651 47.6534L11.4135 50.0281L12.6556 46.1914L9.41016 43.8167H13.4169L14.651 39.98Z" fill="#EDEFEE"/>
<path d="M18.7539 24.2616L19.996 28.0983H24.0027L20.7573 30.473L21.9994 34.3097L18.7539 31.9431L15.5164 34.3097L16.7505 30.473L13.5131 28.0983H17.5198L18.7539 24.2616Z" fill="#EDEFEE"/>
<path d="M29.7327 12.8888L30.9748 16.7255H34.9735L31.736 19.1002L32.9701 22.9369L29.7327 20.5622L26.4952 22.9369L27.7293 19.1002L24.4918 16.7255H28.4986L29.7327 12.8888Z" fill="#EDEFEE"/>
<path d="M71.5871 24.2616L72.8212 28.0983H76.8279L73.5905 30.473L74.8245 34.3097L71.5871 31.9431L68.3416 34.3097L69.5837 30.473L66.3463 28.0983H70.345L71.5871 24.2616Z" fill="#EDEFEE"/>
<path d="M60.5044 12.8888L61.7465 16.7255H65.7532L62.5078 19.1002L63.7499 22.9369L60.5044 20.5622L57.2669 22.9369L58.501 19.1002L55.2635 16.7255H59.2703L60.5044 12.8888Z" fill="#EDEFEE"/>
<path d="M18.7539 55.2783L19.996 59.1231H24.0027L20.7573 61.4897L21.9994 65.3345L18.7539 62.9598L15.5164 65.3345L16.7505 61.4897L13.5131 59.1231H17.5198L18.7539 55.2783Z" fill="#EDEFEE"/>
<path d="M29.7327 66.3441L30.9748 70.1808H34.9735L31.736 72.5555L32.9701 76.3922L29.7327 74.0175L26.4952 76.3922L27.7293 72.5555L24.4918 70.1808H28.4986L29.7327 66.3441Z" fill="#EDEFEE"/>
<path d="M71.5871 55.2783L72.8212 59.1231H76.8279L73.5905 61.4897L74.8245 65.3345L71.5871 62.9598L68.3416 65.3345L69.5837 61.4897L66.3463 59.1231H70.345L71.5871 55.2783Z" fill="#EDEFEE"/>
<path d="M60.5044 66.3441L61.7465 70.1808H65.7532L62.5078 72.5555L63.7499 76.3922L60.5044 74.0175L57.2669 76.3922L58.501 72.5555L55.2635 70.1808H59.2703L60.5044 66.3441Z" fill="#EDEFEE"/>
<path d="M38.6874 44.7211L38.9274 42.4971H38.8314L38.1434 44.2891L35.7594 48.4651H35.0554L32.5434 44.2731L31.8394 42.4971H31.7594L32.0794 44.7051V50.5291H29.9994V39.3291H31.9994L34.9914 44.4491L35.5194 45.7291H35.5834L36.0634 44.4171L38.8954 39.3291H40.8794V50.5291H38.6874V44.7211ZM42.9242 42.5291H45.0042V50.5291H42.9242V42.5291ZM42.6202 40.2731C42.6202 39.9637 42.7322 39.7024 42.9562 39.4891C43.1909 39.2651 43.5109 39.1531 43.9162 39.1531C44.3216 39.1531 44.6469 39.2651 44.8922 39.4891C45.1482 39.7024 45.2762 39.9637 45.2762 40.2731C45.2762 40.5824 45.1482 40.8437 44.8922 41.0571C44.6469 41.2597 44.3216 41.3611 43.9162 41.3611C43.5109 41.3611 43.1909 41.2597 42.9562 41.0571C42.7322 40.8437 42.6202 40.5824 42.6202 40.2731ZM54.6771 50.0651C54.3358 50.3104 53.8985 50.4864 53.3651 50.5931C52.8425 50.6997 52.3038 50.7531 51.7491 50.7531C51.0771 50.7531 50.4371 50.6517 49.8291 50.4491C49.2318 50.2357 48.7038 49.8997 48.2451 49.4411C47.7865 48.9717 47.4185 48.3691 47.1411 47.6331C46.8745 46.8864 46.7411 45.9851 46.7411 44.9291C46.7411 43.8304 46.8905 42.9131 47.1891 42.1771C47.4985 41.4304 47.8931 40.8331 48.3731 40.3851C48.8638 39.9264 49.4078 39.6011 50.0051 39.4091C50.6025 39.2064 51.1998 39.1051 51.7971 39.1051C52.4371 39.1051 52.9758 39.1477 53.4131 39.2331C53.8611 39.3184 54.2291 39.4197 54.5171 39.5371L54.0851 41.3931C53.8398 41.2757 53.5465 41.1904 53.2051 41.1371C52.8745 41.0837 52.4691 41.0571 51.9891 41.0571C51.1038 41.0571 50.3891 41.3717 49.8451 42.0011C49.3118 42.6304 49.0451 43.6064 49.0451 44.9291C49.0451 45.5051 49.1091 46.0331 49.2371 46.5131C49.3651 46.9824 49.5571 47.3877 49.8131 47.7291C50.0798 48.0597 50.4051 48.3211 50.7891 48.5131C51.1838 48.6944 51.6371 48.7851 52.1491 48.7851C52.6291 48.7851 53.0345 48.7371 53.3651 48.6411C53.6958 48.5451 53.9838 48.4224 54.2291 48.2731L54.6771 50.0651ZM60.8475 48.0491H57.4075L56.5595 50.5291H54.3675L58.3995 39.2491H60.0155L64.0475 50.5291H61.7435L60.8475 48.0491ZM57.9675 46.2891H60.3675L59.5355 43.7931L59.1995 42.0331H59.1195L58.7835 43.8091L57.9675 46.2891Z" fill="#EDEFEE"/>
</svg>
