<svg width="71" height="96" viewBox="0 0 71 96" fill="none" xmlns="http://www.w3.org/2000/svg">
<g clip-path="url(#clip0_2001_1078)">
<path d="M0.512167 22.416L34.5687 2.46242C34.7303 2.36768 34.93 2.36664 35.0926 2.45967L69.9861 22.4169C70.1502 22.5108 70.2515 22.6859 70.2515 22.8757V75.2054C70.2515 75.3962 70.1491 75.5723 69.9835 75.6657L35.0899 95.3531C34.9287 95.4446 34.7316 95.4428 34.5713 95.3505L0.514849 75.6666C0.35195 75.5724 0.251526 75.3979 0.251526 75.2091V22.872C0.251526 22.6842 0.350779 22.5106 0.512167 22.416Z" fill="#0F0F10"/>
<path d="M1.823 23.8509L34.5828 4.50011C34.7453 4.40412 34.9465 4.40307 35.11 4.49734L68.6751 23.8519C68.8383 23.9459 68.9389 24.1206 68.9389 24.3097V74.3913C68.9389 74.5816 68.8372 74.7571 68.6725 74.8507L35.1073 93.9439C34.9452 94.0363 34.7466 94.0345 34.5854 93.9413L1.82569 74.8516C1.66369 74.7572 1.56396 74.5833 1.56396 74.395V24.306C1.56396 24.1189 1.66252 23.9458 1.823 23.8509Z" fill="#EDEFEE"/>
<path fill-rule="evenodd" clip-rule="evenodd" d="M28.7855 26.6239H30.0467V18.9906H28.7855V26.6239Z" fill="#0F0F10"/>
<path fill-rule="evenodd" clip-rule="evenodd" d="M34.3083 24.2136C34.3083 25.3795 33.3152 25.472 33.0199 25.472C32.2819 25.472 32.1474 24.7899 32.1474 24.379V21.4636H30.9125V24.3726C30.9125 25.0946 31.1423 25.6905 31.5453 26.0882C31.9009 26.4391 32.4336 26.6315 33.0108 26.6315C33.42 26.6315 33.9996 26.5055 34.3083 26.2274V26.6433H35.5432V21.4636H34.3083V24.2136Z" fill="#0F0F10"/>
<path fill-rule="evenodd" clip-rule="evenodd" d="M38.0055 19.6332H36.7707V21.4621H35.8445V22.681H36.7707V26.6434H38.0055V22.681H38.9316V21.4621H38.0055V19.6332Z" fill="#0F0F10"/>
<path fill-rule="evenodd" clip-rule="evenodd" d="M42.8272 25.0923C42.5579 25.3307 42.2013 25.4637 41.811 25.4637C40.9493 25.4637 40.3167 24.8406 40.3167 23.9849C40.3167 23.1297 40.9292 22.5331 41.811 22.5331C42.1946 22.5331 42.5579 22.6593 42.8339 22.8977L43.022 23.0568L43.8568 22.2347L43.648 22.0489C43.157 21.6115 42.5041 21.3662 41.811 21.3662C40.263 21.3662 39.1388 22.4666 39.1388 23.9784C39.1388 25.4834 40.2899 26.6238 41.811 26.6238C42.5176 26.6238 43.1771 26.3785 43.6614 25.9341L43.8635 25.749L43.0158 24.9268L42.8272 25.0923Z" fill="#0F0F10"/>
<path fill-rule="evenodd" clip-rule="evenodd" d="M48.2574 21.9055C47.9012 21.5538 47.4837 21.361 46.9059 21.361C46.4954 21.361 46.0309 21.4872 45.7217 21.7659V19.01H44.4847V26.6433H45.7217V23.7839C45.7217 22.6156 46.5621 22.5224 46.8579 22.5224C47.5972 22.5224 47.5771 23.2065 47.5771 23.6178V26.6433H48.8141V23.6246C48.8141 22.9011 48.6607 22.3034 48.2574 21.9055Z" fill="#0F0F10"/>
<path fill-rule="evenodd" clip-rule="evenodd" d="M41.7645 23.1188C42.2583 23.1188 42.6587 23.5152 42.6587 24.0048C42.6587 24.4943 42.2583 24.8908 41.7645 24.8908C41.2707 24.8908 40.8704 24.4943 40.8704 24.0048C40.8704 23.5152 41.2707 23.1188 41.7645 23.1188Z" fill="#0F0F10"/>
<path fill-rule="evenodd" clip-rule="evenodd" d="M27.0191 24.7355C26.5494 25.2141 25.9118 25.4735 25.2405 25.4735C23.8641 25.4735 22.8639 24.403 22.8639 22.9341C22.8639 21.4581 23.8641 20.3878 25.2405 20.3878C25.9046 20.3878 26.5356 20.6471 27.0124 21.1189L27.2001 21.3051L28.026 20.4875L27.845 20.3013C27.1599 19.6034 26.2335 19.2245 25.2405 19.2245C23.213 19.2245 21.6891 20.82 21.6891 22.9405C21.6891 25.0546 23.2197 26.6436 25.2405 26.6436C26.2407 26.6436 27.1671 26.2578 27.8517 25.5599L28.0327 25.3737L27.214 24.5429L27.0191 24.7355Z" fill="#0F0F10"/>
<path d="M3.57656 34.6853H36.2859H67.2766C67.4698 34.6853 67.6265 34.8428 67.6265 35.0372V72.5314C67.6265 72.8488 67.4565 73.1415 67.1816 73.2974L35.459 91.2945C35.1892 91.4475 34.8589 91.4458 34.5908 91.2901L3.66333 73.299C3.39301 73.1418 3.22656 72.8517 3.22656 72.5377V35.0372C3.22656 34.8428 3.38327 34.6853 3.57656 34.6853Z" fill="#0F0F10"/>
<path d="M3.51706 31.275H36.2042H67.1738C67.367 31.275 67.5236 31.4125 67.5236 31.5821V72.6256C67.5236 72.8507 67.2571 72.9993 67.0252 72.9036L36.5662 60.3433C36.3363 60.2484 36.0709 60.246 35.8389 60.3368L3.65932 72.9168C3.428 73.0073 3.1673 72.8586 3.1673 72.6363V31.5821C3.1673 31.4125 3.32389 31.275 3.51706 31.275Z" fill="#0F0F10"/>
<path d="M23.3614 38.3401V41.0917H23.0023V38.3401H23.3614ZM24.2458 38.3401V38.6387H22.1198V38.3401H24.2458ZM26.7196 39.6289V39.8028C26.7196 40.0094 26.6938 40.1946 26.6421 40.3584C26.5905 40.5222 26.5161 40.6614 26.4191 40.7761C26.3221 40.8907 26.2056 40.9783 26.0695 41.0388C25.9347 41.0992 25.7835 41.1295 25.6159 41.1295C25.4534 41.1295 25.3041 41.0992 25.1681 41.0388C25.0332 40.9783 24.9161 40.8907 24.8165 40.7761C24.7183 40.6614 24.6421 40.5222 24.5879 40.3584C24.5337 40.1946 24.5066 40.0094 24.5066 39.8028V39.6289C24.5066 39.4223 24.5331 39.2378 24.586 39.0752C24.6402 38.9114 24.7164 38.7722 24.8147 38.6576C24.9129 38.5417 25.0295 38.4535 25.1643 38.393C25.3003 38.3325 25.4496 38.3023 25.6122 38.3023C25.7797 38.3023 25.9309 38.3325 26.0657 38.393C26.2018 38.4535 26.3183 38.5417 26.4153 38.6576C26.5136 38.7722 26.5886 38.9114 26.6402 39.0752C26.6931 39.2378 26.7196 39.4223 26.7196 39.6289ZM26.3586 39.8028V39.6252C26.3586 39.4614 26.3416 39.3165 26.3076 39.1905C26.2749 39.0645 26.2264 38.9587 26.1621 38.873C26.0979 38.7873 26.0191 38.7225 25.9259 38.6784C25.8339 38.6343 25.7293 38.6122 25.6122 38.6122C25.4988 38.6122 25.3961 38.6343 25.3041 38.6784C25.2134 38.7225 25.1353 38.7873 25.0698 38.873C25.0055 38.9587 24.9558 39.0645 24.9205 39.1905C24.8852 39.3165 24.8676 39.4614 24.8676 39.6252V39.8028C24.8676 39.9679 24.8852 40.114 24.9205 40.2413C24.9558 40.3672 25.0062 40.4737 25.0717 40.5606C25.1384 40.6463 25.2172 40.7112 25.3079 40.7553C25.3999 40.7994 25.5026 40.8214 25.6159 40.8214C25.7344 40.8214 25.8396 40.7994 25.9315 40.7553C26.0235 40.7112 26.101 40.6463 26.164 40.5606C26.2282 40.4737 26.2768 40.3672 26.3095 40.2413C26.3423 40.114 26.3586 39.9679 26.3586 39.8028ZM28.2806 40.0126H27.5455V39.7159H28.2806C28.423 39.7159 28.5382 39.6932 28.6264 39.6478C28.7146 39.6025 28.7789 39.5395 28.8192 39.4589C28.8608 39.3782 28.8816 39.2863 28.8816 39.1829C28.8816 39.0885 28.8608 38.9996 28.8192 38.9165C28.7789 38.8333 28.7146 38.7666 28.6264 38.7162C28.5382 38.6645 28.423 38.6387 28.2806 38.6387H27.6305V41.0917H27.2658V38.3401H28.2806C28.4885 38.3401 28.6642 38.376 28.8079 38.4478C28.9515 38.5196 29.0605 38.6191 29.1348 38.7464C29.2091 38.8724 29.2463 39.0166 29.2463 39.1792C29.2463 39.3556 29.2091 39.5061 29.1348 39.6308C29.0605 39.7556 28.9515 39.8507 28.8079 39.9162C28.6642 39.9805 28.4885 40.0126 28.2806 40.0126ZM32.3286 40.2167H32.6915C32.6726 40.3905 32.6228 40.5461 32.5422 40.6835C32.4615 40.8208 32.3475 40.9298 32.2001 41.0104C32.0527 41.0898 31.8688 41.1295 31.6483 41.1295C31.487 41.1295 31.3402 41.0992 31.2079 41.0388C31.0769 40.9783 30.9642 40.8926 30.8697 40.7817C30.7752 40.6696 30.7021 40.5354 30.6504 40.3792C30.6001 40.2217 30.5749 40.0466 30.5749 39.8538V39.5798C30.5749 39.387 30.6001 39.2126 30.6504 39.0563C30.7021 38.8988 30.7758 38.764 30.8716 38.6519C30.9686 38.5398 31.0851 38.4535 31.2212 38.393C31.3572 38.3325 31.5103 38.3023 31.6804 38.3023C31.8883 38.3023 32.064 38.3413 32.2077 38.4195C32.3513 38.4976 32.4628 38.6059 32.5422 38.7445C32.6228 38.8818 32.6726 39.0412 32.6915 39.2226H32.3286C32.311 39.0941 32.2782 38.9839 32.2303 38.8919C32.1825 38.7987 32.1144 38.7269 32.0262 38.6765C31.9381 38.6261 31.8228 38.6009 31.6804 38.6009C31.5582 38.6009 31.4505 38.6242 31.3572 38.6708C31.2653 38.7174 31.1878 38.7836 31.1248 38.8692C31.0631 38.9549 31.0164 39.0576 30.9849 39.1773C30.9535 39.297 30.9377 39.4299 30.9377 39.576V39.8538C30.9377 39.9886 30.9516 40.1153 30.9793 40.2337C31.0083 40.3521 31.0517 40.4561 31.1097 40.5455C31.1676 40.635 31.2413 40.7055 31.3308 40.7572C31.4202 40.8076 31.5261 40.8328 31.6483 40.8328C31.8032 40.8328 31.9267 40.8082 32.0187 40.7591C32.1107 40.7099 32.18 40.6394 32.2266 40.5474C32.2744 40.4554 32.3085 40.3452 32.3286 40.2167ZM35.307 39.6289V39.8028C35.307 40.0094 35.2812 40.1946 35.2295 40.3584C35.1778 40.5222 35.1035 40.6614 35.0065 40.7761C34.9095 40.8907 34.793 40.9783 34.6569 41.0388C34.5221 41.0992 34.3709 41.1295 34.2033 41.1295C34.0408 41.1295 33.8915 41.0992 33.7554 41.0388C33.6206 40.9783 33.5035 40.8907 33.4039 40.7761C33.3057 40.6614 33.2294 40.5222 33.1753 40.3584C33.1211 40.1946 33.094 40.0094 33.094 39.8028V39.6289C33.094 39.4223 33.1205 39.2378 33.1734 39.0752C33.2275 38.9114 33.3038 38.7722 33.402 38.6576C33.5003 38.5417 33.6169 38.4535 33.7517 38.393C33.8877 38.3325 34.037 38.3023 34.1995 38.3023C34.3671 38.3023 34.5183 38.3325 34.6531 38.393C34.7892 38.4535 34.9057 38.5417 35.0027 38.6576C35.101 38.7722 35.176 38.9114 35.2276 39.0752C35.2805 39.2378 35.307 39.4223 35.307 39.6289ZM34.946 39.8028V39.6252C34.946 39.4614 34.929 39.3165 34.895 39.1905C34.8622 39.0645 34.8137 38.9587 34.7495 38.873C34.6852 38.7873 34.6065 38.7225 34.5133 38.6784C34.4213 38.6343 34.3167 38.6122 34.1995 38.6122C34.0862 38.6122 33.9835 38.6343 33.8915 38.6784C33.8008 38.7225 33.7227 38.7873 33.6572 38.873C33.5929 38.9587 33.5431 39.0645 33.5079 39.1905C33.4726 39.3165 33.455 39.4614 33.455 39.6252V39.8028C33.455 39.9679 33.4726 40.114 33.5079 40.2413C33.5431 40.3672 33.5935 40.4737 33.6591 40.5606C33.7258 40.6463 33.8046 40.7112 33.8953 40.7553C33.9873 40.7994 34.0899 40.8214 34.2033 40.8214C34.3218 40.8214 34.427 40.7994 34.5189 40.7553C34.6109 40.7112 34.6884 40.6463 34.7514 40.5606C34.8156 40.4737 34.8641 40.3672 34.8969 40.2413C34.9297 40.114 34.946 39.9679 34.946 39.8028ZM35.9684 38.3401H36.3218L37.2233 40.5833L38.1228 38.3401H38.4781L37.3593 41.0917H37.0834L35.9684 38.3401ZM35.8531 38.3401H36.165L36.216 40.0183V41.0917H35.8531V38.3401ZM38.2797 38.3401H38.5915V41.0917H38.2287V40.0183L38.2797 38.3401ZM40.247 40.0126H39.5119V39.7159H40.247C40.3894 39.7159 40.5046 39.6932 40.5928 39.6478C40.681 39.6025 40.7453 39.5395 40.7856 39.4589C40.8272 39.3782 40.848 39.2863 40.848 39.1829C40.848 39.0885 40.8272 38.9996 40.7856 38.9165C40.7453 38.8333 40.681 38.7666 40.5928 38.7162C40.5046 38.6645 40.3894 38.6387 40.247 38.6387H39.5969V41.0917H39.2322V38.3401H40.247C40.4549 38.3401 40.6306 38.376 40.7743 38.4478C40.9179 38.5196 41.0269 38.6191 41.1012 38.7464C41.1755 38.8724 41.2127 39.0166 41.2127 39.1792C41.2127 39.3556 41.1755 39.5061 41.1012 39.6308C41.0269 39.7556 40.9179 39.8507 40.7743 39.9162C40.6306 39.9805 40.4549 40.0126 40.247 40.0126ZM42.4316 38.5839L41.5207 41.0917H41.1485L42.1973 38.3401H42.4373L42.4316 38.5839ZM43.1951 41.0917L42.2823 38.5839L42.2767 38.3401H42.5167L43.5693 41.0917H43.1951ZM43.1479 40.0731V40.3716H41.602V40.0731H43.1479ZM46.0544 38.3401V41.0917H45.6878L44.3026 38.9694V41.0917H43.9378V38.3401H44.3026L45.6935 40.468V38.3401H46.0544ZM46.7745 38.3401L47.4888 39.7215L48.2051 38.3401H48.6189L47.6703 40.0636V41.0917H47.3055V40.0636L46.3568 38.3401H46.7745Z" fill="#EDEFEE"/>
<path d="M24.3141 69.0231H46.1891V76.9397H24.3141V69.0231Z" fill="#0F0F10"/>
<path d="M0.5 52.5H70.5V69.5H0.5V52.5Z" fill="#EDEFEE"/>
<path d="M13.6559 56.5969L12.7035 59.5H11.9362L13.2374 55.998H13.7257L13.6559 56.5969ZM14.4472 59.5L13.4924 56.5969L13.4154 55.998H13.9085L15.2169 59.5H14.4472ZM14.404 58.1964V58.7616H12.5543V58.1964H14.404ZM16.191 57.4652V59.5H15.4983V56.8975H16.1502L16.191 57.4652ZM16.9752 56.8807L16.9631 57.5229C16.9295 57.5181 16.8886 57.5141 16.8405 57.5109C16.794 57.5061 16.7515 57.5037 16.713 57.5037C16.6152 57.5037 16.5302 57.5165 16.458 57.5421C16.3875 57.5662 16.3281 57.6023 16.28 57.6504C16.2335 57.6985 16.1983 57.757 16.1742 57.826C16.1518 57.8949 16.1389 57.9735 16.1357 58.0617L15.9962 58.0184C15.9962 57.85 16.0131 57.6953 16.0467 57.5542C16.0804 57.4115 16.1293 57.2872 16.1935 57.1814C16.2592 57.0755 16.3394 56.9937 16.434 56.936C16.5286 56.8783 16.6368 56.8494 16.7587 56.8494C16.7972 56.8494 16.8365 56.8526 16.8765 56.859C16.9166 56.8639 16.9495 56.8711 16.9752 56.8807ZM18.6973 56.8975V57.3882H17.182V56.8975H18.6973ZM17.5572 56.2553H18.2499V58.7159C18.2499 58.7913 18.2595 58.849 18.2788 58.8891C18.2996 58.9292 18.3301 58.9572 18.3702 58.9733C18.4103 58.9877 18.4608 58.9949 18.5217 58.9949C18.565 58.9949 18.6035 58.9933 18.6372 58.9901C18.6724 58.9853 18.7021 58.9805 18.7262 58.9757L18.7286 59.4856C18.6692 59.5048 18.6051 59.52 18.5362 59.5313C18.4672 59.5425 18.391 59.5481 18.3077 59.5481C18.1553 59.5481 18.0222 59.5233 17.9084 59.4735C17.7961 59.4222 17.7096 59.3405 17.6486 59.2282C17.5877 59.116 17.5572 58.9684 17.5572 58.7856V56.2553ZM19.823 56.8975V59.5H19.1278V56.8975H19.823ZM19.0845 56.2193C19.0845 56.1182 19.1198 56.0349 19.1904 55.9691C19.2609 55.9034 19.3555 55.8705 19.4742 55.8705C19.5912 55.8705 19.6851 55.9034 19.7556 55.9691C19.8278 56.0349 19.8638 56.1182 19.8638 56.2193C19.8638 56.3203 19.8278 56.4037 19.7556 56.4694C19.6851 56.5351 19.5912 56.568 19.4742 56.568C19.3555 56.568 19.2609 56.5351 19.1904 56.4694C19.1198 56.4037 19.0845 56.3203 19.0845 56.2193ZM21.2613 59.5H20.5662V56.7797C20.5662 56.5584 20.6111 56.3716 20.7009 56.2193C20.7923 56.0669 20.9221 55.9515 21.0905 55.8729C21.2605 55.7943 21.4657 55.755 21.7063 55.755C21.8426 55.755 21.9748 55.7687 22.1031 55.7959C22.2314 55.8216 22.3637 55.8553 22.5 55.897L22.399 56.4526C22.3108 56.4253 22.2162 56.3996 22.1151 56.3756C22.0141 56.3515 21.8923 56.3395 21.7495 56.3395C21.5892 56.3395 21.4673 56.3772 21.384 56.4526C21.3022 56.5263 21.2613 56.6354 21.2613 56.7797V59.5ZM21.7784 56.8975V57.3882H20.1789V56.8975H21.7784ZM22.8223 56.8975V59.5H22.1272V56.8975H22.8223ZM24.4771 59.0069C24.5621 59.0069 24.6374 58.9909 24.7032 58.9588C24.7689 58.9251 24.8202 58.8786 24.8571 58.8193C24.8956 58.7584 24.9156 58.687 24.9172 58.6053H25.5691C25.5675 58.788 25.5186 58.9508 25.4223 59.0935C25.3261 59.2346 25.1971 59.3461 25.0351 59.4278C24.8731 59.508 24.692 59.5481 24.4915 59.5481C24.2895 59.5481 24.1131 59.5144 23.9624 59.4471C23.8132 59.3797 23.689 59.2867 23.5896 59.1681C23.4901 59.0478 23.4156 58.9083 23.3659 58.7496C23.3162 58.5892 23.2913 58.4176 23.2913 58.2348V58.1651C23.2913 57.9807 23.3162 57.8091 23.3659 57.6504C23.4156 57.49 23.4901 57.3505 23.5896 57.2319C23.689 57.1116 23.8132 57.0178 23.9624 56.9504C24.1115 56.8831 24.2863 56.8494 24.4867 56.8494C24.7 56.8494 24.8868 56.8903 25.0471 56.9721C25.2091 57.0539 25.3358 57.1709 25.4272 57.3233C25.5202 57.474 25.5675 57.6528 25.5691 57.8596H24.9172C24.9156 57.773 24.8972 57.6945 24.8619 57.6239C24.8283 57.5534 24.7785 57.4972 24.7128 57.4555C24.6487 57.4123 24.5693 57.3906 24.4747 57.3906C24.3737 57.3906 24.2911 57.4123 24.2269 57.4555C24.1628 57.4972 24.1131 57.555 24.0778 57.6287C24.0425 57.7009 24.0177 57.7835 24.0033 57.8765C23.9904 57.9679 23.984 58.0641 23.984 58.1651V58.2348C23.984 58.3359 23.9904 58.4329 24.0033 58.5259C24.0161 58.6189 24.0401 58.7015 24.0754 58.7736C24.1123 58.8458 24.1628 58.9027 24.2269 58.9444C24.2911 58.9861 24.3745 59.0069 24.4771 59.0069ZM26.7019 56.8975V59.5H26.0068V56.8975H26.7019ZM25.9635 56.2193C25.9635 56.1182 25.9988 56.0349 26.0694 55.9691C26.1399 55.9034 26.2345 55.8705 26.3532 55.8705C26.4702 55.8705 26.564 55.9034 26.6346 55.9691C26.7067 56.0349 26.7428 56.1182 26.7428 56.2193C26.7428 56.3203 26.7067 56.4037 26.6346 56.4694C26.564 56.5351 26.4702 56.568 26.3532 56.568C26.2345 56.568 26.1399 56.5351 26.0694 56.4694C25.9988 56.4037 25.9635 56.3203 25.9635 56.2193ZM28.679 58.9131V57.7538C28.679 57.6704 28.6654 57.5991 28.6381 57.5397C28.6109 57.4788 28.5684 57.4315 28.5107 57.3978C28.4545 57.3641 28.3816 57.3473 28.2918 57.3473C28.2148 57.3473 28.1483 57.3609 28.0922 57.3882C28.036 57.4139 27.9927 57.4515 27.9623 57.5012C27.9318 57.5494 27.9166 57.6063 27.9166 57.672H27.2239C27.2239 57.5614 27.2495 57.4564 27.3008 57.3569C27.3521 57.2575 27.4267 57.1701 27.5245 57.0948C27.6223 57.0178 27.7386 56.9577 27.8733 56.9144C28.0096 56.8711 28.1619 56.8494 28.3303 56.8494C28.5323 56.8494 28.7119 56.8831 28.8691 56.9504C29.0262 57.0178 29.1497 57.1188 29.2395 57.2535C29.3309 57.3882 29.3766 57.5566 29.3766 57.7586V58.8722C29.3766 59.0149 29.3854 59.132 29.403 59.2234C29.4207 59.3132 29.4463 59.3918 29.48 59.4591V59.5H28.7801C28.7464 59.4294 28.7207 59.3413 28.7031 59.2354C28.6871 59.128 28.679 59.0206 28.679 58.9131ZM28.7704 57.9149L28.7752 58.307H28.388C28.2966 58.307 28.2172 58.3174 28.1499 58.3383C28.0825 58.3591 28.0272 58.3888 27.9839 58.4273C27.9406 58.4641 27.9086 58.5074 27.8877 58.5571C27.8685 58.6069 27.8589 58.6614 27.8589 58.7207C27.8589 58.78 27.8725 58.8337 27.8997 58.8819C27.927 58.9284 27.9663 58.9652 28.0176 58.9925C28.0689 59.0182 28.129 59.031 28.198 59.031C28.3022 59.031 28.3928 59.0101 28.4698 58.9684C28.5467 58.9268 28.6061 58.8754 28.6478 58.8145C28.6911 58.7536 28.7135 58.6958 28.7151 58.6413L28.8979 58.9348C28.8723 59.0005 28.837 59.0687 28.7921 59.1392C28.7488 59.2098 28.6935 59.2763 28.6261 59.3388C28.5588 59.3998 28.4778 59.4503 28.3832 59.4904C28.2886 59.5289 28.1763 59.5481 28.0465 59.5481C27.8813 59.5481 27.7314 59.5152 27.5967 59.4495C27.4636 59.3821 27.3578 59.2899 27.2792 59.1729C27.2022 59.0542 27.1637 58.9195 27.1637 58.7688C27.1637 58.6325 27.1894 58.5114 27.2407 58.4056C27.292 58.2998 27.3674 58.2108 27.4668 58.1386C27.5678 58.0649 27.6937 58.0096 27.8444 57.9727C27.9951 57.9342 28.1699 57.9149 28.3688 57.9149H28.7704ZM30.6417 55.8056V59.5H29.9466V55.8056H30.6417ZM33.2514 55.998V59.5H32.5322V55.998H33.2514ZM34.5622 57.4531V59.5H33.8695V56.8975H34.519L34.5622 57.4531ZM34.4612 58.1074H34.2736C34.2736 57.9149 34.2985 57.7418 34.3482 57.5878C34.3979 57.4323 34.4676 57.3 34.5574 57.191C34.6472 57.0803 34.7539 56.9961 34.8773 56.9384C35.0024 56.8791 35.1419 56.8494 35.2958 56.8494C35.4177 56.8494 35.5292 56.8671 35.6302 56.9023C35.7312 56.9376 35.8178 56.9937 35.8899 57.0707C35.9637 57.1477 36.0198 57.2495 36.0583 57.3762C36.0984 57.5029 36.1184 57.6576 36.1184 57.8404V59.5H35.4209V57.838C35.4209 57.7225 35.4049 57.6327 35.3728 57.5686C35.3407 57.5045 35.2934 57.4596 35.2309 57.4339C35.17 57.4066 35.0946 57.393 35.0048 57.393C34.9118 57.393 34.8308 57.4115 34.7619 57.4483C34.6945 57.4852 34.6384 57.5365 34.5935 57.6023C34.5502 57.6664 34.5173 57.7418 34.4949 57.8284C34.4725 57.9149 34.4612 58.008 34.4612 58.1074ZM37.92 56.8975V57.3882H36.4047V56.8975H37.92ZM36.7799 56.2553H37.4726V58.7159C37.4726 58.7913 37.4822 58.849 37.5014 58.8891C37.5223 58.9292 37.5528 58.9572 37.5928 58.9733C37.6329 58.9877 37.6834 58.9949 37.7444 58.9949C37.7877 58.9949 37.8262 58.9933 37.8598 58.9901C37.8951 58.9853 37.9248 58.9805 37.9488 58.9757L37.9512 59.4856C37.8919 59.5048 37.8278 59.52 37.7588 59.5313C37.6899 59.5425 37.6137 59.5481 37.5303 59.5481C37.378 59.5481 37.2449 59.5233 37.131 59.4735C37.0188 59.4222 36.9322 59.3405 36.8713 59.2282C36.8103 59.116 36.7799 58.9684 36.7799 58.7856V56.2553ZM39.5122 59.5481C39.3102 59.5481 39.129 59.516 38.9686 59.4519C38.8083 59.3862 38.672 59.2956 38.5598 59.1801C38.4491 59.0647 38.3641 58.9308 38.3048 58.7784C38.2455 58.6245 38.2158 58.4609 38.2158 58.2878V58.1916C38.2158 57.9943 38.2439 57.8139 38.3 57.6504C38.3561 57.4868 38.4363 57.3449 38.5405 57.2246C38.6463 57.1044 38.7746 57.0122 38.9253 56.948C39.0761 56.8823 39.246 56.8494 39.4353 56.8494C39.6197 56.8494 39.7832 56.8799 39.9259 56.9408C40.0686 57.0018 40.1881 57.0883 40.2843 57.2006C40.3821 57.3128 40.4559 57.4475 40.5056 57.6047C40.5553 57.7602 40.5802 57.9334 40.5802 58.1242V58.4128H38.5116V57.951H39.8995V57.8981C39.8995 57.8019 39.8818 57.7161 39.8466 57.6408C39.8129 57.5638 39.7616 57.5029 39.6926 57.458C39.6237 57.4131 39.5355 57.3906 39.428 57.3906C39.3366 57.3906 39.2581 57.4107 39.1923 57.4507C39.1266 57.4908 39.0729 57.5469 39.0312 57.6191C38.9911 57.6913 38.9606 57.7762 38.9398 57.8741C38.9205 57.9703 38.9109 58.0761 38.9109 58.1916V58.2878C38.9109 58.392 38.9253 58.4882 38.9542 58.5764C38.9847 58.6646 39.0272 58.7407 39.0817 58.8049C39.1378 58.869 39.2052 58.9187 39.2837 58.954C39.3639 58.9893 39.4545 59.0069 39.5555 59.0069C39.6806 59.0069 39.7968 58.9829 39.9043 58.9348C40.0133 58.8851 40.1071 58.8105 40.1857 58.7111L40.5224 59.0767C40.4679 59.1552 40.3933 59.2306 40.2987 59.3028C40.2057 59.3749 40.0935 59.4343 39.962 59.4808C39.8305 59.5257 39.6806 59.5481 39.5122 59.5481ZM41.7058 55.8056V59.5H41.0107V55.8056H41.7058ZM43.0094 55.8056V59.5H42.3143V55.8056H43.0094ZM44.3131 56.8975V59.5H43.618V56.8975H44.3131ZM43.5747 56.2193C43.5747 56.1182 43.6099 56.0349 43.6805 55.9691C43.7511 55.9034 43.8457 55.8705 43.9643 55.8705C44.0814 55.8705 44.1752 55.9034 44.2457 55.9691C44.3179 56.0349 44.354 56.1182 44.354 56.2193C44.354 56.3203 44.3179 56.4037 44.2457 56.4694C44.1752 56.5351 44.0814 56.568 43.9643 56.568C43.8457 56.568 43.7511 56.5351 43.6805 56.4694C43.6099 56.4037 43.5747 56.3203 43.5747 56.2193ZM46.5331 56.8975H47.1609V59.4134C47.1609 59.6507 47.108 59.852 47.0021 60.0171C46.8979 60.1839 46.752 60.3098 46.5644 60.3947C46.3768 60.4813 46.1587 60.5246 45.9102 60.5246C45.8011 60.5246 45.6857 60.5102 45.5638 60.4813C45.4435 60.4525 45.3281 60.4076 45.2174 60.3466C45.1084 60.2857 45.017 60.2087 44.9432 60.1157L45.2487 59.7069C45.3289 59.7999 45.4219 59.872 45.5277 59.9233C45.6335 59.9762 45.7506 60.0027 45.8789 60.0027C46.004 60.0027 46.1098 59.9794 46.1964 59.9329C46.283 59.888 46.3495 59.8215 46.396 59.7333C46.4425 59.6467 46.4658 59.5417 46.4658 59.4182V57.4988L46.5331 56.8975ZM44.7821 58.23V58.1795C44.7821 57.9807 44.8061 57.8003 44.8543 57.6383C44.904 57.4748 44.9737 57.3345 45.0635 57.2174C45.1549 57.1004 45.2655 57.0098 45.3954 56.9456C45.5253 56.8815 45.672 56.8494 45.8356 56.8494C46.0088 56.8494 46.1539 56.8815 46.2709 56.9456C46.388 57.0098 46.4842 57.1012 46.5596 57.2198C46.6349 57.3369 46.6935 57.4756 46.7351 57.6359C46.7784 57.7947 46.8121 57.9687 46.8362 58.1579V58.2685C46.8121 58.4497 46.776 58.6181 46.7279 58.7736C46.6798 58.9292 46.6165 59.0655 46.5379 59.1825C46.4593 59.298 46.3615 59.3878 46.2445 59.4519C46.129 59.516 45.9911 59.5481 45.8308 59.5481C45.6704 59.5481 45.5253 59.5152 45.3954 59.4495C45.2672 59.3837 45.1573 59.2915 45.0659 59.1729C44.9745 59.0542 44.904 58.9147 44.8543 58.7544C44.8061 58.594 44.7821 58.4192 44.7821 58.23ZM45.4748 58.1795V58.23C45.4748 58.3375 45.4852 58.4377 45.5061 58.5307C45.5269 58.6237 45.559 58.7063 45.6023 58.7784C45.6472 58.849 45.7025 58.9043 45.7682 58.9444C45.8356 58.9829 45.915 59.0021 46.0064 59.0021C46.133 59.0021 46.2365 58.9757 46.3166 58.9227C46.3968 58.8682 46.4569 58.7937 46.497 58.6991C46.5371 58.6045 46.5604 58.4954 46.5668 58.3719V58.0569C46.5636 57.9558 46.5499 57.8652 46.5259 57.7851C46.5018 57.7033 46.4682 57.6335 46.4249 57.5758C46.3816 57.5181 46.3255 57.4732 46.2565 57.4411C46.1876 57.409 46.1058 57.393 46.0112 57.393C45.9198 57.393 45.8404 57.4139 45.7731 57.4555C45.7073 57.4956 45.652 57.551 45.6071 57.6215C45.5638 57.6921 45.5309 57.7754 45.5085 57.8717C45.486 57.9663 45.4748 58.0689 45.4748 58.1795ZM48.8975 59.5481C48.6954 59.5481 48.5142 59.516 48.3539 59.4519C48.1935 59.3862 48.0572 59.2956 47.945 59.1801C47.8343 59.0647 47.7494 58.9308 47.69 58.7784C47.6307 58.6245 47.601 58.4609 47.601 58.2878V58.1916C47.601 57.9943 47.6291 57.8139 47.6852 57.6504C47.7413 57.4868 47.8215 57.3449 47.9257 57.2246C48.0316 57.1044 48.1599 57.0122 48.3106 56.948C48.4613 56.8823 48.6313 56.8494 48.8205 56.8494C49.0049 56.8494 49.1685 56.8799 49.3112 56.9408C49.4539 57.0018 49.5733 57.0883 49.6695 57.2006C49.7674 57.3128 49.8411 57.4475 49.8908 57.6047C49.9405 57.7602 49.9654 57.9334 49.9654 58.1242V58.4128H47.8969V57.951H49.2847V57.8981C49.2847 57.8019 49.2671 57.7161 49.2318 57.6408C49.1981 57.5638 49.1468 57.5029 49.0779 57.458C49.0089 57.4131 48.9207 57.3906 48.8133 57.3906C48.7219 57.3906 48.6433 57.4107 48.5776 57.4507C48.5118 57.4908 48.4581 57.5469 48.4164 57.6191C48.3763 57.6913 48.3459 57.7762 48.325 57.8741C48.3058 57.9703 48.2962 58.0761 48.2962 58.1916V58.2878C48.2962 58.392 48.3106 58.4882 48.3394 58.5764C48.3699 58.6646 48.4124 58.7407 48.4669 58.8049C48.523 58.869 48.5904 58.9187 48.669 58.954C48.7491 58.9893 48.8397 59.0069 48.9408 59.0069C49.0658 59.0069 49.1821 58.9829 49.2895 58.9348C49.3986 58.8851 49.4924 58.8105 49.5709 58.7111L49.9077 59.0767C49.8531 59.1552 49.7786 59.2306 49.684 59.3028C49.591 59.3749 49.4787 59.4343 49.3472 59.4808C49.2158 59.5257 49.0658 59.5481 48.8975 59.5481ZM51.0381 57.4531V59.5H50.3454V56.8975H50.9948L51.0381 57.4531ZM50.9371 58.1074H50.7495C50.7495 57.9149 50.7743 57.7418 50.8241 57.5878C50.8738 57.4323 50.9435 57.3 51.0333 57.191C51.1231 57.0803 51.2297 56.9961 51.3532 56.9384C51.4783 56.8791 51.6178 56.8494 51.7717 56.8494C51.8936 56.8494 52.005 56.8671 52.106 56.9023C52.2071 56.9376 52.2937 56.9937 52.3658 57.0707C52.4396 57.1477 52.4957 57.2495 52.5342 57.3762C52.5743 57.5029 52.5943 57.6576 52.5943 57.8404V59.5H51.8968V57.838C51.8968 57.7225 51.8808 57.6327 51.8487 57.5686C51.8166 57.5045 51.7693 57.4596 51.7068 57.4339C51.6458 57.4066 51.5705 57.393 51.4807 57.393C51.3877 57.393 51.3067 57.4115 51.2378 57.4483C51.1704 57.4852 51.1143 57.5365 51.0694 57.6023C51.0261 57.6664 50.9932 57.7418 50.9708 57.8284C50.9483 57.9149 50.9371 58.008 50.9371 58.1074ZM54.1962 59.0069C54.2812 59.0069 54.3565 58.9909 54.4223 58.9588C54.488 58.9251 54.5393 58.8786 54.5762 58.8193C54.6147 58.7584 54.6348 58.687 54.6364 58.6053H55.2882C55.2866 58.788 55.2377 58.9508 55.1415 59.0935C55.0452 59.2346 54.9162 59.3461 54.7542 59.4278C54.5923 59.508 54.4111 59.5481 54.2106 59.5481C54.0086 59.5481 53.8322 59.5144 53.6815 59.4471C53.5324 59.3797 53.4081 59.2867 53.3087 59.1681C53.2092 59.0478 53.1347 58.9083 53.085 58.7496C53.0353 58.5892 53.0104 58.4176 53.0104 58.2348V58.1651C53.0104 57.9807 53.0353 57.8091 53.085 57.6504C53.1347 57.49 53.2092 57.3505 53.3087 57.2319C53.4081 57.1116 53.5324 57.0178 53.6815 56.9504C53.8306 56.8831 54.0054 56.8494 54.2058 56.8494C54.4191 56.8494 54.6059 56.8903 54.7662 56.9721C54.9282 57.0539 55.0549 57.1709 55.1463 57.3233C55.2393 57.474 55.2866 57.6528 55.2882 57.8596H54.6364C54.6348 57.773 54.6163 57.6945 54.581 57.6239C54.5474 57.5534 54.4977 57.4972 54.4319 57.4555C54.3678 57.4123 54.2884 57.3906 54.1938 57.3906C54.0928 57.3906 54.0102 57.4123 53.9461 57.4555C53.8819 57.4972 53.8322 57.555 53.7969 57.6287C53.7617 57.7009 53.7368 57.7835 53.7224 57.8765C53.7095 57.9679 53.7031 58.0641 53.7031 58.1651V58.2348C53.7031 58.3359 53.7095 58.4329 53.7224 58.5259C53.7352 58.6189 53.7592 58.7015 53.7945 58.7736C53.8314 58.8458 53.8819 58.9027 53.9461 58.9444C54.0102 58.9861 54.0936 59.0069 54.1962 59.0069ZM56.8877 59.5481C56.6856 59.5481 56.5044 59.516 56.3441 59.4519C56.1837 59.3862 56.0474 59.2956 55.9352 59.1801C55.8245 59.0647 55.7396 58.9308 55.6802 58.7784C55.6209 58.6245 55.5912 58.4609 55.5912 58.2878V58.1916C55.5912 57.9943 55.6193 57.8139 55.6754 57.6504C55.7315 57.4868 55.8117 57.3449 55.9159 57.2246C56.0218 57.1044 56.1501 57.0122 56.3008 56.948C56.4515 56.8823 56.6215 56.8494 56.8107 56.8494C56.9951 56.8494 57.1586 56.8799 57.3014 56.9408C57.4441 57.0018 57.5635 57.0883 57.6597 57.2006C57.7576 57.3128 57.8313 57.4475 57.881 57.6047C57.9307 57.7602 57.9556 57.9334 57.9556 58.1242V58.4128H55.8871V57.951H57.2749V57.8981C57.2749 57.8019 57.2573 57.7161 57.222 57.6408C57.1883 57.5638 57.137 57.5029 57.0681 57.458C56.9991 57.4131 56.9109 57.3906 56.8035 57.3906C56.7121 57.3906 56.6335 57.4107 56.5678 57.4507C56.502 57.4908 56.4483 57.5469 56.4066 57.6191C56.3665 57.6913 56.3361 57.7762 56.3152 57.8741C56.296 57.9703 56.2863 58.0761 56.2863 58.1916V58.2878C56.2863 58.392 56.3008 58.4882 56.3296 58.5764C56.3601 58.6646 56.4026 58.7407 56.4571 58.8049C56.5132 58.869 56.5806 58.9187 56.6592 58.954C56.7393 58.9893 56.8299 59.0069 56.931 59.0069C57.056 59.0069 57.1723 58.9829 57.2797 58.9348C57.3887 58.8851 57.4826 58.8105 57.5611 58.7111L57.8979 59.0767C57.8433 59.1552 57.7688 59.2306 57.6742 59.3028C57.5812 59.3749 57.4689 59.4343 57.3374 59.4808C57.206 59.5257 57.056 59.5481 56.8877 59.5481ZM26.8823 64.3383H27.6015C27.5871 64.574 27.5221 64.7832 27.4067 64.966C27.2928 65.1488 27.1333 65.2915 26.928 65.3942C26.7244 65.4968 26.479 65.5481 26.192 65.5481C25.9675 65.5481 25.7663 65.5096 25.5883 65.4327C25.4103 65.3541 25.258 65.2418 25.1313 65.0959C25.0062 64.95 24.9108 64.7736 24.8451 64.5668C24.7793 64.3599 24.7465 64.1282 24.7465 63.8717V63.6287C24.7465 63.3722 24.7801 63.1405 24.8475 62.9336C24.9164 62.7252 25.0143 62.548 25.1409 62.4021C25.2692 62.2561 25.4223 62.1439 25.6003 62.0653C25.7783 61.9868 25.9772 61.9475 26.1968 61.9475C26.4887 61.9475 26.7348 62.0004 26.9352 62.1062C27.1373 62.212 27.2936 62.358 27.4043 62.544C27.5165 62.73 27.5839 62.9416 27.6063 63.1789H26.8847C26.8767 63.0378 26.8487 62.9184 26.8005 62.8206C26.7524 62.7211 26.6795 62.6466 26.5817 62.5969C26.4855 62.5456 26.3572 62.5199 26.1968 62.5199C26.0766 62.5199 25.9715 62.5424 25.8817 62.5873C25.792 62.6322 25.7166 62.7003 25.6557 62.7917C25.5947 62.8831 25.549 62.9986 25.5186 63.1381C25.4897 63.276 25.4753 63.4379 25.4753 63.6239V63.8717C25.4753 64.0528 25.4889 64.2124 25.5161 64.3503C25.5434 64.4866 25.5851 64.602 25.6412 64.6967C25.6989 64.7897 25.7727 64.8602 25.8625 64.9083C25.9539 64.9548 26.0637 64.9781 26.192 64.9781C26.3427 64.9781 26.467 64.954 26.5648 64.9059C26.6626 64.8578 26.7372 64.7864 26.7885 64.6918C26.8414 64.5972 26.8727 64.4794 26.8823 64.3383ZM27.9214 64.2252V64.1747C27.9214 63.9839 27.9486 63.8083 28.0032 63.648C28.0577 63.486 28.1371 63.3457 28.2413 63.2271C28.3455 63.1084 28.4738 63.0162 28.6261 62.9504C28.7785 62.8831 28.9532 62.8494 29.1505 62.8494C29.3477 62.8494 29.5233 62.8831 29.6772 62.9504C29.8311 63.0162 29.9602 63.1084 30.0645 63.2271C30.1703 63.3457 30.2505 63.486 30.305 63.648C30.3595 63.8083 30.3868 63.9839 30.3868 64.1747V64.2252C30.3868 64.4144 30.3595 64.59 30.305 64.752C30.2505 64.9123 30.1703 65.0526 30.0645 65.1729C29.9602 65.2915 29.8319 65.3837 29.6796 65.4495C29.5273 65.5152 29.3525 65.5481 29.1553 65.5481C28.958 65.5481 28.7825 65.5152 28.6285 65.4495C28.4762 65.3837 28.3471 65.2915 28.2413 65.1729C28.1371 65.0526 28.0577 64.9123 28.0032 64.752C27.9486 64.59 27.9214 64.4144 27.9214 64.2252ZM28.6141 64.1747V64.2252C28.6141 64.3343 28.6237 64.4361 28.643 64.5307C28.6622 64.6253 28.6927 64.7087 28.7344 64.7808C28.7777 64.8514 28.8338 64.9067 28.9027 64.9468C28.9717 64.9869 29.0559 65.0069 29.1553 65.0069C29.2515 65.0069 29.3341 64.9869 29.403 64.9468C29.472 64.9067 29.5273 64.8514 29.569 64.7808C29.6107 64.7087 29.6411 64.6253 29.6604 64.5307C29.6812 64.4361 29.6916 64.3343 29.6916 64.2252V64.1747C29.6916 64.0689 29.6812 63.9695 29.6604 63.8765C29.6411 63.7819 29.6099 63.6985 29.5666 63.6263C29.5249 63.5526 29.4696 63.4948 29.4006 63.4531C29.3317 63.4115 29.2483 63.3906 29.1505 63.3906C29.0527 63.3906 28.9693 63.4115 28.9003 63.4531C28.833 63.4948 28.7777 63.5526 28.7344 63.6263C28.6927 63.6985 28.6622 63.7819 28.643 63.8765C28.6237 63.9695 28.6141 64.0689 28.6141 64.1747ZM31.5052 63.4363V65.5H30.8101V62.8975H31.4619L31.5052 63.4363ZM31.409 64.1074H31.2166C31.2166 63.9262 31.2382 63.7594 31.2815 63.6071C31.3264 63.4531 31.3913 63.3201 31.4763 63.2078C31.5629 63.094 31.6695 63.0058 31.7962 62.9432C31.9229 62.8807 32.0696 62.8494 32.2364 62.8494C32.3518 62.8494 32.4577 62.8671 32.5539 62.9023C32.6501 62.936 32.7327 62.9897 32.8016 63.0635C32.8722 63.1357 32.9267 63.2303 32.9652 63.3473C33.0037 63.4628 33.0229 63.6015 33.0229 63.7634V65.5H32.3302V63.8404C32.3302 63.7217 32.3142 63.6303 32.2821 63.5662C32.25 63.502 32.2043 63.4572 32.145 63.4315C32.0873 63.4058 32.0175 63.393 31.9357 63.393C31.8459 63.393 31.7674 63.4115 31.7 63.4483C31.6343 63.4852 31.5798 63.5365 31.5365 63.6023C31.4932 63.6664 31.4611 63.7418 31.4402 63.8284C31.4194 63.9149 31.409 64.008 31.409 64.1074ZM32.958 64.028L32.7102 64.0593C32.7102 63.8893 32.7311 63.7313 32.7727 63.5854C32.816 63.4395 32.8794 63.3112 32.9628 63.2006C33.0477 63.09 33.1528 63.0042 33.2778 62.9432C33.4029 62.8807 33.5472 62.8494 33.7108 62.8494C33.8359 62.8494 33.9497 62.8679 34.0523 62.9047C34.155 62.94 34.2423 62.9969 34.3145 63.0755C34.3883 63.1525 34.4444 63.2535 34.4829 63.3786C34.523 63.5037 34.543 63.6568 34.543 63.838V65.5H33.8479V63.838C33.8479 63.7177 33.8319 63.6263 33.7998 63.5638C33.7693 63.4996 33.7244 63.4555 33.6651 63.4315C33.6074 63.4058 33.5384 63.393 33.4582 63.393C33.3749 63.393 33.3019 63.4098 33.2394 63.4435C33.1768 63.4756 33.1247 63.5205 33.083 63.5782C33.0413 63.6359 33.0101 63.7033 32.9892 63.7803C32.9684 63.8556 32.958 63.9382 32.958 64.028ZM35.7721 63.3978V66.5006H35.0794V62.8975H35.7216L35.7721 63.3978ZM37.4197 64.1699V64.2204C37.4197 64.4096 37.3972 64.5852 37.3523 64.7472C37.309 64.9091 37.2449 65.0502 37.1599 65.1705C37.0749 65.2891 36.9691 65.3821 36.8424 65.4495C36.7173 65.5152 36.573 65.5481 36.4095 65.5481C36.2507 65.5481 36.1128 65.516 35.9958 65.4519C35.8787 65.3878 35.7801 65.298 35.6999 65.1825C35.6214 65.0655 35.558 64.93 35.5099 64.776C35.4618 64.6221 35.4249 64.4569 35.3993 64.2805V64.1483C35.4249 63.959 35.4618 63.7859 35.5099 63.6287C35.558 63.47 35.6214 63.3329 35.6999 63.2174C35.7801 63.1004 35.8779 63.0098 35.9934 62.9456C36.1104 62.8815 36.2475 62.8494 36.4047 62.8494C36.5698 62.8494 36.7149 62.8807 36.84 62.9432C36.9667 63.0058 37.0725 63.0956 37.1575 63.2126C37.2441 63.3297 37.309 63.4692 37.3523 63.6311C37.3972 63.7931 37.4197 63.9727 37.4197 64.1699ZM36.7246 64.2204V64.1699C36.7246 64.0593 36.7149 63.9574 36.6957 63.8644C36.6781 63.7698 36.6492 63.6873 36.6091 63.6167C36.5706 63.5461 36.5193 63.4916 36.4552 63.4531C36.3926 63.4131 36.3165 63.393 36.2267 63.393C36.1321 63.393 36.0511 63.4082 35.9837 63.4387C35.918 63.4692 35.8643 63.5133 35.8226 63.571C35.7809 63.6287 35.7496 63.6977 35.7288 63.7779C35.7079 63.858 35.6951 63.9486 35.6903 64.0496V64.384C35.6983 64.5026 35.7208 64.6093 35.7576 64.7039C35.7945 64.7969 35.8515 64.8706 35.9284 64.9251C36.0054 64.9797 36.1064 65.0069 36.2315 65.0069C36.3229 65.0069 36.3998 64.9869 36.4624 64.9468C36.5249 64.9051 36.5754 64.8482 36.6139 64.776C36.654 64.7039 36.6821 64.6205 36.6981 64.5259C36.7157 64.4313 36.7246 64.3295 36.7246 64.2204ZM39.2549 64.9131V63.7538C39.2549 63.6704 39.2412 63.5991 39.214 63.5397C39.1867 63.4788 39.1442 63.4315 39.0865 63.3978C39.0304 63.3641 38.9574 63.3473 38.8676 63.3473C38.7907 63.3473 38.7241 63.3609 38.668 63.3882C38.6119 63.4139 38.5686 63.4515 38.5381 63.5012C38.5076 63.5494 38.4924 63.6063 38.4924 63.672H37.7997C37.7997 63.5614 37.8254 63.4564 37.8767 63.3569C37.928 63.2575 38.0025 63.1701 38.1003 63.0948C38.1982 63.0178 38.3144 62.9577 38.4491 62.9144C38.5854 62.8711 38.7377 62.8494 38.9061 62.8494C39.1081 62.8494 39.2877 62.8831 39.4449 62.9504C39.602 63.0178 39.7255 63.1188 39.8153 63.2535C39.9067 63.3882 39.9524 63.5566 39.9524 63.7586V64.8722C39.9524 65.0149 39.9612 65.132 39.9788 65.2234C39.9965 65.3132 40.0221 65.3918 40.0558 65.4591V65.5H39.3559C39.3222 65.4294 39.2966 65.3413 39.2789 65.2354C39.2629 65.128 39.2549 65.0206 39.2549 64.9131ZM39.3463 63.9149L39.3511 64.307H38.9638C38.8724 64.307 38.7931 64.3174 38.7257 64.3383C38.6584 64.3591 38.603 64.3888 38.5597 64.4273C38.5165 64.4641 38.4844 64.5074 38.4635 64.5571C38.4443 64.6069 38.4347 64.6614 38.4347 64.7207C38.4347 64.78 38.4483 64.8337 38.4756 64.8819C38.5028 64.9284 38.5421 64.9652 38.5934 64.9925C38.6447 65.0182 38.7049 65.031 38.7738 65.031C38.878 65.031 38.9686 65.0101 39.0456 64.9684C39.1226 64.9268 39.1819 64.8754 39.2236 64.8145C39.2669 64.7536 39.2893 64.6958 39.2909 64.6413L39.4737 64.9348C39.4481 65.0005 39.4128 65.0687 39.3679 65.1392C39.3246 65.2098 39.2693 65.2763 39.2019 65.3388C39.1346 65.3998 39.0536 65.4503 38.959 65.4904C38.8644 65.5289 38.7522 65.5481 38.6223 65.5481C38.4571 65.5481 38.3072 65.5152 38.1725 65.4495C38.0394 65.3821 37.9336 65.2899 37.855 65.1729C37.778 65.0542 37.7396 64.9195 37.7396 64.7688C37.7396 64.6325 37.7652 64.5114 37.8165 64.4056C37.8678 64.2998 37.9432 64.2108 38.0426 64.1386C38.1436 64.0649 38.2695 64.0096 38.4202 63.9727C38.571 63.9342 38.7458 63.9149 38.9446 63.9149H39.3463ZM41.1646 63.4531V65.5H40.4719V62.8975H41.1213L41.1646 63.4531ZM41.0636 64.1074H40.876C40.876 63.9149 40.9008 63.7418 40.9506 63.5878C41.0003 63.4323 41.07 63.3 41.1598 63.191C41.2496 63.0803 41.3562 62.9961 41.4797 62.9384C41.6048 62.8791 41.7443 62.8494 41.8982 62.8494C42.0201 62.8494 42.1315 62.8671 42.2325 62.9023C42.3336 62.9376 42.4202 62.9937 42.4923 63.0707C42.5661 63.1477 42.6222 63.2495 42.6607 63.3762C42.7008 63.5029 42.7208 63.6576 42.7208 63.8404V65.5H42.0233V63.838C42.0233 63.7225 42.0073 63.6327 41.9752 63.5686C41.9431 63.5045 41.8958 63.4596 41.8333 63.4339C41.7723 63.4066 41.697 63.393 41.6072 63.393C41.5142 63.393 41.4332 63.4115 41.3643 63.4483C41.2969 63.4852 41.2408 63.5365 41.1959 63.6023C41.1526 63.6664 41.1197 63.7418 41.0973 63.8284C41.0748 63.9149 41.0636 64.008 41.0636 64.1074ZM44.0196 65.2066L44.7099 62.8975H45.4532L44.4069 65.8921C44.3844 65.9578 44.354 66.0284 44.3155 66.1037C44.2786 66.1791 44.2281 66.2504 44.164 66.3178C44.1014 66.3867 44.022 66.4429 43.9258 66.4861C43.8312 66.5294 43.715 66.5511 43.5771 66.5511C43.5113 66.5511 43.4576 66.5471 43.4159 66.5391C43.3742 66.531 43.3245 66.5198 43.2668 66.5054V65.9979C43.2844 65.9979 43.3029 65.9979 43.3221 65.9979C43.3414 65.9995 43.3598 66.0003 43.3774 66.0003C43.4688 66.0003 43.5434 65.9899 43.6011 65.969C43.6589 65.9482 43.7054 65.9161 43.7406 65.8728C43.7759 65.8311 43.804 65.7766 43.8248 65.7093L44.0196 65.2066ZM43.731 62.8975L44.2962 64.7832L44.3949 65.5168L43.9234 65.5673L42.9878 62.8975H43.731Z" fill="#0F0F10"/>
<path d="M32.4513 73.6622V73.8972H30.9778V73.6916L31.7153 72.8705C31.806 72.7695 31.8761 72.6839 31.9256 72.6139C31.9761 72.5427 32.0112 72.4793 32.0307 72.4237C32.0514 72.367 32.0617 72.3092 32.0617 72.2505C32.0617 72.1763 32.0462 72.1093 32.0153 72.0495C31.9854 71.9887 31.9411 71.9402 31.8823 71.9041C31.8235 71.8681 31.7524 71.85 31.6689 71.85C31.5689 71.85 31.4854 71.8696 31.4184 71.9088C31.3525 71.9469 31.303 72.0005 31.27 72.0696C31.237 72.1386 31.2205 72.218 31.2205 72.3077H30.9345C30.9345 72.1809 30.9623 72.0649 31.018 71.9598C31.0736 71.8547 31.1561 71.7712 31.2654 71.7093C31.3746 71.6464 31.5091 71.615 31.6689 71.615C31.8112 71.615 31.9328 71.6402 32.0338 71.6908C32.1349 71.7402 32.2122 71.8103 32.2658 71.901C32.3204 71.9907 32.3477 72.0959 32.3477 72.2165C32.3477 72.2824 32.3364 72.3494 32.3137 72.4175C32.2921 72.4845 32.2616 72.5515 32.2225 72.6185C32.1843 72.6855 32.1395 72.7515 32.088 72.8164C32.0374 72.8813 31.9833 72.9453 31.9256 73.0081L31.3226 73.6622H32.4513ZM34.1707 72.5922V72.9355C34.1707 73.12 34.1542 73.2756 34.1212 73.4024C34.0883 73.5292 34.0408 73.6313 33.979 73.7086C33.9171 73.7859 33.8424 73.8421 33.7548 73.8771C33.6682 73.9111 33.5703 73.9281 33.461 73.9281C33.3744 73.9281 33.2945 73.9173 33.2213 73.8957C33.1481 73.874 33.0822 73.8395 33.0234 73.7921C32.9657 73.7436 32.9162 73.6807 32.875 73.6034C32.8337 73.5261 32.8023 73.4323 32.7807 73.322C32.759 73.2117 32.7482 73.0829 32.7482 72.9355V72.5922C32.7482 72.4077 32.7647 72.2531 32.7977 72.1283C32.8317 72.0036 32.8796 71.9036 32.9415 71.8284C33.0033 71.7521 33.0775 71.6975 33.1641 71.6645C33.2517 71.6315 33.3497 71.615 33.4579 71.615C33.5455 71.615 33.6259 71.6258 33.6991 71.6475C33.7733 71.6681 33.8393 71.7016 33.897 71.748C33.9548 71.7933 34.0037 71.8541 34.0439 71.9304C34.0852 72.0057 34.1166 72.0979 34.1382 72.2072C34.1599 72.3165 34.1707 72.4448 34.1707 72.5922ZM33.8831 72.9819V72.5443C33.8831 72.4433 33.8769 72.3546 33.8646 72.2783C33.8532 72.201 33.8362 72.135 33.8135 72.0804C33.7909 72.0258 33.762 71.9814 33.7269 71.9474C33.6929 71.9134 33.6532 71.8887 33.6079 71.8732C33.5636 71.8567 33.5136 71.8485 33.4579 71.8485C33.3899 71.8485 33.3296 71.8614 33.277 71.8871C33.2244 71.9119 33.1801 71.9516 33.144 72.0062C33.109 72.0608 33.0822 72.1325 33.0636 72.2211C33.0451 72.3098 33.0358 72.4175 33.0358 72.5443V72.9819C33.0358 73.0829 33.0415 73.172 33.0528 73.2493C33.0652 73.3267 33.0832 73.3937 33.1069 73.4504C33.1306 73.506 33.1595 73.5519 33.1935 73.588C33.2275 73.6241 33.2667 73.6509 33.311 73.6684C33.3564 73.6849 33.4064 73.6931 33.461 73.6931C33.5311 73.6931 33.5924 73.6797 33.645 73.6529C33.6976 73.6261 33.7414 73.5844 33.7764 73.5277C33.8125 73.4699 33.8393 73.3962 33.8568 73.3066C33.8744 73.2158 33.8831 73.1076 33.8831 72.9819ZM36.0138 73.6622V73.8972H34.5403V73.6916L35.2778 72.8705C35.3685 72.7695 35.4386 72.6839 35.4881 72.6139C35.5386 72.5427 35.5737 72.4793 35.5932 72.4237C35.6139 72.367 35.6242 72.3092 35.6242 72.2505C35.6242 72.1763 35.6087 72.1093 35.5778 72.0495C35.5479 71.9887 35.5036 71.9402 35.4448 71.9041C35.386 71.8681 35.3149 71.85 35.2314 71.85C35.1314 71.85 35.0479 71.8696 34.9809 71.9088C34.915 71.9469 34.8655 72.0005 34.8325 72.0696C34.7995 72.1386 34.783 72.218 34.783 72.3077H34.497C34.497 72.1809 34.5248 72.0649 34.5805 71.9598C34.6361 71.8547 34.7186 71.7712 34.8279 71.7093C34.9371 71.6464 35.0716 71.615 35.2314 71.615C35.3737 71.615 35.4953 71.6402 35.5963 71.6908C35.6974 71.7402 35.7747 71.8103 35.8283 71.901C35.8829 71.9907 35.9102 72.0959 35.9102 72.2165C35.9102 72.2824 35.8989 72.3494 35.8762 72.4175C35.8546 72.4845 35.8241 72.5515 35.785 72.6185C35.7468 72.6855 35.702 72.7515 35.6505 72.8164C35.5999 72.8813 35.5458 72.9453 35.4881 73.0081L34.8851 73.6622H36.0138ZM36.7374 72.6309H36.9415C37.0415 72.6309 37.124 72.6144 37.1889 72.5814C37.2549 72.5474 37.3039 72.5015 37.3358 72.4438C37.3688 72.385 37.3853 72.319 37.3853 72.2458C37.3853 72.1593 37.3709 72.0866 37.342 72.0278C37.3132 71.9691 37.2699 71.9248 37.2121 71.8949C37.1544 71.865 37.0812 71.85 36.9926 71.85C36.9122 71.85 36.841 71.866 36.7792 71.8979C36.7184 71.9289 36.6704 71.9732 36.6354 72.0309C36.6014 72.0887 36.5844 72.1567 36.5844 72.235H36.2983C36.2983 72.1206 36.3272 72.0165 36.3849 71.9227C36.4426 71.8289 36.5236 71.7542 36.6277 71.6985C36.7328 71.6428 36.8544 71.615 36.9926 71.615C37.1286 71.615 37.2477 71.6392 37.3498 71.6877C37.4518 71.7351 37.5312 71.8062 37.5879 71.901C37.6446 71.9948 37.6729 72.1118 37.6729 72.252C37.6729 72.3087 37.6595 72.3695 37.6327 72.4345C37.6069 72.4984 37.5662 72.5582 37.5106 72.6139C37.4559 72.6695 37.3848 72.7154 37.2972 72.7515C37.2096 72.7865 37.1044 72.804 36.9818 72.804H36.7374V72.6309ZM36.7374 72.8659V72.6943H36.9818C37.125 72.6943 37.2436 72.7113 37.3374 72.7453C37.4312 72.7793 37.5049 72.8247 37.5585 72.8813C37.6131 72.938 37.6513 73.0004 37.6729 73.0684C37.6956 73.1354 37.7069 73.2024 37.7069 73.2694C37.7069 73.3746 37.6889 73.4679 37.6528 73.5493C37.6178 73.6308 37.5678 73.6998 37.5028 73.7565C37.4389 73.8132 37.3637 73.856 37.2771 73.8848C37.1905 73.9137 37.0962 73.9281 36.9941 73.9281C36.8962 73.9281 36.8039 73.9142 36.7173 73.8864C36.6318 73.8586 36.556 73.8184 36.4901 73.7658C36.4241 73.7122 36.3725 73.6467 36.3354 73.5694C36.2983 73.4911 36.2798 73.4019 36.2798 73.3019H36.5658C36.5658 73.3803 36.5828 73.4488 36.6168 73.5076C36.6519 73.5663 36.7014 73.6122 36.7653 73.6452C36.8302 73.6771 36.9065 73.6931 36.9941 73.6931C37.0817 73.6931 37.157 73.6782 37.2199 73.6483C37.2838 73.6174 37.3327 73.571 37.3668 73.5091C37.4018 73.4473 37.4193 73.3694 37.4193 73.2756C37.4193 73.1818 37.3997 73.105 37.3606 73.0452C37.3214 72.9844 37.2657 72.9396 37.1936 72.9107C37.1225 72.8808 37.0384 72.8659 36.9415 72.8659H36.7374Z" fill="#EDEFEE"/>
<path d="M40.0638 47.58H65.8763" stroke="#EDEFEE" stroke-width="0.175926"/>
<path d="M4.97626 47.58H30.7888" stroke="#EDEFEE" stroke-width="0.175926"/>
<path d="M35.4262 45.6293L36.0872 46.0344L35.9118 45.2704L36.5054 44.7593L35.7257 44.6913L35.4262 43.9735L35.1214 44.6913L34.3471 44.7593L34.9352 45.2704L34.7518 46.0344L35.4262 45.6293ZM33.2679 47.2606L33.9288 47.6658L33.7535 46.9017L34.3471 46.3906L33.5674 46.3226L33.2679 45.6048L32.963 46.3226L32.1887 46.3906L32.7769 46.9017L32.5934 47.6658L33.2679 47.2606ZM37.5846 46.4449L38.2456 46.8501L38.0702 46.086L38.6637 45.5749L37.884 45.507L37.5846 44.7892L37.2797 45.507L36.5054 45.5749L37.0935 46.086L36.91 46.8501L37.5846 46.4449ZM36.2356 49.955H34.6168V46.4205H36.2356V49.955ZM34.0772 49.955H32.4585V48.3237H34.0772V49.955ZM38.394 49.955H36.7752V47.2361H38.394V49.955Z" fill="#EDEFEE"/>
</g>
<defs>
<clipPath id="clip0_2001_1078">
<rect width="70" height="95" fill="white" transform="translate(0.5 0.5)"/>
</clipPath>
</defs>
</svg>
