<svg width="101" height="100" viewBox="0 0 101 100" fill="none" xmlns="http://www.w3.org/2000/svg">
<g clip-path="url(#clip0_2001_1106)">
<path d="M86.9078 50.5C86.9078 71.7151 70.2355 88.8146 49.7892 88.8146C29.3429 88.8146 12.6706 71.7151 12.6706 50.5C12.6706 29.2849 29.3429 12.1854 49.7892 12.1854C70.2355 12.1854 86.9078 29.2849 86.9078 50.5Z" fill="#0F0F10" stroke="#EDEFEE" stroke-width="3.80321"/>
<path d="M82.3223 50.4999C82.3223 69.0472 67.7387 84.0499 49.789 84.0499C31.8392 84.0499 17.2557 69.0472 17.2557 50.4999C17.2557 31.9527 31.8392 16.95 49.789 16.95C67.7387 16.95 82.3223 31.9527 82.3223 50.4999Z" fill="#0F0F10" stroke="#EDEFEE" stroke-width="1.26774"/>
<path d="M83.9315 43.4617H100.515L95.6376 52.0076L100.515 60.5536H83.9315V43.4617Z" fill="#EDEFEE"/>
<path d="M0.0380859 43.4617H16.6217V52.0076V60.5536H0.0380859L4.91561 52.0076L0.0380859 43.4617Z" fill="#EDEFEE"/>
<rect x="11.4029" y="43.0902" width="77.7481" height="17.835" fill="#0F0F10" stroke="#EDEFEE" stroke-width="1.26774"/>
<path d="M22.7795 56.5322H23.8331V49.2208H26.3148V48.2557H20.2979V49.2208H22.7795V56.5322Z" fill="#EDEFEE"/>
<path d="M30.6653 56.6528C33.0182 56.6528 34.5868 54.9396 34.5868 52.3818C34.5868 49.8362 33.0182 48.135 30.6653 48.135C28.3124 48.135 26.7438 49.8362 26.7438 52.3818C26.7438 54.9396 28.3124 56.6528 30.6653 56.6528ZM30.6653 55.6876C28.9445 55.6876 27.7973 54.3605 27.7973 52.3818C27.7973 50.4153 28.9445 49.1002 30.6653 49.1002C32.3861 49.1002 33.5333 50.4153 33.5333 52.3818C33.5333 54.3605 32.3861 55.6876 30.6653 55.6876Z" fill="#EDEFEE"/>
<path d="M36.181 56.5322H37.2346V52.973H39.4939C41.0039 52.973 42.0107 52.0199 42.0107 50.5962C42.0107 49.1967 41.0039 48.2557 39.4939 48.2557H36.181V56.5322ZM37.2346 52.0078V49.2208H39.4939C40.3718 49.2208 40.9571 49.7758 40.9571 50.5962C40.9571 51.4408 40.3718 52.0078 39.4939 52.0078H37.2346Z" fill="#EDEFEE"/>
<path d="M46.7375 56.5322H47.7911V52.5749H49.4533L51.8414 56.5322H53.0822L50.6825 52.5508C51.8062 52.406 52.5671 51.5494 52.5671 50.4153C52.5671 49.1243 51.619 48.2557 50.2142 48.2557H46.7375V56.5322ZM47.7911 51.6097V49.2208H50.2142C50.9868 49.2208 51.5136 49.7034 51.5136 50.4153C51.5136 51.1271 50.9868 51.6097 50.2142 51.6097H47.7911Z" fill="#EDEFEE"/>
<path d="M59.5302 56.5322H60.654L57.3529 48.2557H56.276L52.9748 56.5322H54.0986L55.0234 54.1312H58.6055L59.5302 56.5322ZM55.398 53.1661L56.8144 49.4983L58.2309 53.1661H55.398Z" fill="#EDEFEE"/>
<path d="M62.9542 56.5322H64.0077V49.2208H66.4894V48.2557H60.4725V49.2208H62.9542V56.5322Z" fill="#EDEFEE"/>
<path d="M68.0137 56.5322H73.1995V55.567H69.0673V52.5749H72.7781V51.6097H69.0673V49.2208H73.1995V48.2557H68.0137V56.5322Z" fill="#EDEFEE"/>
<path d="M74.7209 56.5322H77.5889C79.8833 56.5322 81.4168 54.8672 81.4168 52.3818C81.4168 49.9085 79.8833 48.2557 77.5889 48.2557H74.7209V56.5322ZM75.7745 55.567V49.2208H77.5889C79.2512 49.2208 80.3633 50.4877 80.3633 52.3818C80.3633 54.2881 79.2512 55.567 77.5889 55.567H75.7745Z" fill="#EDEFEE"/>
<path d="M56.4211 28.8301C54.591 28.8393 53.1001 30.4226 53.1085 32.394C53.1169 34.3654 54.6227 35.9339 56.4528 35.925C58.2829 35.9162 59.7742 34.3325 59.7654 32.3619C59.7566 30.3913 58.2512 28.8216 56.4203 28.8309L56.4211 28.8301ZM56.4463 34.4792C55.9275 34.4825 55.4289 34.2681 55.0602 33.884C54.6915 33.5 54.4871 32.9768 54.4813 32.4306C54.4756 31.8845 54.6819 31.3597 55.0468 30.9716C55.4117 30.5835 55.9087 30.3683 56.4276 30.3623C56.9465 30.3563 57.4451 30.5734 57.8138 30.9575C58.1825 31.3416 58.3869 31.8648 58.3926 32.4109C58.3979 33.5068 57.4871 34.474 56.4463 34.4796V34.4792ZM63.8356 30.5011C62.8785 30.5059 62.1331 31.3416 62.1377 32.349L62.153 35.7211L60.6965 35.7284L60.6671 29.0271L62.1235 29.0199L62.1285 30.0707C62.1285 30.0707 62.7475 29.0171 63.9961 29.011L64.4125 29.0086L64.4194 30.4974L63.8356 30.5011ZM49.3069 29.0842L50.4096 33.6777L51.5543 29.073L53.0107 29.0661L51.2089 35.7802L49.7944 35.7871L48.6505 31.1067L47.5479 35.7979L46.133 35.8048L44.2311 29.1128L45.6455 29.106L46.914 33.6986L47.9341 29.0947L49.3069 29.0842ZM68.6684 32.0546C69.6637 31.4369 70.3668 30.2943 70.361 28.9805L68.9046 28.9877C68.9099 30.1266 68.0395 31.0508 66.9995 31.0548L66.7913 31.0556L66.7684 25.7563L65.3119 25.7636L65.3566 35.705L66.8123 35.6982L66.7986 32.5452L66.9648 32.5444C67.1314 32.5436 67.2983 32.6305 67.3407 32.7616L69.3925 35.6853L71.0984 35.6773L68.6684 32.0546Z" fill="#EDEFEE"/>
<path d="M40.8599 28.9083C39.2793 28.9163 38.0773 30.017 37.6276 31.7709C36.873 30.5483 36.2842 29.15 35.9465 27.9692L34.2826 27.9773L34.3032 32.6194C34.305 33.0608 34.1403 33.4849 33.8452 33.7984C33.5501 34.112 33.1488 34.2894 32.7294 34.2916C32.3101 34.2936 31.9072 34.1202 31.6093 33.8095C31.3114 33.4989 31.1429 33.0765 31.1408 32.6351L31.1198 27.993L29.4551 28.001L29.4757 32.6432C29.4845 34.5695 30.9467 36.0961 32.7363 36.0869C34.5259 36.0776 35.9755 34.5378 35.9671 32.611L35.9633 31.8228C36.2988 32.5213 36.7183 33.2637 37.1794 33.9188L36.162 39.0476L37.8676 39.0396L38.6011 35.3131C39.2686 35.7483 40.0148 36.0069 40.892 36.0024C42.7229 35.9932 44.2142 34.4099 44.2046 32.395C44.1976 31.4667 43.8421 30.579 43.2155 29.9257C42.5889 29.2724 41.7423 28.9065 40.8603 28.9079L40.8599 28.9083ZM40.8836 34.2076C40.2181 34.2108 39.5513 33.9076 39.0084 33.4282L39.1716 32.7272V32.687C39.2938 31.9414 39.6614 30.6698 40.91 30.6641C41.3503 30.6634 41.773 30.8456 42.0862 31.1713C42.3994 31.497 42.5777 31.9397 42.5823 32.4031C42.5449 33.4105 41.7582 34.2028 40.884 34.2072L40.8836 34.2076Z" fill="#EDEFEE"/>
<path d="M42.4406 79.6571H45.9914V78.9111H43.8131L45.1788 77.9328C45.6704 77.595 45.9982 76.9475 45.9982 76.3141C45.9982 75.364 45.288 74.7306 44.216 74.7306C43.178 74.7306 42.4815 75.4836 42.4815 76.6097H43.2531C43.2531 75.927 43.6355 75.4766 44.216 75.4766C44.7964 75.4766 45.1788 75.8144 45.1788 76.3141C45.1788 76.7082 44.9876 77.1094 44.7008 77.3135L42.4406 78.9463V79.6571Z" fill="#EDEFEE"/>
<path d="M48.3971 79.7556C49.6058 79.7556 50.2408 78.89 50.2408 77.2431C50.2408 75.5962 49.6058 74.7306 48.3971 74.7306C47.1885 74.7306 46.5534 75.5962 46.5534 77.2431C46.5534 78.89 47.1885 79.7556 48.3971 79.7556ZM48.3971 79.0096C47.7279 79.0096 47.3728 78.4043 47.3728 77.2431C47.3728 76.0819 47.7279 75.4766 48.3971 75.4766C49.0663 75.4766 49.4214 76.0819 49.4214 77.2431C49.4214 78.4043 49.0663 79.0096 48.3971 79.0096Z" fill="#EDEFEE"/>
<path d="M50.8028 79.6571H54.3537V78.9111H52.1754L53.5411 77.9328C54.0327 77.595 54.3605 76.9475 54.3605 76.3141C54.3605 75.364 53.6503 74.7306 52.5783 74.7306C51.5403 74.7306 50.8438 75.4836 50.8438 76.6097H51.6154C51.6154 75.927 51.9978 75.4766 52.5783 75.4766C53.1587 75.4766 53.5411 75.8144 53.5411 76.3141C53.5411 76.7082 53.3499 77.1094 53.0631 77.3135L50.8028 78.9463V79.6571Z" fill="#EDEFEE"/>
<path d="M56.0629 79.6571H56.8823V74.8291H56.097C55.9605 75.3007 55.6054 75.5329 54.984 75.554V76.2156C55.4278 76.2015 55.858 76.0889 56.0629 75.9411V79.6571Z" fill="#EDEFEE"/>
<ellipse cx="60.5186" cy="76.6405" rx="0.975503" ry="1.00541" fill="#EDEFEE"/>
<ellipse cx="39.058" cy="76.6405" rx="0.975503" ry="1.00541" fill="#EDEFEE"/>
<path fill-rule="evenodd" clip-rule="evenodd" d="M37.2838 61.6022L37.9456 63.2243L39.653 63.3692L38.3547 64.5166L38.7481 66.2282L37.2838 65.3152L35.8195 66.2282L36.2129 64.5166L34.9146 63.3692L36.6219 63.2243L37.2838 61.6022ZM43.0965 61.6022L43.7584 63.2243L45.4657 63.3692L44.1674 64.5166L44.5608 66.2282L43.0965 65.3152L41.6322 66.2282L42.0256 64.5166L40.7273 63.3692L42.4347 63.2243L43.0965 61.6022ZM49.5711 63.2243L48.9092 61.6022L48.2474 63.2243L46.54 63.3692L47.8383 64.5166L47.445 66.2282L48.9092 65.3152L50.3735 66.2282L49.9801 64.5166L51.2785 63.3692L49.5711 63.2243ZM54.7219 61.6022L55.3838 63.2243L57.0912 63.3692L55.7928 64.5166L56.1862 66.2282L54.7219 65.3152L53.2577 66.2282L53.651 64.5166L52.3527 63.3692L54.0601 63.2243L54.7219 61.6022ZM61.1965 63.2243L60.5347 61.6022L59.8728 63.2243L58.1654 63.3692L59.4638 64.5166L59.0704 66.2282L60.5347 65.3152L61.9989 66.2282L61.6055 64.5166L62.9039 63.3692L61.1965 63.2243Z" fill="#EDEFEE"/>
</g>
<defs>
<clipPath id="clip0_2001_1106">
<rect width="100" height="100" fill="white" transform="translate(0.5)"/>
</clipPath>
</defs>
</svg>
