<svg width="81" height="96" viewBox="0 0 81 96" fill="none" xmlns="http://www.w3.org/2000/svg">
<g clip-path="url(#clip0_2001_1123)">
<path d="M5.13559 62.7615H0.888672L2.46296 67.9622L0.888672 73.1629H5.09899L5.13559 67.4726V62.7615Z" fill="#EDEFEE"/>
<path d="M74.6306 62.7615H79.2636L77.5313 67.9622L79.2636 73.1629H74.6306V67.4726V62.7615Z" fill="#EDEFEE"/>
<path d="M7.63818 19.4105L40.1769 5.25L72.8863 19.4105V77.3422L40.3476 94.0525L7.63818 77.3422V19.4105Z" fill="#0F0F10"/>
<path d="M31.4366 80.7735V80.1143L33.2026 78.6882C33.3528 78.5615 33.4788 78.4474 33.5806 78.346C33.6839 78.2446 33.7622 78.1453 33.8155 78.0481C33.8688 77.9495 33.8955 77.8431 33.8955 77.729C33.8955 77.6023 33.8624 77.4931 33.7962 77.4016C33.7299 77.3086 33.6395 77.2375 33.5248 77.1882C33.4102 77.1375 33.2802 77.1121 33.1348 77.1121C32.983 77.1121 32.8506 77.1389 32.7375 77.1924C32.6245 77.2459 32.5373 77.3227 32.4759 77.4227C32.4145 77.5227 32.3838 77.6417 32.3838 77.7797H31.3882C31.3882 77.4966 31.4617 77.2509 31.6086 77.0424C31.7556 76.8339 31.9615 76.6727 32.2264 76.5586C32.4912 76.4445 32.7965 76.3875 33.1421 76.3875C33.4974 76.3875 33.8067 76.4424 34.0699 76.5522C34.3348 76.6607 34.5407 76.8114 34.6876 77.0044C34.8346 77.1973 34.9081 77.4185 34.9081 77.6678C34.9081 77.8312 34.8709 77.9924 34.7967 78.1516C34.724 78.3108 34.594 78.4875 34.4066 78.6819C34.2193 78.8749 33.9552 79.1066 33.6145 79.377L32.8901 79.996V80.0256H34.9735V80.7735H31.4366Z" fill="#EDEFEE"/>
<path d="M37.6788 80.8686C37.2622 80.8672 36.9036 80.7777 36.6032 80.6003C36.3045 80.4228 36.0743 80.1657 35.9128 79.8291C35.7529 79.4925 35.6738 79.0875 35.6754 78.6143C35.6754 78.1424 35.7554 77.7403 35.9152 77.4079C36.0767 77.0755 36.3069 76.8227 36.6057 76.6494C36.9061 76.4748 37.2638 76.3875 37.6788 76.3875C38.0939 76.3875 38.4508 76.4748 38.7496 76.6494C39.05 76.8241 39.2809 77.0776 39.4424 77.41C39.6039 77.741 39.6839 78.1424 39.6822 78.6143C39.6822 79.0889 39.6015 79.4946 39.44 79.8312C39.2801 80.1679 39.0508 80.4249 38.752 80.6024C38.4532 80.7798 38.0955 80.8686 37.6788 80.8686ZM37.6788 80.1101C37.9631 80.1101 38.19 79.9855 38.3596 79.7362C38.5291 79.4868 38.6131 79.1129 38.6115 78.6143C38.6115 78.2861 38.5727 78.0129 38.4952 77.7945C38.4193 77.5762 38.3111 77.4121 38.1706 77.3023C38.0317 77.1924 37.8678 77.1375 37.6788 77.1375C37.3962 77.1375 37.1701 77.2607 37.0005 77.5072C36.831 77.7537 36.7454 78.1227 36.7437 78.6143C36.7437 78.9467 36.7817 79.2242 36.8576 79.4467C36.9351 79.6678 37.0441 79.834 37.1846 79.9453C37.3251 80.0552 37.4899 80.1101 37.6788 80.1101Z" fill="#EDEFEE"/>
<path d="M40.4302 80.7735V80.1143L42.1962 78.6882C42.3464 78.5615 42.4724 78.4474 42.5741 78.346C42.6775 78.2446 42.7558 78.1453 42.8091 78.0481C42.8624 77.9495 42.889 77.8431 42.889 77.729C42.889 77.6023 42.8559 77.4931 42.7897 77.4016C42.7235 77.3086 42.6331 77.2375 42.5184 77.1882C42.4037 77.1375 42.2737 77.1121 42.1284 77.1121C41.9766 77.1121 41.8441 77.1389 41.7311 77.1924C41.618 77.2459 41.5308 77.3227 41.4694 77.4227C41.4081 77.5227 41.3774 77.6417 41.3774 77.7797H40.3817C40.3817 77.4966 40.4552 77.2509 40.6022 77.0424C40.7492 76.8339 40.9551 76.6727 41.2199 76.5586C41.4848 76.4445 41.79 76.3875 42.1356 76.3875C42.4909 76.3875 42.8002 76.4424 43.0635 76.5522C43.3283 76.6607 43.5342 76.8114 43.6812 77.0044C43.8282 77.1973 43.9016 77.4185 43.9016 77.6678C43.9016 77.8312 43.8645 77.9924 43.7902 78.1516C43.7175 78.3108 43.5875 78.4875 43.4002 78.6819C43.2128 78.8749 42.9488 79.1066 42.608 79.377L41.8837 79.996V80.0256H43.9671V80.7735H40.4302Z" fill="#EDEFEE"/>
<path d="M46.561 80.8327C46.1992 80.8327 45.877 80.7784 45.5944 80.67C45.3134 80.5601 45.0913 80.4094 44.9282 80.2179C44.7667 80.0249 44.6835 79.8024 44.6787 79.5502H45.7349C45.7413 79.6559 45.7809 79.7488 45.8536 79.8291C45.9279 79.908 46.0264 79.9693 46.1491 80.0129C46.2719 80.0566 46.41 80.0784 46.5634 80.0784C46.7233 80.0784 46.8646 80.0538 46.9873 80.0045C47.1101 79.9552 47.2062 79.8869 47.2756 79.7995C47.345 79.7122 47.3798 79.6115 47.3798 79.4974C47.3798 79.3819 47.3426 79.2798 47.2683 79.1911C47.1957 79.1009 47.0907 79.0305 46.9534 78.9798C46.8177 78.9291 46.6562 78.9037 46.4689 78.9037H46.0062V78.2319H46.4689C46.6272 78.2319 46.7669 78.2079 46.888 78.16C47.0107 78.1122 47.106 78.046 47.1739 77.9614C47.2417 77.8755 47.2756 77.7755 47.2756 77.6614C47.2756 77.553 47.2457 77.4579 47.186 77.3762C47.1278 77.2931 47.0455 77.2283 46.9389 77.1818C46.8339 77.1354 46.7112 77.1121 46.5706 77.1121C46.4285 77.1121 46.2985 77.1347 46.1806 77.1797C46.0627 77.2234 45.9682 77.2861 45.8972 77.3678C45.8261 77.4495 45.7882 77.5452 45.7833 77.6551H44.778C44.7828 77.4058 44.8644 77.1861 45.0227 76.9959C45.1809 76.8058 45.3941 76.6572 45.6622 76.5501C45.9319 76.4417 46.2363 76.3875 46.5755 76.3875C46.9179 76.3875 47.2175 76.4417 47.4742 76.5501C47.731 76.6586 47.9305 76.8051 48.0726 76.9896C48.2163 77.1727 48.2874 77.3783 48.2858 77.6065C48.2874 77.8488 48.201 78.0509 48.0266 78.2129C47.8538 78.3748 47.6285 78.4777 47.3507 78.5213V78.5551C47.7157 78.596 47.9935 78.7065 48.184 78.8868C48.3762 79.0657 48.4715 79.2897 48.4699 79.5587C48.4715 79.8052 48.3899 80.0242 48.2252 80.2157C48.0621 80.4073 47.8368 80.558 47.5493 80.6679C47.2619 80.7777 46.9324 80.8327 46.561 80.8327Z" fill="#EDEFEE"/>
<path d="M39.1763 32.51L38.3389 31.9746H39.3666L39.7091 31.011L40.0137 31.9746H41.0415L40.204 32.51L40.5087 33.438L39.6712 32.8669L38.7956 33.438L39.1763 32.51Z" fill="#EDEFEE"/>
<path d="M44.5813 32.51L43.7439 31.9746H44.7717L45.1141 31.011L45.4187 31.9746H46.4465L45.6091 32.51L45.9137 33.438L45.0763 32.8669L44.2006 33.438L44.5813 32.51Z" fill="#EDEFEE"/>
<path d="M34.5435 32.5099L33.7061 31.9745H34.7338L35.0764 31.0109L35.3809 31.9745H36.4086L35.5712 32.5099L35.8757 33.4379L35.0383 32.8668L34.2009 33.4379L34.5435 32.5099Z" fill="#EDEFEE"/>
<path d="M39.8832 26.1573C39.8431 26.1185 39.8431 26.1573 39.8832 26.1573L39.6833 26.0408L39.6431 26.0019L34.9206 22.738C34.9206 22.738 34.8806 22.738 34.8806 22.6992L34.8006 22.6214L34.7606 22.5826H34.6805L33.3198 21.65L36.0012 22.0386C36.1213 22.0386 36.1613 22.0775 36.2814 22.1163C36.3214 22.1163 36.4014 22.1552 36.4014 22.1552C36.5215 22.194 36.5615 22.2329 36.6416 22.2717C36.7216 22.3106 36.7616 22.3494 36.8417 22.3883C36.8817 22.4272 36.9617 22.466 36.9617 22.5049C37.0018 22.5437 37.0417 22.5437 37.0818 22.5826C37.1618 22.6214 37.2019 22.6603 37.2019 22.6992C37.3219 22.8157 37.402 22.9323 37.522 23.01L39.6431 25.9242L39.6833 25.9631L39.8832 26.1573Z" fill="#EDEFEE"/>
<path d="M40.035 30.3179L39.8292 30.019L39.7879 29.9817L33.3198 21.65L34.7205 22.5467L34.9677 22.6961L39.8292 25.8345H39.8701L40.035 25.9466C40.035 25.9466 40.0763 25.9466 40.0763 25.984L40.2825 25.8345L46.8328 21.65L40.2411 30.019L40.1998 30.0564L40.035 30.3179Z" fill="#EDEFEE"/>
<path d="M39.9183 24.7705L39.7427 24.4671L39.7075 24.4292L38.3389 22.3814L39.7075 22.6848H39.7427L39.9183 22.7227L40.0936 22.6848L41.4275 22.3435L40.0936 24.4671V24.5051L39.9183 24.7705Z" fill="#EDEFEE"/>
<path d="M46.8333 21.65L44.74 21.9197L43.9446 22.0353C43.3168 22.1123 42.7304 22.4205 42.354 22.9213L40.1351 25.8491L40.093 25.8876L39.8838 26.1573L40.1351 25.9262L40.1768 25.8876L39.8838 26.1573L45.5357 22.459L46.8333 21.65Z" fill="#EDEFEE"/>
<path d="M40.6553 16.3121C40.6553 17.8162 37.6612 18.6024 37.6612 20.209C37.6218 20.585 37.74 20.961 37.9369 21.3029C37.9369 21.3029 36.7944 20.3457 36.7944 19.3203C36.7944 18.2947 37.8975 16.7565 37.8975 16.7565C37.8975 17.4402 38.2127 17.6453 38.5279 17.6795H38.5673C38.9218 17.6795 39.1188 17.4402 39.1188 17.0983C39.1188 16.7565 38.6855 16.4147 38.6855 15.731C38.6855 15.0815 39.631 14.0219 39.631 14.0219C40.3008 14.7055 40.6553 15.4917 40.6553 16.3121Z" fill="#EDEFEE"/>
<path d="M40.1334 21.6496C39.1079 21.6496 38.3389 21.0222 38.3389 20.2628V20.2298C38.3389 18.5457 41.3723 18.3806 41.3723 16.1022C41.458 16.2012 42.2696 17.0598 42.2696 17.9844C42.2696 19.1401 40.8596 19.4372 40.8596 19.9986C40.8596 20.2297 40.9878 20.3948 41.4152 20.3948C41.458 20.3948 41.5005 20.3949 41.5434 20.3618C42.3553 20.0977 42.9105 19.5033 42.9533 18.8098C42.9533 18.8429 43.3807 21.6496 40.1334 21.6496Z" fill="#EDEFEE"/>
<path d="M41.4602 20.3795C41.5324 20.3592 41.3559 20.4578 41.2656 20.4778C40.7312 20.5964 40.0633 20.8337 39.8838 20.086C39.8838 18.9774 41.8544 18.7349 41.8544 17.7996C41.8544 17.2107 41.7107 16.6218 41.3884 16.1022C41.4602 16.2061 42.2003 17.0165 42.2003 17.9864C42.2003 19.1989 40.9586 19.3749 40.9586 19.9637C40.9946 20.2062 41.1378 20.3795 41.4602 20.3795Z" fill="#EDEFEE"/>
<path d="M39.4079 17.0372C39.4079 17.9241 38.4018 17.8532 38.3389 17.8177H38.4332C38.7161 17.8177 38.8734 17.5694 38.8734 17.2146C38.8734 16.8599 38.5275 16.5051 38.5275 15.7956C38.5275 15.1216 39.4971 14.0219 39.4971 14.0219C39.2456 14.483 38.9048 14.9797 38.8734 15.4763C38.8734 16.2922 39.4079 16.3632 39.4079 17.0372Z" fill="#EDEFEE"/>
<path d="M22.291 50.9881L24.6712 43.6038H22.2536L21.0075 48.5302L19.5868 43.6038H17.9418L16.5212 48.5302L15.2626 43.6038H12.8574L15.2376 50.9881H17.5057L18.7643 46.3605L20.023 50.9881H22.291Z" fill="#EDEFEE"/>
<path d="M31.557 50.9881V49.3273H27.6066V48.0764H31.4697V46.416H27.6066V45.2645H31.557V43.6038H25.4631V50.9881H31.557Z" fill="#EDEFEE"/>
<path d="M37.7859 50.9881C39.4184 50.9881 40.2285 50.0582 40.2285 48.9841C40.2285 48.0542 39.5305 47.3015 38.6458 47.1798C39.4309 47.0248 40.0664 46.4049 40.0664 45.4857C40.0664 44.5558 39.2938 43.6038 37.6363 43.6038H32.9258V50.9881H37.7859ZM37.1503 46.416H35.0692V45.2645H37.1503C37.5865 45.2645 37.8856 45.4857 37.8856 45.8401C37.8856 46.2055 37.5865 46.416 37.1503 46.416ZM37.2251 49.3273H35.0692V48.0764H37.2251C37.7485 48.0764 38.0476 48.3312 38.0476 48.6963C38.0476 49.095 37.736 49.3273 37.2251 49.3273Z" fill="#EDEFEE"/>
<path d="M44.6115 51.1202C46.8423 51.1202 48.0758 50.1348 48.0758 48.6516C48.0758 45.9059 43.378 46.5921 43.378 45.6844C43.378 45.3633 43.6521 45.175 44.2752 45.175C45.0976 45.175 46.0072 45.4299 46.7052 45.9503L47.8766 44.5222C46.9917 43.8468 45.8331 43.4924 44.4995 43.4924C42.3683 43.4924 41.197 44.5995 41.197 45.8393C41.197 48.6845 45.8952 47.8763 45.8952 48.8506C45.8952 49.216 45.4466 49.4376 44.7238 49.4376C43.5772 49.4376 42.6552 48.9945 42.0568 48.4633L40.9229 49.9465C41.758 50.6441 42.9293 51.1202 44.6115 51.1202Z" fill="#EDEFEE"/>
<path d="M51.3462 50.9881V43.6038H49.2026V50.9881H51.3462Z" fill="#EDEFEE"/>
<path d="M56.9662 50.9881V45.2645H59.2843V43.6038H52.4927V45.2645H54.8231V50.9881H56.9662Z" fill="#EDEFEE"/>
<path d="M66.5234 50.9881V49.3273H62.573V48.0764H66.4361V46.416H62.573V45.2645H66.5234V43.6038H60.4294V50.9881H66.5234Z" fill="#EDEFEE"/>
<path d="M28.1497 57.9769C29.7607 57.9769 30.9245 57.1472 30.9245 55.795C30.9245 54.4429 29.7607 53.6198 28.1421 53.6198H25.9839V57.9769H28.1497ZM28.1421 56.9971H27.3096V54.5996H28.1497C29.0901 54.5996 29.568 55.1224 29.568 55.795C29.568 56.4417 29.0438 56.9971 28.1421 56.9971Z" fill="#EDEFEE"/>
<path d="M35.4307 57.9769V56.9971H32.9874V56.2589H35.3768V55.2791H32.9874V54.5996H35.4307V53.6198H31.6616V57.9769H35.4307Z" fill="#EDEFEE"/>
<path d="M38.1887 58.0544C39.5685 58.0544 40.3314 57.473 40.3314 56.5979C40.3314 54.9777 37.4257 55.3826 37.4257 54.847C37.4257 54.6577 37.5952 54.5467 37.9806 54.5467C38.4893 54.5467 39.052 54.6968 39.4836 55.0037L40.2082 54.1612C39.6607 53.7628 38.9441 53.5537 38.1193 53.5537C36.8013 53.5537 36.0768 54.2069 36.0768 54.9385C36.0768 56.6173 38.9826 56.1406 38.9826 56.7154C38.9826 56.9307 38.7051 57.0614 38.2581 57.0614C37.549 57.0614 36.9786 56.8004 36.6086 56.4866L35.9072 57.362C36.4237 57.7736 37.1482 58.0544 38.1887 58.0544Z" fill="#EDEFEE"/>
<path d="M42.3541 57.9769V53.6198H41.0283V57.9769H42.3541Z" fill="#EDEFEE"/>
<path d="M45.8763 58.0552C46.8473 58.0552 47.6028 57.722 48.1499 57.206V55.4749H45.6682V56.4613H46.8245V56.8011C46.6392 56.9314 46.2538 57.0622 45.8763 57.0622C45.0361 57.0622 44.4427 56.5137 44.4427 55.8015C44.4427 55.0831 45.0361 54.5408 45.8763 54.5408C46.3774 54.5408 46.7704 54.8085 46.9631 55.0959L48.0731 54.606C47.7183 54.0638 47.0249 53.5479 45.8763 53.5479C44.3423 53.5479 43.0938 54.4167 43.0938 55.8015C43.0938 57.1863 44.3423 58.0552 45.8763 58.0552Z" fill="#EDEFEE"/>
<path d="M53.7824 57.9769V53.6198H52.4488V56.0173L50.3678 53.6198H49.0034V57.9769H50.3292V55.4553L52.5029 57.9769H53.7824Z" fill="#EDEFEE"/>
<path d="M74.6308 61.3745H5.13574V71.776H74.6308V61.3745Z" fill="#EDEFEE"/>
<path d="M11.5898 68.9176C13.0375 68.9176 14.0419 68.0567 14.0419 66.7458C14.0419 65.4345 13.0375 64.567 11.5898 64.567H9.76807V68.9176H11.5898ZM11.5898 68.1025H10.7517V65.3825H11.5898C12.5388 65.3825 13.0375 65.9761 13.0375 66.7458C13.0375 67.4825 12.5042 68.1025 11.5898 68.1025Z" fill="#0F0F10"/>
<path d="M18.1484 68.9174V68.1022H15.8625V67.1172H18.0999V66.3017H15.8625V65.3822H18.1484V64.5668H14.8789V68.9174H18.1484Z" fill="#0F0F10"/>
<path d="M20.6973 68.9962C21.9441 68.9962 22.5467 68.396 22.5467 67.6003C22.5467 65.9763 19.8938 66.4392 19.8938 65.7478C19.8938 65.4871 20.1293 65.311 20.5518 65.311C21.0228 65.311 21.5216 65.4607 21.8956 65.787L22.4428 65.1085C21.9857 64.7108 21.3761 64.5021 20.6419 64.5021C19.5544 64.5021 18.8894 65.1022 18.8894 65.8262C18.8894 67.4634 21.5493 66.935 21.5493 67.7047C21.5493 67.9526 21.2861 68.1873 20.7458 68.1873C20.1085 68.1873 19.6029 67.92 19.2773 67.6003L18.7439 68.3049C19.1734 68.7157 19.8106 68.9962 20.6973 68.9962Z" fill="#0F0F10"/>
<path d="M24.3314 68.9174V64.5668H23.3478V68.9174H24.3314Z" fill="#0F0F10"/>
<path d="M27.624 69.0024C28.4622 69.0024 29.1203 68.6762 29.5913 68.1807V66.5106H27.3885V67.3195H28.6077V67.8413C28.4207 68.0046 28.0328 68.1741 27.624 68.1741C26.7859 68.1741 26.1763 67.5674 26.1763 66.7456C26.1763 65.9236 26.7859 65.3168 27.624 65.3168C28.1159 65.3168 28.5107 65.5779 28.7185 65.8844L29.5359 65.467C29.1895 64.9517 28.5869 64.4951 27.624 64.4951C26.2733 64.4951 25.165 65.3692 25.165 66.7456C25.165 68.1152 26.2733 69.0024 27.624 69.0024Z" fill="#0F0F10"/>
<path d="M34.6464 68.9174V64.5668H33.6628V67.2999L31.5224 64.5668H30.5111V68.9174H31.4947V66.0802L33.6975 68.9174H34.6464Z" fill="#0F0F10"/>
<path d="M39.4364 68.9174L38.3974 67.2608C38.8961 67.1498 39.4087 66.7389 39.4087 65.9692C39.4087 65.1603 38.82 64.5668 37.8571 64.5668H35.6959V68.9174H36.6796V67.3717H37.3999L38.3074 68.9174H39.4364ZM37.7116 66.5562H36.6796V65.3822H37.7116C38.1065 65.3822 38.4043 65.6038 38.4043 65.9692C38.4043 66.3343 38.1065 66.5562 37.7116 66.5562Z" fill="#0F0F10"/>
<path d="M42.3705 68.9957C43.7766 68.9957 44.4554 68.2586 44.4554 67.1758V64.5668H43.4511V67.1498C43.4511 67.7566 43.084 68.174 42.3705 68.174C41.657 68.174 41.2829 67.7566 41.2829 67.1498V64.5668H40.2856V67.1824C40.2856 68.252 40.9644 68.9957 42.3705 68.9957Z" fill="#0F0F10"/>
<path d="M47.1461 68.9962C48.3928 68.9962 48.9954 68.396 48.9954 67.6003C48.9954 65.9763 46.3426 66.4392 46.3426 65.7478C46.3426 65.4871 46.5782 65.311 47.0005 65.311C47.4716 65.311 47.9704 65.4607 48.3445 65.787L48.8916 65.1085C48.4345 64.7108 47.8248 64.5021 47.0905 64.5021C46.0029 64.5021 45.3381 65.1022 45.3381 65.8262C45.3381 67.4634 47.9982 66.935 47.9982 67.7047C47.9982 67.9526 47.7349 68.1873 47.1943 68.1873C46.5573 68.1873 46.0515 67.92 45.7261 67.6003L45.1925 68.3049C45.6222 68.7157 46.2593 68.9962 47.1461 68.9962Z" fill="#0F0F10"/>
<path d="M53.9526 68.9176V64.567H52.9623V66.276H50.7801V64.567H49.7964V68.9176H50.7801V67.0915H52.9623V68.9176H53.9526Z" fill="#0F0F10"/>
<path d="M55.4312 68.9888C55.7359 68.9888 55.9922 68.7475 55.9922 68.4604C55.9922 68.1737 55.7359 67.9324 55.4312 67.9324C55.1262 67.9324 54.8699 68.1737 54.8699 68.4604C54.8699 68.7475 55.1262 68.9888 55.4312 68.9888Z" fill="#0F0F10"/>
<path d="M58.4233 68.9955C59.1094 68.9955 59.5248 68.715 59.7464 68.4216L59.1715 67.9192C59.0121 68.128 58.7696 68.2583 58.465 68.2583C57.9318 68.2583 57.5577 67.8867 57.5577 67.3388C57.5577 66.7907 57.9318 66.4256 58.465 66.4256C58.7696 66.4256 59.0121 66.5428 59.1715 66.7647L59.7464 66.2561C59.5248 65.969 59.1094 65.6885 58.4233 65.6885C57.3913 65.6885 56.65 66.3732 56.65 67.3388C56.65 68.3107 57.3913 68.9955 58.4233 68.9955Z" fill="#0F0F10"/>
<path d="M62.0113 68.9955C63.1198 68.9955 63.7846 68.2389 63.7846 67.3388C63.7846 66.445 63.1198 65.6885 62.0113 65.6885C60.9102 65.6885 60.245 66.445 60.245 67.3388C60.245 68.2389 60.9102 68.9955 62.0113 68.9955ZM62.0113 68.2583C61.4642 68.2583 61.1596 67.8343 61.1596 67.3388C61.1596 66.8496 61.4642 66.4256 62.0113 66.4256C62.5588 66.4256 62.8704 66.8496 62.8704 67.3388C62.8704 67.8343 62.5588 68.2583 62.0113 68.2583Z" fill="#0F0F10"/>
<path d="M69.6109 68.9171V66.6409C69.6109 65.995 69.2437 65.6885 68.6271 65.6885C68.1148 65.6885 67.6712 65.9756 67.4774 66.2623C67.3527 65.9038 67.0411 65.6885 66.5492 65.6885C66.0365 65.6885 65.5933 65.9884 65.4547 66.1777V65.7668H64.5752V68.9171H65.4547V66.7973C65.5863 66.6211 65.8427 66.4256 66.1473 66.4256C66.5075 66.4256 66.6461 66.6343 66.6461 66.9276V68.9171H67.533V66.7907C67.6577 66.6211 67.9137 66.4256 68.2256 66.4256C68.5858 66.4256 68.7244 66.6343 68.7244 66.9276V68.9171H69.6109Z" fill="#0F0F10"/>
<path opacity="0.2" fill-rule="evenodd" clip-rule="evenodd" d="M27.1426 39.6794H23.2817V39.3326H27.1426V39.6794Z" fill="#EDEFEE"/>
<path opacity="0.2" fill-rule="evenodd" clip-rule="evenodd" d="M57.2568 39.6794H53.396V39.3326H57.2568V39.6794Z" fill="#EDEFEE"/>
<path d="M35.5262 41.0116C36.1647 41.0116 36.5016 40.6492 36.5016 40.1964C36.5016 39.8161 36.215 39.5033 35.858 39.4538C36.1748 39.3948 36.4362 39.141 36.4362 38.7607C36.4362 38.3578 36.1094 37.991 35.4708 37.991H33.7061V41.0116H35.5262ZM35.315 39.2H34.42V38.5433H35.315C35.5563 38.5433 35.7072 38.6837 35.7072 38.8741C35.7072 39.0641 35.5563 39.2 35.315 39.2ZM35.3401 40.4547H34.42V39.7526H35.3401C35.6217 39.7526 35.7725 39.9156 35.7725 40.1059C35.7725 40.3233 35.6116 40.4547 35.3401 40.4547Z" fill="#EDEFEE"/>
<path d="M39.7649 41.0113V40.4451H38.1055V39.7614H39.7294V39.1952H38.1055V38.5566H39.7649V37.9907H37.3916V41.0113H39.7649Z" fill="#EDEFEE"/>
<path d="M41.8659 41.0661C42.7709 41.0661 43.2084 40.6494 43.2084 40.097C43.2084 38.9692 41.283 39.2909 41.283 38.8107C41.283 38.6294 41.4536 38.5074 41.7605 38.5074C42.1022 38.5074 42.4644 38.6114 42.7358 38.8378L43.1331 38.3669C42.8014 38.0906 42.359 37.9457 41.8258 37.9457C41.0366 37.9457 40.5536 38.3624 40.5536 38.8652C40.5536 40.0017 42.4844 39.6349 42.4844 40.1695C42.4844 40.3415 42.2933 40.5044 41.9011 40.5044C41.4385 40.5044 41.0718 40.3189 40.8355 40.097L40.4482 40.5859C40.7598 40.8713 41.2223 41.0661 41.8659 41.0661Z" fill="#EDEFEE"/>
<path d="M45.4713 41.0113V38.5566H46.4465V37.9907H43.7717V38.5566H44.752V41.0113H45.4713Z" fill="#EDEFEE"/>
</g>
<defs>
<clipPath id="clip0_2001_1123">
<rect width="80" height="95" fill="white" transform="translate(0.5 0.5)"/>
</clipPath>
</defs>
</svg>
