<svg width="91" height="90" viewBox="0 0 91 90" fill="none" xmlns="http://www.w3.org/2000/svg">
<g clip-path="url(#clip0_2001_1176)">
<path d="M45.4688 79.1216C64.1985 79.1216 79.3819 63.8168 79.3819 44.9373C79.3819 26.0578 64.1985 10.7529 45.4688 10.7529C26.7392 10.7529 11.5558 26.0578 11.5558 44.9373C11.5558 63.8168 26.7392 79.1216 45.4688 79.1216Z" fill="#0F0F10"/>
<path fill-rule="evenodd" clip-rule="evenodd" d="M45.4689 12.5681C27.7341 12.5681 13.3571 27.06 13.3571 44.9368C13.3571 62.8135 27.7341 77.3055 45.4689 77.3055C63.2038 77.3055 77.5807 62.8135 77.5807 44.9368C77.5807 27.06 63.2038 12.5681 45.4689 12.5681ZM9.75464 44.9368C9.75464 25.0545 25.7445 8.93677 45.4689 8.93677C65.1934 8.93677 81.1832 25.0545 81.1832 44.9368C81.1832 64.819 65.1934 80.9368 45.4689 80.9368C25.7445 80.9368 9.75464 64.819 9.75464 44.9368Z" fill="#EDEFEE"/>
<path fill-rule="evenodd" clip-rule="evenodd" d="M45.4038 14.1342C45.4462 14.134 45.4886 14.1339 45.531 14.1339C45.5735 14.1339 45.6159 14.134 45.6583 14.1342C45.7955 14.1347 45.9062 14.2473 45.9057 14.3856C45.9051 14.5239 45.7934 14.6356 45.6562 14.635C45.6145 14.6349 45.5728 14.6348 45.531 14.6348C45.4893 14.6348 45.4475 14.6349 45.4058 14.635C45.2686 14.6356 45.1569 14.5239 45.1564 14.3856C45.1558 14.2473 45.2666 14.1347 45.4038 14.1342ZM46.4143 14.396C46.4194 14.2578 46.5346 14.1499 46.6717 14.1549C46.7558 14.158 46.8399 14.1615 46.9238 14.1653C47.0609 14.1715 47.167 14.2885 47.1609 14.4267C47.1548 14.5648 47.0387 14.6718 46.9016 14.6656C46.819 14.6619 46.7363 14.6585 46.6535 14.6555C46.5164 14.6504 46.4093 14.5343 46.4143 14.396ZM44.6477 14.396C44.6527 14.5343 44.5456 14.6504 44.4085 14.6555C44.3257 14.6585 44.243 14.6619 44.1604 14.6656C44.0234 14.6718 43.9073 14.5648 43.9011 14.4267C43.895 14.2885 44.0011 14.1715 44.1382 14.1653C44.2222 14.1615 44.3062 14.158 44.3903 14.1549C44.5274 14.1499 44.6427 14.2578 44.6477 14.396ZM47.6687 14.458C47.6793 14.3201 47.7988 14.217 47.9356 14.2277C48.0197 14.2343 48.1037 14.2412 48.1877 14.2485C48.3244 14.2603 48.4257 14.3816 48.4139 14.5194C48.4022 14.6572 48.2818 14.7594 48.1451 14.7475C48.0625 14.7404 47.9799 14.7335 47.8971 14.7271C47.7603 14.7163 47.6581 14.5959 47.6687 14.458ZM43.3934 14.458C43.404 14.5959 43.3017 14.7163 43.1649 14.7271C43.0821 14.7335 42.9995 14.7404 42.9169 14.7475C42.7802 14.7594 42.6599 14.6572 42.6481 14.5194C42.6364 14.3816 42.7377 14.2603 42.8744 14.2485C42.9583 14.2412 43.0423 14.2343 43.1264 14.2277C43.2632 14.217 43.3827 14.3201 43.3934 14.458ZM48.9189 14.5716C48.9351 14.4343 49.0588 14.3362 49.195 14.3526C49.2789 14.3627 49.3627 14.3731 49.4464 14.3839C49.5825 14.4014 49.6788 14.5268 49.6614 14.664C49.6441 14.8012 49.5196 14.8983 49.3835 14.8807C49.3012 14.8701 49.2187 14.8599 49.1362 14.85C48.9999 14.8336 48.9026 14.709 48.9189 14.5716ZM42.1432 14.5716C42.1594 14.709 42.0621 14.8336 41.9259 14.85C41.8433 14.8599 41.7609 14.8701 41.6785 14.8807C41.5424 14.8983 41.418 14.8012 41.4006 14.664C41.3832 14.5268 41.4795 14.4014 41.6156 14.3839C41.6993 14.3731 41.7831 14.3627 41.867 14.3526C42.0033 14.3362 42.1269 14.4343 42.1432 14.5716ZM50.163 14.7371C50.1849 14.6005 50.3124 14.5077 50.4479 14.5298C50.5314 14.5433 50.6149 14.5573 50.6982 14.5715C50.8335 14.5947 50.9245 14.724 50.9015 14.8604C50.8785 14.9968 50.7502 15.0885 50.6149 15.0653C50.533 15.0513 50.4509 15.0376 50.3687 15.0242C50.2333 15.0022 50.1412 14.8736 50.163 14.7371ZM40.899 14.7371C40.9209 14.8736 40.8288 15.0022 40.6933 15.0242C40.6111 15.0376 40.5291 15.0513 40.4471 15.0653C40.3118 15.0885 40.1835 14.9968 40.1606 14.8604C40.1376 14.7241 40.2286 14.5947 40.3639 14.5716C40.4472 14.5573 40.5306 14.5433 40.6141 14.5298C40.7496 14.5077 40.8771 14.6005 40.899 14.7371ZM51.3992 14.9543C51.4267 14.8187 51.5579 14.7313 51.6924 14.759C51.7753 14.7761 51.8582 14.7935 51.9409 14.8113C52.0751 14.8401 52.1607 14.9731 52.1321 15.1084C52.1036 15.2437 51.9716 15.33 51.8374 15.3012C51.756 15.2837 51.6745 15.2666 51.5929 15.2497C51.4585 15.2221 51.3718 15.0898 51.3992 14.9543ZM39.6628 14.9543C39.6903 15.0898 39.6036 15.2221 39.4691 15.2498C39.3875 15.2666 39.306 15.2837 39.2246 15.3012C39.0904 15.33 38.9585 15.2437 38.9299 15.1084C38.9013 14.9731 38.9869 14.8401 39.1211 14.8113C39.2039 14.7935 39.2867 14.7761 39.3697 14.759C39.5041 14.7313 39.6354 14.8187 39.6628 14.9543ZM52.6269 15.2233C52.6599 15.0891 52.7947 15.0072 52.9278 15.0405C53.0096 15.061 53.0912 15.0818 53.1727 15.1029C53.3055 15.1373 53.3856 15.2738 53.3515 15.4077C53.3173 15.5417 53.1819 15.6224 53.049 15.588C52.9689 15.5672 52.8886 15.5468 52.8082 15.5267C52.675 15.4934 52.5938 15.3576 52.6269 15.2233ZM38.4352 15.2233C38.4682 15.3576 38.387 15.4934 38.2538 15.5267C38.1734 15.5468 38.0932 15.5672 38.013 15.588C37.8801 15.6224 37.7447 15.5417 37.7106 15.4077C37.6764 15.2738 37.7565 15.1373 37.8894 15.1029C37.9709 15.0818 38.0525 15.061 38.1342 15.0406C38.2674 15.0073 38.4021 15.0891 38.4352 15.2233ZM53.8419 15.5436C53.8805 15.4108 54.0185 15.3347 54.1502 15.3736C54.2311 15.3975 54.3119 15.4217 54.3925 15.4462C54.5239 15.4862 54.5982 15.6259 54.5586 15.7583C54.5189 15.8907 54.3803 15.9657 54.2489 15.9257C54.1696 15.9016 54.0902 15.8778 54.0106 15.8543C53.8789 15.8154 53.8034 15.6763 53.8419 15.5436ZM37.2201 15.5436C37.2587 15.6763 37.1832 15.8154 37.0515 15.8543C36.9719 15.8778 36.8924 15.9016 36.8131 15.9257C36.6817 15.9657 36.5431 15.8907 36.5035 15.7583C36.4638 15.6259 36.5382 15.4862 36.6695 15.4462C36.7502 15.4217 36.8309 15.3975 36.9119 15.3736C37.0435 15.3347 37.1815 15.4108 37.2201 15.5436ZM55.0424 15.9144C55.0864 15.7834 55.2275 15.7132 55.3574 15.7576C55.4374 15.7848 55.5172 15.8125 55.5968 15.8404C55.7264 15.8858 55.7949 16.0286 55.7498 16.1592C55.7047 16.2898 55.5631 16.3589 55.4335 16.3134C55.3552 16.286 55.2767 16.2588 55.1981 16.232C55.0681 16.1876 54.9984 16.0455 55.0424 15.9144ZM36.0196 15.9145C36.0636 16.0455 35.9939 16.1876 35.864 16.232C35.7853 16.2588 35.7069 16.286 35.6285 16.3134C35.4989 16.3589 35.3573 16.2898 35.3122 16.1592C35.2671 16.0286 35.3356 15.8858 35.4652 15.8404C35.5449 15.8125 35.6247 15.7849 35.7046 15.7576C35.8346 15.7132 35.9756 15.7834 36.0196 15.9145ZM56.2264 16.3354C56.2757 16.2063 56.4196 16.1421 56.5476 16.1918C56.6264 16.2225 56.705 16.2534 56.7835 16.2847C56.9111 16.3355 56.9737 16.481 56.9232 16.6097C56.8728 16.7383 56.7284 16.8013 56.6008 16.7505C56.5236 16.7197 56.4463 16.6893 56.3688 16.6591C56.2407 16.6094 56.177 16.4644 56.2264 16.3354ZM34.8357 16.3354C34.8851 16.4644 34.8213 16.6094 34.6933 16.6591C34.6158 16.6893 34.5384 16.7197 34.4612 16.7505C34.3336 16.8013 34.1893 16.7383 34.1388 16.6097C34.0884 16.481 34.1509 16.3356 34.2785 16.2847C34.357 16.2534 34.4357 16.2225 34.5145 16.1918C34.6425 16.1421 34.7863 16.2063 34.8357 16.3354ZM57.3918 16.8055C57.4465 16.6787 57.5928 16.6205 57.7187 16.6756C57.7962 16.7095 57.8735 16.7438 57.9507 16.7783C58.0761 16.8345 58.1326 16.9825 58.0769 17.1089C58.0212 17.2353 57.8743 17.2922 57.7489 17.2361C57.673 17.2021 57.597 17.1684 57.5207 17.135C57.3949 17.0799 57.3371 16.9324 57.3918 16.8055ZM33.6702 16.8055C33.7249 16.9324 33.6672 17.0799 33.5413 17.135C33.4651 17.1684 33.389 17.2021 33.3131 17.2361C33.1877 17.2922 33.0409 17.2353 32.9852 17.1089C32.9295 16.9825 32.986 16.8345 33.1114 16.7783C33.1885 16.7438 33.2659 16.7095 33.3434 16.6756C33.4692 16.6205 33.6156 16.6787 33.6702 16.8055ZM58.5368 17.3241C58.5967 17.1997 58.7453 17.1477 58.8688 17.208C58.9448 17.2452 59.0207 17.2826 59.0964 17.3204C59.2194 17.3818 59.2697 17.532 59.2089 17.6559C59.148 17.7799 58.999 17.8306 58.876 17.7693C58.8015 17.7321 58.7269 17.6953 58.652 17.6587C58.5286 17.5984 58.477 17.4486 58.5368 17.3241ZM32.5252 17.3242C32.5851 17.4486 32.5335 17.5984 32.41 17.6587C32.3352 17.6953 32.2605 17.7321 32.1861 17.7693C32.0631 17.8307 31.914 17.7799 31.8532 17.6559C31.7923 17.532 31.8427 17.3818 31.9656 17.3204C32.0413 17.2826 32.1172 17.2452 32.1933 17.208C32.3168 17.1477 32.4654 17.1997 32.5252 17.3242ZM59.6599 17.8904C59.7248 17.7686 59.8754 17.7228 59.9963 17.7883C60.0707 17.8285 60.1448 17.869 60.2188 17.9099C60.3392 17.9763 60.3833 18.1285 60.3174 18.2498C60.2515 18.3711 60.1005 18.4156 59.9801 18.3492C59.9073 18.309 59.8344 18.2691 59.7612 18.2295C59.6404 18.1641 59.595 18.0123 59.6599 17.8904ZM31.4022 17.8904C31.4671 18.0123 31.4217 18.1641 31.3008 18.2295C31.2277 18.2691 31.1547 18.309 31.0819 18.3492C30.9616 18.4156 30.8106 18.3711 30.7447 18.2498C30.6788 18.1285 30.7229 17.9763 30.8432 17.9099C30.9172 17.869 30.9914 17.8285 31.0657 17.7883C31.1866 17.7228 31.3372 17.7686 31.4022 17.8904ZM60.7587 18.5032C60.8286 18.3841 60.981 18.3447 61.0991 18.4151C61.1716 18.4584 61.2441 18.502 61.3163 18.5458C61.4338 18.6172 61.4716 18.7712 61.4008 18.8896C61.3299 19.0081 61.1773 19.0462 61.0597 18.9748C60.9887 18.9317 60.9175 18.8888 60.8461 18.8462C60.728 18.7758 60.6889 18.6222 60.7587 18.5032ZM30.3033 18.5032C30.3732 18.6222 30.3341 18.7758 30.216 18.8462C30.1446 18.8888 30.0733 18.9317 30.0023 18.9748C29.8848 19.0462 29.7321 19.0081 29.6613 18.8896C29.5904 18.7712 29.6283 18.6173 29.7458 18.5459C29.818 18.502 29.8904 18.4584 29.963 18.4151C30.0811 18.3447 30.2335 18.3841 30.3033 18.5032ZM61.8314 19.1611C61.9061 19.0451 62.0599 19.0121 62.175 19.0873C62.2458 19.1336 62.3164 19.1802 62.3868 19.2271C62.5013 19.3033 62.5328 19.4586 62.4571 19.574C62.3815 19.6895 62.2274 19.7212 62.1129 19.645C62.0437 19.5989 61.9742 19.5531 61.9046 19.5075C61.7895 19.4322 61.7567 19.2772 61.8314 19.1611ZM29.2307 19.1611C29.3054 19.2772 29.2726 19.4322 29.1575 19.5075C29.0878 19.5531 29.0184 19.5989 28.9492 19.645C28.8347 19.7212 28.6805 19.6895 28.6049 19.5741C28.5293 19.4586 28.5608 19.3033 28.6753 19.2271C28.7457 19.1802 28.8162 19.1336 28.887 19.0873C29.0021 19.0121 29.156 19.0451 29.2307 19.1611ZM62.8761 19.8631C62.9554 19.7503 63.1105 19.7237 63.2225 19.8037C63.2913 19.8529 63.3599 19.9024 63.4284 19.9521C63.5396 20.0331 63.5648 20.1896 63.4845 20.3018C63.4042 20.4139 63.2489 20.4393 63.1376 20.3583C63.0703 20.3094 63.0028 20.2607 62.9351 20.2123C62.8231 20.1323 62.7967 19.976 62.8761 19.8631ZM28.186 19.8631C28.2653 19.976 28.2389 20.1323 28.127 20.2123C28.0593 20.2607 27.9917 20.3094 27.9244 20.3583C27.8131 20.4393 27.6579 20.4139 27.5776 20.3018C27.4973 20.1896 27.5224 20.0331 27.6337 19.9521C27.7021 19.9024 27.7708 19.8529 27.8396 19.8037C27.9515 19.7237 28.1066 19.7503 28.186 19.8631ZM63.8912 20.6079C63.9751 20.4985 64.1311 20.4783 64.2397 20.5629C64.3065 20.6149 64.373 20.6672 64.4394 20.7198C64.5472 20.8053 64.566 20.9627 64.4812 21.0715C64.3964 21.1802 64.2402 21.1991 64.1323 21.1136C64.067 21.0619 64.0015 21.0104 63.9358 20.9592C63.8272 20.8746 63.8073 20.7174 63.8912 20.6079ZM27.1709 20.6079C27.2548 20.7174 27.2348 20.8747 27.1262 20.9592C27.0605 21.0104 26.995 21.0619 26.9298 21.1136C26.8219 21.1991 26.6657 21.1802 26.5809 21.0715C26.4961 20.9627 26.5148 20.8053 26.6227 20.7198C26.689 20.6673 26.7556 20.6149 26.8224 20.5629C26.931 20.4783 27.087 20.4985 27.1709 20.6079ZM64.875 21.3942C64.9633 21.2884 65.12 21.2747 65.225 21.3637C65.2896 21.4184 65.354 21.4735 65.4182 21.5287C65.5225 21.6186 65.5347 21.7767 65.4456 21.8818C65.3564 21.987 65.1996 21.9993 65.0953 21.9095C65.0322 21.8551 64.9688 21.8009 64.9053 21.7471C64.8002 21.6581 64.7867 21.5001 64.875 21.3942ZM26.1871 21.3942C26.2754 21.5001 26.2618 21.6581 26.1568 21.7471C26.0932 21.8009 26.0299 21.8551 25.9668 21.9095C25.8625 21.9993 25.7056 21.987 25.6165 21.8818C25.5273 21.7767 25.5396 21.6186 25.6439 21.5288C25.708 21.4735 25.7724 21.4185 25.837 21.3637C25.9421 21.2747 26.0988 21.2884 26.1871 21.3942ZM65.8259 22.2206C65.9184 22.1185 66.0756 22.1114 66.1769 22.2046C66.2392 22.262 66.3013 22.3197 66.3631 22.3775C66.4637 22.4717 66.4695 22.6301 66.3761 22.7315C66.2828 22.8328 66.1256 22.8387 66.025 22.7446C65.9642 22.6876 65.9031 22.6309 65.8418 22.5744C65.7405 22.4812 65.7334 22.3228 65.8259 22.2206ZM25.2362 22.2206C25.3287 22.3228 25.3216 22.4812 25.2203 22.5745C25.159 22.6309 25.0979 22.6876 25.037 22.7446C24.9365 22.8387 24.7793 22.8328 24.6859 22.7315C24.5926 22.6301 24.5984 22.4717 24.6989 22.3776C24.7608 22.3197 24.8228 22.262 24.8852 22.2046C24.9865 22.1114 25.1436 22.1185 25.2362 22.2206ZM66.7424 23.0858C66.839 22.9876 66.9963 22.9869 67.0937 23.0843C67.1536 23.1442 67.2133 23.2044 67.2727 23.2648C67.3694 23.363 67.3687 23.5215 67.2713 23.6189C67.1739 23.7163 67.0166 23.7157 66.9199 23.6175C66.8615 23.5581 66.8028 23.4989 66.7438 23.44C66.6464 23.3426 66.6458 23.184 66.7424 23.0858ZM24.3197 23.0858C24.4163 23.184 24.4156 23.3426 24.3182 23.44C24.2593 23.4989 24.2006 23.5581 24.1421 23.6175C24.0455 23.7157 23.8882 23.7163 23.7907 23.619C23.6933 23.5216 23.6927 23.363 23.7893 23.2648C23.8487 23.2044 23.9084 23.1442 23.9683 23.0843C24.0657 22.9869 24.223 22.9876 24.3197 23.0858ZM67.6228 23.9881C67.7234 23.894 67.8806 23.8999 67.9739 24.0012C68.0314 24.0636 68.0885 24.1261 68.1455 24.189C68.238 24.2911 68.2309 24.4495 68.1296 24.5428C68.0283 24.636 67.8711 24.6289 67.7786 24.5268C67.7226 24.465 67.6663 24.4034 67.6098 24.3421C67.5165 24.2407 67.5223 24.0823 67.6228 23.9881ZM23.4392 23.9881C23.5398 24.0823 23.5456 24.2407 23.4522 24.3421C23.3957 24.4034 23.3395 24.465 23.2835 24.5268C23.1909 24.6289 23.0338 24.6361 22.9325 24.5428C22.8312 24.4495 22.824 24.2911 22.9166 24.189C22.9735 24.1261 23.0307 24.0636 23.0881 24.0012C23.1815 23.8999 23.3387 23.894 23.4392 23.9881ZM68.4657 24.9261C68.57 24.8363 68.7268 24.8486 68.816 24.9538C68.8708 25.0184 68.9254 25.0833 68.9797 25.1484C69.068 25.2543 69.0545 25.4123 68.9495 25.5013C68.8444 25.5903 68.6877 25.5766 68.5994 25.4708C68.546 25.4067 68.4923 25.3428 68.4383 25.2792C68.3491 25.1741 68.3614 25.016 68.4657 24.9261ZM22.5963 24.9261C22.7006 25.016 22.7129 25.1741 22.6237 25.2792C22.5698 25.3429 22.5161 25.4067 22.4626 25.4708C22.3743 25.5766 22.2176 25.5903 22.1126 25.5013C22.0076 25.4123 21.994 25.2543 22.0823 25.1485C22.1366 25.0833 22.1912 25.0184 22.2461 24.9538C22.3352 24.8486 22.492 24.8363 22.5963 24.9261ZM69.2696 25.8983C69.3775 25.8128 69.5337 25.8316 69.6185 25.9404C69.6707 26.0073 69.7225 26.0744 69.7742 26.1417C69.8581 26.2511 69.8381 26.4084 69.7295 26.493C69.6209 26.5776 69.4649 26.5574 69.381 26.448C69.3302 26.3817 69.2792 26.3157 69.2279 26.2499C69.1431 26.1412 69.1618 25.9837 69.2696 25.8983ZM21.7924 25.8983C21.9003 25.9837 21.919 26.1412 21.8342 26.2499C21.7829 26.3157 21.7318 26.3817 21.6811 26.448C21.5972 26.5574 21.4411 26.5776 21.3326 26.493C21.224 26.4084 21.204 26.2511 21.2879 26.1417C21.3395 26.0744 21.3914 26.0073 21.4435 25.9404C21.5283 25.8316 21.6845 25.8128 21.7924 25.8983ZM70.0332 26.9029C70.1445 26.822 70.2998 26.8473 70.3801 26.9595C70.4295 27.0284 70.4785 27.0976 70.5274 27.167C70.6067 27.2799 70.5803 27.4362 70.4684 27.5162C70.3565 27.5962 70.2014 27.5696 70.122 27.4567C70.074 27.3885 70.0257 27.3204 69.9771 27.2525C69.8968 27.1404 69.922 26.9838 70.0332 26.9029ZM21.0288 26.9029C21.1401 26.9838 21.1652 27.1404 21.0849 27.2525C21.0364 27.3204 20.9881 27.3885 20.94 27.4567C20.8607 27.5696 20.7056 27.5962 20.5937 27.5162C20.4817 27.4362 20.4553 27.2799 20.5347 27.167C20.5835 27.0976 20.6326 27.0285 20.682 26.9595C20.7622 26.8473 20.9175 26.822 21.0288 26.9029ZM70.7552 27.9385C70.8697 27.8622 71.0238 27.894 71.0994 28.0094C71.1459 28.0803 71.1921 28.1515 71.238 28.2228C71.3127 28.3389 71.2799 28.494 71.1648 28.5692C71.0497 28.6445 70.8959 28.6115 70.8212 28.4954C70.776 28.4253 70.7305 28.3553 70.6848 28.2855C70.6092 28.1701 70.6407 28.0147 70.7552 27.9385ZM20.3069 27.9385C20.4214 28.0147 20.4529 28.1701 20.3772 28.2855C20.3315 28.3553 20.286 28.4253 20.2409 28.4955C20.1662 28.6115 20.0123 28.6445 19.8972 28.5692C19.7821 28.494 19.7493 28.3389 19.824 28.2229C19.8699 28.1515 19.9161 28.0804 19.9626 28.0094C20.0383 27.894 20.1924 27.8623 20.3069 27.9385ZM71.4342 29.0033C71.5517 28.9319 71.7044 28.97 71.7752 29.0885C71.8187 29.1613 71.862 29.2342 71.9049 29.3074C71.9748 29.4265 71.9357 29.58 71.8176 29.6505C71.6995 29.7209 71.5471 29.6815 71.4772 29.5624C71.435 29.4904 71.3925 29.4186 71.3497 29.347C71.2788 29.2286 71.3167 29.0747 71.4342 29.0033ZM19.6279 29.0033C19.7454 29.0747 19.7832 29.2286 19.7124 29.3471C19.6696 29.4187 19.6271 29.4904 19.5848 29.5624C19.5149 29.6815 19.3626 29.7209 19.2445 29.6505C19.1264 29.5801 19.0873 29.4265 19.1571 29.3074C19.2001 29.2342 19.2433 29.1613 19.2868 29.0885C19.3577 28.97 19.5104 28.9319 19.6279 29.0033ZM72.0689 30.0953C72.1892 30.0289 72.3402 30.0734 72.4061 30.1947C72.4467 30.2693 72.4869 30.344 72.5268 30.419C72.5917 30.5408 72.5463 30.6927 72.4254 30.7581C72.3046 30.8235 72.1539 30.7778 72.089 30.6559C72.0497 30.5822 72.0102 30.5087 71.9703 30.4353C71.9044 30.314 71.9485 30.1618 72.0689 30.0953ZM18.9932 30.0954C19.1135 30.1618 19.1576 30.314 19.0917 30.4353C19.0519 30.5087 19.0123 30.5822 18.973 30.6559C18.9081 30.7778 18.7575 30.8235 18.6366 30.7581C18.5157 30.6927 18.4703 30.5408 18.5353 30.419C18.5752 30.344 18.6154 30.2693 18.6559 30.1947C18.7218 30.0734 18.8728 30.0289 18.9932 30.0954ZM72.6581 31.2127C72.781 31.1514 72.9301 31.2021 72.9909 31.3261C73.0284 31.4024 73.0656 31.4789 73.1024 31.5556C73.1623 31.68 73.1107 31.8298 72.9872 31.8901C72.8637 31.9505 72.7151 31.8985 72.6553 31.774C72.619 31.6986 72.5825 31.6233 72.5456 31.5483C72.4847 31.4243 72.5351 31.2741 72.6581 31.2127ZM18.404 31.2127C18.527 31.2741 18.5773 31.4243 18.5164 31.5483C18.4796 31.6233 18.443 31.6986 18.4068 31.774C18.3469 31.8985 18.1983 31.9505 18.0748 31.8902C17.9514 31.8298 17.8998 31.68 17.9596 31.5556C17.9965 31.4789 18.0336 31.4024 18.0711 31.3261C18.132 31.2021 18.281 31.1514 18.404 31.2127ZM73.2008 32.3538C73.3262 32.2976 73.473 32.3546 73.5287 32.481C73.563 32.5588 73.597 32.6367 73.6306 32.7148C73.6853 32.8417 73.6276 32.9892 73.5017 33.0443C73.3759 33.0994 73.2295 33.0412 73.1749 32.9144C73.1417 32.8375 73.1083 32.7608 73.0746 32.6843C73.0189 32.5579 73.0754 32.4099 73.2008 32.3538ZM17.8613 32.3538C17.9867 32.4099 18.0432 32.5579 17.9875 32.6843C17.9537 32.7609 17.9203 32.8375 17.8872 32.9144C17.8325 33.0413 17.6862 33.0994 17.5603 33.0443C17.4345 32.9892 17.3768 32.8417 17.4314 32.7149C17.4651 32.6367 17.4991 32.5588 17.5334 32.481C17.5891 32.3546 17.7359 32.2976 17.8613 32.3538ZM73.696 33.5167C73.8236 33.4658 73.968 33.5289 74.0184 33.6575C74.0494 33.7366 74.0802 33.8159 74.1106 33.8953C74.1599 34.0243 74.0962 34.1693 73.9682 34.2191C73.8401 34.2689 73.6963 34.2046 73.647 34.0756C73.6171 33.9974 73.5868 33.9194 73.5563 33.8416C73.5059 33.713 73.5684 33.5675 73.696 33.5167ZM17.366 33.5167C17.4936 33.5675 17.5562 33.713 17.5057 33.8416C17.4752 33.9195 17.445 33.9974 17.4151 34.0756C17.3657 34.2046 17.2219 34.2689 17.0939 34.2191C16.9659 34.1693 16.9021 34.0244 16.9515 33.8953C16.9819 33.8159 17.0126 33.7366 17.0436 33.6575C17.0941 33.5289 17.2384 33.4658 17.366 33.5167ZM74.1429 34.6994C74.2725 34.654 74.4141 34.7231 74.4592 34.8537C74.4869 34.934 74.5143 35.0144 74.5414 35.095C74.5854 35.226 74.5157 35.3681 74.3857 35.4125C74.2558 35.4569 74.1147 35.3866 74.0707 35.2556C74.0441 35.1763 74.0172 35.0972 73.9899 35.0183C73.9448 34.8876 74.0133 34.7449 74.1429 34.6994ZM16.9191 34.6995C17.0487 34.7449 17.1172 34.8876 17.0721 35.0183C17.0449 35.0972 17.0179 35.1764 16.9913 35.2556C16.9473 35.3866 16.8063 35.4569 16.6763 35.4125C16.5464 35.3681 16.4767 35.226 16.5207 35.095C16.5477 35.0144 16.5751 34.934 16.6028 34.8537C16.6479 34.7231 16.7895 34.654 16.9191 34.6995ZM74.5406 35.9002C74.672 35.8602 74.8106 35.9352 74.8503 36.0676C74.8746 36.1489 74.8986 36.2303 74.9223 36.3119C74.9609 36.4446 74.8854 36.5837 74.7537 36.6226C74.622 36.6614 74.484 36.5853 74.4454 36.4526C74.4221 36.3724 74.3985 36.2923 74.3746 36.2123C74.3349 36.0799 74.4093 35.9402 74.5406 35.9002ZM16.5214 35.9002C16.6528 35.9402 16.7271 36.0799 16.6875 36.2123C16.6635 36.2923 16.6399 36.3724 16.6166 36.4526C16.5781 36.5854 16.4401 36.6615 16.3084 36.6226C16.1767 36.5837 16.1012 36.4446 16.1397 36.3119C16.1634 36.2303 16.1875 36.1489 16.2118 36.0676C16.2514 35.9352 16.3901 35.8602 16.5214 35.9002ZM74.8884 37.117C75.0213 37.0826 75.1568 37.1633 75.1909 37.2972C75.2118 37.3794 75.2324 37.4616 75.2527 37.544C75.2857 37.6782 75.2046 37.8141 75.0714 37.8474C74.9382 37.8807 74.8035 37.7988 74.7704 37.6646C74.7505 37.5835 74.7302 37.5026 74.7096 37.4219C74.6755 37.2879 74.7555 37.1514 74.8884 37.117ZM16.1736 37.117C16.3065 37.1514 16.3866 37.2879 16.3524 37.4219C16.3318 37.5026 16.3116 37.5836 16.2916 37.6646C16.2586 37.7988 16.1239 37.8807 15.9907 37.8474C15.8575 37.8141 15.7763 37.6783 15.8094 37.544C15.8296 37.4616 15.8502 37.3794 15.8712 37.2972C15.9053 37.1633 16.0407 37.0826 16.1736 37.117ZM75.1854 38.3461C75.3196 38.3172 75.4516 38.4035 75.4801 38.5388C75.4978 38.6222 75.5151 38.7057 75.532 38.7893C75.5595 38.9249 75.4727 39.0572 75.3383 39.0848C75.2039 39.1125 75.0726 39.0251 75.0452 38.8896C75.0348 38.8386 75.0244 38.7877 75.0138 38.7368C75.0073 38.7056 75.0007 38.6744 74.9942 38.6432C74.9656 38.5079 75.0512 38.3749 75.1854 38.3461ZM15.8767 38.3461C16.0109 38.3749 16.0965 38.5079 16.0679 38.6432C16.0506 38.7252 16.0336 38.8073 16.0169 38.8896C15.9894 39.0251 15.8582 39.1125 15.7237 39.0849C15.5893 39.0572 15.5026 38.9249 15.5301 38.7894C15.547 38.7057 15.5643 38.6222 15.5819 38.5388C15.6105 38.4036 15.7425 38.3173 15.8767 38.3461ZM75.4314 39.5866C75.5667 39.5634 75.695 39.6551 75.718 39.7915C75.7321 39.8755 75.746 39.9596 75.7594 40.0438C75.7813 40.1803 75.6892 40.3089 75.5538 40.3309C75.4183 40.353 75.2908 40.2601 75.2689 40.1236C75.2556 40.0408 75.242 39.958 75.2281 39.8754C75.2051 39.7391 75.2961 39.6097 75.4314 39.5866ZM15.6306 39.5866C15.7659 39.6097 15.8569 39.7391 15.8339 39.8754C15.82 39.958 15.8064 40.0408 15.7932 40.1236C15.7713 40.2602 15.6438 40.353 15.5083 40.3309C15.3728 40.3089 15.2807 40.1803 15.3026 40.0438C15.3161 39.9596 15.3299 39.8755 15.3441 39.7915C15.3671 39.6551 15.4954 39.5634 15.6306 39.5866ZM75.6262 40.8365C75.7623 40.819 75.8868 40.9161 75.9041 41.0533C75.9148 41.1376 75.9252 41.2221 75.9352 41.3067C75.9514 41.444 75.8541 41.5686 75.7179 41.585C75.5816 41.6014 75.458 41.5033 75.4418 41.366C75.4319 41.2828 75.4218 41.1997 75.4112 41.1167C75.3939 40.9795 75.4901 40.8541 75.6262 40.8365ZM15.4358 40.8366C15.5719 40.8541 15.6682 40.9795 15.6508 41.1167C15.6403 41.1997 15.6301 41.2828 15.6203 41.366C15.604 41.5034 15.4804 41.6014 15.3442 41.585C15.2079 41.5687 15.1106 41.444 15.1269 41.3067C15.1369 41.2221 15.1472 41.1376 15.1579 41.0533C15.1753 40.9161 15.2997 40.819 15.4358 40.8366ZM75.7697 42.094C75.9064 42.0822 76.0267 42.1843 76.0385 42.3221C76.0457 42.4067 76.0526 42.4914 76.0591 42.5761C76.0697 42.714 75.9675 42.8345 75.8307 42.8452C75.6938 42.8559 75.5743 42.7528 75.5637 42.6149C75.5573 42.5315 75.5505 42.4482 75.5434 42.365C75.5317 42.2272 75.633 42.1059 75.7697 42.094ZM15.2924 42.094C15.4291 42.1059 15.5304 42.2272 15.5186 42.365C15.5115 42.4482 15.5048 42.5315 15.4984 42.615C15.4877 42.7528 15.3682 42.856 15.2314 42.8452C15.0946 42.8345 14.9923 42.7141 15.0029 42.5762C15.0095 42.4914 15.0164 42.4067 15.0236 42.3221C15.0353 42.1843 15.1557 42.0822 15.2924 42.094ZM75.8617 43.3571C75.9988 43.3509 76.1149 43.4579 76.121 43.596C76.1248 43.6807 76.1282 43.7654 76.1313 43.8502C76.1363 43.9884 76.0292 44.1045 75.8921 44.1096C75.755 44.1147 75.6398 44.0067 75.6347 43.8685C75.6317 43.7851 75.6283 43.7017 75.6246 43.6185C75.6185 43.4803 75.7246 43.3633 75.8617 43.3571ZM15.2003 43.3571C15.3374 43.3633 15.4436 43.4803 15.4374 43.6185C15.4337 43.7017 15.4304 43.7851 15.4273 43.8685C15.4223 44.0067 15.3071 44.1147 15.17 44.1096C15.0328 44.1045 14.9257 43.9884 14.9308 43.8502C14.9338 43.7654 14.9373 43.6807 14.941 43.5961C14.9472 43.4579 15.0633 43.3509 15.2003 43.3571ZM75.9024 44.6223C76.0396 44.6218 76.1513 44.7334 76.1519 44.8717C76.1521 44.9145 76.1521 44.9572 76.1521 45C76.1521 45.0428 76.1521 45.0855 76.1519 45.1282C76.1513 45.2666 76.0396 45.3782 75.9024 45.3777C75.7652 45.3771 75.6544 45.2645 75.655 45.1262C75.6552 45.0842 75.6553 45.0421 75.6553 45C75.6553 44.9579 75.6552 44.9158 75.655 44.8738C75.6544 44.7355 75.7652 44.6229 75.9024 44.6223ZM15.1596 44.6223C15.2968 44.6229 15.4076 44.7355 15.4071 44.8738C15.4069 44.9158 15.4068 44.9579 15.4068 45C15.4068 45.0421 15.4069 45.0842 15.4071 45.1262C15.4076 45.2645 15.2968 45.3771 15.1596 45.3777C15.0224 45.3782 14.9107 45.2666 14.9102 45.1283C14.91 45.0855 14.9099 45.0428 14.9099 45C14.9099 44.9572 14.91 44.9145 14.9102 44.8717C14.9107 44.7334 15.0224 44.6218 15.1596 44.6223ZM75.8921 45.8904C76.0292 45.8954 76.1363 46.0116 76.1313 46.1498C76.1282 46.2346 76.1248 46.3193 76.121 46.4039C76.1149 46.5421 75.9988 46.6491 75.8617 46.6429C75.7246 46.6367 75.6185 46.5197 75.6246 46.3815C75.6283 46.2983 75.6317 46.2149 75.6347 46.1315C75.6398 45.9933 75.755 45.8853 75.8921 45.8904ZM15.17 45.8904C15.3071 45.8853 15.4223 45.9933 15.4273 46.1315C15.4304 46.2149 15.4337 46.2983 15.4374 46.3815C15.4436 46.5197 15.3374 46.6367 15.2003 46.6429C15.0633 46.6491 14.9472 46.5421 14.941 46.4039C14.9373 46.3193 14.9339 46.2346 14.9308 46.1498C14.9257 46.0116 15.0328 45.8955 15.17 45.8904ZM75.8307 47.1548C75.9675 47.1655 76.0697 47.2859 76.0591 47.4238C76.0526 47.5086 76.0457 47.5933 76.0385 47.6779C76.0267 47.8157 75.9064 47.9178 75.7697 47.906C75.633 47.8941 75.5317 47.7728 75.5434 47.635C75.5505 47.5518 75.5573 47.4685 75.5637 47.385C75.5743 47.2471 75.6939 47.144 75.8307 47.1548ZM15.2314 47.1548C15.3682 47.144 15.4877 47.2472 15.4984 47.385C15.5048 47.4685 15.5115 47.5518 15.5186 47.635C15.5304 47.7728 15.4291 47.8941 15.2924 47.906C15.1557 47.9178 15.0353 47.8157 15.0236 47.6779C15.0164 47.5933 15.0095 47.5086 15.003 47.4238C14.9923 47.2859 15.0946 47.1655 15.2314 47.1548ZM75.7179 48.415C75.8541 48.4313 75.9514 48.5559 75.9352 48.6933C75.9252 48.7779 75.9148 48.8623 75.9041 48.9467C75.8868 49.0839 75.7623 49.1809 75.6262 49.1634C75.4901 49.1459 75.3939 49.0205 75.4112 48.8833C75.4218 48.8003 75.4319 48.7172 75.4418 48.634C75.458 48.4966 75.5816 48.3986 75.7179 48.415ZM15.3442 48.415C15.4804 48.3986 15.604 48.4966 15.6203 48.634C15.6301 48.7172 15.6403 48.8003 15.6508 48.8833C15.6682 49.0205 15.5719 49.1459 15.4358 49.1634C15.2997 49.181 15.1753 49.0839 15.1579 48.9467C15.1472 48.8624 15.1369 48.7779 15.1269 48.6933C15.1106 48.556 15.2079 48.4313 15.3442 48.415ZM75.5538 49.6691C75.6892 49.6911 75.7813 49.8197 75.7594 49.9562C75.746 50.0404 75.7321 50.1245 75.718 50.2085C75.695 50.3448 75.5667 50.4366 75.4314 50.4134C75.2961 50.3902 75.2051 50.2609 75.2281 50.1246C75.242 50.042 75.2556 49.9592 75.2689 49.8764C75.2908 49.7398 75.4183 49.647 75.5538 49.6691ZM15.5083 49.6691C15.6438 49.647 15.7713 49.7398 15.7932 49.8764C15.8064 49.9592 15.82 50.042 15.8339 50.1246C15.8569 50.2609 15.7659 50.3903 15.6306 50.4134C15.4954 50.4366 15.3671 50.3448 15.3441 50.2085C15.3299 50.1245 15.3161 50.0404 15.3026 49.9562C15.2807 49.8197 15.3728 49.6911 15.5083 49.6691ZM75.3383 50.9151C75.4727 50.9428 75.5595 51.0751 75.532 51.2106C75.5151 51.2943 75.4978 51.3778 75.4801 51.4612C75.4516 51.5964 75.3196 51.6827 75.1854 51.6539C75.0512 51.6251 74.9656 51.4921 74.9942 51.3568C75.0115 51.2748 75.0285 51.1926 75.0452 51.1104C75.0726 50.9749 75.2039 50.8875 75.3383 50.9151ZM15.7237 50.9151C15.8582 50.8875 15.9894 50.9749 16.0169 51.1104C16.0336 51.1927 16.0506 51.2748 16.0679 51.3568C16.0965 51.4921 16.0109 51.6251 15.8767 51.6539C15.7425 51.6827 15.6105 51.5964 15.5819 51.4612C15.5643 51.3778 15.547 51.2943 15.5301 51.2106C15.5026 51.0751 15.5893 50.9428 15.7237 50.9151ZM75.0714 52.1526C75.2046 52.1859 75.2857 52.3217 75.2527 52.456C75.2324 52.5384 75.2118 52.6206 75.1909 52.7028C75.1568 52.8367 75.0213 52.9174 74.8884 52.883C74.7555 52.8486 74.6755 52.7121 74.7096 52.5781C74.7302 52.4973 74.7505 52.4164 74.7704 52.3354C74.8035 52.2012 74.9382 52.1193 75.0714 52.1526ZM15.9907 52.1526C16.1239 52.1193 16.2586 52.2012 16.2916 52.3354C16.3116 52.4164 16.3318 52.4974 16.3524 52.5781C16.3866 52.7121 16.3065 52.8486 16.1736 52.883C16.0407 52.9174 15.9053 52.8367 15.8712 52.7028C15.8502 52.6206 15.8296 52.5384 15.8094 52.456C15.7763 52.3218 15.8575 52.1859 15.9907 52.1526ZM74.7537 53.3774C74.8854 53.4163 74.9609 53.5554 74.9223 53.6881C74.8986 53.7697 74.8746 53.8511 74.8503 53.9324C74.8106 54.0648 74.672 54.1397 74.5406 54.0998C74.4093 54.0598 74.3349 53.9201 74.3746 53.7877C74.3985 53.7077 74.4221 53.6276 74.4454 53.5474C74.484 53.4146 74.622 53.3385 74.7537 53.3774ZM16.3084 53.3774C16.4401 53.3385 16.5781 53.4146 16.6166 53.5474C16.6399 53.6276 16.6635 53.7077 16.6875 53.7877C16.7271 53.9201 16.6528 54.0598 16.5214 54.0998C16.3901 54.1398 16.2514 54.0648 16.2118 53.9324C16.1875 53.8511 16.1634 53.7697 16.1397 53.6881C16.1012 53.5554 16.1767 53.4163 16.3084 53.3774ZM74.3857 54.5875C74.5157 54.6318 74.5854 54.774 74.5414 54.905C74.5143 54.9856 74.4869 55.066 74.4592 55.1463C74.4141 55.2769 74.2725 55.346 74.1429 55.3005C74.0133 55.2551 73.9448 55.1123 73.9899 54.9817C74.0172 54.9027 74.0441 54.8236 74.0707 54.7444C74.1147 54.6134 74.2558 54.5431 74.3857 54.5875ZM16.6763 54.5875C16.8063 54.5431 16.9473 54.6134 16.9913 54.7444C17.018 54.8236 17.0449 54.9028 17.0721 54.9817C17.1172 55.1124 17.0487 55.2551 16.9191 55.3005C16.7895 55.346 16.6479 55.2769 16.6028 55.1463C16.5751 55.066 16.5477 54.9856 16.5207 54.905C16.4767 54.774 16.5464 54.6319 16.6763 54.5875ZM73.9682 55.7809C74.0962 55.8307 74.1599 55.9756 74.1106 56.1047C74.0802 56.1841 74.0494 56.2634 74.0184 56.3425C73.968 56.4711 73.8236 56.5342 73.696 56.4833C73.5684 56.4325 73.5059 56.287 73.5563 56.1584C73.5868 56.0805 73.6171 56.0026 73.647 55.9244C73.6963 55.7954 73.8401 55.7311 73.9682 55.7809ZM17.0939 55.7809C17.2219 55.7311 17.3657 55.7954 17.4151 55.9244C17.445 56.0026 17.4752 56.0805 17.5057 56.1584C17.5562 56.287 17.4936 56.4325 17.366 56.4833C17.2384 56.5342 17.0941 56.4711 17.0436 56.3425C17.0126 56.2634 16.9819 56.1841 16.9515 56.1047C16.9021 55.9756 16.9659 55.8307 17.0939 55.7809ZM73.5017 56.9557C73.6276 57.0108 73.6853 57.1583 73.6306 57.2851C73.597 57.3633 73.563 57.4412 73.5287 57.519C73.473 57.6454 73.3262 57.7023 73.2008 57.6462C73.0754 57.59 73.0189 57.4421 73.0746 57.3157C73.0947 57.27 73.1148 57.2242 73.1347 57.1784C73.1481 57.1475 73.1615 57.1166 73.1749 57.0856C73.2295 56.9587 73.3759 56.9006 73.5017 56.9557ZM17.5603 56.9557C17.6862 56.9006 17.8325 56.9587 17.8872 57.0856C17.9203 57.1625 17.9537 57.2391 17.9875 57.3157C18.0432 57.4421 17.9867 57.59 17.8613 57.6462C17.7359 57.7024 17.5891 57.6454 17.5334 57.519C17.4991 57.4412 17.4651 57.3633 17.4314 57.2851C17.3768 57.1583 17.4345 57.0108 17.5603 56.9557ZM72.9872 58.1098C73.1107 58.1702 73.1623 58.32 73.1024 58.4444C73.0656 58.5211 73.0284 58.5976 72.9909 58.6739C72.9301 58.7979 72.781 58.8486 72.6581 58.7873C72.5351 58.7259 72.4847 58.5757 72.5456 58.4517C72.5825 58.3766 72.619 58.3014 72.6553 58.226C72.7151 58.1015 72.8638 58.0495 72.9872 58.1098ZM18.0748 58.1098C18.1983 58.0495 18.3469 58.1015 18.4068 58.226C18.443 58.3014 18.4796 58.3767 18.5164 58.4517C18.5773 58.5757 18.527 58.7259 18.404 58.7873C18.281 58.8486 18.132 58.7979 18.0711 58.6739C18.0336 58.5976 17.9965 58.5211 17.9596 58.4444C17.8998 58.32 17.9514 58.1702 18.0748 58.1098ZM72.4254 59.2419C72.5463 59.3073 72.5917 59.4591 72.5268 59.581C72.4869 59.6559 72.4467 59.7307 72.4061 59.8053C72.3402 59.9266 72.1892 59.9711 72.0689 59.9046C71.9485 59.8382 71.9044 59.686 71.9703 59.5647C72.0102 59.4913 72.0497 59.4178 72.089 59.3441C72.1539 59.2222 72.3046 59.1765 72.4254 59.2419ZM18.6366 59.2419C18.7575 59.1765 18.9081 59.2222 18.973 59.3441C19.0123 59.4178 19.0519 59.4913 19.0917 59.5647C19.1576 59.686 19.1135 59.8382 18.9932 59.9046C18.8728 59.9711 18.7218 59.9266 18.6559 59.8053C18.6154 59.7307 18.5752 59.6559 18.5353 59.581C18.4703 59.4591 18.5157 59.3073 18.6366 59.2419ZM19.2445 60.3495C19.3626 60.2791 19.515 60.3185 19.5848 60.4376C19.6271 60.5095 19.6696 60.5813 19.7124 60.6529C19.7832 60.7714 19.7454 60.9253 19.6279 60.9967C19.5104 61.0681 19.3577 61.03 19.2868 60.9115C19.2433 60.8387 19.2001 60.7657 19.1571 60.6926C19.0873 60.5735 19.1264 60.4199 19.2445 60.3495ZM71.8176 60.3495C71.9357 60.4199 71.9748 60.5735 71.9049 60.6926C71.862 60.7657 71.8187 60.8387 71.7752 60.9115C71.7044 61.03 71.5517 61.0681 71.4342 60.9967C71.3167 60.9253 71.2788 60.7714 71.3497 60.6529C71.3925 60.5813 71.435 60.5095 71.4772 60.4376C71.5471 60.3185 71.6995 60.2791 71.8176 60.3495ZM71.1648 61.4307C71.2799 61.506 71.3127 61.6611 71.238 61.7771C71.1921 61.8485 71.1459 61.9196 71.0994 61.9906C71.0238 62.106 70.8697 62.1377 70.7552 62.0615C70.6407 61.9853 70.6092 61.8299 70.6848 61.7145C70.7306 61.6447 70.776 61.5747 70.8212 61.5045C70.8959 61.3885 71.0497 61.3555 71.1648 61.4307ZM19.8972 61.4307C20.0123 61.3555 20.1662 61.3885 20.2409 61.5045C20.2861 61.5747 20.3315 61.6447 20.3772 61.7145C20.4529 61.8299 20.4214 61.9853 20.3069 62.0615C20.1924 62.1377 20.0383 62.106 19.9626 61.9906C19.9161 61.9196 19.8699 61.8485 19.824 61.7771C19.7493 61.6611 19.7821 61.506 19.8972 61.4307ZM70.4684 62.4838C70.5803 62.5638 70.6067 62.7201 70.5274 62.833C70.4785 62.9024 70.4295 62.9715 70.3801 63.0405C70.2998 63.1527 70.1445 63.178 70.0332 63.0971C69.922 63.0161 69.8968 62.8596 69.9771 62.7474C70.0257 62.6796 70.074 62.6115 70.122 62.5432C70.2014 62.4304 70.3565 62.4038 70.4684 62.4838ZM20.5937 62.4838C20.7056 62.4038 20.8607 62.4304 20.94 62.5433C20.9881 62.6115 21.0364 62.6796 21.0849 62.7474C21.1652 62.8596 21.1401 63.0161 21.0288 63.0971C20.9175 63.178 20.7623 63.1527 20.682 63.0405C20.6326 62.9715 20.5835 62.9024 20.5347 62.833C20.4553 62.7201 20.4817 62.5638 20.5937 62.4838ZM69.7295 63.507C69.8381 63.5916 69.8581 63.7489 69.7742 63.8583C69.7225 63.9256 69.6707 63.9927 69.6185 64.0596C69.5337 64.1683 69.3775 64.1872 69.2696 64.1017C69.1618 64.0163 69.1431 63.8588 69.2279 63.7501C69.2792 63.6843 69.3302 63.6183 69.381 63.552C69.4649 63.4426 69.6209 63.4224 69.7295 63.507ZM21.3326 63.507C21.4411 63.4224 21.5972 63.4426 21.6811 63.552C21.7318 63.6183 21.7829 63.6843 21.8342 63.7501C21.919 63.8588 21.9003 64.0163 21.7924 64.1017C21.6845 64.1872 21.5283 64.1683 21.4436 64.0596C21.3914 63.9927 21.3395 63.9256 21.2879 63.8583C21.204 63.7489 21.224 63.5916 21.3326 63.507ZM68.9495 64.4987C69.0545 64.5877 69.068 64.7457 68.9797 64.8515C68.9254 64.9167 68.8708 64.9816 68.816 65.0462C68.7268 65.1514 68.57 65.1637 68.4657 65.0738C68.3614 64.984 68.3491 64.8259 68.4383 64.7208C68.4923 64.6571 68.546 64.5933 68.5994 64.5292C68.6877 64.4233 68.8444 64.4097 68.9495 64.4987ZM22.1126 64.4987C22.2176 64.4097 22.3744 64.4233 22.4627 64.5292C22.5161 64.5933 22.5698 64.6571 22.6238 64.7208C22.7129 64.8259 22.7006 64.984 22.5963 65.0739C22.4921 65.1637 22.3352 65.1514 22.2461 65.0462C22.1912 64.9816 22.1366 64.9167 22.0823 64.8515C21.994 64.7457 22.0076 64.5877 22.1126 64.4987ZM68.1296 65.4572C68.2309 65.5505 68.238 65.7089 68.1455 65.811C68.0885 65.8738 68.0314 65.9364 67.9739 65.9988C67.8806 66.1001 67.7234 66.106 67.6228 66.0119C67.5223 65.9177 67.5165 65.7593 67.6098 65.6579C67.6663 65.5966 67.7226 65.535 67.7786 65.4732C67.8711 65.3711 68.0283 65.3639 68.1296 65.4572ZM22.9325 65.4572C23.0338 65.3639 23.1909 65.3711 23.2835 65.4732C23.3395 65.535 23.3957 65.5966 23.4522 65.6579C23.5456 65.7593 23.5398 65.9177 23.4392 66.0119C23.3387 66.106 23.1815 66.1001 23.0881 65.9988C23.0307 65.9364 22.9735 65.8738 22.9166 65.811C22.824 65.7089 22.8312 65.5505 22.9325 65.4572ZM67.2713 66.381C67.3687 66.4784 67.3694 66.637 67.2728 66.7352C67.2133 66.7956 67.1537 66.8557 67.0937 66.9156C66.9963 67.013 66.839 67.0124 66.7424 66.9142C66.6458 66.816 66.6464 66.6574 66.7438 66.56C66.8028 66.5011 66.8615 66.4419 66.92 66.3825C67.0166 66.2843 67.1739 66.2836 67.2713 66.381ZM23.7908 66.381C23.8882 66.2836 24.0455 66.2843 24.1421 66.3825C24.2006 66.4419 24.2593 66.5011 24.3182 66.56C24.4157 66.6574 24.4163 66.816 24.3197 66.9142C24.223 67.0124 24.0657 67.013 23.9683 66.9156C23.9084 66.8557 23.8487 66.7956 23.7893 66.7352C23.6927 66.637 23.6933 66.4784 23.7908 66.381ZM24.6859 67.2685C24.7793 67.1672 24.9365 67.1613 25.037 67.2554C25.0979 67.3124 25.159 67.3691 25.2203 67.4255C25.3216 67.5188 25.3287 67.6772 25.2362 67.7793C25.1436 67.8815 24.9865 67.8886 24.8852 67.7953C24.8228 67.738 24.7608 67.6803 24.6989 67.6224C24.5984 67.5283 24.5926 67.3699 24.6859 67.2685ZM66.3761 67.2685C66.4695 67.3699 66.4637 67.5283 66.3631 67.6224C66.3013 67.6803 66.2392 67.738 66.1769 67.7953C66.0756 67.8886 65.9184 67.8815 65.8259 67.7793C65.7334 67.6772 65.7405 67.5188 65.8418 67.4255C65.9031 67.3691 65.9642 67.3124 66.025 67.2554C66.1256 67.1613 66.2828 67.1672 66.3761 67.2685ZM65.4456 68.1181C65.5347 68.2233 65.5225 68.3814 65.4182 68.4712C65.354 68.5265 65.2896 68.5815 65.225 68.6363C65.12 68.7253 64.9633 68.7116 64.875 68.6058C64.7867 68.4999 64.8002 68.3419 64.9053 68.2529C64.9688 68.199 65.0322 68.1449 65.0953 68.0905C65.1996 68.0007 65.3564 68.013 65.4456 68.1181ZM25.6165 68.1182C25.7057 68.013 25.8625 68.0007 25.9668 68.0905C26.0299 68.1449 26.0932 68.199 26.1568 68.2529C26.2618 68.3419 26.2754 68.4999 26.1871 68.6058C26.0988 68.7116 25.9421 68.7253 25.837 68.6363C25.7724 68.5815 25.708 68.5265 25.6439 68.4712C25.5396 68.3814 25.5273 68.2233 25.6165 68.1182ZM64.4812 68.9285C64.566 69.0373 64.5473 69.1947 64.4394 69.2802C64.373 69.3327 64.3065 69.385 64.2397 69.4371C64.1311 69.5216 63.9751 69.5015 63.8912 69.3921C63.8073 69.2826 63.8273 69.1253 63.9358 69.0408C64.0015 68.9896 64.067 68.9381 64.1323 68.8864C64.2402 68.8009 64.3964 68.8198 64.4812 68.9285ZM26.5809 68.9285C26.6657 68.8198 26.8219 68.8009 26.9298 68.8864C26.995 68.9381 27.0605 68.9896 27.1262 69.0408C27.2348 69.1253 27.2548 69.2826 27.1709 69.3921C27.087 69.5015 26.931 69.5216 26.8224 69.4371C26.7556 69.385 26.689 69.3327 26.6227 69.2802C26.5148 69.1947 26.4961 69.0373 26.5809 68.9285ZM63.4845 69.6982C63.5648 69.8104 63.5396 69.9669 63.4284 70.0478C63.3599 70.0976 63.2913 70.1471 63.2225 70.1963C63.1105 70.2763 62.9555 70.2497 62.8761 70.1369C62.7967 70.024 62.8231 69.8677 62.9351 69.7877C62.9712 69.7619 63.0074 69.7359 63.0434 69.7099C63.0749 69.6872 63.1063 69.6645 63.1376 69.6417C63.2489 69.5607 63.4042 69.5861 63.4845 69.6982ZM27.5776 69.6982C27.6579 69.5861 27.8132 69.5607 27.9244 69.6417C27.9917 69.6906 28.0593 69.7393 28.127 69.7877C28.2389 69.8677 28.2653 70.024 28.186 70.1369C28.1066 70.2497 27.9515 70.2763 27.8396 70.1963C27.7708 70.1471 27.7021 70.0976 27.6337 70.0478C27.5224 69.9669 27.4973 69.8104 27.5776 69.6982ZM62.4571 70.4259C62.5328 70.5413 62.5013 70.6967 62.3868 70.7729C62.3164 70.8198 62.2458 70.8664 62.175 70.9127C62.0599 70.9879 61.9061 70.9549 61.8314 70.8389C61.7567 70.7228 61.7895 70.5677 61.9046 70.4925C61.9742 70.4469 62.0437 70.4011 62.1129 70.355C62.2274 70.2788 62.3815 70.3105 62.4571 70.4259ZM28.6049 70.4259C28.6806 70.3105 28.8347 70.2788 28.9492 70.355C29.0184 70.4011 29.0878 70.4469 29.1575 70.4925C29.2726 70.5677 29.3054 70.7228 29.2307 70.8389C29.156 70.9549 29.0021 70.9879 28.887 70.9127C28.8163 70.8664 28.7457 70.8198 28.6753 70.7729C28.5608 70.6967 28.5293 70.5413 28.6049 70.4259ZM61.4008 71.1104C61.4716 71.2288 61.4338 71.3827 61.3163 71.4541C61.2441 71.498 61.1717 71.5416 61.0991 71.5849C60.981 71.6553 60.8286 71.6159 60.7587 71.4968C60.6889 71.3778 60.728 71.2242 60.8461 71.1538C60.9175 71.1112 60.9887 71.0683 61.0597 71.0252C61.1773 70.9538 61.33 70.9919 61.4008 71.1104ZM29.6613 71.1104C29.7321 70.9919 29.8848 70.9538 30.0023 71.0252C30.0733 71.0683 30.1446 71.1112 30.216 71.1538C30.3341 71.2242 30.3732 71.3778 30.3033 71.4968C30.2335 71.6159 30.0811 71.6553 29.963 71.5849C29.8904 71.5416 29.818 71.498 29.7458 71.4541C29.6283 71.3827 29.5904 71.2288 29.6613 71.1104ZM60.3174 71.7502C60.3833 71.8715 60.3392 72.0237 60.2188 72.0901C60.1448 72.1309 60.0707 72.1715 59.9963 72.2117C59.8754 72.2772 59.7248 72.2314 59.6599 72.1096C59.595 71.9877 59.6404 71.8359 59.7612 71.7705C59.8344 71.7309 59.9074 71.691 59.9801 71.6508C60.1005 71.5844 60.2515 71.6288 60.3174 71.7502ZM30.7447 71.7502C30.8106 71.6288 30.9616 71.5844 31.0819 71.6508C31.1547 71.691 31.2277 71.7309 31.3008 71.7705C31.4217 71.8359 31.4671 71.9877 31.4022 72.1096C31.3373 72.2314 31.1866 72.2772 31.0657 72.2117C30.9914 72.1715 30.9172 72.1309 30.8432 72.0901C30.7229 72.0237 30.6788 71.8715 30.7447 71.7502ZM59.2089 72.344C59.2697 72.468 59.2194 72.6182 59.0964 72.6796C59.0207 72.7174 58.9448 72.7548 58.8688 72.792C58.7453 72.8523 58.5967 72.8003 58.5368 72.6758C58.477 72.5514 58.5286 72.4016 58.6521 72.3413C58.7269 72.3047 58.8015 72.2678 58.876 72.2307C58.999 72.1693 59.148 72.2201 59.2089 72.344ZM31.8532 72.3441C31.9141 72.2201 32.0631 72.1693 32.1861 72.2307C32.2605 72.2678 32.3352 72.3047 32.41 72.3413C32.5335 72.4016 32.5851 72.5514 32.5252 72.6758C32.4654 72.8003 32.3168 72.8523 32.1933 72.792C32.1172 72.7548 32.0414 72.7174 31.9656 72.6796C31.8427 72.6182 31.7923 72.468 31.8532 72.3441ZM58.0769 72.8911C58.1326 73.0175 58.0761 73.1655 57.9507 73.2216C57.8735 73.2562 57.7962 73.2904 57.7187 73.3244C57.5928 73.3795 57.4465 73.3213 57.3918 73.1944C57.3372 73.0676 57.3949 72.9201 57.5207 72.865C57.597 72.8316 57.673 72.7979 57.749 72.7639C57.8743 72.7078 58.0212 72.7647 58.0769 72.8911ZM32.9852 72.8911C33.0409 72.7647 33.1877 72.7078 33.3131 72.7639C33.389 72.7979 33.4651 72.8316 33.5413 72.865C33.6672 72.9201 33.7249 73.0676 33.6702 73.1944C33.6156 73.3213 33.4692 73.3795 33.3434 73.3244C33.2659 73.2905 33.1885 73.2562 33.1114 73.2216C32.986 73.1655 32.9295 73.0175 32.9852 72.8911ZM34.1388 73.3903C34.1893 73.2617 34.3336 73.1986 34.4612 73.2495C34.5384 73.2803 34.6158 73.3107 34.6933 73.3408C34.8213 73.3906 34.8851 73.5356 34.8357 73.6646C34.7863 73.7937 34.6425 73.8579 34.5145 73.8082C34.4357 73.7775 34.357 73.7466 34.2786 73.7153C34.1509 73.6644 34.0884 73.5189 34.1388 73.3903ZM56.9232 73.3903C56.9737 73.5189 56.9111 73.6644 56.7835 73.7153C56.705 73.7466 56.6264 73.7775 56.5476 73.8082C56.4196 73.8579 56.2758 73.7937 56.2264 73.6646C56.177 73.5356 56.2407 73.3906 56.3688 73.3408C56.4463 73.3107 56.5236 73.2803 56.6008 73.2495C56.7284 73.1986 56.8728 73.2617 56.9232 73.3903ZM35.3122 73.8408C35.3573 73.7101 35.4989 73.6411 35.6285 73.6865C35.7069 73.714 35.7854 73.7412 35.864 73.768C35.9939 73.8124 36.0636 73.9545 36.0196 74.0855C35.9756 74.2165 35.8346 74.2868 35.7046 74.2424C35.6247 74.2151 35.5449 74.1875 35.4652 74.1596C35.3357 74.1142 35.2671 73.9714 35.3122 73.8408ZM55.7498 73.8408C55.7949 73.9714 55.7264 74.1142 55.5968 74.1596C55.5471 74.177 55.4974 74.1943 55.4476 74.2115C55.4176 74.2218 55.3875 74.2322 55.3574 74.2424C55.2275 74.2868 55.0864 74.2165 55.0424 74.0855C54.9984 73.9545 55.0681 73.8124 55.1981 73.768C55.2767 73.7412 55.3552 73.714 55.4335 73.6865C55.5631 73.6411 55.7047 73.7101 55.7498 73.8408ZM36.5035 74.2417C36.5431 74.1093 36.6817 74.0343 36.8131 74.0743C36.8924 74.0984 36.9719 74.1222 37.0515 74.1457C37.1832 74.1846 37.2587 74.3237 37.2201 74.4564C37.1816 74.5892 37.0435 74.6653 36.9119 74.6264C36.8309 74.6025 36.7502 74.5783 36.6695 74.5538C36.5382 74.5138 36.4638 74.3741 36.5035 74.2417ZM54.5586 74.2417C54.5982 74.3741 54.5239 74.5138 54.3925 74.5538C54.3119 74.5783 54.2311 74.6025 54.1502 74.6264C54.0185 74.6653 53.8805 74.5892 53.8419 74.4564C53.8034 74.3237 53.8789 74.1846 54.0106 74.1457C54.0608 74.1309 54.1109 74.116 54.161 74.1009C54.1903 74.0921 54.2197 74.0832 54.249 74.0743C54.3803 74.0343 54.5189 74.1093 54.5586 74.2417ZM37.7106 74.5923C37.7447 74.4583 37.8801 74.3776 38.013 74.412C38.0932 74.4328 38.1734 74.4532 38.2538 74.4733C38.387 74.5066 38.4682 74.6424 38.4352 74.7767C38.4021 74.9109 38.2674 74.9927 38.1342 74.9594C38.0525 74.939 37.9709 74.9182 37.8894 74.8971C37.7565 74.8627 37.6764 74.7262 37.7106 74.5923ZM53.3515 74.5923C53.3856 74.7262 53.3056 74.8627 53.1727 74.8971C53.0912 74.9182 53.0096 74.939 52.9278 74.9594C52.7947 74.9927 52.6599 74.9109 52.6269 74.7767C52.5939 74.6424 52.675 74.5066 52.8082 74.4733C52.8886 74.4532 52.9689 74.4328 53.049 74.412C53.1819 74.3776 53.3173 74.4583 53.3515 74.5923ZM52.1322 74.8916C52.1607 75.0269 52.0751 75.1599 51.9409 75.1887C51.8582 75.2065 51.7753 75.2239 51.6924 75.241C51.5579 75.2687 51.4267 75.1812 51.3992 75.0457C51.3718 74.9102 51.4585 74.7779 51.5929 74.7502C51.6745 74.7334 51.756 74.7163 51.8374 74.6988C51.9716 74.67 52.1036 74.7563 52.1322 74.8916ZM38.9299 74.8916C38.9585 74.7563 39.0905 74.67 39.2247 74.6988C39.306 74.7163 39.3875 74.7334 39.4691 74.7502C39.6036 74.7779 39.6903 74.9102 39.6628 75.0457C39.6354 75.1812 39.5041 75.2687 39.3697 75.241C39.2867 75.2239 39.2039 75.2065 39.1211 75.1887C38.9869 75.1599 38.9013 75.0269 38.9299 74.8916ZM50.9015 75.1396C50.9245 75.2759 50.8335 75.4053 50.6982 75.4284C50.6149 75.4427 50.5314 75.4566 50.4479 75.4702C50.3124 75.4923 50.1849 75.3995 50.163 75.2629C50.1412 75.1264 50.2333 74.9978 50.3687 74.9758C50.4509 74.9624 50.533 74.9487 50.6149 74.9346C50.7502 74.9115 50.8785 75.0032 50.9015 75.1396ZM40.1606 75.1396C40.1836 75.0032 40.3119 74.9115 40.4471 74.9347C40.5291 74.9487 40.6112 74.9624 40.6933 74.9758C40.8288 74.9978 40.9209 75.1264 40.899 75.2629C40.8772 75.3995 40.7496 75.4923 40.6142 75.4702C40.5306 75.4566 40.4472 75.4427 40.3639 75.4284C40.2286 75.4053 40.1376 75.2759 40.1606 75.1396ZM41.4006 75.336C41.418 75.1988 41.5424 75.1017 41.6785 75.1192C41.7609 75.1298 41.8433 75.1401 41.9259 75.15C42.0621 75.1664 42.1594 75.291 42.1432 75.4284C42.1269 75.5657 42.0033 75.6637 41.8671 75.6474C41.7831 75.6373 41.6993 75.6269 41.6156 75.6161C41.4795 75.5986 41.3833 75.4732 41.4006 75.336ZM49.6614 75.336C49.6788 75.4732 49.5826 75.5986 49.4464 75.6161C49.3627 75.6269 49.2789 75.6373 49.195 75.6474C49.0588 75.6637 48.9351 75.5657 48.9189 75.4284C48.9026 75.291 48.9999 75.1664 49.1362 75.15C49.2187 75.1401 49.3012 75.1298 49.3835 75.1192C49.5196 75.1017 49.6441 75.1988 49.6614 75.336ZM42.6481 75.4806C42.6599 75.3427 42.7802 75.2406 42.9169 75.2525C42.9995 75.2596 43.0822 75.2664 43.1649 75.2729C43.3017 75.2836 43.404 75.4041 43.3934 75.542C43.3827 75.6799 43.2632 75.783 43.1264 75.7723C43.0423 75.7657 42.9583 75.7588 42.8744 75.7515C42.7377 75.7397 42.6364 75.6184 42.6481 75.4806ZM48.4139 75.4806C48.4257 75.6184 48.3244 75.7397 48.1877 75.7515C48.1038 75.7588 48.0197 75.7657 47.9356 75.7723C47.7988 75.783 47.6793 75.6799 47.6687 75.542C47.6581 75.4041 47.7603 75.2836 47.8972 75.2729C47.9799 75.2664 48.0626 75.2596 48.1451 75.2525C48.2818 75.2406 48.4022 75.3427 48.4139 75.4806ZM43.9011 75.5733C43.9073 75.4352 44.0234 75.3282 44.1605 75.3343C44.2431 75.3381 44.3257 75.3415 44.4085 75.3445C44.5456 75.3496 44.6527 75.4657 44.6477 75.604C44.6427 75.7422 44.5275 75.8501 44.3903 75.8451C44.3062 75.8419 44.2222 75.8385 44.1382 75.8347C44.0012 75.8285 43.895 75.7115 43.9011 75.5733ZM47.1609 75.5733C47.1671 75.7115 47.0609 75.8285 46.9238 75.8347C46.8399 75.8385 46.7559 75.8419 46.6717 75.8451C46.5346 75.8501 46.4194 75.7422 46.4144 75.604C46.4093 75.4657 46.5164 75.3496 46.6535 75.3445C46.7363 75.3415 46.819 75.3381 46.9016 75.3343C47.0387 75.3282 47.1548 75.4352 47.1609 75.5733ZM45.1564 75.6144C45.1569 75.4761 45.2686 75.3644 45.4058 75.365C45.4475 75.3651 45.4893 75.3652 45.531 75.3652C45.558 75.3652 45.585 75.3652 45.612 75.3651C45.6267 75.3651 45.6415 75.365 45.6562 75.365C45.7935 75.3644 45.9051 75.4761 45.9057 75.6144C45.9063 75.7527 45.7955 75.8653 45.6583 75.8658C45.6159 75.866 45.5735 75.8661 45.531 75.8661C45.4886 75.8661 45.4462 75.866 45.4038 75.8658C45.2666 75.8653 45.1558 75.7527 45.1564 75.6144Z" fill="#EDEFEE"/>
<path d="M0.5 49.3577H90.5L83.0466 56.9959L90.5 64.3211H0.5L7.95342 56.8958L0.5 49.3577Z" fill="#EDEFEE"/>
<path d="M14.4796 58.7112V54.5159H13.6985V53.9028H15.9345V54.5159H15.1594V58.7112H14.4796Z" fill="#0F0F10"/>
<path d="M17.2764 58.7653C16.8868 58.7653 16.6106 58.6871 16.4476 58.5309C16.2886 58.3706 16.1991 58.1061 16.1793 57.7375C16.1753 57.6373 16.1713 57.5171 16.1673 57.3769C16.1634 57.2326 16.1614 57.0824 16.1614 56.9261C16.1614 56.7698 16.1614 56.6175 16.1614 56.4693C16.1653 56.317 16.1713 56.1868 16.1793 56.0786C16.1991 55.702 16.2886 55.4375 16.4476 55.2852C16.6106 55.129 16.8868 55.0508 17.2764 55.0508C17.5388 55.0508 17.7475 55.0869 17.9025 55.159C18.0575 55.2271 18.1688 55.3373 18.2364 55.4896C18.308 55.6378 18.3517 55.8342 18.3676 56.0786C18.3716 56.2189 18.3735 56.3912 18.3735 56.5955C18.3775 56.7959 18.3775 57.0002 18.3735 57.2086C18.3735 57.4129 18.3716 57.5892 18.3676 57.7375C18.3517 57.9819 18.308 58.1803 18.2364 58.3325C18.1649 58.4848 18.0516 58.595 17.8965 58.6631C17.7415 58.7312 17.5348 58.7653 17.2764 58.7653ZM17.2764 58.2424C17.4235 58.2424 17.5249 58.2143 17.5805 58.1582C17.6401 58.1021 17.6719 58.016 17.6759 57.8998C17.6918 57.5432 17.6998 57.2106 17.6998 56.902C17.6998 56.5895 17.6918 56.2589 17.6759 55.9103C17.6719 55.7941 17.6401 55.71 17.5805 55.6579C17.5209 55.6018 17.4195 55.5737 17.2764 55.5737C17.1293 55.5737 17.024 55.6038 16.9604 55.6639C16.8968 55.72 16.863 55.8041 16.859 55.9163C16.8511 56.2008 16.8451 56.5174 16.8411 56.866C16.8411 57.2106 16.8491 57.5552 16.865 57.8998C16.869 58.016 16.9008 58.1021 16.9604 58.1582C17.024 58.2143 17.1293 58.2424 17.2764 58.2424Z" fill="#0F0F10"/>
<path d="M19.0465 59.9133V55.1049H19.7442V55.4655H19.8515C19.931 55.3293 20.0165 55.2271 20.1079 55.159C20.1993 55.0869 20.3365 55.0508 20.5193 55.0508C20.7578 55.0508 20.9407 55.1209 21.0679 55.2612C21.1951 55.3974 21.2647 55.6238 21.2766 55.9404C21.2806 56.0526 21.2826 56.1948 21.2826 56.3671C21.2865 56.5394 21.2885 56.7217 21.2885 56.9141C21.2885 57.1024 21.2865 57.2827 21.2826 57.455C21.2826 57.6273 21.2806 57.7675 21.2766 57.8757C21.2647 58.1923 21.1892 58.4207 21.05 58.5609C20.9109 58.6972 20.7221 58.7653 20.4836 58.7653C20.3444 58.7653 20.2252 58.7332 20.1258 58.6691C20.0264 58.605 19.935 58.4988 19.8515 58.3506H19.7442V59.9133H19.0465ZM20.2152 58.2544C20.4498 58.2544 20.571 58.1462 20.579 57.9298C20.5988 57.5452 20.6068 57.1865 20.6028 56.854C20.6028 56.5214 20.5949 56.1928 20.579 55.8682C20.571 55.6639 20.4637 55.5617 20.257 55.5617C20.1457 55.5617 20.0423 55.5898 19.9469 55.6459C19.8555 55.6979 19.7879 55.7721 19.7442 55.8682V57.9479C19.7919 58.0601 19.8535 58.1402 19.929 58.1883C20.0046 58.2324 20.1 58.2544 20.2152 58.2544Z" fill="#0F0F10"/>
<path d="M23.1604 58.7112L23.7507 53.9028H24.9969L25.5872 58.7112H24.8836L24.7763 57.5271H23.9773L23.864 58.7112H23.1604ZM24.0369 56.9201H24.7107L24.6153 55.8803L24.5079 54.5159H24.2396L24.1383 55.8803L24.0369 56.9201Z" fill="#0F0F10"/>
<path d="M26.1357 59.9133V55.1049H26.8333V55.4655H26.9406C27.0201 55.3293 27.1056 55.2271 27.197 55.159C27.2885 55.0869 27.4256 55.0508 27.6085 55.0508C27.847 55.0508 28.0298 55.1209 28.157 55.2612C28.2842 55.3974 28.3538 55.6238 28.3657 55.9404C28.3697 56.0526 28.3717 56.1948 28.3717 56.3671C28.3757 56.5394 28.3777 56.7217 28.3777 56.9141C28.3777 57.1024 28.3757 57.2827 28.3717 57.455C28.3717 57.6273 28.3697 57.7675 28.3657 57.8757C28.3538 58.1923 28.2783 58.4207 28.1392 58.5609C28 58.6972 27.8112 58.7653 27.5727 58.7653C27.4336 58.7653 27.3143 58.7332 27.2149 58.6691C27.1156 58.605 27.0241 58.4988 26.9406 58.3506H26.8333V59.9133H26.1357ZM27.3044 58.2544C27.5389 58.2544 27.6601 58.1462 27.6681 57.9298C27.688 57.5452 27.6959 57.1865 27.6919 56.854C27.6919 56.5214 27.684 56.1928 27.6681 55.8682C27.6601 55.6639 27.5528 55.5617 27.3461 55.5617C27.2348 55.5617 27.1315 55.5898 27.036 55.6459C26.9446 55.6979 26.877 55.7721 26.8333 55.8682V57.9479C26.881 58.0601 26.9426 58.1402 27.0182 58.1883C27.0937 58.2324 27.1891 58.2544 27.3044 58.2544Z" fill="#0F0F10"/>
<path d="M29.0441 59.9133V55.1049H29.7418V55.4655H29.8491C29.9286 55.3293 30.0141 55.2271 30.1055 55.159C30.1969 55.0869 30.3341 55.0508 30.5169 55.0508C30.7554 55.0508 30.9383 55.1209 31.0655 55.2612C31.1927 55.3974 31.2623 55.6238 31.2742 55.9404C31.2782 56.0526 31.2802 56.1948 31.2802 56.3671C31.2841 56.5394 31.2861 56.7217 31.2861 56.9141C31.2861 57.1024 31.2841 57.2827 31.2802 57.455C31.2802 57.6273 31.2782 57.7675 31.2742 57.8757C31.2623 58.1923 31.1867 58.4207 31.0476 58.5609C30.9085 58.6972 30.7197 58.7653 30.4812 58.7653C30.342 58.7653 30.2228 58.7332 30.1234 58.6691C30.024 58.605 29.9326 58.4988 29.8491 58.3506H29.7418V59.9133H29.0441ZM30.2128 58.2544C30.4474 58.2544 30.5686 58.1462 30.5766 57.9298C30.5964 57.5452 30.6044 57.1865 30.6004 56.854C30.6004 56.5214 30.5925 56.1928 30.5766 55.8682C30.5686 55.6639 30.4613 55.5617 30.2546 55.5617C30.1433 55.5617 30.0399 55.5898 29.9445 55.6459C29.8531 55.6979 29.7855 55.7721 29.7418 55.8682V57.9479C29.7895 58.0601 29.8511 58.1402 29.9266 58.1883C30.0022 58.2324 30.0976 58.2544 30.2128 58.2544Z" fill="#0F0F10"/>
<path d="M33.3709 58.7112V53.9028H34.4502C34.8318 53.9028 35.1081 53.983 35.279 54.1432C35.4499 54.2995 35.5374 54.558 35.5414 54.9186C35.5493 55.2472 35.5533 55.5617 35.5533 55.8622C35.5573 56.1587 35.5573 56.4553 35.5533 56.7518C35.5533 57.0483 35.5493 57.3608 35.5414 57.6894C35.5374 58.054 35.4519 58.3165 35.285 58.4768C35.118 58.633 34.8457 58.7112 34.4681 58.7112H33.3709ZM34.0507 58.0981H34.4681C34.6032 58.0981 34.7006 58.0721 34.7603 58.02C34.8239 57.9639 34.8576 57.8797 34.8616 57.7675C34.8696 57.4189 34.8755 57.0884 34.8795 56.7758C34.8835 56.4633 34.8835 56.1507 34.8795 55.8382C34.8755 55.5256 34.8696 55.1951 34.8616 54.8465C34.8576 54.7343 34.8239 54.6521 34.7603 54.6C34.6967 54.5439 34.5933 54.5159 34.4502 54.5159H34.0507V58.0981Z" fill="#0F0F10"/>
<path d="M37.6173 57.3829H38.297C38.297 57.427 38.297 57.4971 38.297 57.5932C38.301 57.6894 38.303 57.7695 38.303 57.8337C38.2831 58.1662 38.1937 58.4046 38.0347 58.5489C37.8757 58.6932 37.6173 58.7653 37.2595 58.7653C36.8819 58.7653 36.6116 58.6932 36.4486 58.5489C36.2856 58.4006 36.1942 58.1622 36.1743 57.8337C36.1703 57.7175 36.1664 57.5772 36.1624 57.4129C36.1624 57.2486 36.1624 57.0783 36.1624 56.902C36.1624 56.7257 36.1624 56.5574 36.1624 56.3972C36.1664 56.2369 36.1703 56.1006 36.1743 55.9885C36.1942 55.6519 36.2876 55.4115 36.4546 55.2672C36.6255 55.123 36.8898 55.0508 37.2476 55.0508C37.6093 55.0508 37.8717 55.123 38.0347 55.2672C38.1977 55.4115 38.2871 55.6439 38.303 55.9644C38.303 56.0085 38.303 56.0906 38.303 56.2108C38.307 56.331 38.307 56.4653 38.303 56.6135C38.303 56.7618 38.301 56.902 38.297 57.0343H36.8541C36.8541 57.1745 36.856 57.3168 36.86 57.461C36.864 57.6053 36.868 57.7555 36.8719 57.9118C36.8759 58.032 36.9077 58.1182 36.9674 58.1702C37.027 58.2183 37.1224 58.2424 37.2536 58.2424C37.3847 58.2424 37.4762 58.2183 37.5278 58.1702C37.5795 58.1182 37.6093 58.03 37.6173 57.9058C37.6213 57.8457 37.6233 57.7716 37.6233 57.6834C37.6233 57.5952 37.6213 57.4951 37.6173 57.3829ZM37.2476 55.5737C37.1124 55.5737 37.017 55.5998 36.9614 55.6519C36.9057 55.704 36.8759 55.7841 36.8719 55.8923C36.868 56.0005 36.864 56.1087 36.86 56.2169C36.86 56.321 36.86 56.4272 36.86 56.5354H37.6233C37.6233 56.3992 37.6233 56.2689 37.6233 56.1447C37.6233 56.0165 37.6213 55.9324 37.6173 55.8923C37.6093 55.7761 37.5756 55.6939 37.5159 55.6459C37.4603 55.5978 37.3708 55.5737 37.2476 55.5737Z" fill="#0F0F10"/>
<path d="M39.3497 58.7112L38.7833 55.1049H39.4928L39.7373 56.9201L39.8387 58.2003H39.9878L40.0951 56.9201L40.3396 55.1049H41.0491L40.4767 58.7112H39.3497Z" fill="#0F0F10"/>
<path d="M42.9975 57.3829H43.6772C43.6772 57.427 43.6772 57.4971 43.6772 57.5932C43.6812 57.6894 43.6832 57.7695 43.6832 57.8337C43.6633 58.1662 43.5739 58.4046 43.4149 58.5489C43.2559 58.6932 42.9975 58.7653 42.6397 58.7653C42.2621 58.7653 41.9918 58.6932 41.8288 58.5489C41.6658 58.4006 41.5744 58.1622 41.5545 57.8337C41.5505 57.7175 41.5466 57.5772 41.5426 57.4129C41.5426 57.2486 41.5426 57.0783 41.5426 56.902C41.5426 56.7257 41.5426 56.5574 41.5426 56.3972C41.5466 56.2369 41.5505 56.1006 41.5545 55.9885C41.5744 55.6519 41.6678 55.4115 41.8348 55.2672C42.0057 55.123 42.27 55.0508 42.6278 55.0508C42.9895 55.0508 43.2519 55.123 43.4149 55.2672C43.5779 55.4115 43.6673 55.6439 43.6832 55.9644C43.6832 56.0085 43.6832 56.0906 43.6832 56.2108C43.6872 56.331 43.6872 56.4653 43.6832 56.6135C43.6832 56.7618 43.6812 56.902 43.6772 57.0343H42.2343C42.2343 57.1745 42.2363 57.3168 42.2402 57.461C42.2442 57.6053 42.2482 57.7555 42.2522 57.9118C42.2561 58.032 42.2879 58.1182 42.3476 58.1702C42.4072 58.2183 42.5026 58.2424 42.6338 58.2424C42.7649 58.2424 42.8564 58.2183 42.9081 58.1702C42.9597 58.1182 42.9895 58.03 42.9975 57.9058C43.0015 57.8457 43.0035 57.7716 43.0035 57.6834C43.0035 57.5952 43.0015 57.4951 42.9975 57.3829ZM42.6278 55.5737C42.4926 55.5737 42.3972 55.5998 42.3416 55.6519C42.2859 55.704 42.2561 55.7841 42.2522 55.8923C42.2482 56.0005 42.2442 56.1087 42.2402 56.2169C42.2402 56.321 42.2402 56.4272 42.2402 56.5354H43.0035C43.0035 56.3992 43.0035 56.2689 43.0035 56.1447C43.0035 56.0165 43.0015 55.9324 42.9975 55.8923C42.9895 55.7761 42.9558 55.6939 42.8961 55.6459C42.8405 55.5978 42.751 55.5737 42.6278 55.5737Z" fill="#0F0F10"/>
<path d="M44.2997 58.7112V53.9028H44.9854V58.7112H44.2997Z" fill="#0F0F10"/>
<path d="M46.7684 58.7653C46.3788 58.7653 46.1026 58.6871 45.9396 58.5309C45.7806 58.3706 45.6911 58.1061 45.6713 57.7375C45.6673 57.6373 45.6633 57.5171 45.6593 57.3769C45.6554 57.2326 45.6534 57.0824 45.6534 56.9261C45.6534 56.7698 45.6534 56.6175 45.6534 56.4693C45.6574 56.317 45.6633 56.1868 45.6713 56.0786C45.6911 55.702 45.7806 55.4375 45.9396 55.2852C46.1026 55.129 46.3788 55.0508 46.7684 55.0508C47.0308 55.0508 47.2395 55.0869 47.3945 55.159C47.5495 55.2271 47.6608 55.3373 47.7284 55.4896C47.8 55.6378 47.8437 55.8342 47.8596 56.0786C47.8636 56.2189 47.8656 56.3912 47.8656 56.5955C47.8695 56.7959 47.8695 57.0002 47.8656 57.2086C47.8656 57.4129 47.8636 57.5892 47.8596 57.7375C47.8437 57.9819 47.8 58.1803 47.7284 58.3325C47.6569 58.4848 47.5436 58.595 47.3885 58.6631C47.2335 58.7312 47.0268 58.7653 46.7684 58.7653ZM46.7684 58.2424C46.9155 58.2424 47.0169 58.2143 47.0725 58.1582C47.1321 58.1021 47.1639 58.016 47.1679 57.8998C47.1838 57.5432 47.1918 57.2106 47.1918 56.902C47.1918 56.5895 47.1838 56.2589 47.1679 55.9103C47.1639 55.7941 47.1321 55.71 47.0725 55.6579C47.0129 55.6018 46.9115 55.5737 46.7684 55.5737C46.6213 55.5737 46.516 55.6038 46.4524 55.6639C46.3888 55.72 46.355 55.8041 46.351 55.9163C46.3431 56.2008 46.3371 56.5174 46.3331 56.866C46.3331 57.2106 46.3411 57.5552 46.357 57.8998C46.361 58.016 46.3928 58.1021 46.4524 58.1582C46.516 58.2143 46.6213 58.2424 46.7684 58.2424Z" fill="#0F0F10"/>
<path d="M48.5386 59.9133V55.1049H49.2362V55.4655H49.3435C49.423 55.3293 49.5085 55.2271 49.5999 55.159C49.6913 55.0869 49.8285 55.0508 50.0113 55.0508C50.2499 55.0508 50.4327 55.1209 50.5599 55.2612C50.6871 55.3974 50.7567 55.6238 50.7686 55.9404C50.7726 56.0526 50.7746 56.1948 50.7746 56.3671C50.7786 56.5394 50.7805 56.7217 50.7805 56.9141C50.7805 57.1024 50.7786 57.2827 50.7746 57.455C50.7746 57.6273 50.7726 57.7675 50.7686 57.8757C50.7567 58.1923 50.6812 58.4207 50.542 58.5609C50.4029 58.6972 50.2141 58.7653 49.9756 58.7653C49.8364 58.7653 49.7172 58.7332 49.6178 58.6691C49.5184 58.605 49.427 58.4988 49.3435 58.3506H49.2362V59.9133H48.5386ZM49.7072 58.2544C49.9418 58.2544 50.063 58.1462 50.071 57.9298C50.0909 57.5452 50.0988 57.1865 50.0948 56.854C50.0948 56.5214 50.0869 56.1928 50.071 55.8682C50.063 55.6639 49.9557 55.5617 49.749 55.5617C49.6377 55.5617 49.5343 55.5898 49.4389 55.6459C49.3475 55.6979 49.2799 55.7721 49.2362 55.8682V57.9479C49.2839 58.0601 49.3455 58.1402 49.421 58.1883C49.4966 58.2324 49.592 58.2544 49.7072 58.2544Z" fill="#0F0F10"/>
<path d="M52.8379 57.3829H53.5176C53.5176 57.427 53.5176 57.4971 53.5176 57.5932C53.5216 57.6894 53.5236 57.7695 53.5236 57.8337C53.5037 58.1662 53.4143 58.4046 53.2553 58.5489C53.0963 58.6932 52.8379 58.7653 52.4801 58.7653C52.1025 58.7653 51.8322 58.6932 51.6692 58.5489C51.5062 58.4006 51.4148 58.1622 51.3949 57.8337C51.3909 57.7175 51.3869 57.5772 51.383 57.4129C51.383 57.2486 51.383 57.0783 51.383 56.902C51.383 56.7257 51.383 56.5574 51.383 56.3972C51.3869 56.2369 51.3909 56.1006 51.3949 55.9885C51.4148 55.6519 51.5082 55.4115 51.6751 55.2672C51.8461 55.123 52.1104 55.0508 52.4682 55.0508C52.8299 55.0508 53.0923 55.123 53.2553 55.2672C53.4182 55.4115 53.5077 55.6439 53.5236 55.9644C53.5236 56.0085 53.5236 56.0906 53.5236 56.2108C53.5276 56.331 53.5276 56.4653 53.5236 56.6135C53.5236 56.7618 53.5216 56.902 53.5176 57.0343H52.0746C52.0746 57.1745 52.0766 57.3168 52.0806 57.461C52.0846 57.6053 52.0886 57.7555 52.0925 57.9118C52.0965 58.032 52.1283 58.1182 52.1879 58.1702C52.2476 58.2183 52.343 58.2424 52.4741 58.2424C52.6053 58.2424 52.6968 58.2183 52.7484 58.1702C52.8001 58.1182 52.8299 58.03 52.8379 57.9058C52.8418 57.8457 52.8438 57.7716 52.8438 57.6834C52.8438 57.5952 52.8418 57.4951 52.8379 57.3829ZM52.4682 55.5737C52.333 55.5737 52.2376 55.5998 52.182 55.6519C52.1263 55.704 52.0965 55.7841 52.0925 55.8923C52.0886 56.0005 52.0846 56.1087 52.0806 56.2169C52.0806 56.321 52.0806 56.4272 52.0806 56.5354H52.8438C52.8438 56.3992 52.8438 56.2689 52.8438 56.1447C52.8438 56.0165 52.8418 55.9324 52.8379 55.8923C52.8299 55.7761 52.7961 55.6939 52.7365 55.6459C52.6808 55.5978 52.5914 55.5737 52.4682 55.5737Z" fill="#0F0F10"/>
<path d="M54.0993 58.7112V55.1049H54.8029V55.5076H54.934C54.9658 55.3513 55.0255 55.2432 55.1129 55.1831C55.2044 55.1189 55.3256 55.0869 55.4767 55.0869C55.5204 55.0869 55.5641 55.0889 55.6078 55.0929C55.6516 55.0969 55.6913 55.0989 55.7271 55.0989V55.6338H55.4826C55.2878 55.6338 55.1348 55.6639 55.0235 55.724C54.9122 55.7801 54.8386 55.8803 54.8029 56.0245V58.7112H54.0993Z" fill="#0F0F10"/>
<path d="M57.1301 58.7653C56.7763 58.7653 56.5258 58.6932 56.3788 58.5489C56.2317 58.4046 56.1502 58.1682 56.1343 57.8397C56.1343 57.7475 56.1343 57.6614 56.1343 57.5812C56.1343 57.5011 56.1363 57.435 56.1402 57.3829H56.7544C56.7504 57.5111 56.7484 57.6173 56.7484 57.7014C56.7484 57.7816 56.7504 57.8517 56.7544 57.9118C56.7584 58.036 56.7902 58.1222 56.8498 58.1702C56.9094 58.2183 57.0029 58.2424 57.1301 58.2424C57.2732 58.2424 57.3765 58.2183 57.4401 58.1702C57.5077 58.1182 57.5415 58.03 57.5415 57.9058C57.5455 57.8016 57.5455 57.7034 57.5415 57.6113C57.5415 57.5111 57.5236 57.433 57.4878 57.3769C57.452 57.3208 57.3865 57.2787 57.291 57.2506L56.9035 57.1485C56.6411 57.0723 56.4463 56.9682 56.3191 56.8359C56.1919 56.7037 56.1263 56.5054 56.1224 56.2409C56.1184 56.1487 56.1184 56.0646 56.1224 55.9885C56.1263 55.6559 56.2058 55.4175 56.3609 55.2732C56.5159 55.125 56.7842 55.0508 57.1658 55.0508C57.5156 55.0508 57.7641 55.123 57.9112 55.2672C58.0622 55.4074 58.1437 55.6398 58.1557 55.9644C58.1596 55.9965 58.1616 56.0446 58.1616 56.1087C58.1616 56.1688 58.1596 56.2289 58.1557 56.289C58.1557 56.3491 58.1537 56.3952 58.1497 56.4272H57.5176C57.5216 56.3431 57.5236 56.2469 57.5236 56.1387C57.5236 56.0305 57.5216 55.9464 57.5176 55.8863C57.5137 55.7741 57.4858 55.6939 57.4342 55.6459C57.3865 55.5978 57.297 55.5737 57.1658 55.5737C57.0307 55.5737 56.9373 55.5978 56.8856 55.6459C56.8339 55.6899 56.8061 55.7721 56.8021 55.8923C56.7981 55.9123 56.7942 55.9444 56.7902 55.9885C56.7902 56.0325 56.7922 56.0946 56.7961 56.1748C56.7961 56.291 56.812 56.3831 56.8438 56.4513C56.8796 56.5154 56.9532 56.5614 57.0645 56.5895L57.4163 56.6736C57.6747 56.7378 57.8674 56.8379 57.9947 56.9742C58.1258 57.1104 58.1914 57.3128 58.1914 57.5812C58.1914 57.6293 58.1894 57.6754 58.1855 57.7195C58.1855 57.7595 58.1855 57.8056 58.1855 57.8577C58.1815 58.1783 58.1 58.4107 57.941 58.5549C57.782 58.6952 57.5117 58.7653 57.1301 58.7653Z" fill="#0F0F10"/>
<path d="M61.3783 58.7593C60.9847 58.7593 60.7025 58.6811 60.5316 58.5249C60.3606 58.3686 60.2712 58.1101 60.2632 57.7495C60.2553 57.1084 60.2513 56.4673 60.2513 55.8262C60.2513 55.1851 60.2553 54.5439 60.2632 53.9028H60.949C60.937 54.5439 60.9331 55.1971 60.937 55.8622C60.941 56.5274 60.945 57.1805 60.949 57.8216C60.949 58.0661 61.0921 58.1883 61.3783 58.1883C61.6645 58.1883 61.8076 58.0661 61.8076 57.8216C61.8116 57.1805 61.8155 56.5274 61.8195 55.8622C61.8235 55.1971 61.8195 54.5439 61.8076 53.9028H62.4933C62.5013 54.5439 62.5052 55.1851 62.5052 55.8262C62.5052 56.4673 62.5013 57.1084 62.4933 57.7495C62.4893 58.1101 62.3999 58.3686 62.225 58.5249C62.054 58.6811 61.7718 58.7593 61.3783 58.7593Z" fill="#0F0F10"/>
<path d="M63.1885 58.7112V53.9028H63.8384V54.8284L63.7609 56.5775L63.8623 56.5835L64.0829 56.0666L64.542 55.1049H65.2575L64.5182 56.5174L65.4066 58.7112H64.6911L64.0888 57.2026L63.8563 57.5812V58.7112H63.1885Z" fill="#0F0F10"/>
<path d="M65.9805 58.7112V55.1049H66.6841V55.5076H66.8153C66.8471 55.3513 66.9067 55.2432 66.9941 55.1831C67.0856 55.1189 67.2068 55.0869 67.3579 55.0869C67.4016 55.0869 67.4453 55.0889 67.489 55.0929C67.5328 55.0969 67.5725 55.0989 67.6083 55.0989V55.6338H67.3638C67.169 55.6338 67.016 55.6639 66.9047 55.724C66.7934 55.7801 66.7199 55.8803 66.6841 56.0245V58.7112H65.9805Z" fill="#0F0F10"/>
<path d="M68.6076 58.7533C68.3572 58.7533 68.1703 58.6932 68.0471 58.5729C67.9239 58.4487 67.8503 58.2464 67.8265 57.9659C67.8265 57.9218 67.8245 57.8737 67.8205 57.8216C67.8205 57.7695 67.8225 57.7235 67.8265 57.6834C67.8424 57.455 67.91 57.2687 68.0292 57.1244C68.1525 56.9762 68.3651 56.8419 68.6672 56.7217C68.7746 56.6777 68.8799 56.6376 68.9833 56.6015C69.0906 56.5655 69.2059 56.5314 69.3291 56.4993V55.9163C69.3291 55.6879 69.2039 55.5737 68.9535 55.5737C68.8382 55.5737 68.7487 55.5978 68.6851 55.6459C68.6255 55.6899 68.5937 55.7681 68.5897 55.8803C68.5858 55.9203 68.5838 55.9804 68.5838 56.0606C68.5838 56.1367 68.5838 56.2108 68.5838 56.283C68.5838 56.3551 68.5858 56.4032 68.5897 56.4272H67.9279C67.9239 56.3711 67.9219 56.301 67.9219 56.2169C67.9219 56.1287 67.9219 56.0446 67.9219 55.9644C67.9378 55.6479 68.0213 55.4175 68.1723 55.2732C68.3234 55.125 68.5917 55.0508 68.9773 55.0508C69.3669 55.0508 69.6352 55.131 69.7823 55.2912C69.9294 55.4515 70.0029 55.71 70.0029 56.0666L69.9969 58.7112H69.3172V58.3506H69.2158C69.1522 58.4868 69.0767 58.589 68.9892 58.6571C68.9018 58.7212 68.7746 58.7533 68.6076 58.7533ZM68.87 58.2544C69.0807 58.2544 69.2317 58.1582 69.3231 57.9659V56.9742C69.2436 56.9982 69.1622 57.0243 69.0787 57.0523C68.9992 57.0803 68.9157 57.1184 68.8282 57.1665C68.701 57.2266 68.6176 57.3027 68.5778 57.3949C68.5381 57.483 68.5162 57.5812 68.5122 57.6894C68.5122 57.7776 68.5142 57.8537 68.5182 57.9178C68.5341 58.1422 68.6513 58.2544 68.87 58.2544Z" fill="#0F0F10"/>
<path d="M70.6436 54.4858V53.9028H71.4009V54.4858H70.6436ZM70.6794 58.7112V55.1049H71.3651V58.7112H70.6794Z" fill="#0F0F10"/>
<path d="M72.0331 58.7112V55.1049H72.7188V55.4655H72.856C72.9355 55.3333 73.0229 55.2311 73.1183 55.159C73.2177 55.0869 73.3549 55.0508 73.5298 55.0508C73.7723 55.0508 73.9551 55.1209 74.0783 55.2612C74.2055 55.4014 74.2711 55.6278 74.2751 55.9404V58.7112H73.5894V55.8863C73.5854 55.6699 73.4721 55.5617 73.2495 55.5617C73.1422 55.5617 73.0368 55.5898 72.9335 55.6459C72.8301 55.6979 72.7586 55.7721 72.7188 55.8682V58.7112H72.0331Z" fill="#0F0F10"/>
<path d="M76.3674 57.3829H77.0471C77.0471 57.427 77.0471 57.4971 77.0471 57.5932C77.0511 57.6894 77.0531 57.7695 77.0531 57.8337C77.0332 58.1662 76.9438 58.4046 76.7848 58.5489C76.6258 58.6932 76.3674 58.7653 76.0096 58.7653C75.632 58.7653 75.3617 58.6932 75.1987 58.5489C75.0357 58.4006 74.9443 58.1622 74.9244 57.8337C74.9204 57.7175 74.9164 57.5772 74.9125 57.4129C74.9125 57.2486 74.9125 57.0783 74.9125 56.902C74.9125 56.7257 74.9125 56.5574 74.9125 56.3972C74.9164 56.2369 74.9204 56.1006 74.9244 55.9885C74.9443 55.6519 75.0377 55.4115 75.2046 55.2672C75.3756 55.123 75.6399 55.0508 75.9977 55.0508C76.3594 55.0508 76.6218 55.123 76.7848 55.2672C76.9477 55.4115 77.0372 55.6439 77.0531 55.9644C77.0531 56.0085 77.0531 56.0906 77.0531 56.2108C77.0571 56.331 77.0571 56.4653 77.0531 56.6135C77.0531 56.7618 77.0511 56.902 77.0471 57.0343H75.6041C75.6041 57.1745 75.6061 57.3168 75.6101 57.461C75.6141 57.6053 75.6181 57.7555 75.622 57.9118C75.626 58.032 75.6578 58.1182 75.7174 58.1702C75.7771 58.2183 75.8725 58.2424 76.0036 58.2424C76.1348 58.2424 76.2263 58.2183 76.2779 58.1702C76.3296 58.1182 76.3594 58.03 76.3674 57.9058C76.3713 57.8457 76.3733 57.7716 76.3733 57.6834C76.3733 57.5952 76.3713 57.4951 76.3674 57.3829ZM75.9977 55.5737C75.8625 55.5737 75.7671 55.5998 75.7115 55.6519C75.6558 55.704 75.626 55.7841 75.622 55.8923C75.6181 56.0005 75.6141 56.1087 75.6101 56.2169C75.6101 56.321 75.6101 56.4272 75.6101 56.5354H76.3733C76.3733 56.3992 76.3733 56.2689 76.3733 56.1447C76.3733 56.0165 76.3713 55.9324 76.3674 55.8923C76.3594 55.7761 76.3256 55.6939 76.266 55.6459C76.2104 55.5978 76.1209 55.5737 75.9977 55.5737Z" fill="#0F0F10"/>
<path d="M27.9456 39.1295C27.7815 39.2343 27.6561 39.3201 27.5693 39.3678C27.2605 39.5584 26.971 39.7013 26.7008 39.8157C26.3052 39.9777 25.9578 40.054 25.6394 40.054C24.5586 40.054 23.6612 39.7299 22.9472 39.0723C22.2235 38.4147 21.8665 37.5855 21.8665 36.5942C21.8665 35.6316 22.1849 34.8024 22.841 34.0876C23.4876 33.3823 24.2788 33.0297 25.2052 33.0297C25.5911 33.0297 26.0061 33.0964 26.4306 33.2298C26.9903 33.4014 27.4342 33.6682 27.8008 34.0018L27.1833 34.6785C26.9228 34.4212 26.5754 34.2401 26.1797 34.1257C25.8806 34.0399 25.5525 33.9923 25.1859 33.9923C24.5393 33.9923 23.9893 34.2496 23.5455 34.7643C23.1112 35.2885 22.8893 35.8985 22.8893 36.6228C22.8893 37.3377 23.1402 37.9286 23.6419 38.3956C24.1437 38.8626 24.7806 39.1009 25.5525 39.1009C25.871 39.1009 26.199 38.9961 26.5368 38.8054C26.8166 38.5958 26.9613 38.4909 26.9613 38.4909V37.0041H24.8674L25.1666 36.0796H27.9456V39.1295ZM34.2467 37.3186C34.2467 38.0334 33.9861 38.6529 33.4747 39.1771C32.9633 39.7013 32.3264 39.9682 31.5641 39.9682C30.8597 39.9682 30.2518 39.7109 29.7211 39.1962C29.1904 38.6815 28.9298 38.062 28.9298 37.3281C28.9298 36.6038 29.1807 35.9843 29.6825 35.4505C30.1843 34.9168 30.8018 34.6595 31.5159 34.6595C32.3168 34.6595 32.9633 34.9168 33.4747 35.4219C33.9861 35.9175 34.2467 36.5561 34.2467 37.3186ZM33.2721 37.3377C33.2721 36.8516 33.108 36.4417 32.7799 36.1082C32.4519 35.765 32.0466 35.603 31.5545 35.603C31.101 35.603 30.715 35.7746 30.3869 36.1272C30.0685 36.4703 29.9044 36.8706 29.9044 37.3186C29.9044 37.7856 30.0685 38.1859 30.3869 38.5195C30.7053 38.8531 31.1106 39.0246 31.5931 39.0246C32.0466 39.0246 32.4326 38.8626 32.7607 38.529C33.108 38.1859 33.2721 37.7856 33.2721 37.3377ZM40.4705 37.3186C40.4705 38.0334 40.21 38.6529 39.6986 39.1771C39.1872 39.7013 38.5503 39.9682 37.788 39.9682C37.0836 39.9682 36.4757 39.7109 35.945 39.1962C35.4142 38.6815 35.1537 38.062 35.1537 37.3281C35.1537 36.6038 35.4046 35.9843 35.9064 35.4505C36.4081 34.9168 37.0257 34.6595 37.7398 34.6595C38.5407 34.6595 39.1872 34.9168 39.6986 35.4219C40.21 35.9175 40.4705 36.5561 40.4705 37.3186ZM39.4863 37.3377C39.4863 36.8516 39.3223 36.4417 38.9942 36.1082C38.6661 35.765 38.2608 35.603 37.7687 35.603C37.3152 35.603 36.9292 35.7746 36.6011 36.1272C36.2827 36.4703 36.1186 36.8706 36.1186 37.3186C36.1186 37.7856 36.2827 38.1859 36.6011 38.5195C36.9196 38.8531 37.3248 39.0246 37.8073 39.0246C38.2608 39.0246 38.6468 38.8626 38.9749 38.529C39.3223 38.1859 39.4863 37.7856 39.4863 37.3377ZM46.2216 39.8252L45.3242 39.9587V39.1009L45.1312 39.3201C44.9575 39.4821 44.7645 39.606 44.5619 39.7109C44.2531 39.8538 43.925 39.9206 43.5873 39.9206C42.8829 39.9206 42.2846 39.6632 41.8022 39.1581C41.3197 38.6529 41.0688 38.0334 41.0688 37.3281C41.0688 36.5942 41.31 35.9652 41.7925 35.4505C42.275 34.9263 42.8539 34.669 43.5584 34.669C43.9636 34.669 44.311 34.7357 44.6005 34.8596C44.8128 34.9549 44.9865 35.0788 45.1409 35.2313C45.1891 35.298 45.2374 35.3647 45.2952 35.4315V33.1726L46.2505 33.0392L46.2216 39.8252ZM45.3821 37.3853C45.3821 36.8802 45.2084 36.4513 44.861 36.1082C44.5136 35.7555 44.118 35.584 43.6645 35.584C43.1627 35.584 42.7671 35.746 42.4583 36.0796C42.1688 36.3941 42.0241 36.7849 42.0241 37.2424C42.0241 37.757 42.1785 38.1859 42.4776 38.5195C42.7767 38.8531 43.1531 39.0151 43.6259 39.0151C44.0794 39.0151 44.4847 38.8626 44.8417 38.5481C45.1988 38.2336 45.3821 37.8428 45.3821 37.3853ZM51.2779 34.1067H48.5954V35.908H50.6796V36.8325H48.5954V39.8157L47.5532 39.9682V33.1726H51.0753L51.2779 34.1067ZM53.4297 33.5825L52.7832 34.3831L52.1656 33.5825L52.8121 32.7914L53.4297 33.5825ZM53.2367 39.8252L52.2814 39.9587V34.9263L53.2367 34.7834V39.8252ZM57.5597 34.7262L57.1061 35.7555C57.0482 35.746 56.9903 35.746 56.9228 35.746C56.8263 35.746 56.7395 35.7555 56.643 35.765C56.5465 35.7746 56.45 35.8127 56.3438 35.8699C56.1412 35.9557 55.9675 36.1463 55.8228 36.4227C55.6587 36.7467 55.5719 37.0994 55.5719 37.4616V39.8157L54.6166 39.9682V34.9263L55.5043 34.7643V35.8127C55.6201 35.6316 55.7359 35.4505 55.8517 35.2599C56.0158 35.0693 56.2087 34.9359 56.421 34.8501C56.5368 34.8024 56.7395 34.7738 57.0579 34.7452C57.3667 34.7262 57.5404 34.7166 57.5597 34.7262ZM64.7002 39.8252L63.7449 39.9587V36.5085C63.7449 36.1939 63.6774 35.9557 63.5326 35.8127C63.3879 35.6697 63.1756 35.5935 62.8958 35.5935C62.5581 35.5935 62.3072 35.7269 62.1335 36.0033C62.0177 36.1939 61.9501 36.3941 61.9501 36.5942V39.8062L60.9949 39.9777V36.518C60.9949 36.213 60.9273 35.9843 60.7826 35.8222C60.6378 35.6602 60.4545 35.584 60.2133 35.584H60.1168C59.779 35.584 59.5378 35.7174 59.3834 36.0033C59.2676 36.213 59.2097 36.4799 59.2097 36.8039V39.7967L58.2158 39.9682V34.9073L59.1132 34.7548V35.4029C59.2097 35.2504 59.3159 35.1265 59.4027 35.0407C59.6632 34.8024 59.9624 34.688 60.3001 34.688C60.6764 34.688 60.9563 34.7452 61.1492 34.8691C61.3133 34.974 61.4677 35.1741 61.6317 35.4601C61.9598 34.9454 62.423 34.688 63.0405 34.688C63.6291 34.688 64.0634 34.8691 64.3528 35.2408C64.5844 35.5458 64.7002 35.9938 64.7002 36.5752V39.8252ZM69.0714 38.3003C69.0714 38.7673 68.9074 39.1486 68.5793 39.444C68.2512 39.749 67.8363 39.892 67.3345 39.892C66.9582 39.892 66.6205 39.8062 66.3117 39.6346C66.0029 39.4631 65.7713 39.2629 65.6266 39.0342L66.302 38.4433C66.3503 38.5195 66.3985 38.5767 66.4371 38.6148C66.688 38.8721 66.9871 38.9961 67.3345 38.9961C67.5758 38.9961 67.7687 38.9293 67.9038 38.8054C68.0486 38.6815 68.1161 38.51 68.1161 38.2812C68.1161 38.0239 67.9521 37.8523 67.624 37.757C66.9775 37.5664 66.6205 37.452 66.5722 37.433C66.2731 37.2805 66.0608 37.1185 65.9257 36.9374C65.7713 36.7277 65.6941 36.4513 65.6941 36.0986C65.6941 35.6602 65.8582 35.3076 66.1766 35.0121C66.495 34.7262 66.881 34.5832 67.3249 34.5832C67.6626 34.5832 67.9714 34.6595 68.2609 34.812C68.5503 34.9644 68.753 35.1265 68.8784 35.3076L68.3091 35.9175C68.2223 35.8318 68.1258 35.7555 68.0293 35.6888C67.7977 35.5268 67.5758 35.4505 67.3731 35.4505C67.1705 35.4505 67.0064 35.4982 66.881 35.584C66.7266 35.6888 66.6494 35.8508 66.6494 36.0605C66.6494 36.2607 66.717 36.4132 66.8714 36.5085C66.9968 36.5847 67.267 36.6705 67.7012 36.7658C68.1258 36.8706 68.4635 37.0422 68.6951 37.29C68.9653 37.5569 69.0714 37.8809 69.0714 38.3003Z" fill="#EDEFEE"/>
<path d="M44.3875 21.15C44.3875 21.15 43.7074 21.0821 43.7074 21.6793V24.3527H48.1689V25.1534C48.1689 25.1534 48.1825 25.547 47.7609 25.547H43.7074V29.0212H48.577C48.577 29.0212 51.5287 28.5733 51.5559 25.547V21.15H44.3875ZM51.4199 16.8887H42.6329C39.45 17.6351 39.382 20.2407 39.382 20.2407V29.0348H42.7553V21.0278C42.7553 20.3493 43.4354 20.2271 43.4354 20.2271H51.4062L51.4199 16.8887Z" fill="#EDEFEE"/>
<path d="M21.3965 45.9H22.7069C23.2109 45.9 23.5493 45.6228 23.5493 45.2052C23.5493 44.9388 23.3765 44.6904 23.1173 44.5788C23.2613 44.46 23.3549 44.2656 23.3549 44.0964C23.3549 43.6968 23.0309 43.4304 22.5449 43.4304H21.3965V45.9ZM21.8789 44.4168V43.8624H22.5449C22.7393 43.8624 22.8725 43.974 22.8725 44.1396C22.8725 44.3052 22.7393 44.4168 22.5449 44.4168H21.8789ZM21.8789 45.468V44.8488H22.7105C22.9229 44.8488 23.0669 44.9748 23.0669 45.162C23.0669 45.3456 22.9229 45.468 22.7069 45.468H21.8789Z" fill="#EDEFEE"/>
<path d="M23.8792 45.9H25.7512V45.5184H24.6028L25.3228 45.018C25.582 44.8452 25.7548 44.514 25.7548 44.19C25.7548 43.704 25.3804 43.38 24.8152 43.38C24.268 43.38 23.9008 43.7652 23.9008 44.3412H24.3076C24.3076 43.992 24.5092 43.7616 24.8152 43.7616C25.1212 43.7616 25.3228 43.9344 25.3228 44.19C25.3228 44.3916 25.222 44.5968 25.0708 44.7012L23.8792 45.5364V45.9Z" fill="#EDEFEE"/>
<path d="M26.1987 45.9H27.5091C28.0131 45.9 28.3515 45.6228 28.3515 45.2052C28.3515 44.9388 28.1787 44.6904 27.9195 44.5788C28.0635 44.46 28.1571 44.2656 28.1571 44.0964C28.1571 43.6968 27.8331 43.4304 27.3471 43.4304H26.1987V45.9ZM26.6811 44.4168V43.8624H27.3471C27.5415 43.8624 27.6747 43.974 27.6747 44.1396C27.6747 44.3052 27.5415 44.4168 27.3471 44.4168H26.6811ZM26.6811 45.468V44.8488H27.5127C27.7251 44.8488 27.8691 44.9748 27.8691 45.162C27.8691 45.3456 27.7251 45.468 27.5091 45.468H26.6811Z" fill="#EDEFEE"/>
<path d="M29.6966 45.9H30.179V44.8488H30.6362L31.2878 45.9H31.8206L31.1474 44.8128C31.4462 44.7372 31.6478 44.4672 31.6478 44.1396C31.6478 43.7148 31.3238 43.4304 30.845 43.4304H29.6966V45.9ZM30.179 44.4168V43.8624H30.845C31.043 43.8624 31.1762 43.974 31.1762 44.1396C31.1762 44.3052 31.043 44.4168 30.845 44.4168H30.179Z" fill="#EDEFEE"/>
<path d="M32.9106 45.9504C33.3498 45.9504 33.7242 45.684 33.843 45.288H33.4038C33.321 45.468 33.123 45.5904 32.9106 45.5904C32.6298 45.5904 32.4138 45.3996 32.3742 45.1188H33.8502L33.8862 45.0828V45C33.8862 44.4312 33.4938 44.0496 32.9106 44.0496C32.3274 44.0496 31.935 44.4312 31.935 45C31.935 45.5688 32.3274 45.9504 32.9106 45.9504ZM32.403 44.7588C32.4822 44.55 32.6838 44.4096 32.9106 44.4096C33.1374 44.4096 33.339 44.55 33.4182 44.7588H32.403Z" fill="#EDEFEE"/>
<path d="M34.8708 45.9504C35.3712 45.9504 35.7059 45.7128 35.7059 45.3564C35.7059 45.0396 35.5008 44.8884 34.914 44.766C34.662 44.7084 34.5756 44.6616 34.5756 44.586C34.5756 44.4816 34.6944 44.4096 34.8708 44.4096C35.0292 44.4096 35.1732 44.4924 35.2271 44.6148L35.6232 44.5176C35.5188 44.2368 35.2164 44.0496 34.8708 44.0496C34.4352 44.0496 34.1436 44.2728 34.1436 44.6076C34.1436 44.892 34.32 45.0288 34.8312 45.144C35.1588 45.2088 35.274 45.2628 35.274 45.3564C35.274 45.4968 35.1119 45.5904 34.8708 45.5904C34.6295 45.5904 34.4568 45.468 34.4424 45.288H34.0356C34.05 45.684 34.3848 45.9504 34.8708 45.9504Z" fill="#EDEFEE"/>
<path d="M36.9394 45.9504C37.3786 45.9504 37.753 45.684 37.8718 45.288H37.4326C37.3498 45.468 37.1518 45.5904 36.9394 45.5904C36.6586 45.5904 36.4426 45.3996 36.403 45.1188H37.879L37.915 45.0828V45C37.915 44.4312 37.5226 44.0496 36.9394 44.0496C36.3562 44.0496 35.9638 44.4312 35.9638 45C35.9638 45.5688 36.3562 45.9504 36.9394 45.9504ZM36.4318 44.7588C36.511 44.55 36.7126 44.4096 36.9394 44.4096C37.1662 44.4096 37.3678 44.55 37.447 44.7588H36.4318Z" fill="#EDEFEE"/>
<path d="M39.1093 45.9504C39.3217 45.9504 39.5557 45.8532 39.6925 45.7056V45.9H40.1245V44.1H39.6925V44.2944C39.5557 44.1468 39.3217 44.0496 39.1093 44.0496C38.5477 44.0496 38.1733 44.4312 38.1733 45C38.1733 45.5688 38.5477 45.9504 39.1093 45.9504ZM39.1525 45.5688C38.8249 45.5688 38.6053 45.342 38.6053 45C38.6053 44.658 38.8249 44.4312 39.1525 44.4312C39.4765 44.4312 39.6925 44.658 39.6925 45C39.6925 45.342 39.4765 45.5688 39.1525 45.5688Z" fill="#EDEFEE"/>
<path d="M40.5286 45.9H40.9606V44.8344C40.9606 44.5932 41.1514 44.4312 41.4394 44.4312H41.587V44.1C41.5366 44.0784 41.461 44.064 41.3962 44.064C41.2306 44.064 41.0542 44.1648 40.9606 44.3124V44.1H40.5286V45.9Z" fill="#EDEFEE"/>
<path d="M42.6503 45.9504C43.1399 45.9504 43.5179 45.6372 43.5935 45.1692H43.1795C43.1255 45.4068 42.9131 45.5688 42.6503 45.5688C42.3263 45.5688 42.1067 45.342 42.1067 45C42.1067 44.658 42.3263 44.4312 42.6503 44.4312C42.9095 44.4312 43.1183 44.586 43.1759 44.8128H43.5899C43.5107 44.3556 43.1327 44.0496 42.6503 44.0496C42.0671 44.0496 41.6747 44.4312 41.6747 45C41.6747 45.5688 42.0671 45.9504 42.6503 45.9504Z" fill="#EDEFEE"/>
<path d="M43.9246 45.9H44.3566V44.8308C44.3566 44.5932 44.533 44.4312 44.7958 44.4312C45.0586 44.4312 45.235 44.5932 45.235 44.8308V45.9H45.667V44.7804C45.667 44.3412 45.3358 44.0496 44.8462 44.0496C44.6698 44.0496 44.4718 44.1216 44.3566 44.2332V43.4304H43.9246V45.9Z" fill="#EDEFEE"/>
<path d="M47.8636 45.9504C48.1084 45.9504 48.3964 45.8748 48.58 45.7632L48.7132 45.9H49.3144L48.8968 45.4716C49.03 45.2808 49.1236 44.9892 49.1272 44.7372H48.6952C48.6952 44.8812 48.6592 45.054 48.6016 45.1656L48.1156 44.6652L48.1876 44.6292C48.4756 44.4708 48.67 44.2224 48.67 44.01C48.67 43.632 48.3676 43.38 47.914 43.38C47.4568 43.38 47.1508 43.6248 47.1508 43.9956C47.1508 44.1648 47.2408 44.3772 47.3776 44.5248L47.4244 44.5716C47.1508 44.73 46.9708 44.9928 46.9708 45.2304C46.9708 45.6624 47.3272 45.9504 47.8636 45.9504ZM47.8384 44.3772L47.6908 44.226C47.626 44.1612 47.5828 44.0676 47.5828 43.9956C47.5828 43.8552 47.716 43.7616 47.914 43.7616C48.1084 43.7616 48.238 43.8624 48.238 44.01C48.238 44.1036 48.1444 44.2188 48.004 44.2944C47.9392 44.3304 47.8744 44.3628 47.8384 44.3772ZM47.8636 45.5688C47.5864 45.5688 47.4028 45.432 47.4028 45.2304C47.4028 45.1116 47.5252 44.964 47.7088 44.8632L48.2956 45.4716C48.184 45.5292 48.0112 45.5688 47.8636 45.5688Z" fill="#EDEFEE"/>
<path d="M50.3238 45.9H50.8062V44.8488H51.2634L51.915 45.9H52.4478L51.7746 44.8128C52.0734 44.7372 52.275 44.4672 52.275 44.1396C52.275 43.7148 51.951 43.4304 51.4722 43.4304H50.3238V45.9ZM50.8062 44.4168V43.8624H51.4722C51.6702 43.8624 51.8034 43.974 51.8034 44.1396C51.8034 44.3052 51.6702 44.4168 51.4722 44.4168H50.8062Z" fill="#EDEFEE"/>
<path d="M53.5378 45.9504C53.977 45.9504 54.3514 45.684 54.4702 45.288H54.031C53.9482 45.468 53.7502 45.5904 53.5378 45.5904C53.257 45.5904 53.041 45.3996 53.0014 45.1188H54.4774L54.5134 45.0828V45C54.5134 44.4312 54.121 44.0496 53.5378 44.0496C52.9546 44.0496 52.5622 44.4312 52.5622 45C52.5622 45.5688 52.9546 45.9504 53.5378 45.9504ZM53.0302 44.7588C53.1094 44.55 53.311 44.4096 53.5378 44.4096C53.7646 44.4096 53.9662 44.55 54.0454 44.7588H53.0302Z" fill="#EDEFEE"/>
<path d="M55.3683 45.9H55.8075L56.5311 44.1H56.0667L55.5879 45.4464L55.1127 44.1H54.6483L55.3683 45.9Z" fill="#EDEFEE"/>
<path d="M56.8141 43.8624H57.2461V43.4304H56.8141V43.8624ZM56.8141 45.9H57.2461V44.1H56.8141V45.9Z" fill="#EDEFEE"/>
<path d="M58.5526 45.9504C58.9918 45.9504 59.3662 45.684 59.485 45.288H59.0458C58.963 45.468 58.765 45.5904 58.5526 45.5904C58.2718 45.5904 58.0558 45.3996 58.0162 45.1188H59.4922L59.5282 45.0828V45C59.5282 44.4312 59.1358 44.0496 58.5526 44.0496C57.9694 44.0496 57.577 44.4312 57.577 45C57.577 45.5688 57.9694 45.9504 58.5526 45.9504ZM58.045 44.7588C58.1242 44.55 58.3258 44.4096 58.5526 44.4096C58.7794 44.4096 58.981 44.55 59.0602 44.7588H58.045Z" fill="#EDEFEE"/>
<path d="M60.2859 45.9H60.7251L61.0311 44.7372L61.3407 45.9H61.7799L62.3991 44.1H61.9455L61.5675 45.4104L61.2327 44.1H60.8295L60.4947 45.4104L60.1167 44.1H59.6631L60.2859 45.9Z" fill="#EDEFEE"/>
<path d="M63.7301 45.9H64.2125V44.8488H65.2745V44.4168H64.2125V43.8624H65.4041V43.4304H63.7301V45.9Z" fill="#EDEFEE"/>
<path d="M65.7417 43.8624H66.1737V43.4304H65.7417V43.8624ZM65.7417 45.9H66.1737V44.1H65.7417V45.9Z" fill="#EDEFEE"/>
<path d="M66.5766 45.9H67.0086V44.8344C67.0086 44.5932 67.1994 44.4312 67.4874 44.4312H67.635V44.1C67.5846 44.0784 67.509 44.064 67.4442 44.064C67.2786 44.064 67.1022 44.1648 67.0086 44.3124V44.1H66.5766V45.9Z" fill="#EDEFEE"/>
<path d="M67.9388 45.9H68.3708V44.6868C68.3708 44.5356 68.504 44.4312 68.6984 44.4312C68.8928 44.4312 69.026 44.5356 69.026 44.6868V45.9H69.458V44.6868C69.458 44.5356 69.5912 44.4312 69.7856 44.4312C69.98 44.4312 70.1132 44.5356 70.1132 44.6868V45.9H70.5452V44.6436C70.5452 44.2872 70.2572 44.0496 69.8288 44.0496C69.6308 44.0496 69.4148 44.136 69.2888 44.2656C69.1664 44.136 68.9756 44.0496 68.81 44.0496C68.648 44.0496 68.4716 44.136 68.3708 44.262V44.1H67.9388V45.9Z" fill="#EDEFEE"/>
<path d="M36.4459 70.6524C37.0951 70.6524 37.5279 70.1836 37.5279 69.4869V69.3404H36.349V69.7311H37.0789C36.9982 70.0501 36.743 70.2617 36.4459 70.2617C36.0163 70.2617 35.7256 69.9492 35.7256 69.4869C35.7256 69.0278 36.0163 68.7186 36.4459 68.7186C36.6591 68.7186 36.8787 68.8553 36.995 69.0604L37.3987 68.9595C37.2049 68.5818 36.8238 68.3279 36.4459 68.3279C35.7547 68.3279 35.2928 68.7934 35.2928 69.4869C35.2928 70.1836 35.7547 70.6524 36.4459 70.6524Z" fill="#EDEFEE"/>
<path d="M38.6362 70.6524C39.1594 70.6524 39.5114 70.3073 39.5114 69.7929C39.5114 69.2785 39.1594 68.9334 38.6362 68.9334C38.1129 68.9334 37.7609 69.2785 37.7609 69.7929C37.7609 70.3073 38.1129 70.6524 38.6362 70.6524ZM38.6362 70.3073C38.3455 70.3073 38.1485 70.1022 38.1485 69.7929C38.1485 69.4836 38.3455 69.2785 38.6362 69.2785C38.9268 69.2785 39.1239 69.4836 39.1239 69.7929C39.1239 70.1022 38.9268 70.3073 38.6362 70.3073Z" fill="#EDEFEE"/>
<path d="M40.6185 70.6524C41.1417 70.6524 41.4937 70.3073 41.4937 69.7929C41.4937 69.2785 41.1417 68.9334 40.6185 68.9334C40.0952 68.9334 39.7432 69.2785 39.7432 69.7929C39.7432 70.3073 40.0952 70.6524 40.6185 70.6524ZM40.6185 70.3073C40.3278 70.3073 40.1308 70.1022 40.1308 69.7929C40.1308 69.4836 40.3278 69.2785 40.6185 69.2785C40.9091 69.2785 41.1062 69.4836 41.1062 69.7929C41.1062 70.1022 40.9091 70.3073 40.6185 70.3073Z" fill="#EDEFEE"/>
<path d="M42.5782 70.6524C42.7752 70.6524 42.9916 70.5612 43.1143 70.4278V70.6068H43.5019V68.3735H43.1143V69.1581C42.9916 69.0246 42.7752 68.9334 42.5782 68.9334C42.0678 68.9334 41.7255 69.2785 41.7255 69.7929C41.7255 70.3073 42.0678 70.6524 42.5782 70.6524ZM42.6169 70.3073C42.3165 70.3073 42.1131 70.1022 42.1131 69.7929C42.1131 69.4836 42.3165 69.2785 42.6169 69.2785C42.9141 69.2785 43.1143 69.4836 43.1143 69.7929C43.1143 70.1022 42.9141 70.3073 42.6169 70.3073Z" fill="#EDEFEE"/>
<path d="M45.2785 68.979H44.4517V68.7967C44.4517 68.712 44.5098 68.6534 44.5938 68.6534H44.7682V68.3735C44.7133 68.3474 44.6229 68.3279 44.5389 68.3279C44.2547 68.3279 44.0641 68.5167 44.0641 68.7999V68.979H43.8057V69.3046H44.0641V70.6068H44.4517V69.3046H44.8909V70.6068H45.2785V68.979ZM44.8909 68.3735V68.7641H45.2785V68.3735H44.8909Z" fill="#EDEFEE"/>
<path d="M45.6411 70.6068H46.0287V69.6432C46.0287 69.425 46.1999 69.2785 46.4583 69.2785H46.5907V68.979C46.5455 68.9595 46.4776 68.9464 46.4195 68.9464C46.2709 68.9464 46.1127 69.0376 46.0287 69.1711V68.979H45.6411V70.6068Z" fill="#EDEFEE"/>
<path d="M46.8633 70.6068H47.2509V69.5097C47.2509 69.3729 47.3704 69.2785 47.5448 69.2785C47.7192 69.2785 47.8387 69.3729 47.8387 69.5097V70.6068H48.2263V69.5097C48.2263 69.3729 48.3458 69.2785 48.5202 69.2785C48.6946 69.2785 48.8141 69.3729 48.8141 69.5097V70.6068H49.2017V69.4706C49.2017 69.1483 48.9433 68.9334 48.5589 68.9334C48.3813 68.9334 48.1875 69.0116 48.0745 69.1288C47.9647 69.0116 47.7935 68.9334 47.6449 68.9334C47.4996 68.9334 47.3413 69.0116 47.2509 69.1255V68.979H46.8633V70.6068Z" fill="#EDEFEE"/>
<path d="M50.2179 70.6524C50.6668 70.6524 50.9672 70.4375 50.9672 70.1152C50.9672 69.8287 50.7831 69.692 50.2567 69.5813C50.0306 69.5292 49.9531 69.4869 49.9531 69.4185C49.9531 69.3241 50.0596 69.259 50.2179 69.259C50.36 69.259 50.4892 69.3339 50.5377 69.4446L50.8929 69.3567C50.7993 69.1027 50.528 68.9334 50.2179 68.9334C49.8271 68.9334 49.5655 69.1353 49.5655 69.438C49.5655 69.6952 49.7237 69.819 50.1824 69.9231C50.4763 69.9817 50.5796 70.0306 50.5796 70.1152C50.5796 70.2422 50.4343 70.3268 50.2179 70.3268C50.0015 70.3268 49.8465 70.2161 49.8336 70.0534H49.4686C49.4815 70.4115 49.7819 70.6524 50.2179 70.6524Z" fill="#EDEFEE"/>
<path d="M51.1654 70.6068H51.6434V70.125H51.1654V70.6068Z" fill="#EDEFEE"/>
<path d="M52.8166 70.6524C53.2558 70.6524 53.5949 70.3692 53.6628 69.9459H53.2913C53.2429 70.1608 53.0523 70.3073 52.8166 70.3073C52.5259 70.3073 52.3289 70.1022 52.3289 69.7929C52.3289 69.4836 52.5259 69.2785 52.8166 69.2785C53.0491 69.2785 53.2364 69.4185 53.2881 69.6236H53.6595C53.5885 69.2102 53.2494 68.9334 52.8166 68.9334C52.2933 68.9334 51.9413 69.2785 51.9413 69.7929C51.9413 70.3073 52.2933 70.6524 52.8166 70.6524Z" fill="#EDEFEE"/>
<path d="M54.7705 70.6524C55.2937 70.6524 55.6458 70.3073 55.6458 69.7929C55.6458 69.2785 55.2937 68.9334 54.7705 68.9334C54.2472 68.9334 53.8952 69.2785 53.8952 69.7929C53.8952 70.3073 54.2472 70.6524 54.7705 70.6524ZM54.7705 70.3073C54.4798 70.3073 54.2828 70.1022 54.2828 69.7929C54.2828 69.4836 54.4798 69.2785 54.7705 69.2785C55.0612 69.2785 55.2582 69.4836 55.2582 69.7929C55.2582 70.1022 55.0612 70.3073 54.7705 70.3073Z" fill="#EDEFEE"/>
</g>
<defs>
<clipPath id="clip0_2001_1176">
<rect width="90" height="90" fill="white" transform="translate(0.5)"/>
</clipPath>
</defs>
</svg>
