<svg width="234" height="46" viewBox="0 0 234 46" fill="none" xmlns="http://www.w3.org/2000/svg">
<path d="M3.38672 7.47315H4.35307V3.95132H5.87777L8.06818 7.47315H9.20633L7.00518 3.92985C8.03596 3.801 8.73389 3.03865 8.73389 2.02935C8.73389 0.880458 7.86417 0.107373 6.57569 0.107373H3.38672V7.47315ZM4.35307 3.09234V0.966356H6.57569C7.28435 0.966356 7.76753 1.39585 7.76753 2.02935C7.76753 2.66285 7.28435 3.09234 6.57569 3.09234H4.35307Z" fill="#EDEFEE"/>
<path d="M13.0872 7.47315H17.8438V6.61417H14.0535V3.95132H17.4573V3.09234H14.0535V0.966356H17.8438V0.107373H13.0872V7.47315Z" fill="#EDEFEE"/>
<path d="M23.7593 7.47315H24.7471L27.775 0.107373H26.7443L24.2532 6.36721L21.7622 0.107373H20.7314L23.7593 7.47315Z" fill="#EDEFEE"/>
<path d="M31.4186 7.47315H32.3849V0.107373H31.4186V7.47315Z" fill="#EDEFEE"/>
<path d="M36.8409 7.47315H41.5975V6.61417H37.8073V3.95132H41.211V3.09234H37.8073V0.966356H41.5975V0.107373H36.8409V7.47315Z" fill="#EDEFEE"/>
<path d="M46.9873 7.47315H48.1255L49.3925 1.78239L50.6595 7.47315H51.7976L53.8699 0.107373H52.8714L51.25 6.32426L49.8542 0.107373H48.92L47.5349 6.32426L45.9136 0.107373H44.915L46.9873 7.47315Z" fill="#EDEFEE"/>
<path d="M57.6155 7.47315H62.3721V6.61417H58.5818V3.95132H61.9855V3.09234H58.5818V0.966356H62.3721V0.107373H57.6155V7.47315Z" fill="#EDEFEE"/>
<path d="M66.1835 7.47315H68.8141C70.9186 7.47315 72.3252 5.99141 72.3252 3.77953C72.3252 1.57838 70.9186 0.107373 68.8141 0.107373H66.1835V7.47315ZM67.1499 6.61417V0.966356H68.8141C70.3388 0.966356 71.3589 2.09377 71.3589 3.77953C71.3589 5.47602 70.3388 6.61417 68.8141 6.61417H67.1499Z" fill="#EDEFEE"/>
<path d="M84.3075 7.58052C86.4657 7.58052 87.9045 6.05583 87.9045 3.77953C87.9045 1.51396 86.4657 0 84.3075 0C82.1493 0 80.7105 1.51396 80.7105 3.77953C80.7105 6.05583 82.1493 7.58052 84.3075 7.58052ZM84.3075 6.72154C82.7292 6.72154 81.6769 5.54044 81.6769 3.77953C81.6769 2.02935 82.7292 0.858983 84.3075 0.858983C85.8859 0.858983 86.9382 2.02935 86.9382 3.77953C86.9382 5.54044 85.8859 6.72154 84.3075 6.72154Z" fill="#EDEFEE"/>
<path d="M91.7827 7.47315H92.7491V1.46027L96.8722 7.47315H97.9459V0.107373H96.9795V6.13099L92.8457 0.107373H91.7827V7.47315Z" fill="#EDEFEE"/>
<path d="M26.5862 17.3418H31.2016V45.8367H26.5862V17.3418Z" fill="#EDEFEE"/>
<path d="M47.2545 36.8061C47.2545 41.2208 43.6425 41.6221 42.4385 41.6221C39.6291 41.6221 39.2278 39.0135 39.2278 37.6088V26.572H34.6124V37.4081C34.6124 40.0168 35.4151 42.4248 37.0204 43.8295C38.4251 45.2342 40.2311 45.8362 42.4385 45.8362C44.0438 45.8362 46.0505 45.4348 47.2545 44.2308V45.8362H51.8699V26.572H47.2545V36.8061Z" fill="#EDEFEE"/>
<path d="M60.9011 19.5487H56.2857V26.5721H52.8744V30.9868H56.2857V45.8362H60.9011V30.9868H64.3125V26.5721H60.9011V19.5487Z" fill="#EDEFEE"/>
<path d="M78.7614 40.0168C77.7581 40.8194 76.3534 41.4214 74.9487 41.4214C71.738 41.4214 69.5307 39.0134 69.5307 35.8027C69.5307 32.592 71.738 30.3847 74.9487 30.3847C76.3534 30.3847 77.7581 30.786 78.7614 31.7894L79.3634 32.3914L82.5741 29.3813L81.7714 28.7793C79.9654 27.174 77.5574 26.1707 74.9487 26.1707C69.33 26.1707 65.116 30.3847 65.116 36.0034C65.116 41.6221 69.33 45.8361 74.9487 45.8361C77.5574 45.8361 79.9654 44.8328 81.7714 43.2275L82.5741 42.6255L79.3634 39.4148L78.7614 40.0168Z" fill="#EDEFEE"/>
<path d="M98.8263 28.1779C97.4216 26.7732 96.017 26.1712 93.8096 26.1712C92.2043 26.1712 90.5989 26.5725 89.3949 27.7765V17.3418H84.7795V45.8367H89.3949V35.2013C89.3949 30.7866 92.4049 30.3852 93.6089 30.3852C96.4183 30.3852 96.2176 32.9939 96.2176 34.3986V45.636H100.833V34.5993C100.833 31.9906 100.231 29.5826 98.8263 28.1779Z" fill="#EDEFEE"/>
<path d="M74.7479 39.2153C76.5211 39.2153 77.9586 37.7779 77.9586 36.0046C77.9586 34.2314 76.5211 32.7939 74.7479 32.7939C72.9747 32.7939 71.5372 34.2314 71.5372 36.0046C71.5372 37.7779 72.9747 39.2153 74.7479 39.2153Z" fill="#0F0F10"/>
<path d="M20.1652 38.8141C18.5599 40.4194 16.1519 41.4228 13.5432 41.4228C8.52649 41.4228 4.91446 37.4094 4.91446 31.9914C4.91446 26.5733 8.52649 22.56 13.7439 22.56C16.1519 22.56 18.5599 23.5633 20.3659 25.3693L20.9679 25.9713L23.9779 22.9613L23.3759 22.3593C20.7673 19.7506 17.3559 18.3459 13.7439 18.3459C6.11847 18.1453 0.499756 24.1653 0.499756 31.9914C0.499756 39.8174 6.11847 45.8375 13.5432 45.8375C17.1552 45.8375 20.7673 44.4328 23.1753 41.8241L23.7773 41.2221L20.7672 38.2121L20.1652 38.8141Z" fill="#EDEFEE"/>
<path d="M129.052 1.70367C129.414 0.993792 130.429 0.993793 130.791 1.70368L132.856 5.75012C132.998 6.02804 133.264 6.22141 133.572 6.27042L138.058 6.98396C138.846 7.10914 139.159 8.07383 138.596 8.63774L135.386 11.8521C135.165 12.0729 135.063 12.3858 135.112 12.694L135.82 17.1814C135.944 17.9687 135.123 18.5649 134.413 18.2035L130.364 16.1437C130.086 16.0022 129.757 16.0022 129.479 16.1437L125.43 18.2035C124.719 18.5649 123.899 17.9687 124.023 17.1814L124.731 12.694C124.779 12.3858 124.678 12.0729 124.457 11.8521L121.247 8.63774C120.684 8.07383 120.997 7.10914 121.784 6.98396L126.271 6.27042C126.579 6.22141 126.845 6.02804 126.987 5.75012L129.052 1.70367Z" fill="#EDEFEE"/>
<path d="M152.088 1.70367C152.45 0.993792 153.465 0.993793 153.827 1.70368L155.892 5.75012C156.034 6.02804 156.3 6.22141 156.608 6.27042L161.094 6.98396C161.882 7.10914 162.195 8.07383 161.632 8.63774L158.422 11.8521C158.201 12.0729 158.099 12.3858 158.148 12.694L158.856 17.1814C158.98 17.9687 158.159 18.5649 157.449 18.2035L153.4 16.1437C153.122 16.0022 152.793 16.0022 152.515 16.1437L148.466 18.2035C147.755 18.5649 146.935 17.9687 147.059 17.1814L147.767 12.694C147.815 12.3858 147.714 12.0729 147.493 11.8521L144.283 8.63774C143.72 8.07383 144.033 7.10914 144.82 6.98396L149.307 6.27042C149.615 6.22141 149.881 6.02804 150.023 5.75012L152.088 1.70367Z" fill="#EDEFEE"/>
<path d="M175.124 1.70367C175.486 0.993792 176.501 0.993793 176.863 1.70368L178.928 5.75012C179.07 6.02804 179.336 6.22141 179.644 6.27042L184.13 6.98396C184.918 7.10914 185.231 8.07383 184.668 8.63774L181.458 11.8521C181.237 12.0729 181.135 12.3858 181.184 12.694L181.892 17.1814C182.016 17.9687 181.195 18.5649 180.485 18.2035L176.436 16.1437C176.158 16.0022 175.829 16.0022 175.551 16.1437L171.502 18.2035C170.791 18.5649 169.971 17.9687 170.095 17.1814L170.803 12.694C170.851 12.3858 170.75 12.0729 170.529 11.8521L167.319 8.63774C166.756 8.07383 167.069 7.10914 167.856 6.98396L172.343 6.27042C172.651 6.22141 172.917 6.02804 173.059 5.75012L175.124 1.70367Z" fill="#EDEFEE"/>
<path d="M198.162 1.70367C198.524 0.993792 199.538 0.993793 199.901 1.70368L201.966 5.75012C202.108 6.02804 202.374 6.22141 202.682 6.27042L207.168 6.98396C207.956 7.10914 208.269 8.07383 207.706 8.63774L204.496 11.8521C204.275 12.0729 204.173 12.3858 204.222 12.694L204.93 17.1814C205.054 17.9687 204.233 18.5649 203.523 18.2035L199.474 16.1437C199.196 16.0022 198.867 16.0022 198.589 16.1437L194.54 18.2035C193.829 18.5649 193.009 17.9687 193.133 17.1814L193.841 12.694C193.889 12.3858 193.788 12.0729 193.567 11.8521L190.357 8.63774C189.794 8.07383 190.107 7.10914 190.894 6.98396L195.381 6.27042C195.689 6.22141 195.955 6.02804 196.097 5.75012L198.162 1.70367Z" fill="#EDEFEE"/>
<path d="M221.198 1.70367C221.56 0.993792 222.574 0.993793 222.937 1.70368L225.002 5.75012C225.143 6.02804 225.41 6.22141 225.718 6.27042L230.204 6.98396C230.991 7.10914 231.305 8.07383 230.742 8.63774L227.531 11.8521C227.311 12.0729 227.209 12.3858 227.258 12.694L227.966 17.1814C228.09 17.9687 227.269 18.5649 226.559 18.2035L222.51 16.1437C222.232 16.0022 221.903 16.0022 221.624 16.1437L217.575 18.2035C216.865 18.5649 216.044 17.9687 216.169 17.1814L216.876 12.694C216.925 12.3858 216.823 12.0729 216.603 11.8521L213.393 8.63774C212.829 8.07383 213.143 7.10914 213.93 6.98396L218.416 6.27042C218.725 6.22141 218.991 6.02804 219.133 5.75012L221.198 1.70367Z" fill="#EDEFEE"/>
<path d="M122.761 41.8931V40.999L126.508 37.3834C126.841 37.0679 127.086 36.7918 127.244 36.5551C127.411 36.3097 127.52 36.0862 127.573 35.8846C127.634 35.6742 127.665 35.4726 127.665 35.2798C127.665 34.8065 127.498 34.434 127.165 34.1622C126.832 33.8905 126.346 33.7547 125.706 33.7547C125.215 33.7547 124.772 33.8379 124.378 34.0045C123.983 34.1622 123.642 34.412 123.352 34.7539L122.458 33.9782C122.809 33.5311 123.278 33.1893 123.865 32.9526C124.461 32.7072 125.114 32.5845 125.824 32.5845C126.464 32.5845 127.021 32.6897 127.494 32.9001C127.967 33.1017 128.331 33.3953 128.585 33.7809C128.848 34.1666 128.98 34.6224 128.98 35.1483C128.98 35.4463 128.94 35.74 128.861 36.0292C128.782 36.3185 128.633 36.6252 128.414 36.9495C128.195 37.2738 127.88 37.6376 127.468 38.0408L124.128 41.262L123.813 40.7492H129.374V41.8931H122.761ZM134.86 41.9982C134.141 41.9982 133.497 41.8142 132.927 41.446C132.366 41.0779 131.919 40.5432 131.586 39.842C131.262 39.1408 131.1 38.2906 131.1 37.2914C131.1 36.2922 131.262 35.4419 131.586 34.7407C131.919 34.0395 132.366 33.5048 132.927 33.1367C133.497 32.7686 134.141 32.5845 134.86 32.5845C135.57 32.5845 136.21 32.7686 136.779 33.1367C137.349 33.5048 137.796 34.0395 138.12 34.7407C138.445 35.4419 138.607 36.2922 138.607 37.2914C138.607 38.2906 138.445 39.1408 138.12 39.842C137.796 40.5432 137.349 41.0779 136.779 41.446C136.21 41.8142 135.57 41.9982 134.86 41.9982ZM134.86 40.8281C135.342 40.8281 135.763 40.6966 136.122 40.4337C136.49 40.1707 136.775 39.7763 136.977 39.2504C137.187 38.7245 137.292 38.0715 137.292 37.2914C137.292 36.5113 137.187 35.8583 136.977 35.3324C136.775 34.8065 136.49 34.412 136.122 34.1491C135.763 33.8861 135.342 33.7547 134.86 33.7547C134.378 33.7547 133.953 33.8861 133.584 34.1491C133.216 34.412 132.927 34.8065 132.717 35.3324C132.515 35.8583 132.414 36.5113 132.414 37.2914C132.414 38.0715 132.515 38.7245 132.717 39.2504C132.927 39.7763 133.216 40.1707 133.584 40.4337C133.953 40.6966 134.378 40.8281 134.86 40.8281ZM143.259 40.1707V34.412H144.363V40.1707H143.259ZM140.866 37.8173V36.7786H146.756V37.8173H140.866Z" fill="#EDEFEE"/>
<path d="M156.492 41.4027H157.675V37.0903H159.542L162.224 41.4027H163.618L160.922 37.064C162.185 36.9062 163.039 35.9727 163.039 34.7369C163.039 33.3301 161.974 32.3834 160.396 32.3834H156.492V41.4027ZM157.675 36.0385V33.4352H160.396C161.264 33.4352 161.856 33.9612 161.856 34.7369C161.856 35.5126 161.264 36.0385 160.396 36.0385H157.675Z" fill="#EDEFEE"/>
<path d="M168.37 41.4027H174.194V40.3509H169.553V37.0903H173.721V36.0385H169.553V33.4352H174.194V32.3834H168.37V41.4027Z" fill="#EDEFEE"/>
<path d="M181.438 41.4027H182.647L186.355 32.3834H185.093L182.042 40.0485L178.992 32.3834H177.73L181.438 41.4027Z" fill="#EDEFEE"/>
<path d="M190.816 41.4027H192V32.3834H190.816V41.4027Z" fill="#EDEFEE"/>
<path d="M197.456 41.4027H203.28V40.3509H198.639V37.0903H202.807V36.0385H198.639V33.4352H203.28V32.3834H197.456V41.4027Z" fill="#EDEFEE"/>
<path d="M209.88 41.4027H211.274L212.825 34.4345L214.376 41.4027H215.77L218.308 32.3834H217.085L215.1 39.9959L213.39 32.3834H212.247L210.551 39.9959L208.565 32.3834H207.342L209.88 41.4027Z" fill="#EDEFEE"/>
<path d="M225.98 41.5342C228.215 41.5342 229.714 40.4561 229.714 38.8389C229.714 37.4584 228.781 36.7616 226.098 36.1305C224.429 35.7492 223.85 35.4074 223.85 34.7763C223.85 33.8954 224.705 33.3038 225.98 33.3038C227.163 33.3038 228.123 34.0269 228.36 35.105L229.438 34.842C229.057 33.2906 227.663 32.252 225.98 32.252C223.995 32.252 222.667 33.2643 222.667 34.7763C222.667 36.0385 223.495 36.6696 225.862 37.2218C227.847 37.6819 228.531 38.1027 228.531 38.8389C228.531 39.825 227.505 40.4824 225.98 40.4824C224.297 40.4824 223.167 39.6015 223.167 38.2999H222.049C222.049 40.2326 223.627 41.5342 225.98 41.5342Z" fill="#EDEFEE"/>
</svg>
