<svg width="60" height="60" viewBox="0 0 60 60" fill="none" xmlns="http://www.w3.org/2000/svg">
<rect width="60" height="60" rx="20" fill="#CDF765"/>
<path d="M18.8867 24.4445V21.6667C18.8867 20.93 19.1794 20.2234 19.7003 19.7025C20.2212 19.1816 20.9278 18.8889 21.6645 18.8889H24.4423M18.8867 35.5556V38.3334C18.8867 39.0701 19.1794 39.7766 19.7003 40.2975C20.2212 40.8185 20.9278 41.1111 21.6645 41.1111H24.4423M35.5534 18.8889H38.3312C39.0679 18.8889 39.7744 19.1816 40.2953 19.7025C40.8163 20.2234 41.1089 20.93 41.1089 21.6667V24.4445M35.5534 41.1111H38.3312C39.0679 41.1111 39.7744 40.8185 40.2953 40.2975C40.8163 39.7766 41.1089 39.0701 41.1089 38.3334V35.5556M23.0534 30H36.9423" stroke="#0F0F10" stroke-width="2" stroke-linecap="round" stroke-linejoin="round"/>
</svg>
