<svg width="60" height="60" viewBox="0 0 60 60" fill="none" xmlns="http://www.w3.org/2000/svg">
<rect width="60" height="60" rx="20" fill="#CDF765"/>
<path d="M39.2138 41.1843C39.5628 41.1843 39.8975 41.0456 40.1442 40.7989C40.391 40.5521 40.5296 40.2175 40.5296 39.8685V38.229C40.5349 34.5369 35.3007 31.6448 30.0033 31.6448C24.7059 31.6448 19.477 34.5369 19.477 38.229V39.8685C19.477 40.2175 19.6156 40.5521 19.8624 40.7989C20.1091 41.0456 20.4438 41.1843 20.7928 41.1843H39.2138ZM34.7454 22.9001C34.7454 23.5228 34.6228 24.1395 34.3844 24.7148C34.1461 25.2901 33.7968 25.8129 33.3565 26.2532C32.9161 26.6936 32.3934 27.0429 31.818 27.2812C31.2427 27.5195 30.626 27.6422 30.0033 27.6422C29.3806 27.6422 28.7639 27.5195 28.1886 27.2812C27.6132 27.0429 27.0905 26.6936 26.6501 26.2532C26.2098 25.8129 25.8605 25.2901 25.6222 24.7148C25.3839 24.1395 25.2612 23.5228 25.2612 22.9001C25.2612 21.6424 25.7608 20.4362 26.6501 19.5469C27.5394 18.6576 28.7456 18.158 30.0033 18.158C31.261 18.158 32.4672 18.6576 33.3565 19.5469C34.2458 20.4362 34.7454 21.6424 34.7454 22.9001Z" stroke="#0F0F10" stroke-width="2" stroke-linecap="round" stroke-linejoin="round"/>
</svg>
