<svg width="60" height="60" viewBox="0 0 60 60" fill="none" xmlns="http://www.w3.org/2000/svg">
<rect width="60" height="60" rx="20" fill="#CDF765"/>
<path d="M29.9973 17.5C26.2373 17.5 23.7998 20.0238 20.9173 20.9438C19.7448 21.3188 19.1586 21.505 18.9211 21.7687C18.6836 22.0312 18.6148 22.4175 18.4761 23.1875C16.9886 31.4325 20.2386 39.055 27.9886 42.0225C28.8198 42.3413 29.2361 42.5 30.0011 42.5C30.7661 42.5 31.1836 42.34 32.0161 42.0213C39.7648 39.055 43.0111 31.4325 41.5236 23.1875C41.3848 22.4175 41.3148 22.0313 41.0773 21.7675C40.8398 21.5038 40.2548 21.3175 39.0823 20.9438C36.1986 20.0238 33.7573 17.5 29.9973 17.5Z" stroke="#0F0F10" stroke-width="2" stroke-linecap="round" stroke-linejoin="round"/>
<path d="M26.2577 31.25C26.2577 31.25 27.5077 31.25 28.7577 33.75C28.7577 33.75 32.7289 27.5 36.2577 26.25" stroke="#0F0F10" stroke-width="2" stroke-linecap="round" stroke-linejoin="round"/>
</svg>
