<svg width="60" height="60" viewBox="0 0 60 60" fill="none" xmlns="http://www.w3.org/2000/svg">
<rect width="60" height="60" rx="20" fill="#CDF765"/>
<path d="M18.1914 34.722C18.1914 31.3834 18.1914 29.7129 19.2291 28.6764C20.2656 27.6387 21.9361 27.6387 25.2747 27.6387H34.7192C38.0578 27.6387 39.7283 27.6387 40.7648 28.6764C41.8025 29.7129 41.8025 31.3834 41.8025 34.722C41.8025 38.0606 41.8025 39.7311 40.7648 40.7676C39.7283 41.8053 38.0578 41.8053 34.7192 41.8053H25.2747C21.9361 41.8053 20.2656 41.8053 19.2291 40.7676C18.1914 39.7311 18.1914 38.0606 18.1914 34.722Z" stroke="#0F0F10" stroke-width="2"/>
<path d="M22.9141 27.6388V25.2777C22.9141 23.3991 23.6603 21.5974 24.9887 20.269C26.3171 18.9406 28.1188 18.1943 29.9974 18.1943C31.876 18.1943 33.6777 18.9406 35.0061 20.269C36.3345 21.5974 37.0807 23.3991 37.0807 25.2777V27.6388" stroke="#0F0F10" stroke-width="2" stroke-linecap="round"/>
</svg>
