<svg width="50" height="50" viewBox="0 0 50 50" fill="none" xmlns="http://www.w3.org/2000/svg">
<path d="M0.743137 18.9663C4.0791 5.58158 17.6355 -2.59159 31.0448 0.746403C44.4295 4.09257 52.5895 17.6491 49.2536 31.0337C45.9176 44.4184 32.3694 52.5916 18.9928 49.2536C5.57537 45.9565 -2.58465 32.3591 0.743137 18.9663Z" fill="#0099EB"/>
<path fill-rule="evenodd" clip-rule="evenodd" d="M25 38.7391L36.5549 18.0798L13.4451 18.0798L25 38.7391ZM23.2978 40.1382C24.0428 41.4702 25.9572 41.4702 26.7022 40.1382L38.627 18.8175C39.3555 17.5151 38.4155 15.9089 36.9248 15.9089L13.0752 15.9089C11.5846 15.9089 10.6446 17.5151 11.373 18.8176L23.2978 40.1382Z" fill="white"/>
<path fill-rule="evenodd" clip-rule="evenodd" d="M24.7071 38.856L36.8628 17.7583L12.9665 17.7583L24.7071 38.856ZM26.4333 41.2899C25.6549 42.6408 23.703 42.6262 22.9448 41.2639L10.0156 18.0303C9.27077 16.6917 10.2371 15.0446 11.7673 15.0446L38.0827 15.0446C39.6261 15.0446 40.5909 16.7176 39.8196 18.0563L26.4333 41.2899Z" fill="white"/>
<path fill-rule="evenodd" clip-rule="evenodd" d="M26.0275 17.443L26.0275 38.9985H23.3177L23.3177 17.443H26.0275Z" fill="white"/>
</svg>
