<svg width="50" height="50" viewBox="0 0 50 50" fill="none" xmlns="http://www.w3.org/2000/svg">
<g clip-path="url(#clip0_16039_31907)">
<path fill-rule="evenodd" clip-rule="evenodd" d="M25 -0.0117188C38.8153 -0.0117188 50.0119 11.1849 50.0119 25.0002C50.0119 38.8155 38.8153 50.0121 25 50.0121C11.1846 50.0121 -0.0119629 38.8155 -0.0119629 25.0002C-0.0119629 11.1849 11.1846 -0.0117188 25 -0.0117188Z" fill="#E60079"/>
<path d="M25 7.09863C28.5671 7.09863 31.4543 8.78081 31.4543 10.8567C31.4543 12.9326 28.5612 14.6147 25 14.6147C21.4328 14.6147 18.5457 12.9326 18.5457 10.8567C18.5457 8.78081 21.4388 7.09863 25 7.09863Z" fill="white"/>
<path d="M25 35.3916C28.5671 35.3916 31.4543 37.0738 31.4543 39.1497C31.4543 41.2255 28.5612 42.9077 25 42.9077C21.4328 42.9077 18.5457 41.2255 18.5457 39.1497C18.5457 37.0738 21.4388 35.3916 25 35.3916Z" fill="white"/>
<path d="M9.49652 16.0465C11.2801 12.9566 14.1792 11.2983 15.9807 12.3362C17.7762 13.3742 17.7881 16.7206 16.0045 19.8046C14.2209 22.8946 11.3219 24.5529 9.52039 23.5149C7.72487 22.477 7.71294 19.1305 9.49652 16.0465Z" fill="white"/>
<path d="M34.0014 30.1956C35.785 27.1056 38.6841 25.4473 40.4796 26.4793C42.2751 27.5172 42.287 30.8577 40.5034 33.9477C38.7199 37.0376 35.8208 38.6959 34.0253 37.664C32.2298 36.626 32.2178 33.2855 34.0014 30.1956Z" fill="white"/>
<path d="M9.52039 26.4797C11.3159 25.4417 14.2209 27.106 16.0045 30.19C17.7881 33.28 17.7762 36.6205 15.9807 37.6584C14.1851 38.6963 11.2801 37.0321 9.49652 33.9481C7.71294 30.8581 7.72487 27.5176 9.52039 26.4797Z" fill="white"/>
<path d="M34.0253 12.3361C35.8208 11.2981 38.7199 12.9624 40.5034 16.0524C42.287 19.1423 42.2751 22.4828 40.4796 23.5208C38.6841 24.5587 35.785 22.8944 34.0014 19.8045C32.2178 16.7145 32.2298 13.374 34.0253 12.3361Z" fill="white"/>
</g>
<defs>
<clipPath id="clip0_16039_31907">
<rect width="50" height="50" fill="white"/>
</clipPath>
</defs>
</svg>
