<svg width="50" height="50" viewBox="0 0 50 50" fill="none" xmlns="http://www.w3.org/2000/svg">
<path d="M0.743137 18.9663C4.0791 5.58158 17.6355 -2.59159 31.0448 0.746403C44.4295 4.09257 52.5895 17.6491 49.2536 31.0337C45.9176 44.4184 32.3694 52.5916 18.9928 49.2536C5.57537 45.9565 -2.58465 32.3591 0.743137 18.9663Z" fill="#FCFC03"/>
<path d="M12.4282 13.0684L6.25 17.537H38.1944L36.4224 22.5585H23.6351L22.4856 26.3362H35.1772L33.2136 32.3251H15.2538L18.8937 21.1765L14.8707 18.3663L8.69253 36.932H31.7768L37.6197 34.0757L39.727 27.6722L35.704 24.7238L41.6906 21.8214L43.75 15.9246L39.727 13.0684H12.4282Z" fill="#111111"/>
</svg>
