<svg width="51" height="50" viewBox="0 0 51 50" fill="none" xmlns="http://www.w3.org/2000/svg">
<path d="M49.7569 31.0337C46.4209 44.4184 32.8645 52.5916 19.4552 49.2536C6.07049 45.9074 -2.08954 32.3509 1.24643 18.9663C4.58239 5.58158 18.1306 -2.59159 31.5072 0.746403C44.9246 4.04348 53.0847 17.6409 49.7569 31.0337Z" fill="#E84142"/>
<path d="M13.493 35.2994H18.3447C19.4872 35.2994 20.0583 35.2994 20.568 35.1581C21.127 34.9922 21.6367 34.6975 22.0604 34.2922C22.4496 33.9211 22.7305 33.4296 23.2848 32.4598L23.3011 32.4313L29.5936 21.3077C30.1525 20.3312 30.4289 19.8398 30.5518 19.3239C30.6869 18.765 30.6869 18.1755 30.5518 17.6166C30.43 17.1049 30.1509 16.6175 29.601 15.6567L29.6001 15.6548L29.5874 15.6329L27.1248 11.3338C26.615 10.4371 26.3571 9.98884 26.0315 9.823C25.6815 9.64494 25.2638 9.64494 24.9138 9.823C24.5883 9.98884 24.3303 10.4371 23.8206 11.3338L11.8409 32.4497C11.3372 33.334 11.0854 33.7762 11.1038 34.1386C11.1285 34.5317 11.3312 34.8878 11.6628 35.1028C11.9699 35.2994 12.4734 35.2994 13.493 35.2994Z" fill="white"/>
<path d="M37.5494 35.2999H30.5972C29.5714 35.2999 29.0557 35.2999 28.7547 35.1034C28.4231 34.8885 28.2204 34.5261 28.1958 34.133C28.1775 33.7735 28.4314 33.3353 28.9393 32.4585L28.9512 32.4379L32.4211 26.4806C32.931 25.6024 33.1889 25.1664 33.5083 25.0006C33.8584 24.8225 34.2698 24.8225 34.6198 25.0006C34.9369 25.1621 35.184 25.5799 35.6734 26.4075L35.7131 26.4745L39.1953 32.4318L39.2456 32.5184C39.7283 33.3514 39.9746 33.7765 39.957 34.1269C39.9384 34.5199 39.7296 34.8823 39.398 35.0973C39.0909 35.2999 38.575 35.2999 37.5494 35.2999Z" fill="white"/>
</svg>
