<svg width="51" height="50" viewBox="0 0 51 50" fill="none" xmlns="http://www.w3.org/2000/svg">
<g clip-path="url(#clip0_16039_16303)">
<path d="M25.5 50C39.3071 50 50.5 38.8071 50.5 25C50.5 11.1929 39.3071 0 25.5 0C11.6929 0 0.5 11.1929 0.5 25C0.5 38.8071 11.6929 50 25.5 50Z" fill="#627EEA"/>
<path d="M26.2781 6.25V20.1094L37.9921 25.3438L26.2781 6.25Z" fill="white" fill-opacity="0.602"/>
<path d="M26.2781 6.25L14.5625 25.3438L26.2781 20.1094V6.25Z" fill="white"/>
<path d="M26.2781 34.3249V43.7421L38 27.5249L26.2781 34.3249Z" fill="white" fill-opacity="0.602"/>
<path d="M26.2781 43.7421V34.3233L14.5625 27.5249L26.2781 43.7421Z" fill="white"/>
<path d="M26.2781 32.1451L37.9921 25.3436L26.2781 20.1123V32.1451Z" fill="white" fill-opacity="0.2"/>
<path d="M14.5625 25.3436L26.2781 32.1451V20.1123L14.5625 25.3436Z" fill="white" fill-opacity="0.602"/>
</g>
<defs>
<clipPath id="clip0_16039_16303">
<rect width="50" height="50" fill="white" transform="translate(0.5)"/>
</clipPath>
</defs>
</svg>
