<svg width="50" height="50" viewBox="0 0 50 50" fill="none" xmlns="http://www.w3.org/2000/svg">
<path d="M49.2569 31.0337C45.9209 44.4184 32.3645 52.5916 18.9552 49.2536C5.57049 45.9074 -2.58954 32.3509 0.746426 18.9663C4.08239 5.58158 17.6306 -2.59159 31.0072 0.746403C44.4246 4.04348 52.5847 17.6409 49.2569 31.0337Z" fill="#FF060A"/>
<path d="M39.8994 21.6038C38.4346 20.2513 36.4083 18.1859 34.7579 16.7211L34.6603 16.6527C34.4978 16.5222 34.3146 16.4199 34.1183 16.35C30.1388 15.6078 11.6186 12.1459 11.2573 12.1899C11.1561 12.204 11.0593 12.2408 10.9741 12.2973L10.8813 12.3705C10.7671 12.4865 10.6803 12.6267 10.6274 12.7807L10.603 12.8442V13.1908V13.2445C12.688 19.0501 20.9202 38.0684 22.5413 42.5313C22.639 42.834 22.8245 43.4102 23.1712 43.4395H23.2493C23.4349 43.4395 24.2259 42.3945 24.2259 42.3945C24.2259 42.3945 38.3662 25.2463 39.7969 23.4202C39.9821 23.1952 40.1456 22.9533 40.2852 22.6975C40.3208 22.4974 40.304 22.2915 40.2364 22.0999C40.1688 21.9082 40.0527 21.7373 39.8994 21.6038ZM27.8537 23.6009L33.8888 18.596L37.4288 21.8577L27.8537 23.6009ZM25.51 23.2737L15.1196 14.7582L31.9308 17.8587L25.51 23.2737ZM26.4475 25.5051L37.0821 23.7913L24.9241 38.4395L26.4475 25.5051ZM13.7084 15.6078L24.6409 24.885L23.0589 38.4493L13.7084 15.6078Z" fill="white"/>
</svg>
