<svg width="50" height="50" viewBox="0 0 50 50" fill="none" xmlns="http://www.w3.org/2000/svg">
<path d="M49.2569 31.0337C45.9209 44.4184 32.3645 52.5916 18.9552 49.2536C5.57049 45.9074 -2.58954 32.3509 0.746426 18.9663C4.08239 5.58158 17.6306 -2.59159 31.0072 0.746403C44.4246 4.04348 52.5847 17.6409 49.2569 31.0337Z" fill="#000008"/>
<path d="M40.4419 32.7191L35.2831 38.1089C35.171 38.2259 35.0353 38.3193 34.8845 38.3831C34.7338 38.4469 34.5711 38.4798 34.4067 38.4797H9.95171C9.83502 38.4797 9.72087 38.4464 9.6233 38.3841C9.52572 38.3218 9.44896 38.233 9.40245 38.1288C9.35594 38.0245 9.3417 37.9093 9.36149 37.7973C9.38128 37.6852 9.43423 37.5813 9.51384 37.4982L14.6765 32.1084C14.7883 31.9916 14.9236 31.8985 15.0739 31.8347C15.2242 31.7709 15.3863 31.7378 15.5502 31.7376H40.0039C40.1206 31.7376 40.2347 31.7708 40.3324 31.8331C40.4299 31.8955 40.5066 31.9842 40.5533 32.0885C40.5997 32.1927 40.614 32.3079 40.5942 32.42C40.5743 32.532 40.5214 32.636 40.4419 32.7191ZM35.2831 21.8656C35.171 21.7485 35.0353 21.6551 34.8845 21.5913C34.7338 21.5276 34.5711 21.4947 34.4067 21.4948H9.95171C9.83502 21.4948 9.72087 21.528 9.6233 21.5903C9.52572 21.6527 9.44896 21.7414 9.40245 21.8456C9.35594 21.9499 9.3417 22.0651 9.36149 22.1772C9.38128 22.2892 9.43423 22.3931 9.51384 22.4763L14.6765 27.8661C14.7883 27.9828 14.9236 28.076 15.0739 28.1398C15.2242 28.2035 15.3863 28.2366 15.5502 28.2369H40.0039C40.1206 28.2369 40.2347 28.2037 40.3324 28.1413C40.4299 28.079 40.5066 27.9902 40.5533 27.886C40.5997 27.7817 40.614 27.6665 40.5942 27.5545C40.5743 27.4425 40.5214 27.3385 40.4419 27.2554L35.2831 21.8656ZM9.95171 17.9941H34.4067C34.5711 17.9941 34.7338 17.9613 34.8845 17.8975C35.0353 17.8337 35.171 17.7403 35.2831 17.6232L40.4419 12.2334C40.5214 12.1503 40.5743 12.0464 40.5942 11.9343C40.614 11.8223 40.5997 11.7071 40.5533 11.6028C40.5066 11.4986 40.4299 11.4098 40.3324 11.3475C40.2347 11.2852 40.1206 11.252 40.0039 11.252H15.5502C15.3863 11.2522 15.2242 11.2853 15.0739 11.3491C14.9236 11.4128 14.7883 11.506 14.6765 11.6228L9.51517 17.0126C9.43564 17.0956 9.38271 17.1994 9.36288 17.3113C9.34304 17.4232 9.35716 17.5384 9.40351 17.6426C9.44986 17.7468 9.52642 17.8355 9.62379 17.898C9.72117 17.9604 9.83513 17.9938 9.95171 17.9941Z" fill="url(#paint0_linear_16039_16325)"/>
<defs>
<linearGradient id="paint0_linear_16039_16325" x1="11.9907" y1="39.1286" x2="36.8879" y2="10.3187" gradientUnits="userSpaceOnUse">
<stop offset="0.08" stop-color="#9945FF"/>
<stop offset="0.3" stop-color="#8752F3"/>
<stop offset="0.5" stop-color="#5497D5"/>
<stop offset="0.6" stop-color="#43B4CA"/>
<stop offset="0.72" stop-color="#28E0B9"/>
<stop offset="0.97" stop-color="#19FB9B"/>
</linearGradient>
</defs>
</svg>
