<svg width="50" height="50" viewBox="0 0 50 50" fill="none" xmlns="http://www.w3.org/2000/svg">
<g opacity="0.8">
<path fill-rule="evenodd" clip-rule="evenodd" d="M50 25C50 38.8071 38.8071 50 25 50C11.1929 50 0 38.8071 0 25C0 11.1929 11.1929 0 25 0C38.8071 0 50 11.1929 50 25ZM35.2555 31.4193L31.4843 27.659L25.0041 34.1285L18.5346 27.659L14.7635 31.4193L25.0041 41.6599L35.2555 31.4193ZM28.8294 25.0041L25.0041 21.1788L22.1866 24.0071L21.8615 24.3322L21.1896 25.0041V25.0149L25.0041 28.8294L28.8294 25.0041ZM15.8797 25.0041L12.1085 21.2329L8.3374 24.9932L12.1085 28.7644L15.8797 25.0041ZM41.6707 25.0041L37.8996 21.2329L34.1285 24.9932L37.8996 28.7644L41.6707 25.0041ZM35.2446 18.578L25.0041 8.3374L14.7635 18.578L18.5346 22.3383L25.0041 15.8688L31.4735 22.3491L35.2446 18.578Z" fill="#F3BA2F"/>
</g>
</svg>
