<svg width="51" height="50" viewBox="0 0 51 50" fill="none" xmlns="http://www.w3.org/2000/svg">
<path d="M25.5 50C39.26 50 50.5 38.74 50.5 25C50.5 11.24 39.24 0 25.5 0C11.74 0 0.5 11.26 0.5 25C0.5 38.76 11.76 50 25.5 50Z" fill="url(#paint0_linear_16039_16341)"/>
<path d="M32.74 30.3999L39.82 26.3199C40.2 26.0999 40.42 25.6999 40.42 25.2599V17.0999C40.42 16.6599 40.18 16.2599 39.82 16.0399L32.74 11.9599C32.36 11.7399 31.9 11.7399 31.52 11.9599L24.44 16.0399C24.06 16.2599 23.84 16.6599 23.84 17.0999V31.6999L18.88 34.5599L13.92 31.6999V25.9799L18.88 23.1199L22.16 24.9999V21.1599L19.5 19.6199C19.32 19.5199 19.1 19.4599 18.9 19.4599C18.68 19.4599 18.48 19.5199 18.3 19.6199L11.22 23.6999C10.84 23.9199 10.62 24.3199 10.62 24.7599V32.9199C10.62 33.3599 10.86 33.7599 11.22 33.9799L18.3 38.0599C18.68 38.2799 19.14 38.2799 19.52 38.0599L26.6 33.9799C26.98 33.7599 27.2 33.3599 27.2 32.9199V18.3199L27.28 18.2599L32.16 15.4399L37.12 18.2999V24.0199L32.16 26.8799L28.9 24.9999V28.8399L31.56 30.3799C31.94 30.5999 32.4 30.5999 32.78 30.3799L32.74 30.3999Z" fill="white"/>
<defs>
<linearGradient id="paint0_linear_16039_16341" x1="-8.64467" y1="4.06023" x2="42.9153" y2="35.6802" gradientUnits="userSpaceOnUse">
<stop stop-color="#A229C5"/>
<stop offset="1" stop-color="#7B3FE4"/>
</linearGradient>
</defs>
</svg>
