<svg width="51" height="50" viewBox="0 0 51 50" fill="none" xmlns="http://www.w3.org/2000/svg">
<path d="M50.5 25C50.5 11.2 39.3 0 25.5 0C11.7 0 0.5 11.2 0.5 25C0.5 38.8 11.7 50 25.5 50C39.3 50 50.5 38.8 50.5 25Z" fill="#FF1832"/>
<path d="M18.22 31.6401C16.72 31.6401 15.5 31.2801 14.56 30.5801C13.62 29.8601 13.14 28.8401 13.14 27.5401C13.14 27.2601 13.18 26.9201 13.24 26.5201C13.4 25.6201 13.64 24.5401 13.94 23.2601C14.8 19.8201 17 18.1001 20.54 18.1001C21.5 18.1001 22.38 18.2601 23.14 18.6001C23.9 18.9201 24.5 19.4001 24.94 20.0401C25.38 20.6801 25.6 21.4201 25.6 22.3001C25.6 22.5601 25.56 22.9001 25.5 23.3001C25.3 24.4201 25.08 25.5001 24.82 26.5601C24.38 28.2801 23.62 29.5601 22.54 30.4201C21.46 31.2601 20.02 31.6801 18.22 31.6801V31.6401ZM18.5 28.9401C19.2 28.9401 19.8 28.7201 20.28 28.3201C20.78 27.9001 21.14 27.2801 21.36 26.4201C21.66 25.2401 21.88 24.2201 22.02 23.3401C22.08 23.0801 22.1 22.8001 22.1 22.5201C22.1 21.3801 21.5 20.8001 20.32 20.8001C19.62 20.8001 19.02 21.0201 18.52 21.4201C18.02 21.8401 17.68 22.4601 17.46 23.3201C17.22 24.1601 17 25.1801 16.78 26.4001C16.72 26.6601 16.7 26.9201 16.7 27.2001C16.68 28.3601 17.3 28.9401 18.5 28.9401Z" fill="white"/>
<path d="M26.44 31.4598C26.3 31.4598 26.2 31.4198 26.12 31.3198C26.06 31.2198 26.04 31.0998 26.06 30.9798L28.66 18.7798C28.68 18.6398 28.76 18.5198 28.88 18.4398C29 18.3398 29.12 18.2998 29.24 18.2998H34.24C35.64 18.2998 36.74 18.5998 37.58 19.1598C38.44 19.7398 38.86 20.5798 38.86 21.6598C38.86 21.9798 38.82 22.2998 38.74 22.6398C38.42 24.0798 37.8 25.1398 36.84 25.8398C35.9 26.5398 34.6 26.8798 32.96 26.8798H30.42L29.56 30.9998C29.52 31.1398 29.46 31.2598 29.34 31.3398C29.22 31.4398 29.1 31.4798 28.98 31.4798H26.42L26.44 31.4598ZM33.08 24.2798C33.62 24.2798 34.06 24.1398 34.46 23.8398C34.86 23.5398 35.12 23.1398 35.26 22.5998C35.3 22.3798 35.32 22.1998 35.32 22.0398C35.32 21.6798 35.2 21.3998 35 21.1998C34.78 20.9998 34.42 20.8998 33.9 20.8998H31.64L30.92 24.2598H33.08V24.2798Z" fill="white"/>
</svg>
