<svg width="50" height="50" viewBox="0 0 50 50" fill="none" xmlns="http://www.w3.org/2000/svg">
<g clip-path="url(#clip0_16039_16355)">
<path d="M25 50C38.8071 50 50 38.8071 50 25C50 11.1929 38.8071 0 25 0C11.1929 0 0 11.1929 0 25C0 38.8071 11.1929 50 25 50Z" fill="#FCFF52"/>
<path fill-rule="evenodd" clip-rule="evenodd" d="M38.986 10.9238H11.014V39.0778H38.988V29.2498H34.346C32.746 32.8358 29.144 35.3318 25.022 35.3318C19.34 35.3318 14.738 30.6598 14.738 24.9818C14.738 19.3018 19.34 14.6698 25.022 14.6698C29.224 14.6698 32.826 17.2478 34.426 20.9118H38.988V10.9238H38.986Z" fill="#111111"/>
</g>
<defs>
<clipPath id="clip0_16039_16355">
<rect width="50" height="50" fill="white"/>
</clipPath>
</defs>
</svg>
