<svg width="181" height="41" viewBox="0 0 181 41" fill="none" xmlns="http://www.w3.org/2000/svg">
<ellipse cx="18.0816" cy="37.8239" rx="7.81791" ry="2.7741" fill="#D8D8D8"/>
<path d="M10.5153 24.2059L16.82 36.5633C17.0722 36.9836 17.6775 37.8747 18.081 38.0764C18.5853 38.3286 19.0897 37.3198 19.5941 36.5633C20.0985 35.8067 24.8901 26.2235 25.8989 24.2059C26.9076 22.1884 27.6642 21.9362 29.6817 20.6753C31.6993 19.4143 33.4646 15.8836 33.7168 14.3705C33.969 12.8573 33.969 12.6052 33.2124 11.8486C32.4558 11.092 30.4383 12.1008 29.1774 12.1008C27.9164 12.1008 27.9164 11.3442 27.1598 10.3354C26.4033 9.32667 25.8989 6.55258 23.377 4.28286C20.8551 2.01314 16.5678 3.77848 15.3069 3.02191C14.9467 2.80584 14.6509 2.4762 14.4079 2.1225C13.7897 1.22289 12.817 0.692627 11.7838 1.04453C9.63384 1.77678 6.79623 2.91338 5.72363 3.52629C3.95829 4.53505 0.427624 7.05696 0.679815 13.3617C0.932006 19.6665 7.74116 22.1884 8.74992 22.6928C9.55693 23.0963 10.2631 23.8697 10.5153 24.2059Z" fill="#9D9D9E"/>
<circle cx="17.3241" cy="14.371" r="4.03505" fill="#D8D8D8"/>
<path d="M47.4735 21.424C46.2762 21.424 45.1655 21.2365 44.1413 20.8614C43.1315 20.472 42.2516 19.9238 41.5015 19.217C40.7658 18.5101 40.1888 17.6807 39.7704 16.7286C39.3521 15.7621 39.1429 14.7018 39.1429 13.5478C39.1429 12.3938 39.3521 11.3407 39.7704 10.3887C40.1888 9.42217 40.7658 8.5855 41.5015 7.87866C42.2516 7.17182 43.1315 6.63087 44.1413 6.25581C45.1655 5.86633 46.2762 5.67159 47.4735 5.67159C48.8728 5.67159 50.1206 5.91682 51.2169 6.40728C52.3276 6.89774 53.2509 7.60458 53.9866 8.5278L51.2602 10.9945C50.7697 10.4175 50.2288 9.97754 49.6373 9.67461C49.0603 9.37168 48.4112 9.22022 47.6899 9.22022C47.0696 9.22022 46.4998 9.32119 45.9805 9.52315C45.4612 9.7251 45.014 10.0208 44.639 10.4103C44.2783 10.7854 43.9898 11.2398 43.7734 11.7735C43.5715 12.3072 43.4705 12.8987 43.4705 13.5478C43.4705 14.1969 43.5715 14.7884 43.7734 15.3221C43.9898 15.8559 44.2783 16.3175 44.639 16.7069C45.014 17.082 45.4612 17.3705 45.9805 17.5725C46.4998 17.7744 47.0696 17.8754 47.6899 17.8754C48.4112 17.8754 49.0603 17.7239 49.6373 17.421C50.2288 17.1181 50.7697 16.6781 51.2602 16.1011L53.9866 18.5678C53.2509 19.4766 52.3276 20.1834 51.2169 20.6883C50.1206 21.1788 48.8728 21.424 47.4735 21.424ZM61.2283 21.3158C59.9445 21.3158 58.8049 21.0562 57.8095 20.5369C56.8142 20.0176 56.028 19.3035 55.451 18.3947C54.8884 17.4715 54.6071 16.4184 54.6071 15.2356C54.6071 14.0527 54.8884 13.0069 55.451 12.0981C56.028 11.1893 56.8142 10.4824 57.8095 9.97754C58.8049 9.45823 59.9445 9.19858 61.2283 9.19858C62.5122 9.19858 63.6518 9.45823 64.6471 9.97754C65.6569 10.4824 66.4431 11.1893 67.0057 12.0981C67.5683 13.0069 67.8496 14.0527 67.8496 15.2356C67.8496 16.4184 67.5683 17.4715 67.0057 18.3947C66.4431 19.3035 65.6569 20.0176 64.6471 20.5369C63.6518 21.0562 62.5122 21.3158 61.2283 21.3158ZM61.2283 18.0485C61.7044 18.0485 62.1227 17.9403 62.4833 17.7239C62.8584 17.5076 63.1541 17.1902 63.3705 16.7719C63.5869 16.3391 63.6951 15.827 63.6951 15.2356C63.6951 14.6441 63.5869 14.1465 63.3705 13.7425C63.1541 13.3242 62.8584 13.0069 62.4833 12.7905C62.1227 12.5741 61.7044 12.4659 61.2283 12.4659C60.7667 12.4659 60.3484 12.5741 59.9733 12.7905C59.6127 13.0069 59.317 13.3242 59.0862 13.7425C58.8698 14.1465 58.7616 14.6441 58.7616 15.2356C58.7616 15.827 58.8698 16.3391 59.0862 16.7719C59.317 17.1902 59.6127 17.5076 59.9733 17.7239C60.3484 17.9403 60.7667 18.0485 61.2283 18.0485ZM69.754 21.1211V9.39332H73.8653V21.1211H69.754ZM71.8096 8.09504C71.0595 8.09504 70.4537 7.88587 69.9921 7.46754C69.5304 7.04921 69.2996 6.5299 69.2996 5.90961C69.2996 5.28932 69.5304 4.77001 69.9921 4.35167C70.4537 3.93334 71.0595 3.72417 71.8096 3.72417C72.5598 3.72417 73.1656 3.92613 73.6272 4.33004C74.0888 4.71952 74.3196 5.22441 74.3196 5.84469C74.3196 6.49383 74.0888 7.03478 73.6272 7.46754C73.1801 7.88587 72.5742 8.09504 71.8096 8.09504ZM84.1752 9.19858C85.084 9.19858 85.9063 9.38611 86.642 9.76116C87.3777 10.1218 87.9547 10.6844 88.373 11.4489C88.8058 12.2135 89.0221 13.2016 89.0221 14.4133V21.1211H84.9109V15.0841C84.9109 14.2474 84.7378 13.6416 84.3916 13.2665C84.0598 12.877 83.591 12.6823 82.9851 12.6823C82.5524 12.6823 82.1557 12.7833 81.7951 12.9852C81.4344 13.1727 81.1531 13.4685 80.9512 13.8724C80.7492 14.2763 80.6482 14.8028 80.6482 15.4519V21.1211H76.537V9.39332H80.4535V12.7256L79.6962 11.7519C80.1434 10.9008 80.7564 10.266 81.5354 9.84772C82.3144 9.41496 83.1943 9.19858 84.1752 9.19858Z" fill="#9D9D9E"/>
<path d="M89.1209 21.1211L95.807 5.97452H100.026L106.734 21.1211H102.277L97.0404 8.0734H98.7282L93.4918 21.1211H89.1209ZM92.7777 18.1783L93.8812 15.0192H101.281L102.385 18.1783H92.7777ZM108.23 21.1211V9.52315C108.23 8.10947 108.648 6.98429 109.485 6.14762C110.336 5.29653 111.548 4.87098 113.12 4.87098C113.625 4.87098 114.123 4.92147 114.613 5.02245C115.104 5.12343 115.515 5.27489 115.847 5.47685L114.83 8.37633C114.657 8.27536 114.462 8.19602 114.245 8.13832C114.029 8.06619 113.813 8.03013 113.596 8.03013C113.164 8.03013 112.825 8.15996 112.579 8.41961C112.349 8.66484 112.233 9.04711 112.233 9.56642V10.4103L112.341 12.1197V21.1211H108.23ZM106.521 12.8987V9.82608H115.024V12.8987H106.521ZM116.692 21.1211V9.39332H120.609V12.8121L120.025 11.8384C120.371 10.9585 120.933 10.3021 121.712 9.86935C122.491 9.42217 123.436 9.19858 124.547 9.19858V12.8987C124.359 12.8698 124.194 12.8554 124.049 12.8554C123.919 12.841 123.775 12.8338 123.617 12.8338C122.78 12.8338 122.102 13.0646 121.583 13.5262C121.063 13.9734 120.804 14.709 120.804 15.7332V21.1211H116.692ZM126.244 21.1211V9.39332H130.355V21.1211H126.244ZM128.299 8.09504C127.549 8.09504 126.943 7.88587 126.482 7.46754C126.02 7.04921 125.789 6.5299 125.789 5.90961C125.789 5.28932 126.02 4.77001 126.482 4.35167C126.943 3.93334 127.549 3.72417 128.299 3.72417C129.049 3.72417 129.655 3.92613 130.117 4.33004C130.578 4.71952 130.809 5.22441 130.809 5.84469C130.809 6.49383 130.578 7.03478 130.117 7.46754C129.67 7.88587 129.064 8.09504 128.299 8.09504ZM138.047 21.3158C136.993 21.3158 136.027 21.0706 135.147 20.5801C134.267 20.0897 133.567 19.3901 133.048 18.4813C132.543 17.5725 132.291 16.4978 132.291 15.2572C132.291 14.0166 132.543 12.9492 133.048 12.0548C133.567 11.146 134.267 10.4464 135.147 9.95591C136.027 9.45102 136.993 9.19858 138.047 9.19858C139.114 9.19858 139.994 9.41496 140.686 9.84772C141.379 10.2805 141.898 10.944 142.244 11.8384C142.59 12.7184 142.764 13.858 142.764 15.2572C142.764 16.642 142.576 17.7816 142.201 18.676C141.84 19.5559 141.307 20.2195 140.6 20.6667C139.907 21.0995 139.056 21.3158 138.047 21.3158ZM138.912 18.0485C139.374 18.0485 139.785 17.9403 140.145 17.7239C140.52 17.5076 140.816 17.1902 141.033 16.7719C141.263 16.3535 141.379 15.8486 141.379 15.2572C141.379 14.6658 141.263 14.1609 141.033 13.7425C140.816 13.3242 140.52 13.0069 140.145 12.7905C139.785 12.5741 139.374 12.4659 138.912 12.4659C138.45 12.4659 138.032 12.5741 137.657 12.7905C137.296 13.0069 137.001 13.3242 136.77 13.7425C136.554 14.1609 136.445 14.6658 136.445 15.2572C136.445 15.8486 136.554 16.3535 136.77 16.7719C137.001 17.1902 137.296 17.5076 137.657 17.7239C138.032 17.9403 138.45 18.0485 138.912 18.0485ZM141.314 25.3189V19.152L141.53 15.2572L141.509 11.384V9.39332H145.425V25.3189H141.314ZM153.005 21.3158C152.053 21.3158 151.195 21.1283 150.43 20.7532C149.68 20.3782 149.089 19.794 148.656 19.0006C148.238 18.1928 148.028 17.1758 148.028 15.9496V9.39332H152.14V15.2788C152.14 16.1876 152.305 16.8368 152.637 17.2263C152.983 17.6157 153.467 17.8105 154.087 17.8105C154.491 17.8105 154.859 17.7167 155.191 17.5292C155.522 17.3417 155.789 17.0459 155.991 16.642C156.193 16.2237 156.294 15.69 156.294 15.0408V9.39332H160.405V21.1211H156.489V17.8105L157.246 18.7409C156.842 19.6064 156.258 20.2556 155.493 20.6883C154.729 21.1067 153.899 21.3158 153.005 21.3158ZM169.199 21.3158C167.814 21.3158 166.602 21.0562 165.563 20.5369C164.539 20.0031 163.739 19.2819 163.162 18.3731C162.599 17.4499 162.318 16.404 162.318 15.2356C162.318 14.0671 162.592 13.0285 163.14 12.1197C163.703 11.1965 164.474 10.4824 165.455 9.97754C166.436 9.45823 167.54 9.19858 168.766 9.19858C169.92 9.19858 170.973 9.4366 171.925 9.91263C172.877 10.3742 173.634 11.0594 174.197 11.9682C174.76 12.877 175.041 13.9806 175.041 15.2788C175.041 15.4231 175.034 15.589 175.019 15.7765C175.005 15.964 174.99 16.1371 174.976 16.2958H165.693V14.132H172.79L171.233 14.7379C171.247 14.2042 171.146 13.7425 170.93 13.3531C170.728 12.9636 170.439 12.6607 170.064 12.4443C169.703 12.2279 169.278 12.1197 168.787 12.1197C168.297 12.1197 167.864 12.2279 167.489 12.4443C167.129 12.6607 166.847 12.9708 166.645 13.3747C166.443 13.7642 166.342 14.2258 166.342 14.7595V15.387C166.342 15.964 166.458 16.4617 166.689 16.8801C166.934 17.2984 167.28 17.623 167.727 17.8538C168.174 18.0701 168.708 18.1783 169.328 18.1783C169.905 18.1783 170.396 18.099 170.8 17.9403C171.218 17.7672 171.629 17.5076 172.033 17.1613L174.197 19.4117C173.634 20.032 172.942 20.508 172.12 20.8398C171.297 21.1572 170.324 21.3158 169.199 21.3158Z" fill="#9D9D9E"/>
<path d="M38.3974 38.0439L41.5152 31.1591H42.4889L45.6166 38.0439H44.5839L41.8005 31.7099H42.1939L39.4104 38.0439H38.3974ZM39.7252 36.3227L39.9907 35.5359H43.8659L44.1511 36.3227H39.7252ZM48.7299 38.103C48.1988 38.103 47.7234 37.9882 47.3038 37.7587C46.8907 37.5292 46.5661 37.2145 46.3301 36.8145C46.094 36.4145 45.976 35.9556 45.976 35.4376C45.976 34.9196 46.094 34.4606 46.3301 34.0606C46.5661 33.6606 46.8907 33.3492 47.3038 33.1262C47.7234 32.8967 48.1988 32.782 48.7299 32.782C49.202 32.782 49.6216 32.8771 49.9888 33.0672C50.3626 33.2508 50.6511 33.5262 50.8544 33.8934L50.1364 34.3557C49.9659 34.0999 49.7561 33.9131 49.5069 33.795C49.2643 33.6705 49.002 33.6082 48.7201 33.6082C48.3791 33.6082 48.0742 33.6836 47.8054 33.8344C47.5365 33.9852 47.3234 34.1983 47.1661 34.4737C47.0087 34.7425 46.93 35.0638 46.93 35.4376C46.93 35.8113 47.0087 36.1359 47.1661 36.4113C47.3234 36.6867 47.5365 36.8998 47.8054 37.0506C48.0742 37.2014 48.3791 37.2768 48.7201 37.2768C49.002 37.2768 49.2643 37.2178 49.5069 37.0997C49.7561 36.9752 49.9659 36.785 50.1364 36.5293L50.8544 36.9817C50.6511 37.3424 50.3626 37.621 49.9888 37.8177C49.6216 38.0079 49.202 38.103 48.7299 38.103ZM54.793 32.782C55.2192 32.782 55.5929 32.8639 55.9142 33.0279C56.2421 33.1918 56.4978 33.441 56.6814 33.7754C56.865 34.1098 56.9568 34.5327 56.9568 35.0441V38.0439H56.0126V35.1523C56.0126 34.6474 55.888 34.2671 55.6388 34.0114C55.3962 33.7557 55.052 33.6278 54.6061 33.6278C54.2717 33.6278 53.9799 33.6934 53.7308 33.8245C53.4816 33.9557 53.2882 34.1491 53.1505 34.4048C53.0193 34.6606 52.9538 34.9786 52.9538 35.3589V38.0439H52.0096V30.7461H52.9538V34.2376L52.7669 33.8639C52.9374 33.5229 53.1996 33.2574 53.5537 33.0672C53.9078 32.8771 54.3209 32.782 54.793 32.782ZM61.0254 38.103C60.468 38.103 59.9762 37.9882 59.55 37.7587C59.1304 37.5292 58.8025 37.2145 58.5665 36.8145C58.337 36.4145 58.2223 35.9556 58.2223 35.4376C58.2223 34.9196 58.3337 34.4606 58.5567 34.0606C58.7861 33.6606 59.0976 33.3492 59.491 33.1262C59.891 32.8967 60.3401 32.782 60.8385 32.782C61.3434 32.782 61.7892 32.8935 62.1761 33.1164C62.563 33.3393 62.8646 33.6541 63.081 34.0606C63.3039 34.4606 63.4154 34.9294 63.4154 35.4671C63.4154 35.5064 63.4121 35.5523 63.4055 35.6048C63.4055 35.6572 63.4022 35.7064 63.3957 35.7523H58.9599V35.0736H62.9039L62.5203 35.3097C62.5269 34.9753 62.458 34.6769 62.3138 34.4147C62.1695 34.1524 61.9696 33.9491 61.7138 33.8049C61.4647 33.6541 61.1729 33.5787 60.8385 33.5787C60.5106 33.5787 60.2188 33.6541 59.9631 33.8049C59.7074 33.9491 59.5074 34.1557 59.3632 34.4245C59.2189 34.6868 59.1468 34.9884 59.1468 35.3294V35.4867C59.1468 35.8343 59.2255 36.1457 59.3828 36.4211C59.5468 36.6899 59.773 36.8998 60.0615 37.0506C60.35 37.2014 60.6811 37.2768 61.0549 37.2768C61.363 37.2768 61.6417 37.2243 61.8909 37.1194C62.1466 37.0145 62.3695 36.8571 62.5597 36.6473L63.081 37.2571C62.8449 37.5325 62.5498 37.7423 62.1958 37.8866C61.8482 38.0308 61.4581 38.103 61.0254 38.103ZM60.6811 32.0738L59.0288 30.7952H60.2287L61.5663 32.0738H60.6811ZM66.5165 38.103C65.992 38.103 65.5854 37.962 65.2969 37.68C65.0084 37.3981 64.8642 36.9948 64.8642 36.4703V31.6903H65.8084V36.4309C65.8084 36.7129 65.8772 36.9293 66.0149 37.0801C66.1592 37.2309 66.3624 37.3063 66.6247 37.3063C66.9198 37.3063 67.1657 37.2243 67.3624 37.0604L67.6574 37.739C67.5132 37.8636 67.3394 37.9554 67.1362 38.0144C66.9394 38.0735 66.7329 38.103 66.5165 38.103ZM63.979 33.6082V32.8312H67.3034V33.6082H63.979ZM70.9472 38.103C70.3899 38.103 69.8981 37.9882 69.4719 37.7587C69.0523 37.5292 68.7244 37.2145 68.4884 36.8145C68.2589 36.4145 68.1441 35.9556 68.1441 35.4376C68.1441 34.9196 68.2556 34.4606 68.4785 34.0606C68.708 33.6606 69.0195 33.3492 69.4129 33.1262C69.8129 32.8967 70.262 32.782 70.7604 32.782C71.2652 32.782 71.7111 32.8935 72.098 33.1164C72.4848 33.3393 72.7865 33.6541 73.0028 34.0606C73.2258 34.4606 73.3372 34.9294 73.3372 35.4671C73.3372 35.5064 73.334 35.5523 73.3274 35.6048C73.3274 35.6572 73.3241 35.7064 73.3176 35.7523H68.8818V35.0736H72.8258L72.4422 35.3097C72.4488 34.9753 72.3799 34.6769 72.2357 34.4147C72.0914 34.1524 71.8914 33.9491 71.6357 33.8049C71.3865 33.6541 71.0948 33.5787 70.7604 33.5787C70.4325 33.5787 70.1407 33.6541 69.885 33.8049C69.6293 33.9491 69.4293 34.1557 69.285 34.4245C69.1408 34.6868 69.0687 34.9884 69.0687 35.3294V35.4867C69.0687 35.8343 69.1473 36.1457 69.3047 36.4211C69.4686 36.6899 69.6949 36.8998 69.9834 37.0506C70.2719 37.2014 70.603 37.2768 70.9767 37.2768C71.2849 37.2768 71.5636 37.2243 71.8127 37.1194C72.0685 37.0145 72.2914 36.8571 72.4816 36.6473L73.0028 37.2571C72.7668 37.5325 72.4717 37.7423 72.1176 37.8866C71.7701 38.0308 71.38 38.103 70.9472 38.103ZM77.4274 38.0439V32.3689C77.4274 31.8575 77.5749 31.4509 77.87 31.1493C78.1716 30.8411 78.5978 30.687 79.1486 30.687C79.3519 30.687 79.5453 30.7133 79.7289 30.7657C79.919 30.8116 80.0797 30.887 80.2108 30.9919L79.9256 31.7099C79.8272 31.6312 79.7158 31.5722 79.5912 31.5329C79.4666 31.487 79.3355 31.464 79.1978 31.464C78.9224 31.464 78.7126 31.5427 78.5683 31.7001C78.4241 31.8509 78.3519 32.0771 78.3519 32.3787V33.077L78.3716 33.5098V38.0439H77.4274ZM76.5422 33.6082V32.8312H79.8666V33.6082H76.5422ZM83.8969 38.0439V36.9424L83.8477 36.7358V34.8573C83.8477 34.4573 83.7297 34.1491 83.4936 33.9327C83.2641 33.7098 82.9166 33.5983 82.4511 33.5983C82.1429 33.5983 81.8413 33.6508 81.5462 33.7557C81.2512 33.854 81.002 33.9885 80.7987 34.1589L80.4053 33.4508C80.6741 33.2344 80.9954 33.0705 81.3692 32.959C81.7495 32.841 82.1462 32.782 82.5593 32.782C83.274 32.782 83.8248 32.9557 84.2116 33.3033C84.5985 33.6508 84.7919 34.1819 84.7919 34.8966V38.0439H83.8969ZM82.1855 38.103C81.7987 38.103 81.4577 38.0374 81.1626 37.9062C80.8741 37.7751 80.6512 37.5948 80.4938 37.3653C80.3365 37.1292 80.2578 36.8637 80.2578 36.5686C80.2578 36.2867 80.3233 36.031 80.4545 35.8015C80.5922 35.572 80.8118 35.3884 81.1135 35.2507C81.4216 35.113 81.8347 35.0441 82.3527 35.0441H84.0051V35.7228H82.3921C81.92 35.7228 81.602 35.8015 81.438 35.9588C81.2741 36.1162 81.1921 36.3064 81.1921 36.5293C81.1921 36.785 81.2938 36.9916 81.497 37.1489C81.7003 37.2997 81.9823 37.3751 82.3429 37.3751C82.697 37.3751 83.0051 37.2965 83.2674 37.1391C83.5363 36.9817 83.7297 36.7522 83.8477 36.4506L84.0346 37.0997C83.91 37.4079 83.6903 37.6538 83.3756 37.8374C83.0609 38.0144 82.6642 38.103 82.1855 38.103ZM88.8112 38.103C88.2801 38.103 87.8047 37.9882 87.3851 37.7587C86.972 37.5292 86.6474 37.2145 86.4114 36.8145C86.1753 36.4145 86.0573 35.9556 86.0573 35.4376C86.0573 34.9196 86.1753 34.4606 86.4114 34.0606C86.6474 33.6606 86.972 33.3492 87.3851 33.1262C87.8047 32.8967 88.2801 32.782 88.8112 32.782C89.2833 32.782 89.703 32.8771 90.0702 33.0672C90.4439 33.2508 90.7324 33.5262 90.9357 33.8934L90.2177 34.3557C90.0472 34.0999 89.8374 33.9131 89.5882 33.795C89.3456 33.6705 89.0833 33.6082 88.8014 33.6082C88.4604 33.6082 88.1555 33.6836 87.8867 33.8344C87.6179 33.9852 87.4048 34.1983 87.2474 34.4737C87.09 34.7425 87.0113 35.0638 87.0113 35.4376C87.0113 35.8113 87.09 36.1359 87.2474 36.4113C87.4048 36.6867 87.6179 36.8998 87.8867 37.0506C88.1555 37.2014 88.4604 37.2768 88.8014 37.2768C89.0833 37.2768 89.3456 37.2178 89.5882 37.0997C89.8374 36.9752 90.0472 36.785 90.2177 36.5293L90.9357 36.9817C90.7324 37.3424 90.4439 37.621 90.0702 37.8177C89.703 38.0079 89.2833 38.103 88.8112 38.103ZM92.0909 38.0439V32.8312H93.0351V38.0439H92.0909ZM92.563 31.8279C92.3794 31.8279 92.2253 31.7689 92.1007 31.6509C91.9827 31.5329 91.9237 31.3886 91.9237 31.2182C91.9237 31.0411 91.9827 30.8936 92.1007 30.7756C92.2253 30.6575 92.3794 30.5985 92.563 30.5985C92.7466 30.5985 92.8974 30.6575 93.0154 30.7756C93.14 30.887 93.2023 31.028 93.2023 31.1985C93.2023 31.3755 93.1433 31.5263 93.0252 31.6509C92.9072 31.7689 92.7531 31.8279 92.563 31.8279ZM94.8379 38.0439V30.7461H95.7821V38.0439H94.8379ZM99.9061 38.103C99.3487 38.103 98.8569 37.9882 98.4307 37.7587C98.0111 37.5292 97.6833 37.2145 97.4472 36.8145C97.2177 36.4145 97.103 35.9556 97.103 35.4376C97.103 34.9196 97.2144 34.4606 97.4374 34.0606C97.6669 33.6606 97.9783 33.3492 98.3717 33.1262C98.7717 32.8967 99.2209 32.782 99.7192 32.782C100.224 32.782 100.67 32.8935 101.057 33.1164C101.444 33.3393 101.745 33.6541 101.962 34.0606C102.185 34.4606 102.296 34.9294 102.296 35.4671C102.296 35.5064 102.293 35.5523 102.286 35.6048C102.286 35.6572 102.283 35.7064 102.276 35.7523H97.8406V35.0736H101.785L101.401 35.3097C101.408 34.9753 101.339 34.6769 101.195 34.4147C101.05 34.1524 100.85 33.9491 100.595 33.8049C100.345 33.6541 100.054 33.5787 99.7192 33.5787C99.3913 33.5787 99.0996 33.6541 98.8438 33.8049C98.5881 33.9491 98.3881 34.1557 98.2439 34.4245C98.0996 34.6868 98.0275 34.9884 98.0275 35.3294V35.4867C98.0275 35.8343 98.1062 36.1457 98.2635 36.4211C98.4275 36.6899 98.6537 36.8998 98.9422 37.0506C99.2307 37.2014 99.5618 37.2768 99.9356 37.2768C100.244 37.2768 100.522 37.2243 100.772 37.1194C101.027 37.0145 101.25 36.8571 101.44 36.6473L101.962 37.2571C101.726 37.5325 101.431 37.7423 101.076 37.8866C100.729 38.0308 100.339 38.103 99.9061 38.103ZM103.233 39.4996L103.725 37.5128L103.853 38.0833C103.663 38.0833 103.502 38.0243 103.371 37.9062C103.247 37.7882 103.184 37.6276 103.184 37.4243C103.184 37.2276 103.247 37.067 103.371 36.9424C103.502 36.8178 103.66 36.7555 103.843 36.7555C104.033 36.7555 104.187 36.8211 104.305 36.9522C104.424 37.0768 104.483 37.2342 104.483 37.4243C104.483 37.4899 104.476 37.5555 104.463 37.621C104.456 37.68 104.44 37.7522 104.414 37.8374C104.394 37.9161 104.361 38.0144 104.315 38.1325L103.853 39.4996H103.233ZM109.844 38.0439L107.562 32.8312H108.546L110.572 37.5522H110.1L112.165 32.8312H113.09L110.808 38.0439H109.844ZM116.148 38.103C115.591 38.103 115.099 37.9882 114.673 37.7587C114.253 37.5292 113.925 37.2145 113.689 36.8145C113.46 36.4145 113.345 35.9556 113.345 35.4376C113.345 34.9196 113.456 34.4606 113.679 34.0606C113.909 33.6606 114.22 33.3492 114.614 33.1262C115.014 32.8967 115.463 32.782 115.961 32.782C116.466 32.782 116.912 32.8935 117.299 33.1164C117.686 33.3393 117.987 33.6541 118.204 34.0606C118.427 34.4606 118.538 34.9294 118.538 35.4671C118.538 35.5064 118.535 35.5523 118.528 35.6048C118.528 35.6572 118.525 35.7064 118.518 35.7523H114.083V35.0736H118.027L117.643 35.3097C117.65 34.9753 117.581 34.6769 117.436 34.4147C117.292 34.1524 117.092 33.9491 116.836 33.8049C116.587 33.6541 116.296 33.5787 115.961 33.5787C115.633 33.5787 115.341 33.6541 115.086 33.8049C114.83 33.9491 114.63 34.1557 114.486 34.4245C114.342 34.6868 114.269 34.9884 114.269 35.3294V35.4867C114.269 35.8343 114.348 36.1457 114.505 36.4211C114.669 36.6899 114.896 36.8998 115.184 37.0506C115.473 37.2014 115.804 37.2768 116.177 37.2768C116.486 37.2768 116.764 37.2243 117.013 37.1194C117.269 37.0145 117.492 36.8571 117.682 36.6473L118.204 37.2571C117.968 37.5325 117.672 37.7423 117.318 37.8866C116.971 38.0308 116.581 38.103 116.148 38.103ZM122.633 32.782C123.059 32.782 123.432 32.8639 123.754 33.0279C124.082 33.1918 124.337 33.441 124.521 33.7754C124.705 34.1098 124.796 34.5327 124.796 35.0441V38.0439H123.852V35.1523C123.852 34.6474 123.728 34.2671 123.478 34.0114C123.236 33.7557 122.892 33.6278 122.446 33.6278C122.111 33.6278 121.819 33.6934 121.57 33.8245C121.321 33.9557 121.128 34.1491 120.99 34.4048C120.859 34.6606 120.793 34.9786 120.793 35.3589V38.0439H119.849V32.8312H120.754V34.2376L120.606 33.8639C120.777 33.5229 121.039 33.2574 121.393 33.0672C121.747 32.8771 122.16 32.782 122.633 32.782ZM128.698 38.103C128.193 38.103 127.74 37.9915 127.34 37.7686C126.947 37.5456 126.636 37.2342 126.406 36.8342C126.177 36.4342 126.062 35.9687 126.062 35.4376C126.062 34.9064 126.177 34.4442 126.406 34.0508C126.636 33.6508 126.947 33.3393 127.34 33.1164C127.74 32.8935 128.193 32.782 128.698 32.782C129.137 32.782 129.534 32.8803 129.888 33.077C130.242 33.2738 130.524 33.5688 130.734 33.9622C130.95 34.3557 131.058 34.8474 131.058 35.4376C131.058 36.0277 130.953 36.5195 130.743 36.9129C130.54 37.3063 130.262 37.6046 129.907 37.8079C129.553 38.0046 129.15 38.103 128.698 38.103ZM128.776 37.2768C129.104 37.2768 129.399 37.2014 129.662 37.0506C129.93 36.8998 130.14 36.6867 130.291 36.4113C130.448 36.1293 130.527 35.8047 130.527 35.4376C130.527 35.0638 130.448 34.7425 130.291 34.4737C130.14 34.1983 129.93 33.9852 129.662 33.8344C129.399 33.6836 129.104 33.6082 128.776 33.6082C128.442 33.6082 128.144 33.6836 127.881 33.8344C127.619 33.9852 127.409 34.1983 127.252 34.4737C127.095 34.7425 127.016 35.0638 127.016 35.4376C127.016 35.8047 127.095 36.1293 127.252 36.4113C127.409 36.6867 127.619 36.8998 127.881 37.0506C128.144 37.2014 128.442 37.2768 128.776 37.2768ZM130.557 38.0439V36.6375L130.616 35.4277L130.517 34.218V30.7461H131.461V38.0439H130.557ZM134.743 38.103C134.31 38.103 133.897 38.0439 133.504 37.9259C133.117 37.8079 132.812 37.6636 132.589 37.4932L132.982 36.7457C133.205 36.8965 133.481 37.0243 133.809 37.1292C134.136 37.2342 134.471 37.2866 134.812 37.2866C135.251 37.2866 135.566 37.2243 135.756 37.0997C135.953 36.9752 136.051 36.8014 136.051 36.5785C136.051 36.4145 135.992 36.2867 135.874 36.1949C135.756 36.1031 135.599 36.0342 135.402 35.9883C135.212 35.9424 134.999 35.9031 134.763 35.8703C134.527 35.831 134.291 35.7851 134.054 35.7326C133.818 35.6736 133.602 35.5949 133.405 35.4966C133.209 35.3917 133.051 35.2507 132.933 35.0736C132.815 34.89 132.756 34.6474 132.756 34.3458C132.756 34.0311 132.845 33.7557 133.022 33.5196C133.199 33.2836 133.448 33.1033 133.769 32.9787C134.097 32.8476 134.484 32.782 134.93 32.782C135.271 32.782 135.615 32.8246 135.963 32.9098C136.317 32.9885 136.605 33.1033 136.828 33.2541L136.425 34.0016C136.189 33.8442 135.943 33.736 135.687 33.677C135.431 33.618 135.176 33.5885 134.92 33.5885C134.507 33.5885 134.199 33.6573 133.995 33.795C133.792 33.9262 133.691 34.0967 133.691 34.3065C133.691 34.4835 133.75 34.6212 133.868 34.7196C133.992 34.8114 134.15 34.8835 134.34 34.9359C134.536 34.9884 134.753 35.0343 134.989 35.0736C135.225 35.1064 135.461 35.1523 135.697 35.2113C135.933 35.2638 136.146 35.3392 136.336 35.4376C136.533 35.5359 136.69 35.6736 136.808 35.8506C136.933 36.0277 136.995 36.2637 136.995 36.5588C136.995 36.8735 136.903 37.1456 136.72 37.3751C136.536 37.6046 136.277 37.7849 135.943 37.9161C135.608 38.0407 135.208 38.103 134.743 38.103ZM140.817 38.0439V32.8312H141.721V34.2475L141.633 33.8934C141.777 33.5328 142.02 33.2574 142.361 33.0672C142.702 32.8771 143.121 32.782 143.62 32.782V33.6967C143.58 33.6901 143.541 33.6868 143.502 33.6868C143.469 33.6868 143.436 33.6868 143.403 33.6868C142.898 33.6868 142.498 33.8377 142.203 34.1393C141.908 34.4409 141.761 34.8769 141.761 35.4474V38.0439H140.817ZM147.635 38.0439V36.9424L147.586 36.7358V34.8573C147.586 34.4573 147.468 34.1491 147.232 33.9327C147.002 33.7098 146.655 33.5983 146.189 33.5983C145.881 33.5983 145.58 33.6508 145.284 33.7557C144.989 33.854 144.74 33.9885 144.537 34.1589L144.144 33.4508C144.412 33.2344 144.734 33.0705 145.107 32.959C145.488 32.841 145.884 32.782 146.298 32.782C147.012 32.782 147.563 32.9557 147.95 33.3033C148.337 33.6508 148.53 34.1819 148.53 34.8966V38.0439H147.635ZM145.924 38.103C145.537 38.103 145.196 38.0374 144.901 37.9062C144.612 37.7751 144.389 37.5948 144.232 37.3653C144.075 37.1292 143.996 36.8637 143.996 36.5686C143.996 36.2867 144.062 36.031 144.193 35.8015C144.33 35.572 144.55 35.3884 144.852 35.2507C145.16 35.113 145.573 35.0441 146.091 35.0441H147.743V35.7228H146.13C145.658 35.7228 145.34 35.8015 145.176 35.9588C145.012 36.1162 144.93 36.3064 144.93 36.5293C144.93 36.785 145.032 36.9916 145.235 37.1489C145.439 37.2997 145.721 37.3751 146.081 37.3751C146.435 37.3751 146.743 37.2965 147.006 37.1391C147.275 36.9817 147.468 36.7522 147.586 36.4506L147.773 37.0997C147.648 37.4079 147.429 37.6538 147.114 37.8374C146.799 38.0144 146.402 38.103 145.924 38.103ZM153.041 38.103C152.608 38.103 152.212 38.0046 151.851 37.8079C151.497 37.6046 151.212 37.3063 150.995 36.9129C150.786 36.5195 150.681 36.0277 150.681 35.4376C150.681 34.8474 150.782 34.3557 150.986 33.9622C151.195 33.5688 151.477 33.2738 151.831 33.077C152.192 32.8803 152.595 32.782 153.041 32.782C153.553 32.782 154.005 32.8935 154.399 33.1164C154.792 33.3393 155.103 33.6508 155.333 34.0508C155.562 34.4442 155.677 34.9064 155.677 35.4376C155.677 35.9687 155.562 36.4342 155.333 36.8342C155.103 37.2342 154.792 37.5456 154.399 37.7686C154.005 37.9915 153.553 38.103 153.041 38.103ZM150.277 39.952V32.8312H151.182V34.2376L151.123 35.4474L151.222 36.6571V39.952H150.277ZM152.963 37.2768C153.297 37.2768 153.595 37.2014 153.858 37.0506C154.126 36.8998 154.336 36.6867 154.487 36.4113C154.644 36.1293 154.723 35.8047 154.723 35.4376C154.723 35.0638 154.644 34.7425 154.487 34.4737C154.336 34.1983 154.126 33.9852 153.858 33.8344C153.595 33.6836 153.297 33.6082 152.963 33.6082C152.635 33.6082 152.336 33.6836 152.068 33.8344C151.805 33.9852 151.595 34.1983 151.438 34.4737C151.287 34.7425 151.212 35.0638 151.212 35.4376C151.212 35.8047 151.287 36.1293 151.438 36.4113C151.595 36.6867 151.805 36.8998 152.068 37.0506C152.336 37.2014 152.635 37.2768 152.963 37.2768ZM156.982 38.0439V32.8312H157.926V38.0439H156.982ZM157.454 31.8279C157.27 31.8279 157.116 31.7689 156.992 31.6509C156.874 31.5329 156.815 31.3886 156.815 31.2182C156.815 31.0411 156.874 30.8936 156.992 30.7756C157.116 30.6575 157.27 30.5985 157.454 30.5985C157.637 30.5985 157.788 30.6575 157.906 30.7756C158.031 30.887 158.093 31.028 158.093 31.1985C158.093 31.3755 158.034 31.5263 157.916 31.6509C157.798 31.7689 157.644 31.8279 157.454 31.8279ZM161.883 38.103C161.378 38.103 160.925 37.9915 160.525 37.7686C160.132 37.5456 159.821 37.2342 159.591 36.8342C159.362 36.4342 159.247 35.9687 159.247 35.4376C159.247 34.9064 159.362 34.4442 159.591 34.0508C159.821 33.6508 160.132 33.3393 160.525 33.1164C160.925 32.8935 161.378 32.782 161.883 32.782C162.322 32.782 162.719 32.8803 163.073 33.077C163.427 33.2738 163.709 33.5688 163.919 33.9622C164.135 34.3557 164.243 34.8474 164.243 35.4376C164.243 36.0277 164.138 36.5195 163.928 36.9129C163.725 37.3063 163.447 37.6046 163.092 37.8079C162.738 38.0046 162.335 38.103 161.883 38.103ZM161.961 37.2768C162.289 37.2768 162.584 37.2014 162.847 37.0506C163.115 36.8998 163.325 36.6867 163.476 36.4113C163.633 36.1293 163.712 35.8047 163.712 35.4376C163.712 35.0638 163.633 34.7425 163.476 34.4737C163.325 34.1983 163.115 33.9852 162.847 33.8344C162.584 33.6836 162.289 33.6082 161.961 33.6082C161.627 33.6082 161.329 33.6836 161.066 33.8344C160.804 33.9852 160.594 34.1983 160.437 34.4737C160.28 34.7425 160.201 35.0638 160.201 35.4376C160.201 35.8047 160.28 36.1293 160.437 36.4113C160.594 36.6867 160.804 36.8998 161.066 37.0506C161.329 37.2014 161.627 37.2768 161.961 37.2768ZM163.742 38.0439V36.6375L163.801 35.4277L163.702 34.218V30.7461H164.646V38.0439H163.742ZM168.754 38.103C168.197 38.103 167.705 37.9882 167.279 37.7587C166.859 37.5292 166.531 37.2145 166.295 36.8145C166.066 36.4145 165.951 35.9556 165.951 35.4376C165.951 34.9196 166.062 34.4606 166.285 34.0606C166.515 33.6606 166.826 33.3492 167.22 33.1262C167.62 32.8967 168.069 32.782 168.567 32.782C169.072 32.782 169.518 32.8935 169.905 33.1164C170.292 33.3393 170.593 33.6541 170.81 34.0606C171.033 34.4606 171.144 34.9294 171.144 35.4671C171.144 35.5064 171.141 35.5523 171.134 35.6048C171.134 35.6572 171.131 35.7064 171.124 35.7523H166.689V35.0736H170.633L170.249 35.3097C170.256 34.9753 170.187 34.6769 170.043 34.4147C169.898 34.1524 169.698 33.9491 169.443 33.8049C169.193 33.6541 168.902 33.5787 168.567 33.5787C168.239 33.5787 167.948 33.6541 167.692 33.8049C167.436 33.9491 167.236 34.1557 167.092 34.4245C166.948 34.6868 166.876 34.9884 166.876 35.3294V35.4867C166.876 35.8343 166.954 36.1457 167.112 36.4211C167.276 36.6899 167.502 36.8998 167.79 37.0506C168.079 37.2014 168.41 37.2768 168.784 37.2768C169.092 37.2768 169.37 37.2243 169.62 37.1194C169.875 37.0145 170.098 36.8571 170.288 36.6473L170.81 37.2571C170.574 37.5325 170.279 37.7423 169.925 37.8866C169.577 38.0308 169.187 38.103 168.754 38.103ZM175.146 35.8703L174.969 31.1591H176.08L175.893 35.8703H175.146ZM175.529 38.103C175.346 38.103 175.192 38.0407 175.067 37.9161C174.943 37.7915 174.88 37.644 174.88 37.4735C174.88 37.2899 174.943 37.1391 175.067 37.0211C175.192 36.903 175.346 36.844 175.529 36.844C175.713 36.844 175.864 36.903 175.982 37.0211C176.1 37.1391 176.159 37.2899 176.159 37.4735C176.159 37.644 176.1 37.7915 175.982 37.9161C175.864 38.0407 175.713 38.103 175.529 38.103Z" fill="#9D9D9E"/>
</svg>
