<svg width="143" height="42" viewBox="0 0 143 42" fill="none" xmlns="http://www.w3.org/2000/svg">
<path d="M0.166992 0.5V30.3719L7.30454 27.1997V12.6603L19.7292 19.0047L39.027 8.95931V0.5L19.7292 11.0741L0.166992 0.5Z" fill="#9D9D9E"/>
<path d="M0.166992 33.0152V41.2101L19.7292 31.4291L39.2913 41.4745L39.027 11.6025L32.1538 15.3035V29.3142L19.7292 23.2341L0.166992 33.0152Z" fill="#9D9D9E"/>
<path d="M44.161 16.75V4.15H46.573L51.937 13.042H50.659L55.933 4.15H58.327L58.363 16.75H55.627L55.609 8.344H56.113L51.901 15.418H50.587L46.285 8.344H46.897V16.75H44.161ZM67.0944 16.75V14.86L66.9144 14.446V11.062C66.9144 10.462 66.7284 9.994 66.3564 9.658C65.9964 9.322 65.4384 9.154 64.6824 9.154C64.1664 9.154 63.6564 9.238 63.1524 9.406C62.6604 9.562 62.2404 9.778 61.8924 10.054L60.8844 8.092C61.4124 7.72 62.0484 7.432 62.7924 7.228C63.5364 7.024 64.2924 6.922 65.0604 6.922C66.5364 6.922 67.6824 7.27 68.4984 7.966C69.3144 8.662 69.7224 9.748 69.7224 11.224V16.75H67.0944ZM64.1424 16.894C63.3864 16.894 62.7384 16.768 62.1984 16.516C61.6584 16.252 61.2444 15.898 60.9564 15.454C60.6684 15.01 60.5244 14.512 60.5244 13.96C60.5244 13.384 60.6624 12.88 60.9384 12.448C61.2264 12.016 61.6764 11.68 62.2884 11.44C62.9004 11.188 63.6984 11.062 64.6824 11.062H67.2564V12.7H64.9884C64.3284 12.7 63.8724 12.808 63.6204 13.024C63.3804 13.24 63.2604 13.51 63.2604 13.834C63.2604 14.194 63.3984 14.482 63.6744 14.698C63.9624 14.902 64.3524 15.004 64.8444 15.004C65.3124 15.004 65.7324 14.896 66.1044 14.68C66.4764 14.452 66.7464 14.122 66.9144 13.69L67.3464 14.986C67.1424 15.61 66.7704 16.084 66.2304 16.408C65.6904 16.732 64.9944 16.894 64.1424 16.894ZM72.2638 16.75V7.066H74.9458V9.802L74.5678 9.01C74.8558 8.326 75.3178 7.81 75.9538 7.462C76.5898 7.102 77.3638 6.922 78.2758 6.922V9.514C78.1558 9.502 78.0478 9.496 77.9518 9.496C77.8558 9.484 77.7538 9.478 77.6458 9.478C76.8778 9.478 76.2538 9.7 75.7738 10.144C75.3058 10.576 75.0718 11.254 75.0718 12.178V16.75H72.2638ZM85.687 16.894C84.871 16.894 84.157 16.714 83.545 16.354C82.933 15.994 82.453 15.448 82.105 14.716C81.769 13.972 81.601 13.036 81.601 11.908C81.601 10.768 81.763 9.832 82.087 9.1C82.411 8.368 82.879 7.822 83.491 7.462C84.103 7.102 84.835 6.922 85.687 6.922C86.599 6.922 87.415 7.132 88.135 7.552C88.867 7.96 89.443 8.536 89.863 9.28C90.295 10.024 90.511 10.9 90.511 11.908C90.511 12.928 90.295 13.81 89.863 14.554C89.443 15.298 88.867 15.874 88.135 16.282C87.415 16.69 86.599 16.894 85.687 16.894ZM79.963 20.242V7.066H82.645V9.046L82.591 11.926L82.771 14.788V20.242H79.963ZM85.201 14.59C85.669 14.59 86.083 14.482 86.443 14.266C86.815 14.05 87.109 13.744 87.325 13.348C87.553 12.94 87.667 12.46 87.667 11.908C87.667 11.344 87.553 10.864 87.325 10.468C87.109 10.072 86.815 9.766 86.443 9.55C86.083 9.334 85.669 9.226 85.201 9.226C84.733 9.226 84.313 9.334 83.941 9.55C83.569 9.766 83.275 10.072 83.059 10.468C82.843 10.864 82.735 11.344 82.735 11.908C82.735 12.46 82.843 12.94 83.059 13.348C83.275 13.744 83.569 14.05 83.941 14.266C84.313 14.482 84.733 14.59 85.201 14.59ZM97.1967 16.894C96.0927 16.894 95.1207 16.678 94.2807 16.246C93.4527 15.814 92.8107 15.226 92.3547 14.482C91.8987 13.726 91.6707 12.868 91.6707 11.908C91.6707 10.936 91.8927 10.078 92.3367 9.334C92.7927 8.578 93.4107 7.99 94.1907 7.57C94.9707 7.138 95.8527 6.922 96.8367 6.922C97.7847 6.922 98.6367 7.126 99.3927 7.534C100.161 7.93 100.767 8.506 101.211 9.262C101.655 10.006 101.877 10.9 101.877 11.944C101.877 12.052 101.871 12.178 101.859 12.322C101.847 12.454 101.835 12.58 101.823 12.7H93.9567V11.062H100.347L99.2667 11.548C99.2667 11.044 99.1647 10.606 98.9607 10.234C98.7567 9.862 98.4747 9.574 98.1147 9.37C97.7547 9.154 97.3347 9.046 96.8547 9.046C96.3747 9.046 95.9487 9.154 95.5767 9.37C95.2167 9.574 94.9347 9.868 94.7307 10.252C94.5267 10.624 94.4247 11.068 94.4247 11.584V12.016C94.4247 12.544 94.5387 13.012 94.7667 13.42C95.0067 13.816 95.3367 14.122 95.7567 14.338C96.1887 14.542 96.6927 14.644 97.2687 14.644C97.7847 14.644 98.2347 14.566 98.6187 14.41C99.0147 14.254 99.3747 14.02 99.6987 13.708L101.193 15.328C100.749 15.832 100.191 16.222 99.5187 16.498C98.8467 16.762 98.0727 16.894 97.1967 16.894ZM47.185 34.75L43.063 22.15H46.087L49.669 33.31H48.157L51.901 22.15H54.601L58.201 33.31H56.743L60.415 22.15H63.205L59.083 34.75H55.951L52.765 24.958H53.593L50.317 34.75H47.185ZM68.7202 34.894C67.6162 34.894 66.6442 34.678 65.8042 34.246C64.9762 33.814 64.3342 33.226 63.8782 32.482C63.4222 31.726 63.1942 30.868 63.1942 29.908C63.1942 28.936 63.4162 28.078 63.8602 27.334C64.3162 26.578 64.9342 25.99 65.7142 25.57C66.4942 25.138 67.3762 24.922 68.3602 24.922C69.3082 24.922 70.1602 25.126 70.9162 25.534C71.6842 25.93 72.2902 26.506 72.7342 27.262C73.1782 28.006 73.4002 28.9 73.4002 29.944C73.4002 30.052 73.3942 30.178 73.3822 30.322C73.3702 30.454 73.3582 30.58 73.3462 30.7H65.4802V29.062H71.8702L70.7902 29.548C70.7902 29.044 70.6882 28.606 70.4842 28.234C70.2802 27.862 69.9982 27.574 69.6382 27.37C69.2782 27.154 68.8582 27.046 68.3782 27.046C67.8982 27.046 67.4722 27.154 67.1002 27.37C66.7402 27.574 66.4582 27.868 66.2542 28.252C66.0502 28.624 65.9482 29.068 65.9482 29.584V30.016C65.9482 30.544 66.0622 31.012 66.2902 31.42C66.5302 31.816 66.8602 32.122 67.2802 32.338C67.7122 32.542 68.2162 32.644 68.7922 32.644C69.3082 32.644 69.7582 32.566 70.1422 32.41C70.5382 32.254 70.8982 32.02 71.2222 31.708L72.7162 33.328C72.2722 33.832 71.7142 34.222 71.0422 34.498C70.3702 34.762 69.5962 34.894 68.7202 34.894ZM75.2696 34.75V21.394H78.0776V34.75H75.2696ZM80.6837 34.75V21.394H83.4917V34.75H80.6837ZM91.8218 34.894C90.9698 34.894 90.2378 34.714 89.6258 34.354C89.0138 33.994 88.5458 33.448 88.2218 32.716C87.8978 31.972 87.7358 31.036 87.7358 29.908C87.7358 28.768 87.9038 27.832 88.2398 27.1C88.5878 26.368 89.0678 25.822 89.6798 25.462C90.2918 25.102 91.0058 24.922 91.8218 24.922C92.7338 24.922 93.5498 25.126 94.2698 25.534C95.0018 25.942 95.5778 26.518 95.9978 27.262C96.4298 28.006 96.6458 28.888 96.6458 29.908C96.6458 30.916 96.4298 31.792 95.9978 32.536C95.5778 33.28 95.0018 33.862 94.2698 34.282C93.5498 34.69 92.7338 34.894 91.8218 34.894ZM86.0978 34.75V21.394H88.9058V27.028L88.7258 29.89L88.7798 32.77V34.75H86.0978ZM91.3358 32.59C91.8038 32.59 92.2178 32.482 92.5778 32.266C92.9498 32.05 93.2438 31.744 93.4598 31.348C93.6878 30.94 93.8018 30.46 93.8018 29.908C93.8018 29.344 93.6878 28.864 93.4598 28.468C93.2438 28.072 92.9498 27.766 92.5778 27.55C92.2178 27.334 91.8038 27.226 91.3358 27.226C90.8678 27.226 90.4478 27.334 90.0758 27.55C89.7038 27.766 89.4098 28.072 89.1938 28.468C88.9778 28.864 88.8698 29.344 88.8698 29.908C88.8698 30.46 88.9778 30.94 89.1938 31.348C89.4098 31.744 89.7038 32.05 90.0758 32.266C90.4478 32.482 90.8678 32.59 91.3358 32.59ZM103.331 34.894C102.227 34.894 101.255 34.678 100.415 34.246C99.5875 33.814 98.9455 33.226 98.4895 32.482C98.0335 31.726 97.8055 30.868 97.8055 29.908C97.8055 28.936 98.0275 28.078 98.4715 27.334C98.9275 26.578 99.5455 25.99 100.325 25.57C101.105 25.138 101.987 24.922 102.971 24.922C103.919 24.922 104.771 25.126 105.527 25.534C106.295 25.93 106.901 26.506 107.345 27.262C107.789 28.006 108.011 28.9 108.011 29.944C108.011 30.052 108.005 30.178 107.993 30.322C107.981 30.454 107.969 30.58 107.957 30.7H100.091V29.062H106.481L105.401 29.548C105.401 29.044 105.299 28.606 105.095 28.234C104.891 27.862 104.609 27.574 104.249 27.37C103.889 27.154 103.469 27.046 102.989 27.046C102.509 27.046 102.083 27.154 101.711 27.37C101.351 27.574 101.069 27.868 100.865 28.252C100.661 28.624 100.559 29.068 100.559 29.584V30.016C100.559 30.544 100.673 31.012 100.901 31.42C101.141 31.816 101.471 32.122 101.891 32.338C102.323 32.542 102.827 32.644 103.403 32.644C103.919 32.644 104.369 32.566 104.753 32.41C105.149 32.254 105.509 32.02 105.833 31.708L107.327 33.328C106.883 33.832 106.325 34.222 105.653 34.498C104.981 34.762 104.207 34.894 103.331 34.894ZM109.881 34.75V25.066H112.689V34.75H109.881ZM111.285 23.716C110.769 23.716 110.349 23.566 110.025 23.266C109.701 22.966 109.539 22.594 109.539 22.15C109.539 21.706 109.701 21.334 110.025 21.034C110.349 20.734 110.769 20.584 111.285 20.584C111.801 20.584 112.221 20.728 112.545 21.016C112.869 21.292 113.031 21.652 113.031 22.096C113.031 22.564 112.869 22.954 112.545 23.266C112.233 23.566 111.813 23.716 111.285 23.716ZM121.181 24.922C121.949 24.922 122.633 25.078 123.233 25.39C123.845 25.69 124.325 26.158 124.673 26.794C125.021 27.418 125.195 28.222 125.195 29.206V34.75H122.387V29.638C122.387 28.858 122.213 28.282 121.865 27.91C121.529 27.538 121.049 27.352 120.425 27.352C119.981 27.352 119.579 27.448 119.219 27.64C118.871 27.82 118.595 28.102 118.391 28.486C118.199 28.87 118.103 29.362 118.103 29.962V34.75H115.295V25.066H117.977V27.748L117.473 26.938C117.821 26.29 118.319 25.792 118.967 25.444C119.615 25.096 120.353 24.922 121.181 24.922ZM132.365 38.386C131.453 38.386 130.571 38.272 129.719 38.044C128.879 37.828 128.177 37.498 127.613 37.054L128.729 35.038C129.137 35.374 129.653 35.638 130.277 35.83C130.913 36.034 131.537 36.136 132.149 36.136C133.145 36.136 133.865 35.914 134.309 35.47C134.765 35.026 134.993 34.366 134.993 33.49V32.032L135.173 29.602L135.137 27.154V25.066H137.801V33.13C137.801 34.93 137.333 36.256 136.397 37.108C135.461 37.96 134.117 38.386 132.365 38.386ZM131.933 34.282C131.033 34.282 130.217 34.09 129.485 33.706C128.765 33.31 128.183 32.764 127.739 32.068C127.307 31.36 127.091 30.538 127.091 29.602C127.091 28.654 127.307 27.832 127.739 27.136C128.183 26.428 128.765 25.882 129.485 25.498C130.217 25.114 131.033 24.922 131.933 24.922C132.749 24.922 133.469 25.09 134.093 25.426C134.717 25.75 135.203 26.26 135.551 26.956C135.899 27.64 136.073 28.522 136.073 29.602C136.073 30.67 135.899 31.552 135.551 32.248C135.203 32.932 134.717 33.442 134.093 33.778C133.469 34.114 132.749 34.282 131.933 34.282ZM132.491 31.978C132.983 31.978 133.421 31.882 133.805 31.69C134.189 31.486 134.489 31.204 134.705 30.844C134.921 30.484 135.029 30.07 135.029 29.602C135.029 29.122 134.921 28.708 134.705 28.36C134.489 28 134.189 27.724 133.805 27.532C133.421 27.328 132.983 27.226 132.491 27.226C131.999 27.226 131.561 27.328 131.177 27.532C130.793 27.724 130.487 28 130.259 28.36C130.043 28.708 129.935 29.122 129.935 29.602C129.935 30.07 130.043 30.484 130.259 30.844C130.487 31.204 130.793 31.486 131.177 31.69C131.561 31.882 131.999 31.978 132.491 31.978Z" fill="#9D9D9E"/>
</svg>
