<svg width="89" height="88" viewBox="0 0 89 88" fill="none" xmlns="http://www.w3.org/2000/svg">
<rect x="1" y="0.5" width="87" height="87" rx="11.5" fill="#141414"/>
<rect x="1" y="0.5" width="87" height="87" rx="11.5" stroke="url(#paint0_linear_11789_36955)"/>
<path d="M50.9998 30.2498C50.6998 29.3398 50.2898 28.4898 49.7798 27.7298C48.5257 25.8131 46.6674 24.3701 44.4998 23.6298C42.4298 22.8898 40.1098 22.8198 37.8598 23.5498C35.6098 24.2798 33.7898 25.6998 32.5298 27.4998C31.2298 29.3598 30.5498 31.6198 30.6698 33.9398C30.6998 34.8598 30.8598 35.7798 31.1598 36.6898C31.6098 38.0798 32.3198 39.3098 33.2198 40.3398C35.5598 43.0098 39.1698 44.3698 42.7898 43.7598C42.8098 43.5498 42.8698 43.3598 42.9698 43.1898C43.1323 42.8585 43.4044 42.5935 43.7398 42.4398C43.8798 42.3698 44.0398 42.3098 44.1998 42.2898C44.3979 42.2501 44.6018 42.2501 44.7998 42.2898C44.9598 42.3098 45.1198 42.3698 45.2598 42.4398C45.4398 42.5198 45.6098 42.6398 45.7498 42.7898C47.9834 41.6767 49.7425 39.7978 50.7062 37.4959C51.67 35.1939 51.7742 32.6222 50.9998 30.2498Z" stroke="url(#paint1_linear_11789_36955)" stroke-linecap="round" stroke-linejoin="round"/>
<path d="M44.2002 42.29C44.0402 42.31 43.8802 42.37 43.7402 42.44" stroke="url(#paint2_linear_11789_36955)" stroke-linecap="round" stroke-linejoin="round"/>
<path d="M44.7999 42.29C46.4999 39.04 46.3199 35.19 44.4999 32.15C43.7766 30.9382 42.8136 29.8867 41.6699 29.06C40.8999 28.5 40.0699 28.06 39.2199 27.73C37.0499 26.91 34.6899 26.86 32.5299 27.5C30.4199 28.14 28.4999 29.44 27.1099 31.36C25.7199 33.28 25.0699 35.51 25.1199 37.71C25.1599 39.97 25.9399 42.19 27.3899 44C27.9599 44.72 28.6299 45.37 29.4099 45.93C30.5899 46.79 31.8799 47.36 33.2199 47.66H33.2299C36.6899 48.45 40.3999 47.43 42.9699 44.81" stroke="url(#paint3_linear_11789_36955)" stroke-linecap="round" stroke-linejoin="round"/>
<path d="M43.25 45.2098C43.39 45.3598 43.56 45.4798 43.74 45.5598C43.2 49.1798 40.8 52.1898 37.54 53.5898H37.53C35.3619 54.5161 32.9442 54.6817 30.67 54.0598C28.42 53.4498 26.48 52.0998 25.12 50.2898C23.79 48.5398 23 46.3598 23 43.9998C23 41.6398 23.79 39.4598 25.12 37.7098C26.48 35.8998 28.42 34.5498 30.67 33.9398C32.9442 33.3179 35.3619 33.4836 37.53 34.4098C40.79 35.7998 43.2 38.8198 43.74 42.4398C43.4045 42.5936 43.1325 42.8585 42.97 43.1898C42.87 43.3598 42.81 43.5498 42.79 43.7598C42.7505 43.9174 42.7505 44.0823 42.79 44.2398C42.81 44.4498 42.87 44.6398 42.97 44.8098C43.04 44.9598 43.14 45.0898 43.25 45.2098Z" stroke="url(#paint4_linear_11789_36955)" stroke-linecap="round" stroke-linejoin="round"/>
<path d="M44.4997 55.8499C43.7765 57.0618 42.8135 58.1132 41.6697 58.9399C40.8997 59.4999 40.0697 59.9399 39.2197 60.2699C37.0497 61.0899 34.6897 61.1399 32.5297 60.4999C30.4197 59.8599 28.4997 58.5599 27.1097 56.6399C25.7685 54.7985 25.0693 52.5675 25.1197 50.2899C25.1597 48.0299 25.9397 45.8099 27.3897 43.9999C27.9597 43.2799 28.6297 42.6299 29.4097 42.0699C30.5897 41.2099 31.8797 40.6399 33.2197 40.3399C36.6797 39.5499 40.3997 40.5699 42.9697 43.1899C42.8697 43.3599 42.8097 43.5499 42.7897 43.7599C42.7502 43.9175 42.7502 44.0824 42.7897 44.2399C42.8097 44.4499 42.8697 44.6399 42.9697 44.8099C43.1322 45.1412 43.4043 45.4062 43.7397 45.5599C43.8797 45.6299 44.0397 45.6899 44.1997 45.7099C44.3978 45.7496 44.6017 45.7496 44.7997 45.7099C46.4997 48.9599 46.3197 52.8099 44.4997 55.8499Z" stroke="url(#paint5_linear_11789_36955)" stroke-linecap="round" stroke-linejoin="round"/>
<path d="M50.9998 57.7499C50.6998 58.6599 50.2898 59.5099 49.7798 60.2699C48.5257 62.1866 46.6674 63.6296 44.4998 64.3699C42.4298 65.1099 40.1098 65.1799 37.8598 64.4499C35.6098 63.7199 33.7898 62.2999 32.5298 60.4999C31.2298 58.6399 30.5498 56.3799 30.6698 54.0599C30.6998 53.1399 30.8598 52.2199 31.1598 51.3099C31.6098 49.9199 32.3198 48.6899 33.2198 47.6599H33.2298C35.5598 44.9899 39.1698 43.6299 42.7898 44.2399C42.8098 44.4499 42.8698 44.6399 42.9698 44.8099C43.1323 45.1412 43.4044 45.4062 43.7398 45.5599C43.8798 45.6299 44.0398 45.6899 44.1998 45.7099C44.3979 45.7496 44.6018 45.7496 44.7998 45.7099C44.9598 45.6899 45.1198 45.6299 45.2598 45.5599C45.4398 45.4799 45.6098 45.3599 45.7498 45.2099C47.9834 46.323 49.7425 48.2019 50.7062 50.5039C51.67 52.8058 51.7742 55.3775 50.9998 57.7499Z" stroke="url(#paint6_linear_11789_36955)" stroke-linecap="round" stroke-linejoin="round"/>
<path d="M56.4702 60.4999C55.2102 62.2999 53.3902 63.7199 51.1402 64.4499C48.8902 65.1799 46.5702 65.1099 44.5002 64.3699C42.3602 63.6399 40.4902 62.2099 39.2202 60.2699C38.7102 59.5099 38.3002 58.6599 38.0002 57.7499C37.5502 56.3599 37.4102 54.9499 37.5302 53.5899H37.5402C37.8502 50.0499 39.9702 46.8399 43.2502 45.2099C43.3902 45.3599 43.5602 45.4799 43.7402 45.5599C43.8802 45.6299 44.0402 45.6899 44.2002 45.7099C44.3982 45.7496 44.6022 45.7496 44.8002 45.7099C44.9602 45.6899 45.1202 45.6299 45.2602 45.5599C45.5957 45.4062 45.8677 45.1412 46.0302 44.8099C46.1302 44.6399 46.1902 44.4499 46.2102 44.2399C49.8302 43.6299 53.4402 44.9899 55.7702 47.6599H55.7802C56.6802 48.6899 57.3902 49.9199 57.8402 51.3099C58.1402 52.2199 58.3002 53.1399 58.3302 54.0599C58.4502 56.3799 57.7702 58.6399 56.4702 60.4999Z" stroke="url(#paint7_linear_11789_36955)" stroke-linecap="round" stroke-linejoin="round"/>
<path d="M63.8796 50.2899C63.9296 52.4899 63.2796 54.7199 61.8896 56.6399C60.5555 58.4866 58.6509 59.843 56.4696 60.4999C54.3096 61.1399 51.9496 61.0899 49.7796 60.2699C48.9296 59.9399 48.0996 59.4999 47.3296 58.9399C46.1858 58.1132 45.2228 57.0618 44.4996 55.8499C42.6796 52.8099 42.4996 48.9599 44.1996 45.7099C44.3976 45.7496 44.6015 45.7496 44.7996 45.7099C44.9596 45.6899 45.1196 45.6299 45.2596 45.5599C45.595 45.4062 45.8671 45.1412 46.0296 44.8099C46.1296 44.6399 46.1896 44.4499 46.2096 44.2399C46.2491 44.0824 46.2491 43.9175 46.2096 43.7599C46.1896 43.5499 46.1296 43.3599 46.0296 43.1899C48.5996 40.5699 52.3196 39.5499 55.7796 40.3399C57.1196 40.6399 58.4096 41.2099 59.5896 42.0699C60.3696 42.6299 61.0396 43.2799 61.6096 43.9999C63.0596 45.8099 63.8396 48.0299 63.8796 50.2899Z" stroke="url(#paint8_linear_11789_36955)" stroke-linecap="round" stroke-linejoin="round"/>
<path d="M65.9998 43.9999C65.9998 46.3599 65.2098 48.5399 63.8798 50.2899C62.5198 52.0999 60.5798 53.4499 58.3298 54.0599C56.0556 54.6818 53.6379 54.5162 51.4698 53.5899C49.8364 52.8913 48.4085 51.7869 47.3217 50.3815C46.2349 48.9762 45.5251 47.3165 45.2598 45.5599C45.5952 45.4062 45.8673 45.1412 46.0298 44.8099C46.1298 44.6399 46.1898 44.4499 46.2098 44.2399C46.2493 44.0824 46.2493 43.9175 46.2098 43.7599C46.1898 43.5499 46.1298 43.3599 46.0298 43.1899C45.8673 42.8586 45.5952 42.5936 45.2598 42.4399C45.4796 40.9834 46.0055 39.5901 46.8029 38.3515C47.6002 37.113 48.6509 36.0575 49.8857 35.2544C51.1205 34.4514 52.5114 33.919 53.9669 33.6925C55.4223 33.4659 56.9093 33.5502 58.3298 33.9399C60.5798 34.5499 62.5198 35.8999 63.8798 37.7099C65.2098 39.4599 65.9998 41.6399 65.9998 43.9999Z" stroke="url(#paint9_linear_11789_36955)" stroke-linecap="round" stroke-linejoin="round"/>
<path d="M63.8796 37.71C63.8396 39.97 63.0596 42.19 61.6096 44C61.0396 44.72 60.3696 45.37 59.5896 45.93C58.4096 46.79 57.1196 47.36 55.7796 47.66H55.7696C52.3096 48.45 48.5996 47.43 46.0296 44.81C46.1296 44.64 46.1896 44.45 46.2096 44.24C46.2491 44.0825 46.2491 43.9176 46.2096 43.76C46.1896 43.55 46.1296 43.36 46.0296 43.19C45.8671 42.8587 45.595 42.5938 45.2596 42.44C45.1196 42.37 44.9596 42.31 44.7996 42.29C44.6015 42.2503 44.3976 42.2503 44.1996 42.29C42.4996 39.04 42.6796 35.19 44.4996 32.15C45.1996 30.97 46.1496 29.92 47.3296 29.06C48.0996 28.5 48.9296 28.06 49.7796 27.73C51.9496 26.91 54.3096 26.86 56.4696 27.5C58.5796 28.14 60.4996 29.44 61.8896 31.36C63.2796 33.28 63.9296 35.51 63.8796 37.71Z" stroke="url(#paint10_linear_11789_36955)" stroke-linecap="round" stroke-linejoin="round"/>
<path d="M58.3298 33.9398C58.2991 34.8752 58.134 35.8013 57.8398 36.6898C57.3898 38.0798 56.6798 39.3098 55.7798 40.3398C54.608 41.6778 53.1139 42.6942 51.439 43.2927C49.7642 43.8913 47.9642 44.052 46.2098 43.7598C46.1898 43.5498 46.1298 43.3598 46.0298 43.1898C45.8673 42.8585 45.5953 42.5935 45.2598 42.4398C45.1198 42.3698 44.9598 42.3098 44.7998 42.2898C44.6018 42.2501 44.3979 42.2501 44.1998 42.2898C44.0398 42.3098 43.8798 42.3698 43.7398 42.4398C43.5598 42.5198 43.3898 42.6398 43.2498 42.7898C41.0163 41.6767 39.2572 39.7978 38.2934 37.4959C37.3297 35.1939 37.2255 32.6222 37.9998 30.2498C38.2998 29.3398 38.7098 28.4898 39.2198 27.7298C40.4898 25.7898 42.3598 24.3598 44.4998 23.6298C46.5698 22.8898 48.8898 22.8198 51.1398 23.5498C53.3898 24.2798 55.2098 25.6998 56.4698 27.4998C57.7698 29.3598 58.4498 31.6198 58.3298 33.9398Z" stroke="url(#paint11_linear_11789_36955)" stroke-linecap="round" stroke-linejoin="round"/>
<defs>
<linearGradient id="paint0_linear_11789_36955" x1="44.5" y1="0" x2="44.5" y2="88" gradientUnits="userSpaceOnUse">
<stop stop-color="#C6C8FD"/>
<stop offset="1" stop-color="#9FE3F8"/>
</linearGradient>
<linearGradient id="paint1_linear_11789_36955" x1="41.0848" y1="23.0371" x2="41.0848" y2="43.904" gradientUnits="userSpaceOnUse">
<stop stop-color="#C6C8FD"/>
<stop offset="1" stop-color="#9FE3F8"/>
</linearGradient>
<linearGradient id="paint2_linear_11789_36955" x1="43.9702" y1="42.29" x2="43.9702" y2="42.44" gradientUnits="userSpaceOnUse">
<stop stop-color="#C6C8FD"/>
<stop offset="1" stop-color="#9FE3F8"/>
</linearGradient>
<linearGradient id="paint3_linear_11789_36955" x1="35.5466" y1="27.0625" x2="35.5466" y2="47.9209" gradientUnits="userSpaceOnUse">
<stop stop-color="#C6C8FD"/>
<stop offset="1" stop-color="#9FE3F8"/>
</linearGradient>
<linearGradient id="paint4_linear_11789_36955" x1="33.37" y1="33.5698" x2="33.37" y2="54.4298" gradientUnits="userSpaceOnUse">
<stop stop-color="#C6C8FD"/>
<stop offset="1" stop-color="#9FE3F8"/>
</linearGradient>
<linearGradient id="paint5_linear_11789_36955" x1="35.5465" y1="40.0791" x2="35.5465" y2="60.9375" gradientUnits="userSpaceOnUse">
<stop stop-color="#C6C8FD"/>
<stop offset="1" stop-color="#9FE3F8"/>
</linearGradient>
<linearGradient id="paint6_linear_11789_36955" x1="41.0848" y1="44.0957" x2="41.0848" y2="64.9626" gradientUnits="userSpaceOnUse">
<stop stop-color="#C6C8FD"/>
<stop offset="1" stop-color="#9FE3F8"/>
</linearGradient>
<linearGradient id="paint7_linear_11789_36955" x1="47.9165" y1="44.0957" x2="47.9165" y2="64.9626" gradientUnits="userSpaceOnUse">
<stop stop-color="#C6C8FD"/>
<stop offset="1" stop-color="#9FE3F8"/>
</linearGradient>
<linearGradient id="paint8_linear_11789_36955" x1="53.4528" y1="40.0791" x2="53.4528" y2="60.9375" gradientUnits="userSpaceOnUse">
<stop stop-color="#C6C8FD"/>
<stop offset="1" stop-color="#9FE3F8"/>
</linearGradient>
<linearGradient id="paint9_linear_11789_36955" x1="55.6298" y1="33.5684" x2="55.6298" y2="54.4299" gradientUnits="userSpaceOnUse">
<stop stop-color="#C6C8FD"/>
<stop offset="1" stop-color="#9FE3F8"/>
</linearGradient>
<linearGradient id="paint10_linear_11789_36955" x1="53.4528" y1="27.0625" x2="53.4528" y2="47.9209" gradientUnits="userSpaceOnUse">
<stop stop-color="#C6C8FD"/>
<stop offset="1" stop-color="#9FE3F8"/>
</linearGradient>
<linearGradient id="paint11_linear_11789_36955" x1="47.9149" y1="23.0371" x2="47.9149" y2="43.9017" gradientUnits="userSpaceOnUse">
<stop stop-color="#C6C8FD"/>
<stop offset="1" stop-color="#9FE3F8"/>
</linearGradient>
</defs>
</svg>
