<svg width="89" height="88" viewBox="0 0 89 88" fill="none" xmlns="http://www.w3.org/2000/svg">
<rect x="1" y="0.5" width="87" height="87" rx="11.5" fill="#141414"/>
<rect x="1" y="0.5" width="87" height="87" rx="11.5" stroke="url(#paint0_linear_11789_37098)"/>
<path d="M59.7449 46.002C59.8319 45.338 59.8789 44.67 59.8849 44C59.8788 43.3305 59.832 42.6619 59.7449 41.998L64.0789 38.605C64.2747 38.4556 64.4084 38.2393 64.4546 37.9973C64.5007 37.7554 64.4559 37.505 64.3289 37.294L60.2249 30.177C60.1059 29.9637 59.9131 29.8012 59.6827 29.7202C59.4523 29.6391 59.2002 29.6451 58.9739 29.737L53.8589 31.798C52.7947 30.9857 51.6309 30.3129 50.3959 29.796L49.6249 24.361C49.5909 24.1206 49.4706 23.9007 49.2864 23.7425C49.1022 23.5842 48.8667 23.4984 48.6239 23.501H40.3959C40.1531 23.4986 39.9177 23.5845 39.7336 23.7427C39.5494 23.9009 39.4291 24.1207 39.3949 24.361L38.6249 29.796C37.388 30.3097 36.2234 30.9827 35.1609 31.798L30.0259 29.736C29.7994 29.6438 29.5471 29.6377 29.3165 29.7187C29.0858 29.7998 28.8928 29.9625 28.7739 30.176L24.6699 37.294C24.5427 37.5051 24.4979 37.7557 24.5441 37.9978C24.5902 38.2399 24.724 38.4565 24.9199 38.606L29.2449 41.999C29.158 42.6626 29.1113 43.3308 29.1049 44C29.1109 44.67 29.1579 45.338 29.2449 46.002L24.9199 49.395C24.7241 49.5444 24.5903 49.7608 24.5442 50.0027C24.498 50.2446 24.5428 50.4951 24.6699 50.706L28.7729 57.823C28.8917 58.0368 29.0847 58.1996 29.3154 58.2806C29.5461 58.3617 29.7985 58.3555 30.0249 58.263L35.1399 56.202C36.2041 57.0144 37.3678 57.6872 38.6029 58.204L39.3729 63.639C39.4069 63.8797 39.5273 64.0997 39.7117 64.2579C39.8961 64.4162 40.1319 64.5019 40.3749 64.499H48.5829C48.8256 64.5016 49.0609 64.4158 49.245 64.2575C49.429 64.0993 49.5491 63.8794 49.5829 63.639L50.3549 58.204C51.5914 57.6903 52.7556 57.0173 53.8179 56.202L58.9329 58.264C59.1591 58.3562 59.4113 58.3623 59.6418 58.2812C59.8723 58.2002 60.0651 58.0375 60.1839 57.824L64.2879 50.706C64.4144 50.4951 64.4589 50.245 64.4128 50.0033C64.3667 49.7617 64.2332 49.5455 64.0379 49.396L59.7449 46.002Z" stroke="url(#paint1_linear_11789_37098)" stroke-linecap="round" stroke-linejoin="round"/>
<path d="M44.5003 56.0118C51.1343 56.0118 56.5123 50.6338 56.5123 43.9998C56.5123 37.3657 51.1343 31.9878 44.5003 31.9878C37.8662 31.9878 32.4883 37.3657 32.4883 43.9998C32.4883 50.6338 37.8662 56.0118 44.5003 56.0118Z" stroke="url(#paint2_linear_11789_37098)" stroke-linecap="round" stroke-linejoin="round"/>
<path d="M38.9952 53.509C41.2066 53.509 42.9992 51.7163 42.9992 49.505C42.9992 47.2936 41.2066 45.501 38.9952 45.501C36.7839 45.501 34.9912 47.2936 34.9912 49.505C34.9912 51.7163 36.7839 53.509 38.9952 53.509Z" stroke="url(#paint3_linear_11789_37098)" stroke-linecap="round" stroke-linejoin="round"/>
<path d="M33.1602 40.1681C35.2714 38.8484 37.7677 38.2832 40.2416 38.5648C42.7154 38.8465 45.0208 39.9583 46.7814 41.7189C48.5419 43.4795 49.6538 45.7848 49.9354 48.2587C50.2171 50.7326 49.6519 53.2288 48.3322 55.3401" stroke="url(#paint4_linear_11789_37098)" stroke-linecap="round" stroke-linejoin="round"/>
<defs>
<linearGradient id="paint0_linear_11789_37098" x1="44.5" y1="0" x2="44.5" y2="88" gradientUnits="userSpaceOnUse">
<stop stop-color="#CDFFCF"/>
<stop offset="1" stop-color="#A6E9FF"/>
</linearGradient>
<linearGradient id="paint1_linear_11789_37098" x1="44.4993" y1="23.501" x2="44.4993" y2="64.4991" gradientUnits="userSpaceOnUse">
<stop stop-color="#CDFFCF"/>
<stop offset="1" stop-color="#A6E9FF"/>
</linearGradient>
<linearGradient id="paint2_linear_11789_37098" x1="44.5003" y1="31.9878" x2="44.5003" y2="56.0118" gradientUnits="userSpaceOnUse">
<stop stop-color="#CDFFCF"/>
<stop offset="1" stop-color="#A6E9FF"/>
</linearGradient>
<linearGradient id="paint3_linear_11789_37098" x1="38.9952" y1="45.501" x2="38.9952" y2="53.509" gradientUnits="userSpaceOnUse">
<stop stop-color="#CDFFCF"/>
<stop offset="1" stop-color="#A6E9FF"/>
</linearGradient>
<linearGradient id="paint4_linear_11789_37098" x1="41.5831" y1="38.4941" x2="41.5831" y2="55.3401" gradientUnits="userSpaceOnUse">
<stop stop-color="#CDFFCF"/>
<stop offset="1" stop-color="#A6E9FF"/>
</linearGradient>
</defs>
</svg>
