<svg width="108" height="45" viewBox="0 0 108 45" fill="none" xmlns="http://www.w3.org/2000/svg">
<path d="M7.52527 34.472V44.472H3.85527V34.472H0.155273V31.272H11.2253V34.472H7.52527ZM19.7853 40.512H13.9353C13.9304 40.7298 13.9713 40.9463 14.0552 41.1474C14.1392 41.3485 14.2643 41.5298 14.4226 41.6796C14.5808 41.8294 14.7688 41.9444 14.9742 42.0171C15.1796 42.0899 15.398 42.1188 15.6153 42.102C16.5184 42.0971 17.4045 41.8558 18.1853 41.402L19.5153 43.602C18.3122 44.3427 16.9281 44.7371 15.5153 44.742C12.5153 44.742 10.8853 42.622 10.8853 39.582C10.8853 36.162 12.8153 34.402 15.4153 34.402C18.0153 34.402 19.8353 36.202 19.8353 39.882C19.7953 40.122 19.7953 40.332 19.7853 40.502V40.512ZM15.2853 36.882C14.5053 36.882 14.0853 37.412 13.9653 38.402H16.7953C16.6253 37.402 16.2953 36.882 15.2953 36.882H15.2853ZM26.1053 44.712C23.2053 44.712 21.4653 42.862 21.4653 39.512C21.4653 36.512 23.0053 34.372 26.1853 34.372C26.9673 34.3461 27.7406 34.5429 28.4151 34.9394C29.0896 35.336 29.6376 35.916 29.9953 36.612L27.6553 38.412C27.1853 37.552 26.8553 37.132 26.1253 37.132C25.3953 37.132 24.8253 38.002 24.8253 39.572C24.8253 41.142 25.2953 41.952 26.2253 41.952C26.8653 41.952 27.3253 41.592 27.9453 40.652L30.0953 42.332C28.9353 44.032 27.8653 44.702 26.0953 44.702L26.1053 44.712ZM37.7053 44.512V38.882C37.7053 37.582 37.2753 37.252 36.5753 37.252C35.8753 37.252 35.4153 37.592 35.4153 38.852V44.522H32.0153V32.122L35.4153 30.762V35.262C36.1192 34.6848 37.0052 34.3765 37.9153 34.392C40.0853 34.392 41.1153 35.852 41.1153 38.452V44.522L37.7053 44.512Z" fill="white"/>
<path d="M49.2656 44.7119C45.3356 44.7119 43.2656 41.8119 43.2656 37.8919C43.2656 33.6419 45.7656 31.0719 49.2656 31.0719C52.5156 31.0719 53.7956 32.4719 54.7056 34.9719L51.3856 36.2719C50.9056 35.0419 50.4556 34.2719 49.2456 34.2719C47.7156 34.2719 47.0456 35.8019 47.0456 37.9019C47.0456 40.0019 47.6856 41.5219 49.2756 41.5219C50.4256 41.5219 50.9156 40.9019 51.6356 39.6519L54.7356 41.3019C54.2766 42.3603 53.5067 43.2542 52.528 43.865C51.5493 44.4758 50.4081 44.7746 49.2556 44.7219L49.2656 44.7119ZM63.1256 38.3119C62.938 38.0675 62.6995 37.8668 62.4267 37.7235C62.154 37.5802 61.8533 37.4978 61.5456 37.4819C60.7156 37.4819 60.2056 37.8819 60.2056 39.0819V44.4819H56.8056V34.5819H60.2056V35.3019C60.6751 34.8064 61.2996 34.4857 61.976 34.393C62.6523 34.3003 63.3401 34.441 63.9256 34.7919L63.1256 38.3119ZM71.2256 44.4919V43.8319C70.5305 44.4108 69.65 44.7197 68.7456 44.7019C66.5756 44.7019 65.5456 43.2419 65.5456 40.6319V34.6019H68.9456V40.2019C68.9456 41.4819 69.3856 41.8219 70.0856 41.8219C70.7856 41.8219 71.2156 41.4819 71.2156 40.2419V34.6019H74.6356V44.5219L71.2256 44.4919ZM82.7856 44.4919V38.8619C82.7856 37.5619 82.3456 37.2319 81.6556 37.2319C80.9656 37.2319 80.4956 37.5719 80.4956 38.8319V44.5019H77.0956V34.6019H80.4956V35.2619C81.1995 34.6848 82.0855 34.3765 82.9956 34.3919C85.1656 34.3919 86.1956 35.8519 86.1956 38.4519V44.5219L82.7856 44.4919ZM92.8356 44.6919C89.9356 44.6919 88.1856 42.8419 88.1856 39.4919C88.1856 36.4919 89.7356 34.3519 92.9056 34.3519C93.6887 34.3277 94.4626 34.5251 95.1384 34.9214C95.8143 35.3177 96.3644 35.8968 96.7256 36.5919L94.3856 38.3619C93.9056 37.5019 93.5856 37.0819 92.8556 37.0819C92.1256 37.0819 91.5556 37.9519 91.5556 39.5219C91.5556 41.0919 92.0256 41.9019 92.9556 41.9019C93.5956 41.9019 94.0556 41.5419 94.6756 40.6019L96.8256 42.2819C95.6756 44.0219 94.5956 44.6819 92.8456 44.6819L92.8356 44.6919ZM104.436 44.4919V38.8619C104.436 37.5619 104.006 37.2319 103.306 37.2319C102.606 37.2319 102.156 37.5719 102.156 38.8319V44.5019H98.7556V32.1019L102.156 30.7419V35.2419C102.855 34.6632 103.738 34.3545 104.646 34.3719C106.826 34.3719 107.846 35.8319 107.846 38.4319V44.5019L104.436 44.4919Z" fill="white"/>
<path d="M28.5195 0.257935V8.19393H36.4445V24.0539H44.3805V8.19393H52.3055V0.257935H28.5195ZM60.2415 16.1179V8.19293H52.3045V24.0529H76.1015V16.1169L60.2415 16.1179ZM60.2415 0.257935H76.1015V8.19393H60.2415V0.257935Z" fill="white"/>
</svg>
