<svg width="206" height="37" viewBox="0 0 206 37" fill="none" xmlns="http://www.w3.org/2000/svg">
<path d="M196.268 13.5501L198.243 19.6109H194.021L196.404 13.5501H196.268ZM187.245 26.2504H192.046L193.17 23.152H199.23L200.354 26.2504H205.155L198.515 8.613H193.851L187.245 26.2504ZM181.593 26.2504H186.394V8.613H181.593V26.2504ZM166.067 20.1897C166.067 24.4118 169.437 26.2504 173.387 26.2504C177.064 26.2504 180.708 24.8544 180.708 20.5983C180.708 17.4998 178.154 16.3762 175.771 15.6612C173.081 14.9461 170.697 14.9461 170.697 13.5501C170.697 12.4265 172.093 12.1541 172.808 12.1541C174.204 12.1541 175.634 12.5627 175.634 14.129H179.856C179.856 10.3155 176.486 8.47681 173.081 8.47681C169.846 8.47681 166.032 9.87281 166.032 13.8225C166.032 16.921 168.859 18.0446 171.106 18.6234C173.659 19.3385 176.043 19.6109 176.043 21.1771C176.043 22.5731 174.647 22.8796 173.217 22.8796C171.378 22.8796 170.118 22.1645 170.118 20.0535H165.896L166.067 20.1897ZM158.031 13.5501L160.006 19.6109H155.784L158.167 13.5501H158.031ZM149.178 26.2504H153.843L154.967 23.152H161.163L162.287 26.2504H167.088L160.448 8.613H155.647L149.178 26.2504ZM133.652 26.2504H135.49V11.3029L145.773 26.2504H147.748V8.613H146.046V23.4244L135.627 8.78325H133.652V26.2504ZM129.974 26.2504H131.677V8.613H129.974V26.2504ZM112.507 26.2504H117.138V19.2023H123.199V26.2504H127.727V8.613H123.199V14.9461H117.138V8.78325H112.473V26.2504H112.507ZM111.077 14.9802C111.077 11.0305 107.264 8.64705 103.62 8.64705C98.5472 8.64705 95.1763 12.5967 95.1763 17.5339C95.1763 22.3348 98.5472 26.2845 103.62 26.2845C107.843 26.2845 111.077 23.7308 111.384 19.2363H107.162C106.889 21.3474 105.766 22.471 103.62 22.471C100.794 22.471 99.6708 19.9173 99.6708 17.5339C99.6708 14.9802 100.794 12.4605 103.62 12.4605C105.459 12.4605 106.855 13.3118 106.991 15.0142H111.213H111.077V14.9802ZM80.5012 26.2504H94.8699V22.3007H84.9957V18.9299H93.7463V15.3888H85.3021V12.1541H94.5975V8.78325H80.5012V26.2504ZM79.0711 8.613H64.2598V12.5627H69.4693V26.2504H74.134V12.5627H79.3435V8.613H79.0711Z" fill="white"/>
<path d="M36.476 15.2526C36.8846 15.525 37.3272 15.2526 37.191 14.6738L34.9438 10.7241H34.0926L19.9962 35.6821C19.4174 36.2609 18.6002 36.2609 18.2938 35.6821L13.4929 27.6465L13.2205 26.5229V19.4747C13.2205 18.7597 12.9481 18.3511 12.5054 18.0787L1.23519 8.20445C0.520159 7.79587 0.826601 6.80845 1.81402 6.80845H21.9711L26.9082 9.63452C27.1806 9.90691 27.1806 10.2134 26.9082 10.3496L24.9333 14.0268C24.9333 14.2992 24.661 14.4354 24.5248 14.2992L20.5751 12.1882L19.7238 11.9158H14.4803C14.0717 11.9158 13.9014 12.4946 14.2079 12.767L17.749 15.5931C18.1576 16.0017 18.3278 16.5805 18.3278 16.9891V26.2845C18.3278 26.8634 19.0429 26.9996 19.3152 26.5569L33.9904 1.19035C34.2628 0.781764 35.3864 0.781764 35.3864 1.19035L50.4702 27.2719C51.1852 28.1232 50.1978 28.9744 49.3465 28.668L31.8453 18.3851C31.5729 18.3851 31.4367 17.9765 31.5729 17.8063L33.684 14.2652C33.684 13.9928 34.0926 13.9928 34.399 13.9928L36.51 15.3888V15.2526H36.476Z" fill="white"/>
</svg>
