<svg width="122" height="49" viewBox="0 0 122 49" fill="none" xmlns="http://www.w3.org/2000/svg">
<g clip-path="url(#clip0_11758_50434)">
<mask id="mask0_11758_50434" style="mask-type:alpha" maskUnits="userSpaceOnUse" x="0" y="0" width="40" height="49">
<path d="M0.357422 25.6665V24.8935C0.555034 22.2382 2.77211 20.1452 5.47814 20.1452C8.31396 20.1452 10.6129 22.4442 10.6129 25.28C10.6129 27.1895 9.56865 28.8518 8.02238 29.7366V43.1429H30.8981V17.226H26.248V38.9244H12.6958V17.226H3.02584V3.36669H29.6895C30.5403 1.70675 32.2648 0.568359 34.2583 0.568359C37.0941 0.568359 39.3931 2.86734 39.3931 5.70317C39.3931 8.53923 37.0941 10.8382 34.2583 10.8382C32.3968 10.8382 30.7718 9.84454 29.8712 8.36203H7.6582V12.8776H17.044V34.5762H21.8996V12.8776H35.8944V48.0232H3.02584V29.7925C1.53442 28.9804 0.490183 27.4505 0.357422 25.6665ZM5.47814 27.2248C6.55205 27.2248 7.42274 26.3541 7.42274 25.28C7.42274 24.2061 6.55205 23.3354 5.47814 23.3354C4.40399 23.3354 3.5333 24.2061 3.5333 25.28C3.5333 26.3541 4.40399 27.2248 5.47814 27.2248ZM34.2583 3.75857C33.1842 3.75857 32.3135 4.62925 32.3135 5.70317C32.3135 6.77731 33.1842 7.648 34.2583 7.648C35.3322 7.648 36.2029 6.77731 36.2029 5.70317C36.2029 4.62925 35.3322 3.75857 34.2583 3.75857Z" fill="white"/>
</mask>
<g mask="url(#mask0_11758_50434)">
<path fill-rule="evenodd" clip-rule="evenodd" d="M0.357422 48.4993H121.617V0.568359H0.357422V48.4993Z" fill="white"/>
</g>
<path fill-rule="evenodd" clip-rule="evenodd" d="M57.011 15.8752H52.9387V27.3181H49.4576V15.8752H45.3848V12.9023H57.011V15.8752Z" fill="white"/>
<path fill-rule="evenodd" clip-rule="evenodd" d="M59.1495 21.0885H63.4449C63.4449 20.5323 63.2718 20.0705 62.9262 19.7039C62.5802 19.3373 62.0876 19.1544 61.4502 19.1544C60.8255 19.1544 60.2958 19.3443 59.8614 19.7244C59.4273 20.1046 59.1896 20.5593 59.1495 21.0885ZM66.52 22.3711C66.52 22.7379 66.5131 23.0025 66.4995 23.1654H59.1495C59.2028 23.7084 59.4681 24.1634 59.9433 24.5295C60.4178 24.8963 60.9616 25.0792 61.5722 25.0792C62.5494 25.0792 63.2954 24.7267 63.8115 24.0206L66.1329 25.4864C65.1421 26.9256 63.6078 27.6444 61.5311 27.6444C59.9433 27.6444 58.6158 27.1664 57.5502 26.2097C56.4849 25.2523 55.9521 23.9461 55.9521 22.2897C55.9521 20.6608 56.4716 19.3476 57.5101 18.3499C58.5482 17.3524 59.8545 16.8535 61.4296 16.8535C62.9501 16.8535 64.1783 17.3457 65.1147 18.3298C66.052 19.3142 66.52 20.6608 66.52 22.3711Z" fill="white"/>
<path fill-rule="evenodd" clip-rule="evenodd" d="M77.5155 18.2176L75.5795 20.4576C75.4035 20.2133 75.1501 20.0165 74.8162 19.867C74.4843 19.7178 74.1473 19.643 73.8092 19.643C73.1166 19.643 72.5533 19.8976 72.1189 20.4062C71.6845 20.9154 71.4675 21.5301 71.4675 22.2493C71.4675 22.9689 71.6845 23.5797 72.1189 24.0817C72.5533 24.5839 73.1293 24.8349 73.85 24.8349C74.6369 24.8349 75.2411 24.5839 75.6614 24.0817L77.5155 26.3418C76.6183 27.2105 75.3703 27.6444 73.7681 27.6444C72.1254 27.6444 70.7687 27.1561 69.6955 26.1789C68.6235 25.2015 68.0869 23.8918 68.0869 22.2493C68.0869 20.6341 68.6266 19.3306 69.7065 18.3401C70.7859 17.3493 72.1332 16.8535 73.7478 16.8535C74.4669 16.8535 75.1768 16.9791 75.8756 17.2301C76.5741 17.4816 77.1205 17.8104 77.5155 18.2176Z" fill="white"/>
<path fill-rule="evenodd" clip-rule="evenodd" d="M88.876 27.3187H85.516V21.8212C85.516 20.3955 85.0203 19.6832 84.0287 19.6832C83.4733 19.6832 83.031 19.8871 82.7053 20.2943C82.3795 20.7014 82.2174 21.2172 82.2174 21.8415V27.3187H78.8779V11.9258H82.2174V18.4614H82.2582C82.5023 18.027 82.8815 17.6574 83.3978 17.3519C83.9139 17.0463 84.504 16.8937 85.1698 16.8937C86.4459 16.8937 87.3823 17.2977 87.9788 18.1051C88.5768 18.9132 88.876 19.8935 88.876 21.0475V27.3187Z" fill="white"/>
<path fill-rule="evenodd" clip-rule="evenodd" d="M58.9856 42.6765C58.9856 44.414 58.419 45.8192 57.2861 46.8912C56.1522 47.9637 54.6492 48.4993 52.7755 48.4993C50.9028 48.4993 49.4093 47.9672 48.2967 46.9012C47.1831 45.8359 46.627 44.4272 46.627 42.6765V33.6974H50.0884V42.3916C50.0884 43.2463 50.3117 43.956 50.7604 44.5194C51.2082 45.0827 51.8864 45.3645 52.796 45.3645C53.719 45.3645 54.4013 45.0827 54.8426 44.5194C55.2832 43.956 55.5046 43.2463 55.5046 42.3916V33.6974H58.9856V42.6765Z" fill="white"/>
<path fill-rule="evenodd" clip-rule="evenodd" d="M68.4335 42.5552L72.5064 48.1139H68.3722L65.0535 43.247H64.9921V48.1139H61.6328V32.7207H64.9921V42.0869H65.0535L68.2903 37.974H72.3428L68.4335 42.5552Z" fill="white"/>
<path fill-rule="evenodd" clip-rule="evenodd" d="M80.4456 37.7695L80.3043 40.7016C80.0461 40.6335 79.761 40.5999 79.4481 40.5999C78.6469 40.5999 78.0504 40.8477 77.6571 41.3428C77.2635 41.8383 77.0668 42.3577 77.0668 42.9008V48.1132H73.7275V37.9732H76.944V39.439H76.9851C77.243 38.9098 77.6163 38.4855 78.1041 38.166C78.5934 37.8474 79.1363 37.6876 79.7328 37.6876C80.0585 37.6876 80.2961 37.7151 80.4456 37.7695Z" fill="white"/>
<path fill-rule="evenodd" clip-rule="evenodd" d="M87.4508 44.0418V43.6957H87.0226C84.9469 43.6957 83.9081 44.1566 83.9081 45.0798C83.9081 45.433 84.05 45.6943 84.3363 45.8636C84.6212 46.0334 84.9596 46.1184 85.3529 46.1184C86.0187 46.1184 86.5347 45.9319 86.9015 45.5582C87.2684 45.1852 87.4508 44.6801 87.4508 44.0418ZM83.0126 41.1706L81.3226 39.3585C82.5297 38.218 84.0373 37.6484 85.8424 37.6484C87.5122 37.6484 88.7067 38.0726 89.426 38.921C90.1452 39.769 90.5054 41.1298 90.5054 43.0032V48.1141H87.4508V47.0342H87.3894C87.1454 47.4419 86.7583 47.7645 86.2296 48.0014C85.6992 48.239 85.1296 48.3579 84.519 48.3579C83.9208 48.3579 83.3622 48.2665 82.8397 48.0833C82.3155 47.8999 81.8513 47.5577 81.4436 47.0548C81.0377 46.5528 80.833 45.9288 80.833 45.182C80.833 42.9017 83.005 41.7614 87.3486 41.7614V41.5988C87.3486 41.1233 87.1786 40.7606 86.8402 40.5089C86.5004 40.2576 86.0595 40.1318 85.5167 40.1318C84.593 40.1318 83.7586 40.4781 83.0126 41.1706Z" fill="white"/>
<path fill-rule="evenodd" clip-rule="evenodd" d="M93.0299 48.1141H96.3677V37.9741H93.0299V48.1141ZM96.6134 34.7362C96.6134 35.2525 96.426 35.6869 96.0532 36.0393C95.6799 36.3925 95.2286 36.5688 94.6996 36.5688C94.1693 36.5688 93.7177 36.3894 93.3447 36.0291C92.9719 35.6701 92.7842 35.2391 92.7842 34.7362C92.7842 34.2476 92.9719 33.8204 93.3447 33.4536C93.7177 33.0867 94.1693 32.9043 94.6996 32.9043C95.2286 32.9043 95.6799 33.0836 96.0532 33.4433C96.426 33.8036 96.6134 34.2342 96.6134 34.7362Z" fill="white"/>
<path fill-rule="evenodd" clip-rule="evenodd" d="M109.033 48.1131H105.673V42.5747C105.673 41.149 105.171 40.4369 104.167 40.4369C103.596 40.4369 103.155 40.647 102.843 41.068C102.531 41.4888 102.375 42.0044 102.375 42.6148V48.1131H99.0146V37.9731H102.252V39.3778H102.293C102.538 38.9023 102.935 38.5021 103.484 38.1761C104.033 37.8504 104.649 37.6875 105.327 37.6875C106.589 37.6875 107.522 38.092 108.127 38.8994C108.731 39.7073 109.033 40.6879 109.033 41.8415V48.1131Z" fill="white"/>
<path fill-rule="evenodd" clip-rule="evenodd" d="M114.245 41.8834H118.542C118.542 41.3272 118.368 40.8652 118.022 40.4986C117.676 40.1318 117.183 39.9493 116.546 39.9493C115.921 39.9493 115.392 40.1389 114.958 40.5189C114.524 40.8991 114.286 41.3538 114.245 41.8834ZM121.617 43.166C121.617 43.5326 121.609 43.7972 121.596 43.9601H114.245C114.299 44.5031 114.565 44.9578 115.04 45.3244C115.514 45.6912 116.058 45.8736 116.669 45.8736C117.646 45.8736 118.392 45.5212 118.908 44.8152L121.23 46.2813C120.238 47.7206 118.704 48.4396 116.628 48.4396C115.04 48.4396 113.712 47.9613 112.646 47.0044C111.581 46.0468 111.049 44.7407 111.049 43.0841C111.049 41.4555 111.568 40.1421 112.607 39.1443C113.644 38.1473 114.95 37.6484 116.525 37.6484C118.046 37.6484 119.275 38.1401 120.211 39.1245C121.148 40.1089 121.617 41.4555 121.617 43.166Z" fill="white"/>
</g>
<defs>
<clipPath id="clip0_11758_50434">
<rect width="121.313" height="48" fill="white" transform="translate(0.34375 0.5)"/>
</clipPath>
</defs>
</svg>
