<svg width="122" height="33" viewBox="0 0 122 33" fill="none" xmlns="http://www.w3.org/2000/svg">
<path d="M11.8146 3.48862H14.4844C16.1103 3.24849 17.7707 3.45961 19.2853 4.09903C21.1855 5.24511 22.5637 7.09018 23.126 9.24063C23.5241 10.3676 23.5241 10.3676 24.4843 9.96844H25.2337V1.04694H0.105149V2.61994H1.13558C1.58337 2.61683 2.02615 2.71434 2.43142 2.90529C2.83668 3.09624 3.19412 3.37579 3.47748 3.72339C4.43766 5.27292 4.60159 7.01026 4.60159 16.0491C4.60159 25.6515 4.39082 27.9993 3.47748 29.1966C3.252 29.5044 2.96008 29.7572 2.6235 29.9361C2.28692 30.115 1.91439 30.2153 1.53371 30.2296C0.105149 30.4879 0.105149 30.4644 0.105149 31.0983C0.0261483 31.3103 0.0261483 31.5437 0.105149 31.7557H15.9598C16.0647 31.5483 16.1194 31.3191 16.1194 31.0866C16.1194 30.854 16.0647 30.6248 15.9598 30.4174C15.5758 30.3103 15.1844 30.2319 14.7888 30.1827C14.3609 30.1317 13.9379 30.0453 13.5242 29.9244C12.9318 29.4908 12.4624 28.9097 12.1626 28.2385C11.8628 27.5674 11.7428 26.8294 11.8146 26.0976C11.5804 24.548 11.4634 21.7072 11.4634 19.3595V17.5048H12.4001C13.5672 17.469 14.7336 17.5954 15.8661 17.8804C16.4087 18.2165 16.8705 18.6685 17.2186 19.2043C17.5668 19.74 17.7927 20.3461 17.8801 20.9794L18.0909 21.7072H19.5195V11.3067H18.208L17.9972 12.3162C17.9086 12.9639 17.6696 13.5817 17.2994 14.1199C16.9293 14.6581 16.4384 15.1018 15.8661 15.4152C15.3119 15.5806 14.728 15.6207 14.1565 15.5326H11.4634V12.9971C11.4634 10.3676 11.6039 4.82684 11.6975 3.95817L11.8146 3.48862ZM121.415 22.1064C120.308 20.3202 118.582 19.0074 116.568 18.4204C115.024 17.9365 113.596 17.1371 112.376 16.0726C112.101 15.8063 111.896 15.4767 111.777 15.1124C111.659 14.7482 111.631 14.3605 111.697 13.9831C111.698 13.2428 111.993 12.5335 112.516 12.011C112.871 11.6388 113.319 11.3701 113.814 11.2336C114.309 11.0972 114.832 11.0981 115.326 11.2362C116.35 11.5287 117.276 12.0934 118.006 12.8705C118.736 13.6475 119.242 14.6079 119.472 15.65C119.846 16.7065 119.893 16.7065 120.572 16.4248L120.994 16.2604V10.4145L120.689 10.2736C118.384 9.46186 115.938 9.12644 113.5 9.28759C111.4 9.34093 109.396 10.1782 107.879 11.6354C107.192 12.2807 106.653 13.069 106.301 13.945C105.949 14.821 105.792 15.7635 105.842 16.7065C105.855 18.1483 106.426 19.5287 107.434 20.5568C108.549 21.6556 109.916 22.462 111.416 22.9046C115.045 24.3367 116.099 25.2524 116.099 26.9193C116.115 27.6222 115.892 28.3096 115.466 28.8685C115.04 29.4274 114.438 29.8246 113.757 29.9948C112.94 30.1749 112.093 30.1749 111.275 29.9948C110.204 29.5783 109.248 28.9114 108.487 28.0498C107.725 27.1882 107.18 26.1567 106.896 25.0411L106.591 24.2898H106.17C105.968 24.3048 105.771 24.3524 105.584 24.4307H105.35V31.0983H105.748C107.33 31.6259 108.963 31.9879 110.619 32.1783H112.961C113.977 32.253 114.998 32.1578 115.982 31.8965C117.232 31.6653 118.4 31.1103 119.369 30.2865C120.339 29.4628 121.077 28.3991 121.509 27.201C121.789 26.5319 121.932 25.8135 121.931 25.088C122.023 24.066 121.845 23.0377 121.415 22.1064ZM99.3548 9.96844C97.9514 9.37777 96.4393 9.09124 94.9177 9.12765C93.3962 9.16407 91.8994 9.5226 90.5258 10.1797C89.2346 10.8129 88.0902 11.7104 87.1665 12.8144C86.2427 13.9184 85.5602 15.2043 85.1629 16.5891C84.6563 18.0998 84.4417 19.6934 84.5305 21.2847C84.5138 22.1504 84.5844 23.0157 84.7413 23.8672C85.1195 25.9609 86.1278 27.8885 87.6307 29.391C89.1336 30.8935 91.0592 31.8989 93.1487 32.2722C94.5095 32.444 95.8863 32.444 97.247 32.2722C98.659 32.0227 100.01 31.5047 101.228 30.7461C102.236 30.18 103.088 29.3736 103.711 28.3984C103.671 28.2454 103.6 28.102 103.504 27.9769C103.407 27.8519 103.286 27.7477 103.149 27.6706C102.881 27.7676 102.629 27.902 102.399 28.0697C101.234 28.8393 99.8589 29.2251 98.4648 29.1731C97.5395 29.2358 96.6119 29.0914 95.7491 28.7503C94.8864 28.4092 94.1101 27.88 93.4766 27.201C92.9865 26.7447 92.582 26.204 92.2822 25.6045C91.5545 24.145 91.1624 22.5405 91.1347 20.909V19.9934H104.109V19.5238C104.137 19.0547 104.137 18.5843 104.109 18.1152C104.104 16.4574 103.662 14.8305 102.827 13.3996C101.992 11.9687 100.794 10.7849 99.3548 9.96844ZM92.8209 18.0917H91.1815V16.7065C91.7202 13.1614 93.055 11.0484 94.6944 11.0484C96.3337 11.0484 97.0363 13.1379 97.3407 16.9648V18.0447H95.9356L92.8209 18.0917ZM59.1444 9.19368C58.3352 9.16222 57.5307 9.33157 56.8025 9.68671C55.2197 10.4573 53.9412 11.739 53.1725 13.3257L52.8681 13.8892V9.19368H52.751C52.47 9.19368 43.805 10.931 43.5239 11.0484C43.2429 11.1658 43.3366 11.1893 43.3366 11.6119C43.3366 12.0345 43.3366 12.1049 43.5239 12.1284L44.4373 12.3162C44.6931 12.3225 44.9441 12.3871 45.1713 12.505C45.3985 12.623 45.596 12.7912 45.7487 12.9971C46.3342 13.7718 46.4513 15.1335 46.4513 20.9325C46.567 23.5431 46.4573 26.1589 46.1234 28.7505C46.0448 29.1413 45.8472 29.498 45.5577 29.7714C45.2683 30.0447 44.9013 30.2212 44.5075 30.2766L43.7113 30.4409H43.4068V31.0983C43.3219 31.3173 43.3219 31.5602 43.4068 31.7791H56.498V31.0983C56.5435 30.8736 56.5435 30.6421 56.498 30.4174C55.7098 30.3867 54.926 30.2845 54.1561 30.1122C53.7369 29.8924 53.3939 29.5504 53.1724 29.1313C52.9508 28.7122 52.861 28.2357 52.9149 27.7645C52.7276 26.4028 52.6339 22.4116 52.6807 19.3595C52.7276 16.3074 52.6807 16.1196 52.9384 15.9083C53.722 15.3059 54.6917 14.9985 55.6784 15.0396C56.6084 15.0599 57.5215 15.2928 58.3481 15.7205C58.6347 15.88 58.9421 15.9985 59.2615 16.0726C59.2615 16.0726 61.6034 10.391 61.6034 10.1328C61.3037 9.78366 60.9219 9.51495 60.4925 9.35098C60.0632 9.18701 59.5998 9.13294 59.1444 9.19368ZM43.36 19.0543C43.2783 17.3766 42.7978 15.7427 41.9586 14.2889C41.1195 12.8351 39.9459 11.6033 38.5357 10.6962C36.8598 9.78989 34.9953 9.29014 33.0918 9.23713C31.1884 9.18412 29.2991 9.57934 27.5756 10.391C25.1388 11.6792 23.299 13.869 22.4468 16.4952C21.5667 19.4356 21.5667 22.5703 22.4468 25.5106C22.9083 27.1176 23.7707 28.5801 24.9527 29.7601C26.4248 31.2001 28.323 32.1227 30.3625 32.3896C31.6716 32.4993 32.9877 32.4993 34.2968 32.3896C34.7786 32.3161 35.2556 32.2142 35.7254 32.0844C37.6316 31.5498 39.3466 30.482 40.6696 29.006C41.9926 27.5301 42.8689 25.7069 43.1961 23.7498C43.4299 22.1961 43.4849 20.6206 43.36 19.0543ZM33.6177 30.7931C31.2758 31.4974 29.5194 29.2201 28.9339 24.4307C28.7189 21.9232 28.7189 19.4018 28.9339 16.8943C29.4023 13.044 30.5967 11.0954 32.4468 11.0954C32.82 11.0722 33.1934 11.1389 33.5356 11.2901C33.8779 11.4412 34.1791 11.6723 34.4139 11.964C35.983 13.537 36.7558 16.6596 36.7558 21.3551C36.9507 24.0125 36.5341 26.6792 35.5381 29.1497C35.0983 29.8701 34.4178 30.4109 33.6177 30.6757V30.7931ZM75.7719 9.66323C75.111 9.57798 74.442 9.57798 73.7812 9.66323C72.5127 9.66215 71.2589 9.93437 70.1045 10.4615L69.3785 10.7667V5.67203C69.5053 3.95269 69.5053 2.2263 69.3785 0.506958C69.0974 0.506958 60.1514 2.22082 60.0109 2.29126C59.9418 2.46459 59.9418 2.65791 60.0109 2.83124C60.0109 3.32427 60.0109 3.30079 61.0647 3.53557C61.3606 3.60209 61.6448 3.7129 61.9078 3.86426C62.3649 4.29521 62.6692 4.86403 62.7743 5.48421C63.041 7.27091 63.1273 9.08001 63.0319 10.8841V31.4974L63.6642 31.6383C64.601 31.8496 67.2473 32.2957 68.1138 32.3896C69.8441 32.5275 71.5826 32.5275 73.3129 32.3896C75.2334 32.1929 77.064 31.4746 78.6074 30.3121C80.1508 29.1496 81.3485 27.5868 82.0715 25.7924C82.5026 24.6406 82.8011 23.4433 82.9615 22.2238C83.1009 20.5718 83.0459 18.9091 82.7975 17.27C82.5463 15.4327 81.7374 13.7173 80.4806 12.3565C79.2238 10.9958 77.5799 10.0555 75.7719 9.66323ZM69.6361 30.394C69.6361 30.0888 69.4019 19.8056 69.4487 15.697V12.4805L70.1279 12.3162C70.5861 12.2504 71.0514 12.2504 71.5096 12.3162C72.0164 12.2645 72.5261 12.3799 72.9616 12.6449C73.8362 13.25 74.5624 14.0461 75.0857 14.9733C75.609 15.9005 75.9156 16.9346 75.9826 17.9978C76.1532 19.7074 76.1532 21.4298 75.9826 23.1394C75.8425 25.6241 74.8874 27.9929 73.266 29.8775C72.8058 30.3157 72.2279 30.6095 71.6033 30.7227C71.1306 30.8051 70.6474 30.8051 70.1747 30.7227C69.7298 30.7227 69.7298 30.5818 69.7298 30.394H69.6361Z" fill="white"/>
</svg>
