<svg width="188" height="33" viewBox="0 0 188 33" fill="none" xmlns="http://www.w3.org/2000/svg">
<path fill-rule="evenodd" clip-rule="evenodd" d="M8.20058 0.169114C10.1333 -0.115991 12.1796 0.0204446 13.9946 0.608475C16.6613 1.4582 18.7712 3.21319 19.709 5.27969C20.4983 6.97685 20.4484 8.86348 19.7015 10.5638C19.2094 11.6803 18.4009 12.6962 17.5545 13.6761C14.8558 16.7587 12.1192 19.822 9.42898 22.9086C8.28223 22.9311 7.13444 22.9094 5.98769 22.9198C8.32035 20.2815 10.6998 17.6654 13.0155 15.019C11.4901 15.7202 9.61991 15.8439 7.89085 15.6118C5.87742 15.3322 4.05715 14.4632 2.72265 13.3019C0.873765 11.6939 -0.162656 9.53814 0.0208872 7.40175C0.183148 5.61469 1.16655 3.87982 2.73218 2.53844C4.15055 1.3273 6.09064 0.459806 8.20058 0.169114ZM9.10433 2.2292C6.86403 2.48549 4.86764 3.61556 3.81533 5.12471C3.05995 6.1833 2.78633 7.42741 3.01759 8.6161C3.30601 10.1188 4.41673 11.5132 6.00371 12.4368C7.19385 13.138 8.70018 13.55 10.216 13.497C11.7339 13.5436 13.269 13.1837 14.4729 12.4801C15.8763 11.677 16.8352 10.4626 17.1801 9.16149C17.5874 7.61128 17.1609 5.9448 16.0239 4.61875C15.1465 3.58657 13.8057 2.77063 12.2516 2.40431C11.2397 2.15694 10.1524 2.12083 9.10433 2.2292ZM54.0847 0.0735191C57.5152 -0.159417 61.0286 0.523298 63.9319 1.91998C67.0188 3.39628 69.432 5.69896 70.4885 8.35507C71.6862 11.3132 71.1558 14.6278 69.1308 17.3097C67.3816 19.6534 64.5323 21.503 61.2247 22.4829C58.0011 23.4483 54.3541 23.5865 51.0242 22.8492C47.6956 22.1223 44.6904 20.5585 42.6271 18.4495C41.3297 17.1322 40.4059 15.6014 39.972 13.9893C39.1414 10.9245 40.0728 7.61938 42.4659 5.06853C45.103 2.20678 49.4862 0.319258 54.0847 0.0735191ZM53.8714 2.23887C50.0738 2.55209 46.5287 4.24524 44.5238 6.7078C42.3577 9.30838 41.9779 12.7412 43.7219 15.5346C44.6267 17.0157 46.0534 18.3048 47.79 19.267C50.2913 20.6598 53.4693 21.3714 56.5679 21.1376C60.4112 20.9127 64.0412 19.2582 66.1319 16.8102C68.2568 14.3693 68.786 11.1557 67.4155 8.41448C66.6783 6.92786 65.4276 5.59051 63.8353 4.55766C61.1356 2.77461 57.4293 1.89756 53.8714 2.23887ZM23.2298 0.398736C28.7574 0.39796 34.2841 0.398736 39.8118 0.398736C39.8118 1.07269 39.8118 1.74577 39.8118 2.41964C37.5493 2.42042 35.2875 2.41886 33.026 2.42042C33.023 9.25223 33.026 16.0848 33.024 22.9175C32.0363 22.9175 31.0487 22.9175 30.0612 22.9175C30.0601 16.0848 30.0622 9.25223 30.0601 2.41964C27.7838 2.41887 25.5063 2.42042 23.2299 2.41964C23.2299 1.74577 23.2288 1.07269 23.2299 0.398736H23.2298ZM79.2898 0.400291C83.7749 0.397058 88.2599 0.399512 92.7449 0.398736C92.7459 1.07269 92.7449 1.74577 92.7449 2.41964C89.0608 2.41964 85.3755 2.42041 81.6915 2.41886C81.1972 4.50238 80.6731 6.58176 80.2085 8.66839C81.8188 7.97522 83.6614 7.54796 85.5263 7.60747C87.6445 7.63148 89.7281 8.24113 91.3605 9.25797C93.7197 10.7085 95.1454 12.9759 95.191 15.2721C95.2706 17.6407 93.9117 20.0302 91.5143 21.565C90.0781 22.4999 88.2726 23.0999 86.3918 23.2686C84.3011 23.4492 82.1296 23.1505 80.2902 22.3657C77.2064 21.0782 75.2165 18.5154 75.0055 15.8737C75.9802 15.8737 76.9561 15.8737 77.9321 15.8737C78.069 17.1821 78.7458 18.4672 79.9221 19.4382C80.985 20.337 82.4605 20.9594 84.0421 21.1249C85.8212 21.3296 87.7019 20.99 89.1584 20.1875C90.6424 19.3803 91.6777 18.1354 92.0628 16.787C92.6907 14.6681 91.699 12.3019 89.4617 10.9206C87.948 9.97036 85.8741 9.54222 83.9371 9.81613C81.9662 10.0707 80.2296 10.9695 78.9558 12.1116C78.1697 11.9044 77.3858 11.6923 76.6028 11.4787C77.5068 7.78736 78.4105 4.09512 79.2898 0.40052V0.400291ZM54.3212 4.1888C54.2862 3.74789 54.8251 3.34319 55.4064 3.36884C55.9803 3.3495 56.5011 3.7519 56.4767 4.18404C56.4788 6.81038 56.4736 9.43763 56.4801 12.064C56.4228 12.4271 55.9826 12.7114 55.5158 12.7604C53.11 12.7202 50.6999 12.7596 48.2918 12.7387C47.594 12.7475 47.0307 12.1298 47.3202 11.6447C47.4719 11.3074 47.9385 11.0833 48.4043 11.093C50.3752 11.093 52.3473 11.0953 54.3182 11.0912C54.3235 8.79094 54.3161 6.48982 54.3212 4.18867L54.3212 4.1888ZM4.17388 27.4273C4.41994 27.4281 4.66599 27.4281 4.91311 27.4265C5.94324 29.2047 6.9425 30.9934 7.95227 32.7788C7.71472 32.7788 7.477 32.7796 7.23945 32.7821C6.87035 32.1788 6.55416 31.5572 6.1798 30.9557C5.09361 30.9676 4.00725 30.9477 2.92109 30.9645L2.86899 30.9885C2.50317 31.5789 2.19331 32.1893 1.83169 32.7813C1.59192 32.7797 1.35211 32.7789 1.11237 32.7797C2.13711 30.9967 3.13739 29.2064 4.17388 27.4274V27.4273ZM3.1459 30.5115C4.07092 30.5163 4.99492 30.5138 5.91981 30.5131C5.48809 29.6713 5.01501 28.8425 4.54517 28.0136C4.06344 28.8408 3.59463 29.673 3.1459 30.5115V30.5115ZM8.83801 27.4281C9.68355 27.4369 10.5312 27.4056 11.3754 27.4562C11.9875 27.4762 12.6123 27.6538 13.0112 28.0169C13.7601 28.6657 13.6116 29.7967 12.6431 30.2761C11.7181 30.7412 10.5523 30.5789 9.50643 30.6127C9.50321 31.3347 9.50643 32.0568 9.50526 32.7796C9.28148 32.7788 9.05872 32.7788 8.83596 32.7796C8.83699 30.9958 8.83378 29.212 8.83801 27.4281ZM9.5095 27.8892C9.49895 28.6361 9.50848 29.3822 9.50526 30.1292C10.3911 30.0809 11.3628 30.2729 12.1753 29.9252C12.9974 29.5533 13.0228 28.5349 12.2262 28.1357C11.4242 27.7301 10.4112 27.9309 9.5095 27.8892ZM14.4602 27.4281C15.4223 27.4409 16.3909 27.3911 17.3488 27.4859C18.1305 27.5718 18.8582 28.0097 19.0311 28.608C19.2497 29.1542 19.0185 29.7967 18.4435 30.1709C17.5247 30.7621 16.2371 30.5782 15.1284 30.6127C15.1254 31.3347 15.1284 32.0568 15.1274 32.7796C14.9036 32.7788 14.6809 32.7788 14.4582 32.7796C14.4592 30.9958 14.4559 29.212 14.4602 27.4281ZM15.1327 27.8892C15.1211 28.6352 15.1306 29.3822 15.1274 30.1292C15.7205 30.1292 16.3133 30.1356 16.9064 30.1259C17.4368 30.1035 18.0117 29.9259 18.2599 29.5477C18.6291 29.0489 18.3969 28.3349 17.7084 28.0706C16.9171 27.7542 15.9878 27.9277 15.1327 27.8892ZM20.1884 27.4281C20.4101 27.4281 20.6329 27.4281 20.8556 27.4296C20.8556 29.052 20.8546 30.6736 20.8568 32.296C21.837 32.3001 22.817 32.296 23.7983 32.2976C23.7971 32.4582 23.7971 32.618 23.7983 32.7795C22.5942 32.7795 21.3903 32.7795 20.1863 32.7795C20.1874 30.9957 20.1843 29.2119 20.1884 27.4279V27.4281ZM24.6437 27.4281C25.921 27.4288 27.1981 27.4281 28.4752 27.4281C28.4752 27.5798 28.4752 27.7317 28.4762 27.8843C27.4229 27.8875 26.3696 27.8803 25.3162 27.8883C25.3089 28.5413 25.3035 29.1943 25.3195 29.8472C26.3357 29.8537 27.353 29.8482 28.3702 29.8504C28.3692 29.9991 28.3702 30.1492 28.3702 30.2987C27.353 30.3019 26.3347 30.293 25.3172 30.3034C25.3035 30.9676 25.3132 31.632 25.312 32.2961C26.3663 32.3002 27.4209 32.2961 28.4762 32.2977C28.4752 32.4583 28.4752 32.6182 28.4762 32.7796C27.1981 32.7796 25.9198 32.7796 24.6417 32.7796C24.6427 30.9958 24.6395 29.212 24.6437 27.428V27.4281ZM32.3864 27.4281C32.6091 27.4281 32.8319 27.4281 33.0546 27.4296C33.0536 29.2127 33.0546 30.9957 33.0546 32.7795C32.8308 32.7787 32.6081 32.7787 32.3854 32.7795C32.3854 30.9957 32.383 29.2119 32.3864 27.428L32.3864 27.4281ZM34.509 27.4281C34.8187 27.4281 35.1285 27.4281 35.4394 27.4265C36.7801 28.9059 38.0712 30.4135 39.4373 31.8793C39.4585 30.3958 39.4393 28.9123 39.447 27.4289C39.674 27.4282 39.901 27.4282 40.129 27.4282C40.1311 29.2121 40.129 30.9959 40.13 32.7797C39.8977 32.7797 39.6665 32.779 39.4352 32.7782C38.2854 31.4722 37.1133 30.1776 35.9548 28.8755C35.6982 28.5992 35.4722 28.3061 35.1858 28.0466C35.1635 29.6241 35.1824 31.2024 35.1763 32.7798C34.9523 32.779 34.7296 32.779 34.5068 32.7798C34.5079 30.996 34.5048 29.2122 34.5089 27.4282L34.509 27.4281ZM40.9671 27.4281C42.2696 27.4281 43.5734 27.4281 44.877 27.4288C44.877 27.5797 44.877 27.7316 44.8781 27.8842C44.3381 27.8865 43.7982 27.8809 43.2594 27.8882C43.2487 29.5187 43.2584 31.1491 43.2552 32.7795C43.026 32.7787 42.7979 32.7795 42.5699 32.7795C42.5699 31.1483 42.5699 29.5162 42.5699 27.885C42.0342 27.8842 41.4995 27.885 40.9649 27.8842C40.9649 27.7316 40.9659 27.5797 40.9669 27.428L40.9671 27.4281ZM45.7532 27.4281C47.0305 27.4288 48.3076 27.4281 49.5848 27.4281C49.5837 27.5798 49.5848 27.7325 49.5858 27.8843C48.5324 27.8875 47.479 27.8803 46.4256 27.8883C46.4171 28.5413 46.414 29.1943 46.4277 29.8465C47.4449 29.8544 48.4622 29.8472 49.4795 29.8504C49.4784 29.9991 49.4784 30.1492 49.4795 30.2987C48.4622 30.3027 47.4439 30.293 46.4266 30.3034C46.4128 30.9676 46.4224 31.632 46.4212 32.2961C47.4757 32.3002 48.5301 32.2961 49.5856 32.2977C49.5846 32.4583 49.5846 32.6182 49.5856 32.7796C48.3073 32.7796 47.0291 32.7796 45.7509 32.7796C45.7519 30.9958 45.7488 29.212 45.7529 27.428L45.7532 27.4281ZM50.845 27.4273C51.0668 27.4281 51.2895 27.4288 51.5122 27.4296C51.5122 29.052 51.5112 30.6736 51.5133 32.296C52.4934 32.3001 53.4736 32.296 54.4549 32.2976C54.4539 32.4582 54.4539 32.618 54.4549 32.7795C53.2509 32.7795 52.0469 32.7795 50.843 32.7795C50.844 30.9957 50.8406 29.211 50.845 27.4271V27.4273ZM55.3003 27.4281C55.5221 27.4281 55.7448 27.4281 55.9676 27.4296C55.9676 29.052 55.9652 30.6736 55.9686 32.296C56.9488 32.3001 57.9289 32.296 58.9101 32.2976C58.9091 32.4582 58.9091 32.618 58.9101 32.7795C57.7062 32.7795 56.5022 32.7795 55.2982 32.7795C55.2982 30.9957 55.2961 29.2119 55.3002 27.4279L55.3003 27.4281ZM59.7555 27.4281C59.9773 27.4281 60.2 27.4281 60.4228 27.4296C60.4217 29.2127 60.4228 30.9957 60.4228 32.7795C60.199 32.7787 59.9763 32.7787 59.7535 32.7795C59.7535 30.9957 59.7514 29.2119 59.7555 27.428V27.4281ZM62.8902 28.0144C64.2151 27.1509 66.3536 27.1228 67.7114 27.9598C68.1114 28.1935 68.4424 28.4939 68.6535 28.8425C68.3989 28.844 68.1443 28.844 67.8907 28.8448C67.3922 28.2609 66.5074 27.8938 65.5984 27.8368C64.631 27.7902 63.6115 28.064 62.9857 28.6392C62.4244 29.1332 62.1455 29.8118 62.3014 30.4576C62.4797 31.4053 63.5596 32.1668 64.7879 32.3266C66.2328 32.5619 67.8663 31.8719 68.2619 30.7788C66.9446 30.77 65.627 30.778 64.3095 30.7748C64.3085 30.6215 64.3095 30.4688 64.3106 30.3162C65.9039 30.3147 67.4961 30.3178 69.0894 30.3147C68.9972 30.8062 68.7988 31.2922 68.3966 31.6921C67.7487 32.3692 66.6889 32.7869 65.5941 32.8511C64.4028 32.9017 63.1788 32.5154 62.4224 31.8094C61.9025 31.354 61.6321 30.7612 61.5801 30.1653C61.5664 29.3501 62.0553 28.5333 62.8902 28.0144ZM70.2573 27.4281C71.5346 27.4288 72.8116 27.4281 74.089 27.4281C74.0876 27.5798 74.0876 27.7317 74.09 27.8843C73.0366 27.8875 71.9833 27.8795 70.9298 27.8883C70.9224 28.5413 70.9172 29.1943 70.9318 29.8472C71.9491 29.8537 72.9664 29.8482 73.9837 29.8504C73.9826 29.9991 73.9826 30.1492 73.9837 30.2987C72.9664 30.3027 71.9481 30.293 70.9308 30.3034C70.917 30.9676 70.9266 31.632 70.9255 32.2961C71.9799 32.3002 73.0343 32.2961 74.0899 32.2977C74.0888 32.4583 74.0888 32.6182 74.0899 32.7796C72.8115 32.7796 71.5332 32.7796 70.2551 32.7796C70.2561 30.9958 70.2527 29.212 70.2571 27.428L70.2573 27.4281ZM75.4551 27.4281C75.7639 27.4281 76.0747 27.4281 76.3856 27.4273C77.7263 28.9068 79.0172 30.4135 80.3836 31.8793C80.4047 30.3966 80.3867 28.9132 80.393 27.4297C80.6191 27.4282 80.8461 27.4282 81.0752 27.4274C81.0773 29.2121 81.0752 30.9959 81.0762 32.7797C80.8439 32.7797 80.6127 32.7789 80.3825 32.7789C79.4744 31.7461 78.5473 30.7228 77.6319 29.694C77.127 29.1478 76.6687 28.5759 76.132 28.0475C76.1097 29.6241 76.1286 31.2024 76.1223 32.7798C75.8985 32.779 75.6758 32.779 75.453 32.7798C75.453 30.996 75.451 29.2122 75.4551 27.4282V27.4281ZM82.9782 28.359C83.9425 27.4369 85.7192 27.1068 87.1556 27.5333C87.9405 27.7695 88.648 28.2 89.0396 28.7734C88.787 28.7742 88.5367 28.7742 88.2874 28.7726C87.757 28.2048 86.8522 27.8771 85.9463 27.8401C84.2745 27.7566 82.7205 28.9292 82.8436 30.1974C82.8892 31.2336 83.9956 32.154 85.3352 32.3307C86.4629 32.5154 87.6265 32.0736 88.3077 31.3998C88.558 31.399 88.8104 31.399 89.0629 31.4006C88.5187 32.1323 87.5428 32.6737 86.4459 32.8166C84.8261 33.0391 83.0514 32.3355 82.4447 31.1621C81.9376 30.2448 82.1285 29.1252 82.9782 28.359ZM90.3062 27.4281C91.5822 27.4281 92.8583 27.4296 94.1344 27.4273C94.1354 27.5791 94.1368 27.7317 94.1398 27.8843C93.0853 27.8875 92.032 27.8803 90.9786 27.8883C90.9701 28.5413 90.9659 29.1943 90.9807 29.8472C91.9981 29.8537 93.0154 29.8472 94.0327 29.8504C94.0306 29.9991 94.0316 30.1492 94.0327 30.2987C93.0142 30.3027 91.9959 30.2923 90.9786 30.3042C90.9669 30.9676 90.9744 31.632 90.9744 32.2961C92.0288 32.3002 93.0833 32.2961 94.1387 32.2977C94.1366 32.4583 94.1366 32.6182 94.1387 32.7796C92.8604 32.7796 91.5822 32.7796 90.3039 32.7796C90.3053 30.9958 90.3019 29.212 90.3063 27.428L90.3062 27.4281Z" fill="white"/>
<path opacity="0.6" fill-rule="evenodd" clip-rule="evenodd" d="M101.973 0.420346C103.494 0.418794 105.014 0.421895 106.534 0.418791C110.182 6.82169 113.797 13.2343 117.439 19.6396C118.261 18.2766 119.002 16.8847 119.792 15.5113C122.632 10.4802 125.475 5.44908 128.313 0.417236C129.831 0.423677 131.347 0.418018 132.866 0.420449C132.867 7.94057 132.867 15.4606 132.866 22.9808C131.889 22.9816 130.912 22.9824 129.936 22.9808C129.927 16.2904 129.953 9.59917 129.923 2.90867C129.047 4.36244 128.269 5.85149 127.431 7.31811C124.517 12.5395 121.592 17.757 118.684 22.9808C117.851 22.9832 117.017 22.9793 116.185 22.9832C112.424 16.2911 108.707 9.5854 104.945 2.89403C104.941 9.59016 104.945 16.2855 104.944 22.9815C103.953 22.9815 102.963 22.9815 101.973 22.9815C101.972 15.4605 101.972 7.94047 101.973 0.420346ZM145.676 6.35013C148.222 5.7679 151.042 5.76945 153.529 6.51323C155.338 7.04728 156.947 8.0304 157.871 9.33633C157.924 9.39897 157.987 9.45603 158.063 9.50745C158.107 8.43355 158.069 7.3573 158.082 6.28273C159.02 6.28195 159.959 6.28195 160.899 6.28273C160.9 11.8487 160.9 17.4147 160.899 22.9807C159.96 22.9823 159.02 22.9815 158.082 22.9807C158.075 21.9205 158.095 20.8587 158.07 19.7986C157.783 19.9496 157.668 20.2146 157.473 20.4242C156.313 21.7382 154.455 22.6442 152.457 23.0538C148.645 23.8707 144.422 22.9751 141.461 21.0387C140.961 20.7496 140.53 20.4034 140.098 20.0613C139.363 19.5247 138.916 18.8123 138.539 18.1054C137.786 16.6244 137.459 15.0012 137.738 13.4238C138.3 10.1733 141.573 7.33733 145.676 6.35013ZM148.6 8.10266C146.977 8.21114 145.397 8.6705 144.097 9.41183C142.517 10.3042 141.343 11.6062 140.86 13.0551C140.34 14.5466 140.552 16.1826 141.497 17.5537C142.398 18.8973 143.943 19.9744 145.751 20.5969C147.758 21.2956 150.125 21.4339 152.216 20.8676C154.253 20.3271 155.994 19.1913 157.031 17.7601C157.893 16.5746 158.256 15.1771 157.994 13.8358C157.745 12.2599 156.731 10.7531 155.158 9.70022C153.401 8.49539 150.949 7.92202 148.6 8.10266ZM171.243 7.07705C173.452 6.15095 176.046 5.77353 178.552 5.99517C180.571 6.17425 182.529 6.74374 184.18 7.64321C185.883 8.56533 187.233 9.8584 187.994 11.337C186.931 11.3347 185.87 11.3394 184.806 11.3355C184.651 11.362 184.597 11.2287 184.522 11.1604C183.333 9.71873 181.365 8.67536 179.194 8.26502C177.022 7.85773 174.666 8.11399 172.699 8.90987C171.113 9.55085 169.783 10.5628 169.001 11.7925C167.866 13.5482 167.903 15.6855 168.997 17.4477C169.825 18.7971 171.284 19.9166 173.059 20.5591C175.206 21.3487 177.756 21.4097 180.013 20.8651C181.948 20.4073 183.51 19.3336 184.682 18.1102C185.77 18.1055 186.859 18.1071 187.949 18.1094C187.183 19.3496 186.092 20.4845 184.695 21.3591C183.095 22.376 181.114 23.0322 179.052 23.2626C176.795 23.5036 174.453 23.2875 172.346 22.629C170.462 22.0354 168.762 21.0836 167.527 19.8492C164.713 17.124 164.439 13.0656 166.913 10.1517C167.97 8.86334 169.489 7.80387 171.243 7.07705Z" fill="white"/>
</svg>
