<svg width="40" height="40" viewBox="0 0 40 40" fill="none" xmlns="http://www.w3.org/2000/svg">
<rect width="40" height="40" rx="8" fill="#EDEFF5"/>
<g filter="url(#filter0_di_11879_13113)">
<path d="M19.4311 11.9675C20.2396 11.9766 21.0119 12.3041 21.5804 12.879C22.1489 13.4539 22.4678 14.2298 22.4678 15.0383C22.4678 15.8468 22.149 16.6228 21.5805 17.1977C21.012 17.7726 20.2397 18.1001 19.4312 18.1092C18.6227 18.1001 17.8504 17.7726 17.2819 17.1977C16.7134 16.6228 16.3945 15.8469 16.3945 15.0384C16.3945 14.2299 16.7133 13.454 17.2818 12.879C17.8503 12.3041 18.6226 11.9766 19.4311 11.9675ZM29.5284 28.5277C29.5284 31.1444 24.2943 32.3359 19.4312 32.3359C14.5681 32.3359 9.33398 31.1444 9.33399 28.5278C9.33143 26.2484 13.1278 25.3515 15.517 25.0025L12.1805 19.2276C8.88885 13.857 13.144 6.50535 19.431 6.66929C25.7188 6.50257 29.9725 13.8596 26.682 19.2275L23.344 25.0048C25.7437 25.3485 29.5284 26.2513 29.5284 28.5277ZM19.4311 19.9425C25.9108 19.7374 25.9123 10.3402 19.4312 10.1342C12.9516 10.3392 12.9501 19.7365 19.4311 19.9425ZM27.6951 28.5278C27.6951 28.1725 26.0411 27.1263 22.3462 26.7258L21.0812 28.9166C20.9119 29.2036 20.6706 29.4415 20.3813 29.6067C20.0919 29.772 19.7644 29.8589 19.4312 29.8589C19.098 29.8589 18.7705 29.772 18.4811 29.6068C18.1918 29.4415 17.9505 29.2036 17.7812 28.9167L16.5162 26.7257C12.8213 27.1263 11.1674 28.1725 11.1674 28.5277C11.1673 29.0353 14.0086 30.5025 19.4312 30.5025C24.8538 30.5025 27.6951 29.0353 27.6951 28.5278Z" fill="url(#paint0_linear_11879_13113)"/>
</g>
<defs>
<filter id="filter0_di_11879_13113" x="3.87346" y="3.87346" width="32.7592" height="32.7592" filterUnits="userSpaceOnUse" color-interpolation-filters="sRGB">
<feFlood flood-opacity="0" result="BackgroundImageFix"/>
<feColorMatrix in="SourceAlpha" type="matrix" values="0 0 0 0 0 0 0 0 0 0 0 0 0 0 0 0 0 0 127 0" result="hardAlpha"/>
<feOffset dx="0.253071" dy="0.253071"/>
<feGaussianBlur stdDeviation="0.189803"/>
<feComposite in2="hardAlpha" operator="out"/>
<feColorMatrix type="matrix" values="0 0 0 0 0.0281667 0 0 0 0 0.0361834 0 0 0 0 0.108333 0 0 0 0.25 0"/>
<feBlend mode="normal" in2="BackgroundImageFix" result="effect1_dropShadow_11879_13113"/>
<feBlend mode="normal" in="SourceGraphic" in2="effect1_dropShadow_11879_13113" result="shape"/>
<feColorMatrix in="SourceAlpha" type="matrix" values="0 0 0 0 0 0 0 0 0 0 0 0 0 0 0 0 0 0 127 0" result="hardAlpha"/>
<feOffset dx="0.253071" dy="0.253071"/>
<feGaussianBlur stdDeviation="0.189803"/>
<feComposite in2="hardAlpha" operator="arithmetic" k2="-1" k3="1"/>
<feColorMatrix type="matrix" values="0 0 0 0 0.703333 0 0 0 0 0.71094 0 0 0 0 1 0 0 0 1 0"/>
<feBlend mode="normal" in2="shape" result="effect2_innerShadow_11879_13113"/>
</filter>
<linearGradient id="paint0_linear_11879_13113" x1="9.3341" y1="19.5016" x2="29.5283" y2="19.5016" gradientUnits="userSpaceOnUse">
<stop stop-color="#FFDE00"/>
<stop offset="1" stop-color="#FD5900"/>
</linearGradient>
</defs>
</svg>
