<svg width="40" height="40" viewBox="0 0 40 40" fill="none" xmlns="http://www.w3.org/2000/svg">
<rect width="40" height="40" rx="8" fill="#EEFB9F"/>
<g filter="url(#filter0_di_11879_13130)">
<path fill-rule="evenodd" clip-rule="evenodd" d="M23.9803 8.62264C23.8975 8.25844 23.5737 8 23.2002 8C22.8267 8 22.5029 8.25844 22.4201 8.62264L21.9774 10.5693C21.9259 10.7959 21.8428 11.01 21.7329 11.2068C20.038 10.0343 18.3259 9.15615 16.7118 8.61815C13.9028 7.68183 11.1309 7.70638 9.41826 9.41897C7.70562 11.1316 7.68107 13.9033 8.61741 16.7123C8.97222 17.7767 9.47496 18.8837 10.1125 20.0004C9.47496 21.117 8.97222 22.224 8.61741 23.2885C7.68107 26.0974 7.70562 28.8692 9.41826 30.5818C11.1309 32.2944 13.9028 32.3189 16.7118 31.3826C17.7763 31.0278 18.8833 30.5251 20 29.8875C21.1167 30.5251 22.2237 31.0278 23.2882 31.3826C26.0972 32.3189 28.8691 32.2944 30.5817 30.5818C32.2944 28.8692 32.3189 26.0974 31.3826 23.2885C31.0278 22.224 30.525 21.117 29.8875 20.0004C30.525 18.8837 31.0278 17.7767 31.3826 16.7123C32.3189 13.9033 32.2944 11.1316 30.5817 9.41897C30.2693 9.10654 29.7627 9.10654 29.4503 9.41897C29.1379 9.7314 29.1379 10.2379 29.4503 10.5504C30.5035 11.6036 30.7408 13.5778 29.8646 16.2063C29.6246 16.9261 29.3062 17.6759 28.9131 18.4414C28.0928 17.2343 27.1226 16.0338 26.0188 14.8816C26.0883 14.8589 26.1591 14.8393 26.2312 14.8229L28.1779 14.3803C28.5421 14.2975 28.8006 13.9737 28.8006 13.6002C28.8006 13.2267 28.5421 12.9029 28.1779 12.8201L26.2312 12.3774C25.3308 12.1727 24.6277 11.4696 24.423 10.5693L23.9803 8.62264ZM24.7445 15.8651C24.596 16.096 24.486 16.3542 24.423 16.6311L23.9803 18.5777C23.8975 18.9419 23.5737 19.2004 23.2002 19.2004C22.8267 19.2004 22.5029 18.9419 22.4201 18.5777L21.9774 16.6311C21.7727 15.7307 21.0696 15.0277 20.1692 14.8229L18.2225 14.3803C17.8583 14.2975 17.5998 13.9737 17.5998 13.6002C17.5998 13.2267 17.8583 12.9029 18.2225 12.8201L20.1692 12.3774C20.2737 12.3537 20.3757 12.3231 20.4744 12.2864C19.0084 11.3108 17.5546 10.5857 16.2058 10.1361C13.5772 9.25991 11.6029 9.4972 10.5497 10.5504C9.49649 11.6036 9.2592 13.5778 10.1354 16.2063C10.3753 16.9261 10.6938 17.6759 11.0869 18.4414C12.0157 17.0745 13.1368 15.7162 14.4263 14.4268C14.7387 14.1144 15.2453 14.1144 15.5577 14.4268C15.8701 14.7393 15.8701 15.2458 15.5577 15.5582C14.1194 16.9965 12.9174 18.51 11.9785 20.0004C12.9174 21.4908 14.1194 23.0043 15.5577 24.4425C16.996 25.8808 18.5095 27.0827 20 28.0216C21.4905 27.0827 23.004 25.8808 24.4423 24.4425C25.8806 23.0043 27.0826 21.4908 28.0215 20.0004C27.1491 18.6156 26.0497 17.2109 24.7445 15.8651ZM28.9131 21.5593C27.9843 22.9262 26.8632 24.2845 25.5737 25.574C24.2843 26.8634 22.9259 27.9844 21.559 28.9132C22.3246 29.3063 23.0744 29.6247 23.7942 29.8647C26.4228 30.7408 28.3971 30.5035 29.4503 29.4504C30.5035 28.3972 30.7408 26.423 29.8646 23.7945C29.6246 23.0746 29.3062 22.3249 28.9131 21.5593ZM18.441 28.9132C17.0741 27.9844 15.7157 26.8634 14.4263 25.574C13.1368 24.2845 12.0157 22.9262 11.0869 21.5593C10.6938 22.3249 10.3753 23.0746 10.1354 23.7945C9.2592 26.423 9.49649 28.3972 10.5497 29.4504C11.6029 30.5035 13.5772 30.7408 16.2058 29.8647C16.9256 29.6247 17.6754 29.3063 18.441 28.9132Z" fill="#4D8495"/>
</g>
<defs>
<filter id="filter0_di_11879_13130" x="7.87346" y="7.87346" width="24.7592" height="24.7592" filterUnits="userSpaceOnUse" color-interpolation-filters="sRGB">
<feFlood flood-opacity="0" result="BackgroundImageFix"/>
<feColorMatrix in="SourceAlpha" type="matrix" values="0 0 0 0 0 0 0 0 0 0 0 0 0 0 0 0 0 0 127 0" result="hardAlpha"/>
<feOffset dx="0.253071" dy="0.253071"/>
<feGaussianBlur stdDeviation="0.189803"/>
<feComposite in2="hardAlpha" operator="out"/>
<feColorMatrix type="matrix" values="0 0 0 0 0.0281667 0 0 0 0 0.0361834 0 0 0 0 0.108333 0 0 0 0.25 0"/>
<feBlend mode="normal" in2="BackgroundImageFix" result="effect1_dropShadow_11879_13130"/>
<feBlend mode="normal" in="SourceGraphic" in2="effect1_dropShadow_11879_13130" result="shape"/>
<feColorMatrix in="SourceAlpha" type="matrix" values="0 0 0 0 0 0 0 0 0 0 0 0 0 0 0 0 0 0 127 0" result="hardAlpha"/>
<feOffset dx="0.253071" dy="0.253071"/>
<feGaussianBlur stdDeviation="0.189803"/>
<feComposite in2="hardAlpha" operator="arithmetic" k2="-1" k3="1"/>
<feColorMatrix type="matrix" values="0 0 0 0 0.703333 0 0 0 0 0.71094 0 0 0 0 1 0 0 0 1 0"/>
<feBlend mode="normal" in2="shape" result="effect2_innerShadow_11879_13130"/>
</filter>
</defs>
</svg>
