<svg width="638" height="292" viewBox="0 0 638 292" fill="none" xmlns="http://www.w3.org/2000/svg">
<g opacity="0.4">
<mask id="path-1-inside-1_12680_8396" fill="white">
<path fill-rule="evenodd" clip-rule="evenodd" d="M160.519 0.046868L80.0273 0.0468715C80.0615 1.30743 80.078 2.58493 80.078 3.87942C80.078 49.6317 61.5697 78.8775 24.8229 87.0804C17.7913 88.6602 10.1005 89.4671 1.73362 89.4671C1.17582 89.4671 0.634932 89.4671 0.0771384 89.4501L0.0771415 159.709L0.077145 194.722L0.0771469 229.995C0.63494 229.978 1.17583 229.978 1.73363 229.978C10.1006 229.978 17.7913 230.784 24.8229 232.364C61.5697 240.566 80.078 269.826 80.078 315.556C80.078 316.85 80.0616 318.144 80.0274 319.405L160.519 319.405C160.552 318.128 160.57 316.85 160.57 315.556C160.57 284.615 153.217 256.263 139.424 232.482C131.085 218.077 120.388 205.346 107.536 194.722L644.02 194.722L644.02 124.873L107.363 124.873C120.29 114.217 131.047 101.434 139.424 86.9623C153.217 63.1791 160.57 34.8231 160.57 3.87942C160.57 2.60189 160.552 1.32439 160.519 0.046868Z"/>
</mask>
<path d="M80.0273 0.0468715L80.0273 -0.953128L78.9998 -0.953128L79.0277 0.0740017L80.0273 0.0468715ZM160.519 0.046868L161.519 0.0206228L161.493 -0.953132L160.519 -0.953132L160.519 0.046868ZM24.8229 87.0804L24.605 86.1045L24.6037 86.1048L24.8229 87.0804ZM0.0771384 89.4501L0.107544 88.4505L-0.922862 88.4192L-0.922862 89.4501L0.0771384 89.4501ZM0.0771415 159.709L-0.922859 159.709L0.0771415 159.709ZM0.077145 194.722L1.07715 194.722L0.077145 194.722ZM0.0771469 229.995L-0.922853 229.995L-0.922853 231.025L0.107552 230.994L0.0771469 229.995ZM24.8229 232.364L24.6037 233.34L24.6051 233.34L24.8229 232.364ZM80.0274 319.405L79.0277 319.378L78.9999 320.405L80.0274 320.405L80.0274 319.405ZM160.519 319.405L160.519 320.405L161.493 320.405L161.519 319.431L160.519 319.405ZM139.424 232.482L138.559 232.983L138.559 232.983L139.424 232.482ZM107.536 194.722L107.536 193.722L104.757 193.722L106.899 195.492L107.536 194.722ZM644.02 194.722L644.02 195.722L645.02 195.722L645.02 194.722L644.02 194.722ZM644.02 124.873L645.02 124.873L645.02 123.873L644.02 123.873L644.02 124.873ZM107.363 124.873L106.727 124.101L104.578 125.873L107.363 125.873L107.363 124.873ZM139.424 86.9623L138.559 86.4606L138.559 86.4613L139.424 86.9623ZM80.0273 1.04687L160.519 1.04687L160.519 -0.953132L80.0273 -0.953128L80.0273 1.04687ZM81.078 3.87942C81.078 2.57647 81.0614 1.28991 81.027 0.0197413L79.0277 0.0740017C79.0617 1.32495 79.078 2.59338 79.078 3.87942L81.078 3.87942ZM25.0408 88.0564C43.645 83.9034 57.6911 74.4017 67.0666 60.1094C76.427 45.8403 81.078 26.8799 81.078 3.87942L79.078 3.87942C79.078 26.6312 74.4748 45.1699 65.3943 59.0124C56.329 72.8318 42.7476 82.0545 24.605 86.1045L25.0408 88.0564ZM1.73362 90.4671C10.1644 90.4671 17.9295 89.6541 25.0421 88.0561L24.6037 86.1048C17.653 87.6663 10.0367 88.4671 1.73362 88.4671L1.73362 90.4671ZM0.046733 90.4496C0.622178 90.4671 1.17812 90.4671 1.73362 90.4671L1.73362 88.4671C1.17352 88.4671 0.647685 88.467 0.107544 88.4505L0.046733 90.4496ZM1.07714 159.709L1.07714 89.4501L-0.922862 89.4501L-0.922859 159.709L1.07714 159.709ZM-0.922859 159.709L-0.922855 194.722L1.07715 194.722L1.07714 159.709L-0.922859 159.709ZM-0.922855 194.722L-0.922853 229.995L1.07715 229.995L1.07715 194.722L-0.922855 194.722ZM0.107552 230.994C0.647693 230.978 1.17353 230.978 1.73363 230.978L1.73363 228.978C1.17813 228.978 0.622187 228.977 0.0467415 228.995L0.107552 230.994ZM1.73363 230.978C10.0367 230.978 17.6531 231.778 24.6037 233.34L25.0421 231.389C17.9295 229.791 10.1644 228.978 1.73363 228.978L1.73363 230.978ZM24.6051 233.34C42.7475 237.389 56.3289 246.615 65.3943 260.435C74.4749 274.279 79.078 292.815 79.078 315.556L81.078 315.556C81.078 292.567 76.427 273.608 67.0667 259.338C57.6912 245.046 43.6451 235.541 25.0407 231.388L24.6051 233.34ZM79.078 315.556C79.078 316.842 79.0617 318.127 79.0277 319.378L81.027 319.432C81.0615 318.162 81.078 316.859 81.078 315.556L79.078 315.556ZM80.0274 320.405L160.519 320.405L160.519 318.405L80.0274 318.405L80.0274 320.405ZM161.519 319.431C161.552 318.145 161.57 316.859 161.57 315.556L159.57 315.556C159.57 316.841 159.553 318.11 159.519 319.379L161.519 319.431ZM161.57 315.556C161.57 284.457 154.179 255.928 140.289 231.98L138.559 232.983C152.255 256.598 159.57 284.774 159.57 315.556L161.57 315.556ZM140.289 231.981C131.893 217.476 121.119 204.653 108.174 193.951L106.899 195.492C119.658 206.04 130.278 218.679 138.559 232.983L140.289 231.981ZM107.536 195.722L644.02 195.722L644.02 193.722L107.536 193.722L107.536 195.722ZM645.02 194.722L645.02 124.873L643.02 124.873L643.02 194.722L645.02 194.722ZM644.02 123.873L107.363 123.873L107.363 125.873L644.02 125.873L644.02 123.873ZM138.559 86.4613C130.24 100.832 119.56 113.523 106.727 124.101L107.999 125.644C121.02 114.912 131.854 102.036 140.289 87.4633L138.559 86.4613ZM159.57 3.87942C159.57 34.6645 152.255 62.8443 138.559 86.4606L140.289 87.464C154.179 63.5139 161.57 34.9818 161.57 3.87942L159.57 3.87942ZM159.519 0.0731131C159.553 1.34206 159.57 2.61083 159.57 3.87942L161.57 3.87942C161.57 2.59295 161.552 1.30673 161.519 0.0206228L159.519 0.0731131Z" fill="#CDF765" mask="url(#path-1-inside-1_12680_8396)"/>
</g>
</svg>
