<svg width="783" height="300" viewBox="0 0 783 300" fill="none" xmlns="http://www.w3.org/2000/svg">
<path d="M569.035 168.42C572.615 168.14 575.071 166.742 578.662 166.436C584.305 166.436 584.566 166.499 586.979 166.436C588.186 166.404 589.495 166.33 590.661 166.039" stroke="#CDF765" stroke-width="0.940503" stroke-linecap="round"/>
<path class="el2" d="M568.638 165.84C568.04 162.341 567.514 158.784 566.467 155.38C566.24 154.641 564.771 152.057 566.654 152.426C568.451 152.779 570.336 153.982 571.879 154.928C572.864 155.533 574.015 156.155 574.899 156.912C575.563 157.481 576.106 154.495 576.2 154.19C576.807 152.198 577.386 150.205 578.029 148.227C578.066 148.114 578.516 145.711 579.043 146.441C579.963 147.714 580.38 149.826 580.796 151.258C581.355 153.184 581.931 155.135 581.931 157.155C581.931 157.252 581.781 159.032 582.174 158.522C583.851 156.341 585.399 154.088 587.178 151.974C589.206 149.565 591.071 146.586 593.747 144.854C594.143 144.598 593.991 144.997 593.935 145.416C593.415 149.236 592.674 153.039 592.006 156.835C591.607 159.1 590.914 161.379 590.661 163.658" stroke="#CDF765" stroke-width="0.940503" stroke-linecap="round"/>
<path class="el4" d="M748.338 82.7799C749.576 77.6351 750.923 72.5725 752.439 67.5378" stroke="#CDF765" stroke-width="0.940503" stroke-linecap="round"/>
<path class="el4" d="M749.613 91.6941C758.344 87.0166 767.288 82.5492 775.739 77.3656C777.879 76.0529 778.044 75.6593 779.404 74.1319" stroke="#CDF765" stroke-width="0.940503" stroke-linecap="round"/>
<path class="el4" d="M755.077 96.6765C766.882 94.9692 764.328 95.0464 776.073 92.9321" stroke="#CDF765" stroke-width="0.940503" stroke-linecap="round"/>
<path class="el1" d="M0.464844 299.488C14.1867 288.379 23.7849 273.057 28.0811 256.111C30.1644 247.893 32.6981 240.785 38.4023 234.213C43.4126 228.44 53.266 228.168 57.2315 222.078C62.0252 214.717 70.549 209.745 74.2476 201.854C77.7132 194.461 75.428 186.478 79.8266 178.98C88.6552 163.932 96.1318 155.707 113.301 149.412C120.858 146.64 130.446 147.255 137.291 143.833" stroke="#CDF765" stroke-width="0.940503" stroke-linecap="round"/>
<path class="el2" d="M426.073 170.113C407.94 160.992 380.738 150.09 370.959 130.113C362.538 112.909 369.99 89.77 377.539 73.6311C379.977 68.4181 383.213 64.1656 385.031 58.7126" stroke="#CDF765" stroke-width="0.940503" stroke-linecap="round"/>
<path class="el3" d="M395.071 46.9163C394.763 47.0257 394.41 46.9431 394.012 46.6684C393.627 46.3658 393.267 45.9388 392.932 45.3871C392.611 44.8077 392.354 44.1822 392.161 43.5106C391.928 42.8536 391.773 42.3192 391.696 41.9072C391.632 41.4674 391.572 41.0379 391.515 40.6186C391.533 40.4735 391.527 40.3599 391.498 40.2778C391.489 40.1884 391.463 40.0477 391.417 39.8556C391.393 39.6562 391.355 39.3227 391.305 38.8551C391.263 38.4769 391.243 38.1603 391.245 37.9053C391.247 37.6502 391.274 37.4671 391.327 37.3558C391.386 37.1961 391.494 37.0768 391.651 36.9979C391.8 36.8985 391.968 36.8504 392.154 36.8537C392.34 36.8569 392.514 36.9224 392.675 37.0502C392.835 37.109 392.98 37.3232 393.112 37.6928C393.256 38.0345 393.367 38.4114 393.444 38.8233C393.514 39.2148 393.516 39.5145 393.451 39.7225C393.447 39.8398 393.49 40.1249 393.582 40.5779C393.694 41.0237 393.803 41.4936 393.909 41.9877C394.036 42.4745 394.12 42.8725 394.16 43.1818C394.23 43.5733 394.367 43.86 394.57 44.0421C394.794 44.2169 395.054 44.1359 395.351 43.7993C395.661 43.4349 395.97 42.6776 396.278 41.5276C396.49 40.7585 396.64 40.1387 396.727 39.6684C396.814 39.1981 396.861 38.7768 396.868 38.4045C396.887 38.0044 396.9 37.5838 396.905 37.1427C396.891 36.7777 396.888 36.478 396.897 36.2435C396.92 35.9812 396.961 35.8046 397.021 35.7138C397.129 35.5601 397.278 35.4607 397.47 35.4156C397.683 35.3631 397.942 35.3753 398.246 35.452C398.58 35.6108 398.809 35.8647 398.933 36.2138C399.05 36.5422 399.073 36.9966 399.001 37.5769C398.954 37.9638 398.939 38.443 398.957 39.0146C398.996 39.579 399.059 40.1463 399.146 40.7166C399.246 41.259 399.355 41.6945 399.471 42.023C399.617 42.4336 399.756 42.6617 399.888 42.7074C400.033 42.7252 400.188 42.7049 400.352 42.6465C400.598 42.559 400.863 42.3608 401.147 42.052C401.43 41.7432 401.707 41.2864 401.978 40.6815C402.097 40.4311 402.228 40.0839 402.371 39.6401C402.506 39.1757 402.628 38.7047 402.736 38.227C402.857 37.7216 402.944 37.2857 402.999 36.9194C403.075 36.5458 403.098 36.3179 403.069 36.2358C403.025 36.1126 403.055 35.9052 403.16 35.6137C403.224 35.4057 403.273 35.2497 403.306 35.1457C403.351 35.0139 403.458 34.8601 403.627 34.6845C403.762 34.5441 403.902 34.4827 404.047 34.5005C404.185 34.4978 404.355 34.5531 404.557 34.6662C404.689 34.7119 404.784 34.8168 404.843 34.9811C404.921 35.138 405.005 35.3397 405.092 35.5861C405.111 35.8338 405.114 36.1679 405.102 36.5886C405.102 36.9814 405.079 37.3712 405.032 37.758C404.997 38.1171 404.951 38.3764 404.892 38.5361C404.839 38.6474 404.75 38.8524 404.625 39.1512C404.492 39.4295 404.388 39.721 404.311 40.0257C404.017 40.824 403.79 41.3557 403.629 41.6207C403.469 41.8857 403.336 42.1295 403.23 42.3522C402.952 42.9365 402.617 43.4255 402.225 43.8191C401.826 44.1922 401.411 44.4554 400.98 44.6086C400.569 44.7545 400.184 44.7758 399.823 44.6727C399.07 44.5703 398.555 44.1291 398.278 43.3489C398.219 43.1847 398.137 43.0519 398.032 42.9506C397.94 42.8215 397.894 42.7569 397.894 42.7569C397.812 42.7861 397.706 42.8468 397.577 42.9389C397.468 43.0237 397.386 43.2149 397.33 43.5123C397.269 43.927 397.099 44.392 396.82 44.9075C396.554 45.3951 396.259 45.8351 395.936 46.2274C395.606 46.5991 395.317 46.8288 395.071 46.9163ZM414.139 40.4877C413.839 41.0105 413.412 41.4048 412.859 41.6706C412.327 41.9292 411.754 42.0404 411.14 42.0042C410.518 41.9476 409.946 41.7349 409.421 41.3661C408.912 41.0385 408.504 40.6055 408.197 40.0671C407.883 39.5082 407.599 38.7419 407.345 37.7683C407.122 36.9457 407.094 36.0539 407.262 35.0927C407.421 34.1109 407.707 33.1888 408.117 32.3262C408.548 31.4563 409.037 30.785 409.586 30.3125C409.821 29.9978 410.045 29.8142 410.258 29.7618C410.484 29.6815 410.83 29.5817 411.296 29.4622C411.79 29.356 412.172 29.3244 412.442 29.3673C412.732 29.403 412.985 29.4979 413.202 29.6522C413.619 29.8507 413.934 30.0857 414.146 30.3572C414.351 30.6081 414.504 30.8773 414.606 31.1648C414.685 31.6456 414.574 32.3094 414.273 33.156C413.986 33.9749 413.495 34.7391 412.799 35.4489C412.398 35.7531 411.927 35.9898 411.386 36.1589C410.845 36.3281 410.356 36.3515 409.92 36.2291C409.471 36.2035 409.226 36.3255 409.183 36.5951C409.133 36.8442 409.202 37.3976 409.391 38.2553C409.586 39.0646 409.852 39.6176 410.189 39.9142C410.518 40.1902 410.868 40.2971 411.239 40.2346C411.679 40.1709 412.019 40.1194 412.259 40.0802C412.513 40.0132 412.778 39.815 413.054 39.4857C413.31 39.1636 413.475 38.9778 413.55 38.928C413.617 38.8578 413.664 38.7949 413.691 38.7392C413.73 38.6557 413.816 38.4749 413.949 38.1966C414.041 38.0018 414.118 37.859 414.178 37.7683C414.231 37.657 414.309 37.5831 414.411 37.5466C414.514 37.5101 414.625 37.5286 414.743 37.6021C414.855 37.655 414.959 37.6874 415.055 37.6993C415.261 37.6264 415.345 37.735 415.31 38.0251C415.295 38.3079 415.185 38.6822 414.98 39.148C414.769 39.5932 414.488 40.0398 414.139 40.4877ZM411.788 33.9699C411.977 33.787 412.162 33.5594 412.343 33.2871C412.516 32.9942 412.645 32.7057 412.729 32.4215C412.826 32.1094 412.846 31.8713 412.787 31.7071C412.685 31.4196 412.468 31.231 412.135 31.141C411.795 31.0306 411.384 31.142 410.901 31.4754C410.697 31.6172 410.496 31.8624 410.296 32.2109C410.088 32.5389 409.903 32.894 409.738 33.2763C409.594 33.6513 409.479 33.9808 409.395 34.265C409.332 34.542 409.328 34.6936 409.384 34.7201C409.482 34.8009 409.685 34.821 409.995 34.7804C410.297 34.7194 410.619 34.6166 410.96 34.472C411.323 34.3202 411.598 34.1528 411.788 33.9699ZM426.553 35.6601C426.304 35.6099 426.106 35.5414 425.96 35.4547C425.813 35.368 425.7 35.2118 425.62 34.9859C425.51 34.678 425.438 34.3451 425.404 33.9875C425.362 33.6093 425.324 33.2413 425.289 32.8837C425.199 32.4995 425.119 32.1117 425.049 31.7203C424.992 31.301 425.008 30.8907 425.097 30.4892C425.046 29.6288 425.008 28.775 424.985 27.9278C424.954 27.0601 424.885 26.1828 424.778 25.2959C424.775 24.4415 424.774 23.6903 424.775 23.0425C424.789 22.3669 424.8 21.519 424.807 20.4989C424.81 19.92 424.771 19.3212 424.689 18.7026C424.622 18.0561 424.647 17.4457 424.767 16.8714C424.825 16.6428 424.862 16.456 424.88 16.311C424.911 16.1381 424.946 15.9754 424.984 15.8231C424.976 15.7337 425.019 15.6604 425.114 15.6034C425.23 15.5391 425.367 15.502 425.526 15.492C425.684 15.482 425.822 15.5137 425.941 15.5872C425.995 15.5448 426.089 15.5808 426.222 15.6953C426.369 15.782 426.512 15.8929 426.653 16.028C426.793 16.1631 426.875 16.2958 426.898 16.4263C426.927 16.5084 426.947 16.6287 426.957 16.787C426.987 16.938 426.984 17.0897 426.945 17.242C426.892 17.3533 426.854 17.5057 426.83 17.6991C426.82 17.8647 426.79 18.1065 426.741 18.4245C426.754 18.7205 426.78 19.0232 426.821 19.3326C426.854 19.6213 426.86 19.8969 426.837 20.1592C426.843 20.4348 426.824 20.7073 426.781 20.9769C426.759 21.2393 426.752 21.4496 426.762 21.6079C426.786 22.1312 426.776 22.6551 426.731 23.1797C426.707 23.6971 426.714 24.2379 426.753 24.8022C426.784 25.346 426.823 25.9104 426.869 26.4952C426.908 27.0596 426.877 27.6253 426.778 28.1923C426.715 28.4692 426.714 28.7931 426.777 29.164C426.839 29.5349 426.901 29.9058 426.964 30.2768C426.972 30.6901 426.983 31.0792 426.997 31.4442C427.025 31.7813 427.053 31.991 427.082 32.0731C427.119 32.5685 427.187 33.053 427.286 33.5266C427.398 33.9723 427.431 34.3886 427.383 34.7755C427.436 34.9881 427.453 35.1669 427.435 35.312C427.417 35.4571 427.34 35.5654 427.204 35.637C427.06 35.6881 426.843 35.6958 426.553 35.6601ZM434.595 33.1146C434.193 33.3499 433.927 33.4792 433.796 33.5024C433.679 33.4979 433.471 33.433 433.172 33.308C432.786 33.2605 432.435 33.1536 432.122 32.9875C431.829 32.8141 431.584 32.6122 431.387 32.3818C431.202 32.1235 431.088 31.8984 431.042 31.7063C430.849 30.9658 430.75 30.1339 430.745 29.2106C430.741 28.2872 430.809 27.3727 430.95 26.4672C431.09 25.5617 431.302 24.7581 431.585 24.0565C431.88 23.3271 432.225 22.8 432.618 22.4753C432.97 22.1651 433.339 21.9649 433.723 21.8746C434.107 21.7844 434.443 21.8846 434.731 22.1752C435.251 22.6612 435.314 23.0666 434.921 23.3913C434.859 23.4132 434.798 23.4695 434.738 23.5603C434.67 23.6305 434.651 23.7067 434.68 23.7888C434.777 23.8007 435.007 23.7307 435.369 23.5789C435.724 23.4065 436.072 23.2136 436.412 23.0002C436.765 22.7589 436.986 22.565 437.072 22.4186C437.174 22.3133 437.255 22.2496 437.317 22.2277C437.378 22.2059 437.54 22.1717 437.801 22.1252C438.186 22.1038 438.404 22.165 438.455 22.3087C438.485 22.3908 438.545 22.462 438.635 22.5223C438.719 22.562 438.802 22.5672 438.884 22.538C439.035 22.5075 439.047 22.6072 438.921 22.8371C438.815 23.0597 438.608 23.3877 438.299 23.821C437.997 24.206 437.809 24.4578 437.735 24.5764C437.675 24.6672 437.716 24.8145 437.857 25.0185C438.16 25.3502 438.331 25.7982 438.37 26.3625C438.408 26.9269 438.338 27.5416 438.158 28.2067C437.978 28.8718 437.705 29.5353 437.339 30.1972C436.986 30.8313 436.571 31.4183 436.092 31.9584C435.627 32.4706 435.128 32.856 434.595 33.1146ZM433.59 31.9456C433.672 31.9164 433.801 31.8243 433.978 31.6692C434.146 31.4936 434.281 31.3531 434.383 31.2478C434.436 31.1365 434.505 31.0076 434.592 30.8612C434.692 30.6869 434.779 30.5749 434.854 30.5252C434.936 30.496 435.028 30.4288 435.129 30.3234C435.223 30.1975 435.343 29.9815 435.489 29.6754C435.627 29.3488 435.797 28.8837 435.999 28.2802C436.249 27.6826 436.421 27.1589 436.516 26.7091C436.603 26.2388 436.537 25.8576 436.318 25.5656C436.268 25.4908 436.188 25.4614 436.078 25.4773C435.989 25.4859 435.858 25.4747 435.685 25.4437C435.479 25.5166 435.266 25.5346 435.045 25.4976C434.837 25.4328 434.587 25.3481 434.296 25.2436L433.584 24.8028L433.246 25.5123C433.035 25.9576 432.861 26.5743 432.725 27.3626C432.602 28.1231 432.538 28.8858 432.532 29.6509C432.519 30.3954 432.561 30.97 432.659 31.3747C432.748 31.69 432.872 31.877 433.032 31.9359C433.191 31.9948 433.378 31.998 433.59 31.9456ZM445.487 29.4525C445.33 29.5314 445.061 29.5229 444.68 29.427C444.32 29.3238 443.969 29.1825 443.628 29.0032C443.404 28.8284 443.15 28.5371 442.866 28.1292C442.582 27.7213 442.311 27.2511 442.053 26.7187C441.794 26.1862 441.574 25.6634 441.391 25.1501C441.23 24.6295 441.08 24.0467 440.943 23.4016C440.82 22.7287 440.704 22.1107 440.597 21.5477C440.51 20.9775 440.454 20.5927 440.429 20.3933C440.541 20.1223 440.665 19.9166 440.8 19.7761C440.955 19.6283 441.112 19.5494 441.271 19.5394C441.429 19.5294 441.603 19.5949 441.791 19.7359C442.13 19.7775 442.344 19.9559 442.432 20.2712C442.542 20.5791 442.577 20.9713 442.538 21.4475C442.575 21.5502 442.605 21.7012 442.63 21.9006C442.647 22.0794 442.661 22.248 442.671 22.4063C442.609 22.7521 442.608 23.0415 442.667 23.2747C442.74 23.48 442.855 23.7051 443.011 23.9501C443.168 24.1951 443.204 24.4598 443.12 24.744L443.109 24.7132C443.14 24.8642 443.217 25.1142 443.341 25.4632C443.485 25.8049 443.64 26.143 443.805 26.4774C443.984 26.784 444.15 26.991 444.303 27.0982C444.39 27.2757 444.525 27.3316 444.71 27.2659C444.908 27.1725 445.113 26.9375 445.327 26.5612C445.485 26.2273 445.653 25.8209 445.83 25.3419C446.027 24.8556 446.19 24.37 446.318 23.8851C446.467 23.3929 446.572 22.9739 446.634 22.6281C446.717 22.275 446.723 22.0647 446.653 21.9971C446.512 21.8621 446.506 21.714 446.634 21.553C446.775 21.3642 446.889 21.1965 446.975 21.0501C447.034 20.8904 447.052 20.7454 447.029 20.6149C446.998 20.4639 446.999 20.3019 447.03 20.129C447.096 19.9899 447.127 19.817 447.123 19.6103C447.01 19.4885 447.007 19.3507 447.115 19.197C447.235 19.0155 447.294 18.8558 447.291 18.718C447.259 18.4981 447.28 18.3289 447.354 18.2103C447.448 18.0844 447.574 18.0164 447.732 18.0064C447.883 17.9759 448.032 18.004 448.178 18.0907C448.338 18.1496 448.465 18.278 448.558 18.476C448.646 18.7224 448.681 19.1145 448.664 19.6524C448.667 20.183 448.631 20.7626 448.553 21.3912C448.476 22.0198 448.36 22.6044 448.205 23.145C448.161 23.3457 448.127 23.5428 448.103 23.7362C448.08 23.9297 448.023 24.1927 447.933 24.5252C447.863 24.8505 447.715 25.3427 447.486 26.0019C447.38 26.2245 447.278 26.4573 447.18 26.7005C447.074 26.9231 446.964 27.1354 446.851 27.3375C446.621 27.9278 446.407 28.3972 446.207 28.7457C446.007 29.0942 445.767 29.3298 445.487 29.4525ZM454.722 26.4481C453.805 26.4042 453.121 26.1385 452.67 25.6512C452.233 25.1361 451.867 24.237 451.573 22.9541C451.388 22.3031 451.259 21.8749 451.186 21.6696C451.113 21.4643 450.927 21.2991 450.629 21.1741C450.538 21.1138 450.385 21.041 450.169 20.9557C449.975 20.863 449.869 20.7617 449.853 20.6518C449.782 20.5154 449.737 20.3577 449.72 20.1789C449.695 19.9795 449.724 19.8653 449.806 19.8361C449.888 19.8069 449.963 19.7572 450.031 19.6869C450.119 19.6094 450.211 19.5766 450.308 19.5885C450.39 19.5593 450.486 19.5367 450.596 19.5208C450.706 19.5048 450.776 19.5379 450.805 19.62C450.938 19.7346 451.079 19.7077 451.227 19.5394C451.368 19.3505 451.468 19.0143 451.528 18.5308C451.616 18.1293 451.766 17.706 451.978 17.2608C452.21 16.8082 452.443 16.3902 452.677 16.0066C452.924 15.5951 453.138 15.2877 453.32 15.0842C453.409 15.0067 453.544 14.9006 453.728 14.7661C453.911 14.6316 454.108 14.5036 454.32 14.3823C454.551 14.2537 454.753 14.1705 454.925 14.1327C455.301 14.0219 455.646 14.0151 455.958 14.1123C456.291 14.2023 456.613 14.3303 456.927 14.4964C457.259 14.5863 457.511 14.7744 457.682 15.0604C457.874 15.3392 458.011 15.6604 458.094 16.024C458.177 16.3876 458.198 16.7387 458.156 17.0772C458.167 17.3044 458.08 17.6128 457.895 18.0023C457.71 18.3919 457.48 18.7858 457.205 19.184C456.93 19.5822 456.661 19.8976 456.397 20.1302C456.152 20.2867 455.821 20.462 455.404 20.6563C455.008 20.8432 454.626 21.0024 454.256 21.1337C453.9 21.2372 453.649 21.28 453.504 21.2622C453.331 21.2312 453.258 21.3842 453.286 21.7213C453.313 22.0585 453.408 22.5218 453.571 23.1112C453.691 23.5775 453.808 23.906 453.922 24.0967C454.036 24.2874 454.128 24.4165 454.198 24.4841C454.393 24.5767 454.653 24.6922 454.98 24.8305C455.32 24.9409 455.7 24.8404 456.122 24.5289C456.475 24.2877 456.76 23.8858 456.977 23.3233C457.213 22.7536 457.449 22.2769 457.682 21.8933C457.713 21.7204 457.818 21.5908 457.995 21.5046C458.186 21.3906 458.405 21.3243 458.653 21.3056C458.93 21.3691 459.084 21.5108 459.116 21.7307C459.161 21.9227 459.161 22.2466 459.114 22.7024C459.104 22.868 459.026 23.1038 458.88 23.4099C458.748 23.6882 458.588 23.9876 458.402 24.3083C458.228 24.6012 458.061 24.8457 457.899 25.0418C457.4 25.5892 456.887 25.9679 456.361 26.1782C455.827 26.3678 455.281 26.4578 454.722 26.4481ZM454.318 19.5509C454.733 19.2878 455.067 19.0882 455.319 18.9523C455.572 18.8164 455.788 18.6123 455.969 18.34C456.142 18.0471 456.315 17.5579 456.488 16.8723C456.49 16.6172 456.43 16.3841 456.309 16.1729C456.208 15.9543 456.102 15.8186 455.99 15.7656C455.733 15.626 455.485 15.6446 455.247 15.8216C455.023 15.9707 454.827 16.1675 454.659 16.412C454.538 16.5247 454.377 16.7553 454.177 17.1038C453.99 17.4245 453.818 17.7862 453.661 18.189C453.496 18.5713 453.375 18.9148 453.298 19.2195C453.222 19.5242 453.232 19.6825 453.328 19.6944C453.317 19.7911 453.448 19.8023 453.722 19.728C454.017 19.6464 454.215 19.5874 454.318 19.5509Z" fill="#CDF765"/>
<path d="M450.073 49.1293C449.514 49.4435 448.959 49.6061 448.408 49.6169C447.85 49.6072 447.344 49.4518 446.89 49.1506C446.449 48.8216 446.112 48.3286 445.879 47.6716C445.598 47.0776 445.418 46.3437 445.339 45.4701C445.253 44.5759 445.258 43.6489 445.357 42.6891C445.476 41.7219 445.665 40.8568 445.926 40.0936C446.161 39.4549 446.412 38.8574 446.676 38.3008C446.941 37.7443 447.212 37.3358 447.489 37.0754C447.733 36.8501 447.974 36.6834 448.214 36.5753C448.466 36.4394 448.674 36.3423 448.838 36.2839C449.196 36.2493 449.6 36.2793 450.05 36.3738C450.513 36.4405 450.788 36.597 450.875 36.8434C450.875 36.8434 450.907 36.8669 450.97 36.9139C451.046 36.933 451.084 36.9426 451.084 36.9426C451.207 36.8989 451.357 36.9958 451.534 37.2336C451.732 37.464 451.903 37.75 452.047 38.0918C452.185 38.413 452.232 38.7084 452.189 38.978C452.245 39.3972 452.222 39.7871 452.119 40.1475C452.016 40.5078 451.882 40.7172 451.718 40.7756C451.636 40.8048 451.557 40.8442 451.482 40.8939C451.421 40.9158 451.408 40.9781 451.445 41.0807C451.481 41.1834 451.434 41.2463 451.304 41.2696C451.194 41.2855 451.059 41.264 450.899 41.2052C450.732 41.1258 450.589 41.0149 450.469 40.8725C450.432 40.7699 450.411 40.5808 450.406 40.3052C450.401 40.0297 450.37 39.6822 450.313 39.263C450.232 38.6443 450.091 38.2784 449.888 38.1653C449.679 38.0316 449.398 38.1198 449.046 38.4299C448.635 38.8997 448.284 39.4752 447.995 40.1562C447.725 40.83 447.541 41.6468 447.443 42.6067C447.338 43.546 447.346 44.676 447.469 45.9967C447.513 46.5127 447.608 46.9416 447.752 47.2833C447.917 47.6177 448.034 47.7843 448.103 47.7829C448.42 47.7629 448.817 47.6448 449.295 47.4287C449.766 47.192 450.093 46.9719 450.275 46.7685C450.545 46.4875 450.838 46.1406 451.154 45.7278C451.462 45.2945 451.73 44.9102 451.958 44.5749C452.039 44.4768 452.125 44.3304 452.218 44.1356C452.311 43.9408 452.425 43.7732 452.56 43.6327C452.636 43.328 452.729 43.1332 452.838 43.0484C452.946 42.9635 453.124 42.8774 453.37 42.7898C453.549 42.7725 453.725 42.7794 453.898 42.8104C454.07 42.8415 454.192 42.8908 454.262 42.9583C454.353 43.0186 454.348 43.1014 454.247 43.2067C454.164 43.2359 454.124 43.2849 454.125 43.3538C454.14 43.3949 454.147 43.4154 454.147 43.4154C454.217 43.483 454.187 43.6903 454.056 44.0374C453.938 44.3568 453.77 44.7288 453.551 45.1535C453.332 45.5781 453.108 45.9581 452.881 46.2934C452.666 46.6008 452.497 46.7764 452.374 46.8202C452.169 46.8932 452.088 46.9912 452.132 47.1144C452.147 47.1555 452.029 47.3128 451.779 47.5865C451.55 47.8529 451.27 48.1375 450.938 48.4404C450.627 48.7359 450.339 48.9656 450.073 49.1293ZM457.605 45.5857C457.465 45.4506 457.318 45.3639 457.166 45.3256C457.006 45.2667 456.912 45.1962 456.883 45.1141C456.854 45.0319 456.814 44.9535 456.765 44.8786C456.728 44.776 456.654 44.6982 456.543 44.6452C456.396 44.5585 456.308 44.2777 456.278 43.8028C456.241 43.3074 456.253 42.6903 456.314 41.9518C456.368 41.1926 456.462 40.3845 456.597 39.5273C456.703 39.3047 456.791 39.0308 456.86 38.7055C456.93 38.3802 456.991 38.162 457.044 38.0506C457.014 37.9685 457.02 37.8857 457.059 37.8022C457.092 37.6982 457.149 37.6316 457.231 37.6025L457.166 37.4177C457.129 37.315 457.159 37.1077 457.257 36.7957C457.374 36.4763 457.526 36.1219 457.711 35.7323C457.889 35.3222 458.085 34.929 458.298 34.5527C458.504 34.1558 458.687 33.8593 458.849 33.6632C459.178 33.2226 459.557 32.8912 459.987 32.6691C460.438 32.4397 460.874 32.4001 461.298 32.5503C461.381 32.59 461.52 32.6562 461.715 32.7488C461.91 32.8415 462.132 32.9474 462.383 33.0665C462.647 33.1578 462.914 33.2593 463.185 33.3711L464.685 33.9825L464.678 35.7193C464.703 36.6354 464.887 37.3795 465.229 37.9516C465.591 38.5165 465.986 38.9773 466.414 39.3342C466.597 39.5235 466.878 39.6661 467.259 39.762C467.661 39.8506 468.013 39.8643 468.315 39.8033C468.486 39.7654 468.662 39.7723 468.842 39.8239C469.022 39.8755 469.153 40.0142 469.233 40.24C469.306 40.4453 469.323 40.6242 469.285 40.7765C469.246 40.9289 469.132 41.0621 468.941 41.1761C468.293 41.499 467.598 41.5609 466.857 41.3618C466.136 41.1555 465.361 40.6677 464.533 39.8983C464.407 39.8043 464.214 39.6186 463.954 39.3412C463.706 39.036 463.554 38.8357 463.497 38.7403C463.452 38.8721 463.367 39.1219 463.243 39.4896C463.112 39.8367 463.007 40.0938 462.928 40.2607C461.995 42.2569 461.086 43.7013 460.201 44.5939C459.329 45.4587 458.464 45.7893 457.605 45.5857ZM458.101 43.4672C458.152 43.6109 458.368 43.5343 458.748 43.2374C459.141 42.9126 459.522 42.4537 459.889 41.8607C460.375 41.0173 460.84 40.1123 461.283 39.1457C461.746 38.1718 462.084 37.3002 462.296 36.5311L462.58 35.1817C462.206 34.7825 461.868 34.5445 461.563 34.4678C461.271 34.3633 461.043 34.3402 460.879 34.3985C460.612 34.4934 460.3 34.882 459.941 35.5644C459.603 36.2395 459.282 37.0935 458.978 38.1263C458.675 39.1591 458.431 40.2631 458.247 41.4382C458.188 41.9218 458.145 42.3878 458.12 42.8362C458.107 43.2569 458.101 43.4672 458.101 43.4672ZM475.055 40.5646C474.738 40.5846 474.469 40.5761 474.248 40.5391C474.019 40.4816 473.704 40.3741 473.301 40.2166C472.938 39.9757 472.633 39.737 472.387 39.5006C472.162 39.257 471.963 38.9577 471.791 38.6027C471.611 38.2272 471.416 37.7418 471.204 37.1464C471.116 36.9 471.026 36.5159 470.933 35.994C470.861 35.4648 470.791 34.9114 470.725 34.3338C470.672 33.7284 470.62 33.1919 470.569 32.7243C470.539 32.2493 470.512 31.9466 470.489 31.8162C470.456 31.5274 470.299 31.4099 470.017 31.4637C469.736 31.5174 469.434 31.613 469.113 31.7502C468.805 31.8596 468.589 31.9018 468.464 31.8767C468.375 31.8853 468.323 31.8691 468.308 31.8281C468.286 31.7665 468.275 31.7357 468.275 31.7357C468.246 31.6536 468.218 31.6059 468.19 31.5926C468.175 31.5516 468.119 31.4907 468.021 31.4099C467.951 31.3424 467.931 31.2222 467.962 31.0493C468.006 30.8485 468.134 30.6875 468.345 30.5662C468.516 30.4595 468.751 30.3411 469.052 30.2112C469.366 30.0534 469.669 29.8648 469.961 29.6454C470.245 29.4055 470.447 29.1259 470.564 28.8066C470.589 28.2893 470.625 27.7097 470.675 27.0678C470.724 26.4259 470.785 25.8493 470.858 25.3379C470.944 24.7987 471.01 24.4631 471.055 24.3313C471.339 24.0225 471.57 23.8595 471.748 23.8422C471.92 23.8043 472.167 23.9132 472.489 24.1687C472.643 24.2759 472.755 24.3633 472.825 24.4309C472.916 24.4911 472.97 24.6106 472.987 24.7895C473.004 24.9683 472.982 25.2651 472.922 25.6797C472.881 26.0871 472.804 26.6813 472.688 27.4623C472.658 27.7041 472.632 27.9217 472.608 28.1151C472.577 28.288 472.561 28.3745 472.561 28.3745C472.651 28.3658 472.777 28.3323 472.942 28.274C473.106 28.2156 473.308 28.1324 473.547 28.0243C473.758 27.903 474.034 27.7701 474.376 27.6255C474.711 27.4604 474.988 27.3619 475.208 27.3301C475.68 27.1623 476.062 27.1306 476.353 27.2352C476.637 27.3192 476.863 27.5628 477.029 27.9661C477.15 28.1774 477.147 28.3291 477.017 28.4212C476.909 28.506 476.577 28.6469 476.023 28.8439C475.838 28.9096 475.555 29.022 475.172 29.1811C474.789 29.3402 474.386 29.5067 473.962 29.6804C473.558 29.8469 473.21 30.0053 472.917 30.1558C472.637 30.2785 472.504 30.3603 472.518 30.4014C472.471 30.4644 472.438 30.6959 472.418 31.096C472.419 31.4888 472.428 31.9365 472.445 32.4393C472.475 32.9142 472.501 33.3444 472.522 33.7299C472.626 34.479 472.761 35.2172 472.927 35.9444C473.114 36.6643 473.319 37.2736 473.542 37.7723C473.766 38.271 474.006 38.5901 474.264 38.7298C474.514 38.8489 474.888 38.7623 475.385 38.47C475.876 38.1571 476.237 37.8089 476.471 37.4252C476.731 36.986 476.974 36.7262 477.2 36.6459C477.446 36.5584 477.62 36.6239 477.721 36.8424C477.835 37.0332 477.828 37.371 477.699 37.8559C477.584 38.313 477.393 38.7509 477.126 39.1697C476.851 39.5679 476.53 39.9015 476.163 40.1706C475.81 40.4119 475.44 40.5432 475.055 40.5646ZM484.102 36.9334C483.076 37.2982 482.195 37.1949 481.46 36.6236C481.243 36.4693 481.099 36.2896 481.026 36.0843C480.966 35.8511 480.973 35.6753 481.046 35.5567C481.14 35.4308 481.31 35.4516 481.554 35.619C481.9 35.6811 482.34 35.6174 482.873 35.4277C483.14 35.3328 483.41 35.2138 483.683 35.0706C483.949 34.9069 484.207 34.7226 484.458 34.5178C484.715 34.2647 484.876 34.0686 484.942 33.9294C485.001 33.7698 484.944 33.6744 484.771 33.6434L484.802 33.6324C484.217 33.6784 483.593 33.6459 482.929 33.5349C482.279 33.3961 481.693 33.2112 481.171 32.9803C480.643 32.7288 480.293 32.46 480.122 32.1739C479.731 31.5959 479.543 30.9345 479.556 30.19C479.561 29.425 479.699 28.7056 479.968 28.0318C480.096 27.8708 480.257 27.6746 480.452 27.4434C480.641 27.1916 480.803 27.0299 480.939 26.9583L480.95 26.9891C481.194 26.4399 481.55 25.9436 482.017 25.5002C482.504 25.0496 483.029 24.6085 483.593 24.1771L484.033 23.9513C484.265 23.8227 484.463 23.7293 484.627 23.6709C484.606 23.6782 484.655 23.6841 484.772 23.6887C484.882 23.6728 484.982 23.6605 485.071 23.6518C485.216 23.6696 485.33 23.664 485.412 23.6348C485.693 23.581 485.983 23.6166 486.282 23.7417C486.581 23.8667 486.843 24.0511 487.068 24.2948C487.307 24.5106 487.449 24.749 487.496 25.0099C487.593 25.4146 487.594 25.8074 487.498 26.1883C487.423 26.5619 487.259 26.8167 487.007 26.9526C487.041 26.9175 486.999 26.8976 486.882 26.8931C486.778 26.8606 486.663 26.8319 486.539 26.8068L486.468 26.9012C486.468 26.9012 486.451 26.8843 486.416 26.8505C486.394 26.7889 486.348 26.7244 486.277 26.6568C486.172 26.5556 486.094 26.433 486.043 26.2893C485.984 26.1251 485.933 25.9469 485.888 25.7549C485.848 25.5144 485.801 25.381 485.745 25.3545C485.71 25.3207 485.566 25.3374 485.312 25.4044C485.003 25.4449 484.6 25.6458 484.104 26.007C483.629 26.3609 483.257 26.7473 482.99 27.166C482.64 27.614 482.359 28.0261 482.146 28.4024C481.926 28.7582 481.767 29.0921 481.67 29.4042C481.565 29.6956 481.496 30.0209 481.461 30.3799C481.41 30.5601 481.368 30.7367 481.337 30.9096C481.32 31.0546 481.329 31.1785 481.365 31.2812C481.446 31.507 481.694 31.6847 482.11 31.8144C482.539 31.9162 483.147 32.0007 483.934 32.0679C484.548 32.1041 485.087 32.1899 485.552 32.3255C486.016 32.4611 486.382 32.6779 486.65 32.9758C486.72 33.0434 486.767 33.1424 486.79 33.2729C486.827 33.3755 486.832 33.4547 486.805 33.5103C486.861 33.5368 486.892 33.5603 486.9 33.5808L486.889 33.55C487.14 33.738 487.232 33.9947 487.162 34.3199C487.113 34.6379 486.941 34.9652 486.644 35.3018C486.361 35.6106 485.981 35.9075 485.504 36.1926L485.535 36.1816C485.297 36.3586 485.052 36.515 484.8 36.6509C484.56 36.759 484.328 36.8531 484.102 36.9334Z" fill="#CDF765"/>
<path class="el4" d="M501.753 22.1601C510.217 28.2734 523.311 30.3101 528.087 16.0469" stroke="#CDF765" stroke-width="0.940503" stroke-linecap="round"/>
<path d="M518.682 11.201C519.623 11.8145 521.6 12.7228 520.655 10.2651C519.744 7.8982 517.093 10.7457 519.094 11.4126" stroke="#CDF765" stroke-width="0.940503" stroke-linecap="round"/>
<path d="M507.866 15.2639C509.194 15.2639 509.373 12.7981 508.734 12.7579C507.083 12.6541 505.215 15.2639 507.562 15.2639" stroke="#CDF765" stroke-width="0.940503" stroke-linecap="round"/>




<style>

    .el1, .el2 {
        stroke: #CDF765;
        stroke-width: 0.940503;
        stroke-linecap: round;
        stroke-dasharray: 240; /* Довжина штриха відповідає довжині шляху */
        stroke-dashoffset: 240; /* Початкове значення для анімації */
        animation: wayline 5s linear reverse infinite;
      }

      .el4 {
        stroke: #CDF765;
        stroke-width: 0.940503;
        stroke-linecap: round;
        stroke-dasharray: 50; /* Довжина штриха відповідає довжині шляху */
        stroke-dashoffset: 50; /* Початкове значення для анімації */
        animation: wayline1 3s linear reverse infinite;
      }
   

      @keyframes wayline {
      
        <!-- to {
          stroke-dashoffset:0;
        } -->

        0% {
            stroke-dashoffset: 260; /* Початок: лінія прихована */
        }
        50% {
            stroke-dashoffset: 0; /* Середина: лінія повністю намальована */
        }
        100% {
            stroke-dashoffset: 260; /* Кінець: лінія знову прихована */
        }
      }

      @keyframes wayline1 {
      
        <!-- to {
          stroke-dashoffset:0;
        } -->

        0% {
            stroke-dashoffset: 50; /* Початок: лінія прихована */
        }
        50% {
            stroke-dashoffset: 0; /* Середина: лінія повністю намальована */
        }
        100% {
            stroke-dashoffset: 50; /* Кінець: лінія знову прихована */
        }
      }
    
      
    
</style>




</svg>
