<svg width="540" height="68" viewBox="0 0 540 68" fill="none" xmlns="http://www.w3.org/2000/svg">
<g clip-path="url(#clip0_14353_2613)">
<path d="M34.4013 1.33962C34.4013 7.65371 33.0161 13.2019 30.5433 17.8457C27.865 22.8741 23.9149 26.8386 19.065 29.5694C14.0521 32.3972 8.07556 33.9047 1.55346 33.9047C1.28068 33.9047 1.01143 33.9012 0.742188 33.8943V17.3917C1.00789 17.3986 1.28068 17.4021 1.55346 17.4021C11.1931 17.4021 17.3609 13.6074 19.0898 6.07346C19.4228 4.63182 19.5928 3.05503 19.5928 1.33962C19.5928 1.22526 19.5928 1.11436 19.5893 1H34.3977C34.4013 1.1109 34.4013 1.22526 34.4013 1.33962Z" fill="#CDF765"/>
<path d="M34.4013 34.4336C34.4013 54.6408 20.2199 66.9986 1.55346 66.9986C1.28068 66.9986 1.01143 66.9952 0.742188 66.9882V50.4856C1.00789 50.4926 1.28068 50.496 1.55346 50.496C13.0389 50.496 19.5928 45.1107 19.5928 34.4336C19.5928 34.3192 19.5928 34.2083 19.5893 34.0974H34.3977C34.4013 34.2083 34.4013 34.3227 34.4013 34.4336Z" fill="#CDF765"/>
<path d="M68.0579 17.3917V33.8943C67.7887 33.9012 67.5194 33.9047 67.2502 33.9047C60.7281 33.9047 54.7516 32.3972 49.7386 29.5694C44.8887 26.8386 40.9386 22.8741 38.2603 17.8491C35.7875 13.2019 34.4023 7.65371 34.4023 1.33962C34.4023 1.22526 34.4023 1.1109 34.4059 1H49.2143C49.2108 1.11436 49.2108 1.22526 49.2108 1.33962C49.2108 3.05503 49.3808 4.63182 49.7138 6.07346C51.4427 13.6074 57.607 17.4021 67.2502 17.4021C67.5229 17.4021 67.7922 17.3986 68.0579 17.3917Z" fill="#CDF765"/>
<path d="M68.0579 50.4859V66.9885C67.7887 66.9954 67.5194 66.9989 67.2502 66.9989C48.5837 66.9989 34.4023 54.641 34.4023 34.4338C34.4023 34.3229 34.4023 34.2086 34.4059 34.0977H49.2143C49.2108 34.2086 49.2108 34.3194 49.2108 34.4338C49.2108 45.1109 55.7612 50.4963 67.2502 50.4963C67.5229 50.4963 67.7922 50.4928 68.0579 50.4859Z" fill="#CDF765"/>
</g>
<mask id="path-5-outside-1_14353_2613" maskUnits="userSpaceOnUse" x="106.057" y="0" width="434" height="68" fill="black">
<rect fill="white" x="106.057" width="434" height="68"/>
<path d="M176.533 34.1381C176.533 39.7225 175.591 44.5704 173.707 48.682C171.888 52.7936 169.42 56.1994 166.302 58.8996C163.184 61.5997 159.513 63.6248 155.291 64.9749C151.068 66.325 146.553 67 141.746 67C137.004 67 132.522 66.325 128.299 64.9749C124.077 63.6248 120.374 61.5997 117.191 58.8996C114.073 56.1994 111.604 52.7936 109.785 48.682C107.966 44.5704 107.057 39.7225 107.057 34.1381C107.057 28.5537 107.966 23.7057 109.785 19.5941C111.604 15.4212 114.073 11.9847 117.191 9.28452C120.374 6.52301 124.012 4.49791 128.104 3.2092C132.262 1.9205 136.614 1.27615 141.162 1.27615C141.356 1.27615 141.551 1.27615 141.746 1.27615C146.553 1.33752 151.068 2.04324 155.291 3.39331C159.513 4.68201 163.184 6.70711 166.302 9.46862C169.42 12.1688 171.888 15.5746 173.707 19.6862C175.591 23.7364 176.533 28.5537 176.533 34.1381ZM164.743 34.1381C164.743 30.5174 164.093 27.3264 162.794 24.5649C161.495 21.8033 159.773 19.4714 157.629 17.569C155.486 15.6053 153.05 14.1325 150.321 13.1506C147.593 12.1074 144.734 11.5858 141.746 11.5858C141.551 11.5858 141.389 11.5858 141.259 11.5858C138.596 11.5858 135.9 12.0767 133.171 13.0586C130.508 14.0404 128.104 15.5133 125.961 17.477C123.817 19.3794 122.095 21.742 120.796 24.5649C119.497 27.3877 118.847 30.5788 118.847 34.1381C118.847 37.6973 119.497 40.8884 120.796 43.7113C122.095 46.4728 123.817 48.8354 125.961 50.7992C128.104 52.7015 130.54 54.1743 133.269 55.2176C135.997 56.1994 138.823 56.6904 141.746 56.6904C144.864 56.6904 147.82 56.1994 150.613 55.2176C153.407 54.1743 155.843 52.7015 157.922 50.7992C160 48.8354 161.657 46.4728 162.891 43.7113C164.126 40.8884 164.743 37.6973 164.743 34.1381Z"/>
<path d="M241.667 1.9205H254.14V66.3556H242.447V30.7322C242.447 28.8912 242.577 26.8661 242.837 24.6569C243.162 22.3863 243.551 20.3305 244.006 18.4895H243.811C243.356 20.3305 242.772 22.325 242.057 24.4728C241.343 26.5593 240.563 28.4616 239.719 30.1799L223.348 66.3556H213.312L196.844 30.1799C195.999 28.4616 195.22 26.5593 194.505 24.4728C193.791 22.325 193.239 20.3305 192.849 18.4895H192.654C193.044 20.3305 193.368 22.3863 193.628 24.6569C193.953 26.8661 194.116 28.8912 194.116 30.7322V66.3556H182.422V1.9205H194.895L217.502 50.431C217.762 50.9219 217.924 51.4742 217.989 52.0879C218.119 52.6402 218.184 53.1618 218.184 53.6527H218.379C218.379 53.1618 218.411 52.6402 218.476 52.0879C218.606 51.4742 218.801 50.9219 219.061 50.431L241.667 1.9205Z"/>
<path d="M259.977 1.9205H271.67V66.3556H259.977V1.9205Z"/>
<path d="M288.887 46.1046C289.082 49.4798 290.738 52.0572 293.856 53.8368C297.039 55.5551 301.23 56.4449 306.426 56.5063C306.621 56.5063 306.816 56.5063 307.011 56.5063C312.793 56.5063 317.34 55.6778 320.653 54.0209C324.031 52.3027 325.72 49.6639 325.72 46.1046C325.72 43.8954 324.551 42.2692 322.212 41.2259C319.874 40.1827 316.95 39.3849 313.442 38.8326C309.934 38.219 306.134 37.6667 302.042 37.1757C297.949 36.6848 294.149 35.887 290.641 34.7824C287.133 33.6165 284.21 31.9596 281.871 29.8117C279.532 27.6639 278.363 24.6262 278.363 20.6987C278.363 17.2622 279.11 14.2859 280.604 11.7699C282.163 9.25384 284.242 7.19805 286.84 5.60251C289.439 4.00697 292.427 2.841 295.805 2.1046C299.183 1.3682 302.724 1 306.426 1C306.686 1 306.979 1 307.303 1C311.071 1.06137 314.579 1.46025 317.827 2.19665C321.075 2.93305 323.901 4.06834 326.305 5.60251C328.708 7.07531 330.657 8.97768 332.151 11.3096C333.645 13.5802 334.49 16.2803 334.685 19.41L323.576 20.3305C323.317 17.3236 321.887 15.0837 319.289 13.6109C316.69 12.0767 312.695 11.3096 307.303 11.3096C301.782 11.3096 297.527 12.1074 294.538 13.7029C291.55 15.2985 290.056 17.5997 290.056 20.6067C290.056 22.6318 291.225 24.1046 293.564 25.0251C295.903 25.8842 298.826 26.59 302.334 27.1423C305.842 27.6332 309.642 28.1241 313.735 28.6151C317.827 29.0446 321.628 29.8731 325.135 31.1004C328.643 32.2664 331.567 33.9847 333.905 36.2552C336.244 38.5258 337.413 41.6862 337.413 45.7364C337.413 47.9456 336.958 50.3082 336.049 52.8243C335.205 55.2789 333.613 57.5495 331.274 59.636C329.001 61.7225 325.85 63.4407 321.822 64.7908C317.86 66.1409 312.793 66.8159 306.621 66.8159C300.97 66.8159 296.292 66.2329 292.59 65.0669C288.952 63.901 285.996 62.3975 283.722 60.5565C281.514 58.7155 279.955 56.5983 279.045 54.205C278.136 51.8117 277.616 49.3877 277.486 46.9331L288.887 46.1046Z"/>
<path d="M412.717 34.1381C412.717 39.7225 411.775 44.5704 409.891 48.682C408.073 52.7936 405.604 56.1994 402.486 58.8996C399.368 61.5997 395.697 63.6248 391.475 64.9749C387.252 66.325 382.737 67 377.93 67C373.188 67 368.706 66.325 364.483 64.9749C360.261 63.6248 356.558 61.5997 353.375 58.8996C350.257 56.1994 347.788 52.7936 345.969 48.682C344.15 44.5704 343.241 39.7225 343.241 34.1381C343.241 28.5537 344.15 23.7057 345.969 19.5941C347.788 15.4212 350.257 11.9847 353.375 9.28452C356.558 6.52301 360.196 4.49791 364.288 3.2092C368.446 1.9205 372.798 1.27615 377.346 1.27615C377.54 1.27615 377.735 1.27615 377.93 1.27615C382.737 1.33752 387.252 2.04324 391.475 3.39331C395.697 4.68201 399.368 6.70711 402.486 9.46862C405.604 12.1688 408.073 15.5746 409.891 19.6862C411.775 23.7364 412.717 28.5537 412.717 34.1381ZM400.927 34.1381C400.927 30.5174 400.277 27.3264 398.978 24.5649C397.679 21.8033 395.957 19.4714 393.813 17.569C391.67 15.6053 389.234 14.1325 386.505 13.1506C383.777 12.1074 380.919 11.5858 377.93 11.5858C377.735 11.5858 377.573 11.5858 377.443 11.5858C374.78 11.5858 372.084 12.0767 369.355 13.0586C366.692 14.0404 364.288 15.5133 362.145 17.477C360.001 19.3794 358.279 21.742 356.98 24.5649C355.681 27.3877 355.031 30.5788 355.031 34.1381C355.031 37.6973 355.681 40.8884 356.98 43.7113C358.279 46.4728 360.001 48.8354 362.145 50.7992C364.288 52.7015 366.724 54.1743 369.453 55.2176C372.181 56.1994 375.007 56.6904 377.93 56.6904C381.048 56.6904 384.004 56.1994 386.798 55.2176C389.591 54.1743 392.027 52.7015 394.106 50.7992C396.185 48.8354 397.841 46.4728 399.075 43.7113C400.31 40.8884 400.927 37.6973 400.927 34.1381Z"/>
<path d="M430.3 66.3556H418.606V1.9205H471.713V12.2301H433.125C432.281 12.2301 431.436 12.046 430.592 11.6778C429.747 11.3096 429.033 10.8494 428.448 10.2971L428.351 10.4812C428.935 11.0335 429.39 11.7085 429.715 12.5063C430.105 13.304 430.3 14.0711 430.3 14.8075V30.5481H469.861V39.3849H433.32C432.411 39.3849 431.501 39.2008 430.592 38.8326C429.682 38.4644 428.903 37.9735 428.253 37.3598L428.156 37.5439C428.805 38.0962 429.325 38.802 429.715 39.6611C430.105 40.5202 430.3 41.3794 430.3 42.2385V66.3556Z"/>
<path d="M514.048 66.3556H502.355V12.2301H477.605V1.9205H538.799V12.2301H517.362C516.387 12.2301 515.38 12.0153 514.341 11.5858C513.366 11.1562 512.522 10.6039 511.807 9.92887L511.612 10.113C512.327 10.788 512.912 11.6165 513.366 12.5983C513.821 13.5188 514.048 14.4393 514.048 15.3598V66.3556Z"/>
</mask>
<path d="M176.533 34.1381C176.533 39.7225 175.591 44.5704 173.707 48.682C171.888 52.7936 169.42 56.1994 166.302 58.8996C163.184 61.5997 159.513 63.6248 155.291 64.9749C151.068 66.325 146.553 67 141.746 67C137.004 67 132.522 66.325 128.299 64.9749C124.077 63.6248 120.374 61.5997 117.191 58.8996C114.073 56.1994 111.604 52.7936 109.785 48.682C107.966 44.5704 107.057 39.7225 107.057 34.1381C107.057 28.5537 107.966 23.7057 109.785 19.5941C111.604 15.4212 114.073 11.9847 117.191 9.28452C120.374 6.52301 124.012 4.49791 128.104 3.2092C132.262 1.9205 136.614 1.27615 141.162 1.27615C141.356 1.27615 141.551 1.27615 141.746 1.27615C146.553 1.33752 151.068 2.04324 155.291 3.39331C159.513 4.68201 163.184 6.70711 166.302 9.46862C169.42 12.1688 171.888 15.5746 173.707 19.6862C175.591 23.7364 176.533 28.5537 176.533 34.1381ZM164.743 34.1381C164.743 30.5174 164.093 27.3264 162.794 24.5649C161.495 21.8033 159.773 19.4714 157.629 17.569C155.486 15.6053 153.05 14.1325 150.321 13.1506C147.593 12.1074 144.734 11.5858 141.746 11.5858C141.551 11.5858 141.389 11.5858 141.259 11.5858C138.596 11.5858 135.9 12.0767 133.171 13.0586C130.508 14.0404 128.104 15.5133 125.961 17.477C123.817 19.3794 122.095 21.742 120.796 24.5649C119.497 27.3877 118.847 30.5788 118.847 34.1381C118.847 37.6973 119.497 40.8884 120.796 43.7113C122.095 46.4728 123.817 48.8354 125.961 50.7992C128.104 52.7015 130.54 54.1743 133.269 55.2176C135.997 56.1994 138.823 56.6904 141.746 56.6904C144.864 56.6904 147.82 56.1994 150.613 55.2176C153.407 54.1743 155.843 52.7015 157.922 50.7992C160 48.8354 161.657 46.4728 162.891 43.7113C164.126 40.8884 164.743 37.6973 164.743 34.1381Z" stroke="#CDF765" stroke-width="2" mask="url(#path-5-outside-1_14353_2613)"/>
<path d="M241.667 1.9205H254.14V66.3556H242.447V30.7322C242.447 28.8912 242.577 26.8661 242.837 24.6569C243.162 22.3863 243.551 20.3305 244.006 18.4895H243.811C243.356 20.3305 242.772 22.325 242.057 24.4728C241.343 26.5593 240.563 28.4616 239.719 30.1799L223.348 66.3556H213.312L196.844 30.1799C195.999 28.4616 195.22 26.5593 194.505 24.4728C193.791 22.325 193.239 20.3305 192.849 18.4895H192.654C193.044 20.3305 193.368 22.3863 193.628 24.6569C193.953 26.8661 194.116 28.8912 194.116 30.7322V66.3556H182.422V1.9205H194.895L217.502 50.431C217.762 50.9219 217.924 51.4742 217.989 52.0879C218.119 52.6402 218.184 53.1618 218.184 53.6527H218.379C218.379 53.1618 218.411 52.6402 218.476 52.0879C218.606 51.4742 218.801 50.9219 219.061 50.431L241.667 1.9205Z" stroke="#CDF765" stroke-width="2" mask="url(#path-5-outside-1_14353_2613)"/>
<path d="M259.977 1.9205H271.67V66.3556H259.977V1.9205Z" stroke="#CDF765" stroke-width="2" mask="url(#path-5-outside-1_14353_2613)"/>
<path d="M288.887 46.1046C289.082 49.4798 290.738 52.0572 293.856 53.8368C297.039 55.5551 301.23 56.4449 306.426 56.5063C306.621 56.5063 306.816 56.5063 307.011 56.5063C312.793 56.5063 317.34 55.6778 320.653 54.0209C324.031 52.3027 325.72 49.6639 325.72 46.1046C325.72 43.8954 324.551 42.2692 322.212 41.2259C319.874 40.1827 316.95 39.3849 313.442 38.8326C309.934 38.219 306.134 37.6667 302.042 37.1757C297.949 36.6848 294.149 35.887 290.641 34.7824C287.133 33.6165 284.21 31.9596 281.871 29.8117C279.532 27.6639 278.363 24.6262 278.363 20.6987C278.363 17.2622 279.11 14.2859 280.604 11.7699C282.163 9.25384 284.242 7.19805 286.84 5.60251C289.439 4.00697 292.427 2.841 295.805 2.1046C299.183 1.3682 302.724 1 306.426 1C306.686 1 306.979 1 307.303 1C311.071 1.06137 314.579 1.46025 317.827 2.19665C321.075 2.93305 323.901 4.06834 326.305 5.60251C328.708 7.07531 330.657 8.97768 332.151 11.3096C333.645 13.5802 334.49 16.2803 334.685 19.41L323.576 20.3305C323.317 17.3236 321.887 15.0837 319.289 13.6109C316.69 12.0767 312.695 11.3096 307.303 11.3096C301.782 11.3096 297.527 12.1074 294.538 13.7029C291.55 15.2985 290.056 17.5997 290.056 20.6067C290.056 22.6318 291.225 24.1046 293.564 25.0251C295.903 25.8842 298.826 26.59 302.334 27.1423C305.842 27.6332 309.642 28.1241 313.735 28.6151C317.827 29.0446 321.628 29.8731 325.135 31.1004C328.643 32.2664 331.567 33.9847 333.905 36.2552C336.244 38.5258 337.413 41.6862 337.413 45.7364C337.413 47.9456 336.958 50.3082 336.049 52.8243C335.205 55.2789 333.613 57.5495 331.274 59.636C329.001 61.7225 325.85 63.4407 321.822 64.7908C317.86 66.1409 312.793 66.8159 306.621 66.8159C300.97 66.8159 296.292 66.2329 292.59 65.0669C288.952 63.901 285.996 62.3975 283.722 60.5565C281.514 58.7155 279.955 56.5983 279.045 54.205C278.136 51.8117 277.616 49.3877 277.486 46.9331L288.887 46.1046Z" stroke="#CDF765" stroke-width="2" mask="url(#path-5-outside-1_14353_2613)"/>
<path d="M412.717 34.1381C412.717 39.7225 411.775 44.5704 409.891 48.682C408.073 52.7936 405.604 56.1994 402.486 58.8996C399.368 61.5997 395.697 63.6248 391.475 64.9749C387.252 66.325 382.737 67 377.93 67C373.188 67 368.706 66.325 364.483 64.9749C360.261 63.6248 356.558 61.5997 353.375 58.8996C350.257 56.1994 347.788 52.7936 345.969 48.682C344.15 44.5704 343.241 39.7225 343.241 34.1381C343.241 28.5537 344.15 23.7057 345.969 19.5941C347.788 15.4212 350.257 11.9847 353.375 9.28452C356.558 6.52301 360.196 4.49791 364.288 3.2092C368.446 1.9205 372.798 1.27615 377.346 1.27615C377.54 1.27615 377.735 1.27615 377.93 1.27615C382.737 1.33752 387.252 2.04324 391.475 3.39331C395.697 4.68201 399.368 6.70711 402.486 9.46862C405.604 12.1688 408.073 15.5746 409.891 19.6862C411.775 23.7364 412.717 28.5537 412.717 34.1381ZM400.927 34.1381C400.927 30.5174 400.277 27.3264 398.978 24.5649C397.679 21.8033 395.957 19.4714 393.813 17.569C391.67 15.6053 389.234 14.1325 386.505 13.1506C383.777 12.1074 380.919 11.5858 377.93 11.5858C377.735 11.5858 377.573 11.5858 377.443 11.5858C374.78 11.5858 372.084 12.0767 369.355 13.0586C366.692 14.0404 364.288 15.5133 362.145 17.477C360.001 19.3794 358.279 21.742 356.98 24.5649C355.681 27.3877 355.031 30.5788 355.031 34.1381C355.031 37.6973 355.681 40.8884 356.98 43.7113C358.279 46.4728 360.001 48.8354 362.145 50.7992C364.288 52.7015 366.724 54.1743 369.453 55.2176C372.181 56.1994 375.007 56.6904 377.93 56.6904C381.048 56.6904 384.004 56.1994 386.798 55.2176C389.591 54.1743 392.027 52.7015 394.106 50.7992C396.185 48.8354 397.841 46.4728 399.075 43.7113C400.31 40.8884 400.927 37.6973 400.927 34.1381Z" stroke="#CDF765" stroke-width="2" mask="url(#path-5-outside-1_14353_2613)"/>
<path d="M430.3 66.3556H418.606V1.9205H471.713V12.2301H433.125C432.281 12.2301 431.436 12.046 430.592 11.6778C429.747 11.3096 429.033 10.8494 428.448 10.2971L428.351 10.4812C428.935 11.0335 429.39 11.7085 429.715 12.5063C430.105 13.304 430.3 14.0711 430.3 14.8075V30.5481H469.861V39.3849H433.32C432.411 39.3849 431.501 39.2008 430.592 38.8326C429.682 38.4644 428.903 37.9735 428.253 37.3598L428.156 37.5439C428.805 38.0962 429.325 38.802 429.715 39.6611C430.105 40.5202 430.3 41.3794 430.3 42.2385V66.3556Z" stroke="#CDF765" stroke-width="2" mask="url(#path-5-outside-1_14353_2613)"/>
<path d="M514.048 66.3556H502.355V12.2301H477.605V1.9205H538.799V12.2301H517.362C516.387 12.2301 515.38 12.0153 514.341 11.5858C513.366 11.1562 512.522 10.6039 511.807 9.92887L511.612 10.113C512.327 10.788 512.912 11.6165 513.366 12.5983C513.821 13.5188 514.048 14.4393 514.048 15.3598V66.3556Z" stroke="#CDF765" stroke-width="2" mask="url(#path-5-outside-1_14353_2613)"/>
<defs>
<clipPath id="clip0_14353_2613">
<rect width="67.3147" height="66" fill="white" transform="translate(0.742188 1)"/>
</clipPath>
</defs>
</svg>
