<svg width="44" height="44" viewBox="0 0 44 44" fill="none" xmlns="http://www.w3.org/2000/svg">
<path d="M21.2888 12.4138C23.5768 9.79216 25.6586 7.71132 24.6814 6.65716C23.7042 5.60299 7.89541 11.4724 8.78733 13.0051C9.31899 13.9181 23.4439 24.1682 24.8372 24.9932C26.4735 25.9612 29.1025 24.8282 28.8706 23.0279L26.7375 6.51782C26.7375 6.51782 27.8173 7.96799 28.151 8.96991M32.1605 24.2984C31.9295 22.499 30.0274 7.78741 30.0274 7.78741C30.0274 7.78741 31.1072 9.23757 31.4409 10.2404" stroke="#CFD1CC" stroke-linecap="round" stroke-linejoin="round"/>
<path d="M26.0178 31.0476C26.0178 25.3478 24.102 12.7042 24.102 12.7042C24.102 12.7042 25.1818 14.1534 25.5164 15.1563M20.2309 13.3348C19.8972 12.332 18.8183 10.8818 18.8183 10.8818C18.8183 10.8818 19.3619 17.4892 22.5226 18.8C14.0471 14.6943 10.0128 28.1298 6.35073 24.1973C3.73731 21.3923 8.43156 17.4507 8.43156 17.4507" stroke="#CFD1CC" stroke-linecap="round" stroke-linejoin="round"/>
<path d="M34.7562 12.8609C34.4216 11.859 33.3427 10.4088 33.3427 10.4088C33.3427 10.4088 35.1999 26.8125 35.5959 31.0475C35.7838 33.0651 32.0447 33.99 30.6569 30.5984C29.269 27.2067 30.5414 26.2415 31.3893 26.2415C32.2372 26.2415 33.626 29.0685 31.3893 30.3793C29.1526 31.6901 25.4264 32.6416 24.2961 33.9515C23.1659 35.2615 21.1859 38.269 19.875 38.269C18.5642 38.269 15.9948 36.8565 18.9245 31.0475M37.9948 28.5542C37.7629 25.5475 36.1954 13.365 36.1954 13.365C36.1954 13.365 37.2752 14.8143 37.6089 15.8171M12.8268 8.19871C14.4071 7.21513 17.665 6.59913 19.3608 5.26904M8.23247 24.927C6.12505 27.2434 6.7163 31.9459 9.18488 31.1759C10.1061 30.888 11.2153 28.9722 13.0651 28.1435C16.1699 26.7539 20.1409 26.0444 19.9016 23.826C19.5936 20.9605 16.8436 19.2931 16.8436 19.2931" stroke="#CFD1CC" stroke-linecap="round" stroke-linejoin="round"/>
<path d="M23.6664 26.601C22.3492 26.0189 21.9183 25.3479 21.9183 25.3479C22.9853 27.7312 23.8076 29.1832 23.8342 30.3272C23.8607 31.4712 17.9611 35.1269 15.4283 35.1269C12.4803 35.1269 10.3225 33.0076 11.1603 29.4894M9.29032 13.5073C7.35249 14.4057 6.15073 18.6562 7.6284 18.2272" stroke="#CFD1CC" stroke-linecap="round" stroke-linejoin="round"/>
<path d="M21.9998 41.7084C32.8844 41.7084 41.7082 32.8847 41.7082 22.0001C41.7082 11.1155 32.8844 2.29175 21.9998 2.29175C11.1152 2.29175 2.2915 11.1155 2.2915 22.0001C2.2915 32.8847 11.1152 41.7084 21.9998 41.7084Z" stroke="#CFD1CC" stroke-linecap="round" stroke-linejoin="round"/>
</svg>
