<svg width="44" height="44" viewBox="0 0 44 44" fill="none" xmlns="http://www.w3.org/2000/svg">
<path d="M35.9745 23.8352C36.0543 23.2265 36.0974 22.6142 36.1029 22C36.0973 21.3863 36.0545 20.7734 35.9745 20.1649L39.9474 17.0546C40.1268 16.9177 40.2495 16.7193 40.2918 16.4976C40.3341 16.2758 40.293 16.0462 40.1765 15.8529L36.4145 9.32895C36.3055 9.13339 36.1288 8.98444 35.9175 8.91015C35.7063 8.83586 35.4752 8.84136 35.2678 8.92562L30.579 10.8149C29.6035 10.0702 28.5367 9.45351 27.4046 8.9797L26.6979 3.99762C26.6667 3.7772 26.5564 3.57566 26.3876 3.4306C26.2187 3.28554 26.0029 3.20687 25.7803 3.20928H18.238C18.0154 3.20707 17.7997 3.2858 17.6309 3.43083C17.4621 3.57585 17.3517 3.77729 17.3204 3.99762L16.6145 8.9797C15.4807 9.45054 14.4132 10.0675 13.4392 10.8149L8.73213 8.9247C8.52458 8.84019 8.29327 8.83455 8.08185 8.90885C7.87043 8.98315 7.69351 9.13225 7.58446 9.32803L3.82246 15.8529C3.70592 16.0464 3.66485 16.2761 3.70714 16.498C3.74942 16.7199 3.87208 16.9184 4.05163 17.0555L8.01621 20.1658C7.93661 20.7741 7.89375 21.3866 7.88788 22C7.89338 22.6142 7.93646 23.2265 8.01621 23.8352L4.05163 26.9454C3.87215 27.0824 3.74952 27.2807 3.70723 27.5025C3.66494 27.7243 3.70597 27.9538 3.82246 28.1472L7.58354 34.6711C7.69244 34.867 7.86936 35.0163 8.08083 35.0906C8.29231 35.1649 8.52368 35.1592 8.73121 35.0744L13.42 33.1852C14.3955 33.9298 15.4623 34.5466 16.5944 35.0204L17.3002 40.0024C17.3314 40.223 17.4418 40.4247 17.6108 40.5698C17.7799 40.7149 17.996 40.7934 18.2187 40.7908H25.7427C25.9652 40.7932 26.1809 40.7145 26.3496 40.5694C26.5183 40.4243 26.6284 40.2228 26.6594 40.0024L27.367 35.0204C28.5006 34.5494 29.5677 33.9325 30.5415 33.1852L35.2302 35.0754C35.4376 35.1598 35.6688 35.1654 35.8801 35.0911C36.0913 35.0168 36.2681 34.8677 36.377 34.672L40.139 28.1472C40.255 27.9538 40.2957 27.7246 40.2535 27.5031C40.2112 27.2816 40.0889 27.0834 39.9098 26.9464L35.9745 23.8352Z" stroke="#CFD1CC" stroke-linecap="round" stroke-linejoin="round"/>
<path d="M21.9998 33.011C28.081 33.011 33.0108 28.0812 33.0108 22C33.0108 15.9188 28.081 10.989 21.9998 10.989C15.9186 10.989 10.9888 15.9188 10.9888 22C10.9888 28.0812 15.9186 33.011 21.9998 33.011Z" stroke="#CFD1CC" stroke-linecap="round" stroke-linejoin="round"/>
<path d="M16.9535 30.7166C18.9806 30.7166 20.6239 29.0734 20.6239 27.0463C20.6239 25.0192 18.9806 23.376 16.9535 23.376C14.9265 23.376 13.2832 25.0192 13.2832 27.0463C13.2832 29.0734 14.9265 30.7166 16.9535 30.7166Z" stroke="#CFD1CC" stroke-linecap="round" stroke-linejoin="round"/>
<path d="M11.605 18.4874C13.5403 17.2776 15.8286 16.7595 18.0963 17.0177C20.364 17.2759 22.4772 18.2951 24.0911 19.9089C25.7049 21.5228 26.7241 23.636 26.9823 25.9037C27.2405 28.1714 26.7224 30.4597 25.5126 32.395" stroke="#CFD1CC" stroke-linecap="round" stroke-linejoin="round"/>
</svg>
