<svg width="44" height="44" viewBox="0 0 44 44" fill="none" xmlns="http://www.w3.org/2000/svg">
<path d="M27.9583 9.39581C27.6833 8.56164 27.3075 7.78247 26.84 7.08581C25.6904 5.32885 23.987 4.00611 22 3.32747C20.1025 2.64914 17.9758 2.58497 15.9133 3.25414C13.8508 3.92331 12.1825 5.22497 11.0275 6.87497C9.83584 8.57997 9.2125 10.6516 9.3225 12.7783C9.35 13.6216 9.49667 14.465 9.77167 15.2991C10.1842 16.5733 10.835 17.7008 11.66 18.645C13.805 21.0925 17.1142 22.3391 20.4325 21.78C20.4508 21.5875 20.5058 21.4133 20.5975 21.2575C20.7465 20.9538 20.9958 20.7109 21.3033 20.57C21.4317 20.5058 21.5783 20.4508 21.725 20.4325C21.9065 20.3961 22.0935 20.3961 22.275 20.4325C22.4217 20.4508 22.5683 20.5058 22.6967 20.57C22.8617 20.6433 23.0175 20.7533 23.1458 20.8908C25.1933 19.8705 26.8058 18.1482 27.6892 16.038C28.5726 13.9279 28.6682 11.5705 27.9583 9.39581Z" stroke="#CFD1CC" stroke-linecap="round" stroke-linejoin="round"/>
<path d="M21.7249 20.4326C21.5782 20.451 21.4316 20.506 21.3032 20.5701" stroke="#CFD1CC" stroke-linecap="round" stroke-linejoin="round"/>
<path d="M22.2749 20.4325C23.8332 17.4533 23.6682 13.9241 21.9999 11.1375C21.3369 10.0266 20.4542 9.06277 19.4057 8.30496C18.6999 7.79163 17.939 7.38829 17.1599 7.08579C15.1707 6.33412 13.0074 6.28829 11.0274 6.87496C9.09321 7.46162 7.33321 8.65329 6.05904 10.4133C4.78488 12.1733 4.18904 14.2175 4.23488 16.2341C4.27154 18.3058 4.98654 20.3408 6.31571 22C6.83821 22.66 7.45238 23.2558 8.16738 23.7691C9.24904 24.5575 10.4315 25.08 11.6599 25.355H11.669C14.8407 26.0791 18.2415 25.1441 20.5974 22.7425" stroke="#CFD1CC" stroke-linecap="round" stroke-linejoin="round"/>
<path d="M20.854 23.1092C20.9823 23.2467 21.1382 23.3567 21.3032 23.43C20.8082 26.7484 18.6082 29.5075 15.6198 30.7909H15.6107C13.6232 31.64 11.407 31.7918 9.32234 31.2217C7.25984 30.6625 5.4815 29.425 4.23484 27.7659C3.01567 26.1617 2.2915 24.1634 2.2915 22C2.2915 19.8367 3.01567 17.8384 4.23484 16.2342C5.4815 14.575 7.25984 13.3375 9.32234 12.7784C11.407 12.2083 13.6232 12.3601 15.6107 13.2092C18.599 14.4834 20.8082 17.2517 21.3032 20.57C20.9957 20.711 20.7463 20.9538 20.5973 21.2575C20.5057 21.4134 20.4507 21.5875 20.4323 21.78C20.3961 21.9245 20.3961 22.0756 20.4323 22.22C20.4507 22.4125 20.5057 22.5867 20.5973 22.7425C20.6615 22.88 20.7532 22.9992 20.854 23.1092Z" stroke="#CFD1CC" stroke-linecap="round" stroke-linejoin="round"/>
<path d="M22.0002 32.8626C21.3373 33.9734 20.4545 34.9373 19.4061 35.6951C18.7002 36.2084 17.9394 36.6118 17.1602 36.9143C15.1711 37.6659 13.0077 37.7118 11.0277 37.1251C9.09358 36.5384 7.33358 35.3468 6.05941 33.5868C4.82995 31.8988 4.18904 29.8537 4.23524 27.7659C4.27191 25.6943 4.98691 23.6593 6.31608 22.0001C6.83858 21.3401 7.45274 20.7443 8.16774 20.2309C9.24941 19.4426 10.4319 18.9201 11.6602 18.6451C14.8319 17.9209 18.2419 18.8559 20.5977 21.2576C20.5061 21.4134 20.4511 21.5876 20.4327 21.7801C20.3965 21.9245 20.3965 22.0757 20.4327 22.2201C20.4511 22.4126 20.5061 22.5868 20.5977 22.7426C20.7467 23.0463 20.9961 23.2892 21.3036 23.4301C21.4319 23.4943 21.5786 23.5493 21.7252 23.5676C21.9068 23.604 22.0937 23.604 22.2752 23.5676C23.8336 26.5468 23.6686 30.0759 22.0002 32.8626Z" stroke="#CFD1CC" stroke-linecap="round" stroke-linejoin="round"/>
<path d="M27.9583 34.6043C27.6833 35.4384 27.3075 36.2176 26.84 36.9143C25.6904 38.6712 23.987 39.9939 22 40.6726C20.1025 41.3509 17.9758 41.4151 15.9133 40.7459C13.8508 40.0768 12.1825 38.7751 11.0275 37.1251C9.83584 35.4201 9.2125 33.3484 9.3225 31.2218C9.35 30.3784 9.49667 29.5351 9.77167 28.7009C10.1842 27.4268 10.835 26.2993 11.66 25.3551H11.6692C13.805 22.9076 17.1142 21.6609 20.4325 22.2201C20.4508 22.4126 20.5058 22.5868 20.5975 22.7426C20.7465 23.0463 20.9958 23.2892 21.3033 23.4301C21.4317 23.4943 21.5783 23.5493 21.725 23.5676C21.9065 23.604 22.0935 23.604 22.275 23.5676C22.4217 23.5493 22.5683 23.4943 22.6967 23.4301C22.8617 23.3568 23.0175 23.2468 23.1458 23.1093C25.1933 24.1296 26.8058 25.8519 27.6892 27.962C28.5726 30.0722 28.6682 32.4296 27.9583 34.6043Z" stroke="#CFD1CC" stroke-linecap="round" stroke-linejoin="round"/>
<path d="M32.9724 37.1251C31.8174 38.7751 30.1491 40.0768 28.0866 40.7459C26.0241 41.4151 23.8974 41.3509 21.9999 40.6726C20.0383 40.0034 18.3241 38.6926 17.1599 36.9143C16.6924 36.2176 16.3166 35.4384 16.0416 34.6043C15.6291 33.3301 15.5008 32.0376 15.6108 30.7909H15.6199C15.9041 27.5459 17.8474 24.6034 20.8541 23.1093C20.9824 23.2468 21.1383 23.3568 21.3033 23.4301C21.4316 23.4943 21.5783 23.5493 21.7249 23.5676C21.9065 23.604 22.0934 23.604 22.2749 23.5676C22.4216 23.5493 22.5683 23.4943 22.6966 23.4301C23.0041 23.2892 23.2535 23.0463 23.4024 22.7426C23.4941 22.5868 23.5491 22.4126 23.5674 22.2201C26.8858 21.6609 30.1949 22.9076 32.3308 25.3551H32.3399C33.1649 26.2993 33.8158 27.4268 34.2283 28.7009C34.5033 29.5351 34.6499 30.3784 34.6774 31.2218C34.7874 33.3484 34.1641 35.4201 32.9724 37.1251Z" stroke="#CFD1CC" stroke-linecap="round" stroke-linejoin="round"/>
<path d="M39.7651 27.7659C39.8109 29.7826 39.2151 31.8268 37.9409 33.5868C36.7181 35.2796 34.9722 36.5229 32.9726 37.1251C30.9926 37.7118 28.8293 37.6659 26.8401 36.9143C26.0609 36.6118 25.3001 36.2084 24.5943 35.6951C23.5458 34.9373 22.6631 33.9734 22.0001 32.8626C20.3318 30.0759 20.1668 26.5468 21.7251 23.5676C21.9066 23.604 22.0936 23.604 22.2751 23.5676C22.4218 23.5493 22.5684 23.4943 22.6968 23.4301C23.0043 23.2892 23.2536 23.0463 23.4026 22.7426C23.4943 22.5868 23.5493 22.4126 23.5676 22.2201C23.6038 22.0757 23.6038 21.9245 23.5676 21.7801C23.5493 21.5876 23.4943 21.4134 23.4026 21.2576C25.7584 18.8559 29.1684 17.9209 32.3401 18.6451C33.5684 18.9201 34.7509 19.4426 35.8326 20.2309C36.5476 20.7443 37.1618 21.3401 37.6843 22.0001C39.0134 23.6593 39.7284 25.6943 39.7651 27.7659Z" stroke="#CFD1CC" stroke-linecap="round" stroke-linejoin="round"/>
<path d="M41.7084 22C41.7084 24.1633 40.9843 26.1617 39.7651 27.7658C38.5184 29.425 36.7401 30.6625 34.6776 31.2217C32.5929 31.7918 30.3767 31.6399 28.3893 30.7908C26.892 30.1504 25.5832 29.1381 24.5869 27.8498C23.5907 26.5616 22.94 25.0402 22.6968 23.43C23.0043 23.2891 23.2537 23.0462 23.4026 22.7425C23.4943 22.5867 23.5493 22.4125 23.5676 22.22C23.6039 22.0756 23.6039 21.9244 23.5676 21.78C23.5493 21.5875 23.4943 21.4133 23.4026 21.2575C23.2537 20.9538 23.0043 20.7109 22.6968 20.57C22.8983 19.2349 23.3804 17.9576 24.1113 16.8223C24.8422 15.687 25.8053 14.7195 26.9372 13.9833C28.0691 13.2472 29.3442 12.7592 30.6783 12.5515C32.0125 12.3438 33.3755 12.4211 34.6776 12.7783C36.7401 13.3375 38.5184 14.575 39.7651 16.2342C40.9843 17.8383 41.7084 19.8367 41.7084 22Z" stroke="#CFD1CC" stroke-linecap="round" stroke-linejoin="round"/>
<path d="M39.7651 16.2341C39.7284 18.3058 39.0134 20.3408 37.6843 22C37.1618 22.66 36.5476 23.2558 35.8326 23.7691C34.7509 24.5575 33.5684 25.08 32.3401 25.355H32.3309C29.1593 26.0791 25.7584 25.1441 23.4026 22.7425C23.4943 22.5866 23.5493 22.4125 23.5676 22.22C23.6038 22.0755 23.6038 21.9244 23.5676 21.78C23.5493 21.5875 23.4943 21.4133 23.4026 21.2575C23.2536 20.9538 23.0043 20.7109 22.6968 20.57C22.5684 20.5058 22.4218 20.4508 22.2751 20.4325C22.0936 20.3961 21.9066 20.3961 21.7251 20.4325C20.1668 17.4533 20.3318 13.9241 22.0001 11.1375C22.6418 10.0558 23.5126 9.09329 24.5943 8.30496C25.3001 7.79163 26.0609 7.38829 26.8401 7.08579C28.8293 6.33412 30.9926 6.28829 32.9726 6.87496C34.9068 7.46162 36.6668 8.65329 37.9409 10.4133C39.2151 12.1733 39.8109 14.2175 39.7651 16.2341Z" stroke="#CFD1CC" stroke-linecap="round" stroke-linejoin="round"/>
<path d="M34.6774 12.7783C34.6491 13.6358 34.4979 14.4847 34.2282 15.2991C33.8157 16.5733 33.1649 17.7008 32.3399 18.645C31.2657 19.8714 29.896 20.8032 28.3608 21.3518C26.8255 21.9005 25.1755 22.0479 23.5674 21.78C23.549 21.5875 23.494 21.4133 23.4024 21.2575C23.2534 20.9538 23.004 20.7109 22.6965 20.57C22.5682 20.5058 22.4215 20.4508 22.2749 20.4325C22.0933 20.3961 21.9064 20.3961 21.7249 20.4325C21.5782 20.4508 21.4315 20.5058 21.3032 20.57C21.1382 20.6433 20.9824 20.7533 20.854 20.8908C18.8066 19.8705 17.1941 18.1482 16.3107 16.038C15.4272 13.9279 15.3317 11.5705 16.0415 9.39581C16.3165 8.56164 16.6924 7.78247 17.1599 7.08581C18.324 5.30747 20.0382 3.99664 21.9999 3.32747C23.8974 2.64914 26.024 2.58497 28.0865 3.25414C30.149 3.92331 31.8174 5.22497 32.9724 6.87497C34.164 8.57997 34.7874 10.6516 34.6774 12.7783Z" stroke="#CFD1CC" stroke-linecap="round" stroke-linejoin="round"/>
</svg>
