<svg width="44" height="44" viewBox="0 0 44 44" fill="none" xmlns="http://www.w3.org/2000/svg">
<path d="M21.2888 12.4138C23.5768 9.79216 25.6586 7.71132 24.6814 6.65716C23.7042 5.60299 7.89541 11.4724 8.78733 13.0051C9.31899 13.9181 23.4439 24.1682 24.8372 24.9932C26.4735 25.9612 29.1025 24.8282 28.8706 23.0279L26.7375 6.51782C26.7375 6.51782 27.8173 7.96799 28.151 8.96991M32.1605 24.2984C31.9295 22.499 30.0274 7.78741 30.0274 7.78741C30.0274 7.78741 31.1072 9.23757 31.4409 10.2404" stroke="#CFD1CC" stroke-linecap="round" stroke-linejoin="round"/>
<path d="M31 36C31 28.9338 28.6589 13.2592 28.6589 13.2592C28.6589 13.2592 29.9784 15.0559 30.3873 16.2991M23.9285 14.041C23.5208 12.7978 22.2024 11 22.2024 11C22.2024 11 22.8667 19.1913 26.7289 20.8164C16.3721 15.7264 11.4423 32.3828 6.96737 27.5076C3.77385 24.0301 9.51009 19.1436 9.51009 19.1436" stroke="#CFD1CC" stroke-linecap="round" stroke-linejoin="round"/>
<path d="M39 28.5C37.6827 27.9179 19.5 29.4894 19.5 29.4894C20.567 31.8727 25.4734 35.856 25.5 37C25.5266 38.144 17.9611 35.1269 15.4283 35.1269C12.4803 35.1269 10.3225 33.0076 11.1603 29.4894M9.29032 13.5073C7.35249 14.4057 6.15073 18.6562 7.6284 18.2272" stroke="#CFD1CC" stroke-linecap="round" stroke-linejoin="round"/>
<path d="M21.9998 41.7084C32.8844 41.7084 41.7082 32.8847 41.7082 22.0001C41.7082 11.1155 32.8844 2.29175 21.9998 2.29175C11.1152 2.29175 2.2915 11.1155 2.2915 22.0001C2.2915 32.8847 11.1152 41.7084 21.9998 41.7084Z" stroke="#CFD1CC" stroke-linecap="round" stroke-linejoin="round"/>
</svg>
