<svg width="30" height="30" viewBox="0 0 30 30" fill="none" xmlns="http://www.w3.org/2000/svg">
<g clip-path="url(#clip0_12708_726)">
<path d="M15.4062 14.9719C15.4583 14.9542 15.512 14.938 15.5672 14.9234C15.4285 14.6162 15.2831 14.3119 15.1312 14.0109C12.1937 14.8812 9.38125 14.8891 8.87969 14.8812C8.87552 14.9208 8.87396 14.9604 8.875 15C8.875 16.4766 9.40625 17.8953 10.3719 19.0094C10.6937 18.4906 12.4 15.9453 15.4062 14.9719ZM11.2859 19.8641C12.1356 20.5158 13.1416 20.9327 14.2031 21.0731C15.2647 21.2135 16.3445 21.0725 17.3344 20.6641C17.0474 19.106 16.6175 17.5776 16.05 16.0984C12.7359 17.2703 11.4844 19.4766 11.2859 19.8641ZM18.9922 10.3547C18.27 9.73432 17.4131 9.29085 16.4896 9.05949C15.566 8.82813 14.6013 8.81525 13.6719 9.02187C14.4876 10.1296 15.2293 11.2899 15.8922 12.4953C17.8969 11.725 18.8031 10.6141 18.9922 10.3547ZM14.5391 12.9125C13.8647 11.7321 13.1266 10.5893 12.3281 9.48906C11.503 9.89136 10.7782 10.4731 10.207 11.1917C9.63573 11.9103 9.23241 12.7476 9.02656 13.6422H9.05312C9.6875 13.6422 11.9422 13.5906 14.5391 12.9125ZM17.3656 15.775C18.0922 17.7953 18.4266 19.4734 18.5219 20.0109C19.1814 19.5463 19.7429 18.9562 20.1743 18.2744C20.6057 17.5926 20.8985 16.8325 21.0359 16.0375C20.2268 15.8075 19.3896 15.6913 18.5484 15.6922C18.1432 15.6922 17.749 15.7198 17.3656 15.775ZM15 0C6.71562 0 0 6.71562 0 15C0 23.2844 6.71562 30 15 30C23.2844 30 30 23.2844 30 15C30 6.71562 23.2844 0 15 0ZM15 22.3391C13.0538 22.3374 11.1877 21.5638 9.81122 20.1879C8.43474 18.812 7.66029 16.9462 7.65781 15C7.65947 13.0532 8.43355 11.1867 9.81012 9.81012C11.1867 8.43355 13.0532 7.65947 15 7.65781C16.9464 7.66029 18.8123 8.43469 20.1884 9.81112C21.5646 11.1876 22.3386 13.0536 22.3406 15C22.3394 16.9463 21.5655 18.8126 20.1891 20.1887C18.8127 21.5648 16.9463 22.3382 15 22.3391ZM16.4406 13.5531C16.576 13.8344 16.7021 14.1109 16.8187 14.3828L16.9297 14.6484C17.3641 14.5964 17.8234 14.5708 18.3078 14.5719C19.2522 14.5736 20.1943 14.6636 21.1219 14.8406C21.0862 13.5098 20.619 12.2266 19.7906 11.1844C19.5406 11.5062 18.5125 12.6891 16.4406 13.5531Z" fill="#141414"/>
</g>
<defs>
<clipPath id="clip0_12708_726">
<rect width="30" height="30" fill="white"/>
</clipPath>
</defs>
</svg>
