<svg width="30" height="31" viewBox="0 0 30 31" fill="none" xmlns="http://www.w3.org/2000/svg">
<path d="M15 0.862305C12.0333 0.862305 9.13319 1.74204 6.66645 3.39026C4.19971 5.03848 2.27713 7.38116 1.14181 10.1221C0.00649929 12.8629 -0.290551 15.8789 0.288227 18.7887C0.867006 21.6984 2.29562 24.3711 4.3934 26.4689C6.49119 28.5667 9.16393 29.9953 12.0736 30.5741C14.9834 31.1529 17.9994 30.8558 20.7403 29.7205C23.4811 28.5852 25.8238 26.6626 27.472 24.1959C29.1203 21.7291 30 18.829 30 15.8623C30.0002 13.8924 29.6123 11.9418 28.8585 10.1219C28.1048 8.3019 26.9999 6.64825 25.607 5.25534C24.2141 3.86243 22.5604 2.75754 20.7404 2.00378C18.9205 1.25002 16.9699 0.862141 15 0.862305ZM19.7693 23.591C19.7131 23.731 19.6277 23.8574 19.5187 23.9617C19.4097 24.0659 19.2797 24.1457 19.1374 24.1956C18.9951 24.2456 18.8437 24.2645 18.6935 24.2512C18.5432 24.2378 18.3976 24.1925 18.2663 24.1183L14.1943 20.9542L11.5808 23.3653C11.5201 23.4101 11.4492 23.4389 11.3745 23.4491C11.2998 23.4594 11.2237 23.4506 11.1533 23.4237L11.6543 18.941L11.6703 18.9537L11.6806 18.8652C11.6806 18.8652 19.0081 12.194 19.3066 11.9097C19.6088 11.6262 19.5091 11.5647 19.5091 11.5647C19.5263 11.2189 18.9668 11.5647 18.9668 11.5647L9.258 17.8108L5.21477 16.4338C5.21477 16.4338 4.59377 16.2111 4.53527 15.7213C4.47377 15.2353 5.23501 14.9713 5.23501 14.9713L21.3105 8.58504C21.3105 8.58504 22.632 7.99626 22.632 8.9713L19.7693 23.591Z" fill="black"/>
</svg>
