<svg width="20" height="21" viewBox="0 0 20 21" fill="none" xmlns="http://www.w3.org/2000/svg">
<path d="M9.9998 1.19556C4.92362 1.19556 0.799805 5.31937 0.799805 10.3956C0.799805 12.0272 1.24728 13.5499 1.99355 14.8792L0.814648 19.0877C0.795814 19.1551 0.794963 19.2262 0.81218 19.294C0.829397 19.3618 0.864081 19.4238 0.912773 19.474C0.961464 19.5242 1.02246 19.5608 1.08969 19.58C1.15691 19.5993 1.22801 19.6006 1.2959 19.5838L5.68418 18.4963C6.97366 19.1847 8.43684 19.5956 9.9998 19.5956C15.076 19.5956 19.1998 15.4717 19.1998 10.3956C19.1998 5.31937 15.076 1.19556 9.9998 1.19556ZM9.9998 1.99556C14.6436 1.99556 18.3998 5.75174 18.3998 10.3956C18.3998 15.0394 14.6436 18.7956 9.9998 18.7956C8.51101 18.7956 7.11665 18.4074 5.90449 17.7292C5.81584 17.6796 5.71166 17.6656 5.61309 17.6901L1.77012 18.6424L2.80059 14.9659C2.81533 14.9139 2.8194 14.8595 2.81255 14.8059C2.80571 14.7524 2.78808 14.7007 2.76074 14.6542C2.02408 13.405 1.5998 11.9516 1.5998 10.3956C1.5998 5.75174 5.35599 1.99556 9.9998 1.99556ZM6.65684 5.59556C6.40042 5.59556 6.03422 5.69095 5.7334 6.01509C5.55271 6.20978 4.7998 6.94336 4.7998 8.23306C4.7998 9.57767 5.73236 10.7379 5.84512 10.887H5.8459V10.8877C5.8352 10.8737 5.98902 11.0964 6.19434 11.3635C6.39966 11.6306 6.68677 11.9814 7.04746 12.3612C7.76885 13.1207 8.78312 13.9985 10.042 14.5354C10.6217 14.7823 11.0791 14.9313 11.4256 15.0401C12.0677 15.2417 12.6526 15.2111 13.092 15.1463C13.4209 15.0979 13.7826 14.94 14.1404 14.7135C14.4983 14.487 14.849 14.2054 15.0037 13.7776C15.1145 13.4709 15.1708 13.1874 15.1912 12.9542C15.2014 12.8375 15.2027 12.7346 15.1951 12.6393C15.1875 12.544 15.1956 12.471 15.1068 12.3252C14.9206 12.0195 14.7097 12.0115 14.4896 11.9026C14.3674 11.8421 14.0193 11.6721 13.6701 11.5057C13.3214 11.3395 13.0194 11.1923 12.8334 11.126C12.7159 11.0838 12.5724 11.0229 12.3654 11.0463C12.1584 11.0698 11.954 11.2191 11.835 11.3956C11.7221 11.5628 11.268 12.0989 11.1295 12.2565C11.1277 12.2554 11.1397 12.2609 11.085 12.2338C10.9137 12.1491 10.7043 12.077 10.3943 11.9135C10.0844 11.75 9.69671 11.5086 9.27246 11.1346V11.1338C8.64102 10.5779 8.19871 9.88 8.05918 9.64556C8.06858 9.63437 8.05806 9.64792 8.07793 9.62837L8.07871 9.62759C8.22132 9.48713 8.3477 9.31937 8.45449 9.19634C8.60591 9.0219 8.67273 8.86813 8.74512 8.72446C8.88939 8.43813 8.80906 8.12305 8.72559 7.95728V7.95649C8.73135 7.96796 8.68043 7.85562 8.62559 7.72603C8.57058 7.59606 8.50047 7.42757 8.42559 7.2479C8.27582 6.88856 8.10862 6.48552 8.00918 6.24946V6.24868C7.89204 5.97063 7.73356 5.77032 7.52637 5.67368C7.31917 5.57704 7.13612 5.60452 7.12871 5.60415H7.12793C6.98007 5.59733 6.81782 5.59556 6.65684 5.59556ZM6.65684 6.39556C6.81105 6.39556 6.96309 6.39744 7.09043 6.40337C7.22143 6.4099 7.21328 6.41043 7.18809 6.39868C7.16249 6.38675 7.19722 6.38287 7.27168 6.55962C7.36904 6.79076 7.53707 7.19526 7.6873 7.55571C7.76242 7.73594 7.83272 7.90508 7.88887 8.03774C7.94501 8.17041 7.97544 8.24447 8.01074 8.31509V8.31587L8.01152 8.31665C8.04614 8.38495 8.04308 8.34122 8.03105 8.36509C7.94664 8.53262 7.93519 8.57375 7.8498 8.67212C7.7198 8.82189 7.58719 8.98892 7.51699 9.05806C7.45558 9.11838 7.34477 9.21237 7.27559 9.39634C7.20629 9.58059 7.23863 9.83338 7.3498 10.0221C7.49782 10.2734 7.98557 11.0673 8.74355 11.7346C9.22091 12.1554 9.66563 12.4339 10.0209 12.6213C10.3762 12.8087 10.6655 12.9182 10.7303 12.9502C10.884 13.0263 11.0521 13.0854 11.2475 13.062C11.4429 13.0385 11.6113 12.9199 11.7186 12.7987L11.7193 12.7979C11.8621 12.6361 12.2861 12.1518 12.4896 11.8534C12.4983 11.8564 12.4954 11.854 12.5631 11.8784V11.8792H12.5639C12.5947 11.8901 12.9815 12.0633 13.3264 12.2276C13.6712 12.3919 14.0212 12.5627 14.135 12.619C14.2991 12.7002 14.3766 12.7531 14.3967 12.7534C14.398 12.7886 14.3994 12.8267 14.3943 12.8846C14.3803 13.0453 14.3374 13.2676 14.2514 13.5057C14.2092 13.6223 13.9898 13.8626 13.7131 14.0377C13.4364 14.2129 13.0995 14.3366 12.9748 14.3549C12.5998 14.4102 12.1545 14.4304 11.6654 14.2768C11.3263 14.1704 10.9035 14.0326 10.3561 13.7995C9.24573 13.3259 8.30204 12.5202 7.62793 11.8104C7.29087 11.4555 7.02083 11.1252 6.82871 10.8752C6.63695 10.6258 6.55322 10.496 6.4834 10.4042L6.48262 10.4034C6.35869 10.2395 5.5998 9.1839 5.5998 8.23306C5.5998 7.22675 6.0672 6.83213 6.32012 6.55962C6.45289 6.41655 6.59805 6.39556 6.65684 6.39556Z" fill="white"/>
</svg>
