<svg width="21" height="22" viewBox="0 0 21 22" fill="none" xmlns="http://www.w3.org/2000/svg">
<path fill-rule="evenodd" clip-rule="evenodd" d="M10.5 0.395508C16.2951 0.395508 21 5.10041 21 10.8955C21 16.6906 16.2951 21.3955 10.5 21.3955C4.7049 21.3955 0 16.6906 0 10.8955C0 5.10041 4.7049 0.395508 10.5 0.395508ZM7.21723 16.7965V8.59658H4.49117V16.7965H7.21723ZM17.0454 16.7965V12.0942C17.0454 9.57546 15.7006 8.40377 13.9073 8.40377C12.4613 8.40377 11.8136 9.19902 11.4509 9.75757V8.59658H8.72558C8.76172 9.36591 8.72558 16.7965 8.72558 16.7965H11.4509V12.2171C11.4509 11.972 11.4685 11.7269 11.5408 11.5518C11.7374 11.0622 12.1862 10.5551 12.9392 10.5551C13.925 10.5551 14.3199 11.3073 14.3199 12.4092V16.7965H17.0454ZM5.87262 4.64268C4.93992 4.64268 4.33055 5.25586 4.33055 6.05956C4.33055 6.84632 4.92138 7.4764 5.83652 7.4764H5.85412C6.80466 7.4764 7.39631 6.84632 7.39631 6.05956C7.37867 5.25586 6.8047 4.64268 5.87262 4.64268Z" fill="#CDF765"/>
</svg>
