<svg width="20" height="20" viewBox="0 0 20 20" fill="none" xmlns="http://www.w3.org/2000/svg">
<g clip-path="url(#clip0_12832_8898)">
<path d="M9.99995 2.49992C11.174 2.49966 12.3317 2.77503 13.3799 3.30385C14.428 3.83268 15.3374 4.60019 16.0349 5.54463C16.7323 6.48906 17.1983 7.58403 17.3953 8.74142C17.5923 9.8988 17.5148 11.0863 17.1691 12.2083C17.4825 12.9025 17.5771 13.6757 17.4402 14.4251C17.3034 15.1744 16.9415 15.8643 16.4029 16.4029C15.8643 16.9415 15.1744 17.3033 14.4251 17.4402C13.6758 17.5771 12.9025 17.4825 12.2083 17.1691C10.9048 17.5712 9.51626 17.6102 8.19225 17.2818C6.86823 16.9534 5.65884 16.2702 4.69426 15.3056C3.72968 14.341 3.04643 13.1316 2.71808 11.8076C2.38972 10.4836 2.42869 9.09511 2.83078 7.79159C2.51709 7.0973 2.42231 6.32394 2.55906 5.57445C2.69582 4.82496 3.05761 4.1349 3.59629 3.59613C4.13496 3.05737 4.82496 2.69546 5.57443 2.55858C6.32389 2.4217 7.09727 2.51635 7.79161 2.82992C8.5071 2.61019 9.25148 2.49896 9.99995 2.49992Z" stroke="#CDF765" stroke-width="1.2" stroke-linecap="round" stroke-linejoin="round"/>
<path d="M6.66675 12.0833C7.08341 13.7499 8.63175 14.1666 10.0001 14.1666C12.4209 14.1666 13.3334 13.1774 13.3334 12.0833C13.3334 10.8308 11.7276 9.99992 10.0001 9.99992C8.27258 9.99992 6.66675 9.16659 6.66675 7.91659C6.66675 6.82242 7.57925 5.83325 10.0001 5.83325C11.3684 5.83325 12.9167 6.24992 13.3334 7.91659" stroke="#CDF765" stroke-width="1.2" stroke-linecap="round" stroke-linejoin="round"/>
</g>
<defs>
<clipPath id="clip0_12832_8898">
<rect width="20" height="20" fill="white"/>
</clipPath>
</defs>
</svg>
