<svg width="32" height="32" viewBox="0 0 32 32" fill="none" xmlns="http://www.w3.org/2000/svg">
<path d="M27.6133 4.87276C27.6133 4.87276 30.2033 3.86276 29.9867 6.31543C29.9153 7.32543 29.268 10.8608 28.764 14.6841L27.0373 26.0108C27.0373 26.0108 26.8933 27.6701 25.598 27.9588C24.3033 28.2468 22.3607 26.9488 22.0007 26.6601C21.7127 26.4434 16.6047 23.1968 14.806 21.6101C14.302 21.1768 13.726 20.3114 14.878 19.3014L22.4327 12.0868C23.296 11.2201 24.1593 9.20009 20.562 11.6534L10.4887 18.5068C10.4887 18.5068 9.33735 19.2288 7.17935 18.5794L2.50201 17.1361C2.50201 17.1361 0.775346 16.0541 3.72535 14.9721C10.9207 11.5814 19.7707 8.11876 27.6127 4.87209" fill="#CDF765"/>
</svg>
