<svg width="20" height="20" viewBox="0 0 20 20" fill="none" xmlns="http://www.w3.org/2000/svg">
<path d="M17.7507 2.39449C17.5559 2.40303 17.3663 2.45726 17.1953 2.52574C17.026 2.59376 16.0515 3.00969 14.6124 3.62496C13.1734 4.24022 11.3027 5.04142 9.44838 5.83589C5.73969 7.42483 2.09526 8.98824 2.09526 8.98824L2.12182 8.97808C2.12182 8.97808 1.90186 9.0516 1.67885 9.20699C1.56735 9.28468 1.44739 9.38498 1.34916 9.53121C1.25094 9.67743 1.17914 9.88467 1.2062 10.1039C1.30124 10.8738 2.09916 11.0921 2.09916 11.0921L2.10229 11.0937L5.66323 12.3125C5.75402 12.6153 6.74327 15.9171 6.96088 16.6164C7.08106 17.0029 7.19355 17.226 7.31088 17.3781C7.3696 17.4542 7.43113 17.5131 7.49916 17.5562C7.5262 17.5733 7.55463 17.5862 7.58276 17.5976H7.58432C7.58778 17.5991 7.59103 17.5993 7.59448 17.6007L7.5851 17.5984C7.59164 17.601 7.59809 17.6055 7.60463 17.6078C7.61733 17.6122 7.62511 17.6121 7.64135 17.6156C8.04917 17.758 8.38666 17.4937 8.38666 17.4937L8.40073 17.4828L10.5882 15.4539L14.1382 18.2218L14.1828 18.2421C14.8041 18.518 15.3661 18.3641 15.6773 18.1109C15.9885 17.8577 16.1109 17.5312 16.1109 17.5312L16.1242 17.4968L18.7328 3.90074C18.7995 3.59656 18.809 3.33364 18.746 3.09605C18.6831 2.85846 18.5301 2.65193 18.3382 2.53746C18.1463 2.42298 17.9455 2.38594 17.7507 2.39449ZM17.7718 3.20777C17.8509 3.2041 17.9096 3.21315 17.9281 3.22417C17.9466 3.2352 17.9549 3.23375 17.9726 3.30074C17.9903 3.36773 18 3.50882 17.9515 3.72964L17.9499 3.73433L15.3562 17.2515C15.3501 17.2651 15.296 17.3902 15.1726 17.4906C15.0467 17.593 14.9067 17.673 14.5351 17.5171L10.6531 14.4898L10.5437 14.4039L10.5414 14.4062L9.38041 13.5351L15.9046 5.85933C15.9548 5.8005 15.9868 5.72841 15.9968 5.65178C16.0068 5.57514 15.9945 5.49724 15.9612 5.42749C15.9278 5.35774 15.8751 5.29913 15.8091 5.25876C15.7432 5.21838 15.6671 5.19795 15.5898 5.19996C15.5143 5.20192 15.4409 5.22521 15.3781 5.26714L5.93745 11.5609L2.37104 10.3398C2.37104 10.3398 2.0169 10.1427 1.99995 10.0054C1.99901 9.99782 1.99482 10.0047 2.01323 9.9773C2.03163 9.9499 2.07789 9.90365 2.13588 9.86324C2.25187 9.78242 2.38432 9.73355 2.38432 9.73355L2.3976 9.72886L2.41088 9.72339C2.41088 9.72339 6.0555 8.15991 9.76401 6.57105C11.6183 5.77662 13.4886 4.976 14.9273 4.36089C16.3656 3.74594 17.4049 3.3033 17.4929 3.26792C17.5931 3.22781 17.6927 3.21143 17.7718 3.20777ZM13.4453 7.51714L8.4976 13.3382L8.49526 13.3406C8.48753 13.3499 8.48023 13.3595 8.47338 13.3695C8.46553 13.3803 8.45823 13.3915 8.45151 13.4031C8.42371 13.4503 8.40589 13.5026 8.39916 13.557C8.39916 13.558 8.39916 13.5591 8.39916 13.5601L7.75463 16.4585C7.74392 16.4272 7.73641 16.4158 7.72495 16.3789V16.3781C7.52023 15.7203 6.58689 12.6064 6.45776 12.1757L13.4453 7.51714ZM9.0562 14.2921L9.94526 14.9593L8.63901 16.1703L9.0562 14.2921Z" fill="white"/>
</svg>
