<svg width="20" height="20" viewBox="0 0 20 20" fill="none" xmlns="http://www.w3.org/2000/svg">
<path d="M7.60005 2.3999C3.89849 2.3999 0.800049 4.94365 0.800049 8.1999C0.800049 9.95771 1.71724 11.4718 3.13442 12.5296L2.07192 15.7218L5.38911 13.6671C6.07505 13.8827 6.83286 13.9999 7.60005 13.9999C7.89849 13.9999 8.18911 13.978 8.47817 13.9452C9.35161 15.6421 11.3313 16.7999 13.6 16.7999C14.2891 16.7999 14.9266 16.6702 15.5188 16.4937L18.2579 18.0265L17.4938 15.4062C18.525 14.5499 19.2 13.3577 19.2 11.9999C19.2 9.51553 17.0391 7.53428 14.3 7.24209C13.7594 4.4499 10.9297 2.3999 7.60005 2.3999ZM7.60005 3.1999C10.5235 3.1999 12.9313 4.94053 13.4813 7.20459C10.4735 7.25928 8.00005 9.34209 8.00005 11.9999C8.00005 12.4077 8.06411 12.8015 8.17505 13.1765C7.98599 13.1921 7.7938 13.1999 7.60005 13.1999C6.84067 13.1999 6.07974 13.0843 5.45317 12.8624L5.27349 12.7999L3.52817 13.8796L4.07505 12.2374L3.82505 12.0687C2.43286 11.128 1.60005 9.77803 1.60005 8.1999C1.60005 5.45615 4.26255 3.1999 7.60005 3.1999ZM5.20005 5.5999C4.75942 5.5999 4.40005 5.95928 4.40005 6.3999C4.40005 6.84053 4.75942 7.1999 5.20005 7.1999C5.64067 7.1999 6.00005 6.84053 6.00005 6.3999C6.00005 5.95928 5.64067 5.5999 5.20005 5.5999ZM10 5.5999C9.55942 5.5999 9.20005 5.95928 9.20005 6.3999C9.20005 6.84053 9.55942 7.1999 10 7.1999C10.4407 7.1999 10.8 6.84053 10.8 6.3999C10.8 5.95928 10.4407 5.5999 10 5.5999ZM13.6 7.9999C16.2985 7.9999 18.4 9.81396 18.4 11.9999C18.4 13.1827 17.7969 14.2202 16.8016 14.9577L16.5782 15.1249L16.9422 16.3733L15.6422 15.6437L15.4735 15.6999C14.9141 15.8874 14.275 15.9999 13.6 15.9999C10.9016 15.9999 8.80005 14.1858 8.80005 11.9999C8.80005 9.81396 10.9016 7.9999 13.6 7.9999ZM11.8 10.3999C11.4797 10.3999 11.2 10.6796 11.2 10.9999C11.2 11.3202 11.4797 11.5999 11.8 11.5999C12.1204 11.5999 12.4 11.3202 12.4 10.9999C12.4 10.6796 12.1204 10.3999 11.8 10.3999ZM15.4 10.3999C15.0797 10.3999 14.8 10.6796 14.8 10.9999C14.8 11.3202 15.0797 11.5999 15.4 11.5999C15.7204 11.5999 16 11.3202 16 10.9999C16 10.6796 15.7204 10.3999 15.4 10.3999Z" fill="#CDF765"/>
</svg>
