<svg width="172" height="34" viewBox="0 0 172 34" fill="none" xmlns="http://www.w3.org/2000/svg">
<path d="M63.3204 17.0422C63.3204 18.7509 63.0379 20.2343 62.4727 21.4923C61.927 22.7504 61.1865 23.7925 60.251 24.6186C59.3156 25.4448 58.2145 26.0644 56.9477 26.4775C55.681 26.8906 54.3265 27.0972 52.8844 27.0972C51.4617 27.0972 50.117 26.8906 48.8503 26.4775C47.5835 26.0644 46.4727 25.4448 45.5177 24.6186C44.5823 23.7925 43.8417 22.7504 43.2961 21.4923C42.7504 20.2343 42.4775 18.7509 42.4775 17.0422C42.4775 15.3336 42.7504 13.8502 43.2961 12.5922C43.8417 11.3154 44.5823 10.2639 45.5177 9.43769C46.4727 8.59273 47.564 7.9731 48.7918 7.57879C50.0391 7.18448 51.3448 6.98733 52.709 6.98733C52.7674 6.98733 52.8259 6.98733 52.8844 6.98733C54.3265 7.0061 55.681 7.22204 56.9477 7.63512C58.2145 8.02943 59.3156 8.64906 60.251 9.49402C61.1865 10.3202 61.927 11.3623 62.4727 12.6203C63.0379 13.8596 63.3204 15.3336 63.3204 17.0422ZM59.7833 17.0422C59.7833 15.9344 59.5884 14.958 59.1986 14.1131C58.8089 13.2681 58.2924 12.5546 57.6493 11.9725C57.0062 11.3717 56.2754 10.921 55.4569 10.6206C54.6383 10.3014 53.7808 10.1418 52.8844 10.1418C52.8259 10.1418 52.7772 10.1418 52.7382 10.1418C51.9392 10.1418 51.1304 10.292 50.3119 10.5925C49.5129 10.8929 48.7918 11.3435 48.1487 11.9444C47.5056 12.5265 46.9891 13.2494 46.5993 14.1131C46.2096 14.9768 46.0147 15.9532 46.0147 17.0422C46.0147 18.1313 46.2096 19.1077 46.5993 19.9714C46.9891 20.8164 47.5056 21.5393 48.1487 22.1401C48.7918 22.7222 49.5226 23.1728 50.3411 23.492C51.1596 23.7925 52.0074 23.9427 52.8844 23.9427C53.8198 23.9427 54.7065 23.7925 55.5445 23.492C56.3826 23.1728 57.1134 22.7222 57.737 22.1401C58.3606 21.5393 58.8576 20.8164 59.2279 19.9714C59.5981 19.1077 59.7833 18.1313 59.7833 17.0422Z" fill="#CDF765"/>
<path d="M82.8607 7.18448H86.6024V26.9H83.0945V16.0001C83.0945 15.4368 83.1335 14.8172 83.2115 14.1412C83.3089 13.4465 83.4258 12.8175 83.5623 12.2542H83.5038C83.3674 12.8175 83.192 13.4277 82.9776 14.0849C82.7632 14.7233 82.5294 15.3054 82.276 15.8311L77.3649 26.9H74.354L69.4136 15.8311C69.1603 15.3054 68.9264 14.7233 68.712 14.0849C68.4977 13.4277 68.332 12.8175 68.2151 12.2542H68.1566C68.2736 12.8175 68.371 13.4465 68.449 14.1412C68.5464 14.8172 68.5951 15.4368 68.5951 16.0001V26.9H65.0872V7.18448H68.829L75.611 22.0275C75.6889 22.1777 75.7376 22.3467 75.7571 22.5344C75.7961 22.7034 75.8156 22.863 75.8156 23.0132H75.8741C75.8741 22.863 75.8838 22.7034 75.9033 22.5344C75.9423 22.3467 76.0007 22.1777 76.0787 22.0275L82.8607 7.18448Z" fill="#CDF765"/>
<path d="M88.3534 7.18448H91.8614V26.9H88.3534V7.18448Z" fill="#CDF765"/>
<path d="M97.0264 20.7037C97.0849 21.7364 97.5818 22.525 98.5173 23.0696C99.4722 23.5953 100.729 23.8676 102.288 23.8863C102.347 23.8863 102.405 23.8863 102.464 23.8863C104.198 23.8863 105.562 23.6329 106.556 23.1259C107.57 22.6001 108.076 21.7927 108.076 20.7037C108.076 20.0277 107.726 19.5302 107.024 19.211C106.322 18.8917 105.445 18.6477 104.393 18.4787C103.341 18.2909 102.201 18.1219 100.973 17.9717C99.7451 17.8215 98.605 17.5774 97.5526 17.2394C96.5002 16.8826 95.6232 16.3757 94.9217 15.7185C94.2201 15.0613 93.8693 14.1319 93.8693 12.9302C93.8693 11.8787 94.0934 10.968 94.5416 10.1981C95.0094 9.4283 95.633 8.79928 96.4125 8.31108C97.1921 7.82289 98.0885 7.46613 99.1019 7.24081C100.115 7.01549 101.177 6.90283 102.288 6.90283C102.366 6.90283 102.454 6.90283 102.551 6.90283C103.682 6.92161 104.734 7.04366 105.709 7.26898C106.683 7.4943 107.531 7.84167 108.252 8.31108C108.973 8.76172 109.557 9.3438 110.006 10.0573C110.454 10.7521 110.707 11.5782 110.766 12.5358L107.433 12.8175C107.355 11.8974 106.927 11.2121 106.147 10.7614C105.367 10.292 104.169 10.0573 102.551 10.0573C100.895 10.0573 99.6184 10.3014 98.7219 10.7896C97.8254 11.2778 97.3772 11.9819 97.3772 12.902C97.3772 13.5216 97.728 13.9723 98.4296 14.2539C99.1312 14.5168 100.008 14.7327 101.061 14.9017C102.113 15.0519 103.253 15.2021 104.481 15.3523C105.709 15.4838 106.849 15.7373 107.901 16.1128C108.953 16.4696 109.83 16.9953 110.532 17.69C111.233 18.3848 111.584 19.3518 111.584 20.591C111.584 21.267 111.448 21.9899 111.175 22.7597C110.922 23.5108 110.444 24.2056 109.743 24.844C109.061 25.4824 108.115 26.0081 106.907 26.4212C105.718 26.8343 104.198 27.0408 102.347 27.0408C100.651 27.0408 99.2481 26.8625 98.1373 26.5057C97.0459 26.1489 96.1592 25.6889 95.4771 25.1256C94.8145 24.5623 94.3467 23.9145 94.0739 23.1822C93.8011 22.4499 93.6452 21.7083 93.6062 20.9572L97.0264 20.7037Z" fill="#CDF765"/>
<path d="M134.175 17.0422C134.175 18.7509 133.893 20.2343 133.328 21.4923C132.782 22.7504 132.041 23.7925 131.106 24.6186C130.171 25.4448 129.069 26.0644 127.803 26.4775C126.536 26.8906 125.182 27.0972 123.739 27.0972C122.317 27.0972 120.972 26.8906 119.705 26.4775C118.439 26.0644 117.328 25.4448 116.373 24.6186C115.437 23.7925 114.697 22.7504 114.151 21.4923C113.605 20.2343 113.333 18.7509 113.333 17.0422C113.333 15.3336 113.605 13.8502 114.151 12.5922C114.697 11.3154 115.437 10.2639 116.373 9.43769C117.328 8.59273 118.419 7.9731 119.647 7.57879C120.894 7.18448 122.2 6.98733 123.564 6.98733C123.622 6.98733 123.681 6.98733 123.739 6.98733C125.182 7.0061 126.536 7.22204 127.803 7.63512C129.069 8.02943 130.171 8.64906 131.106 9.49402C132.041 10.3202 132.782 11.3623 133.328 12.6203C133.893 13.8596 134.175 15.3336 134.175 17.0422ZM130.638 17.0422C130.638 15.9344 130.443 14.958 130.054 14.1131C129.664 13.2681 129.147 12.5546 128.504 11.9725C127.861 11.3717 127.13 10.921 126.312 10.6206C125.493 10.3014 124.636 10.1418 123.739 10.1418C123.681 10.1418 123.632 10.1418 123.593 10.1418C122.794 10.1418 121.985 10.292 121.167 10.5925C120.368 10.8929 119.647 11.3435 119.004 11.9444C118.361 12.5265 117.844 13.2494 117.454 14.1131C117.065 14.9768 116.87 15.9532 116.87 17.0422C116.87 18.1313 117.065 19.1077 117.454 19.9714C117.844 20.8164 118.361 21.5393 119.004 22.1401C119.647 22.7222 120.378 23.1728 121.196 23.492C122.015 23.7925 122.862 23.9427 123.739 23.9427C124.675 23.9427 125.562 23.7925 126.4 23.492C127.238 23.1728 127.968 22.7222 128.592 22.1401C129.216 21.5393 129.713 20.8164 130.083 19.9714C130.453 19.1077 130.638 18.1313 130.638 17.0422Z" fill="#CDF765"/>
<path d="M139.45 26.9H135.942V7.18448H151.874V10.339H140.298C140.045 10.339 139.791 10.2826 139.538 10.17C139.284 10.0573 139.07 9.91649 138.895 9.7475L138.865 9.80383C139.041 9.97282 139.177 10.1794 139.275 10.4235C139.392 10.6676 139.45 10.9023 139.45 11.1276V15.9438H151.319V18.6477H140.356C140.083 18.6477 139.811 18.5913 139.538 18.4787C139.265 18.366 139.031 18.2158 138.836 18.028L138.807 18.0844C139.002 18.2533 139.158 18.4693 139.275 18.7321C139.392 18.995 139.45 19.2579 139.45 19.5208V26.9Z" fill="#CDF765"/>
<path d="M164.575 26.9H161.067V10.339H153.642V7.18448H172V10.339H165.569C165.276 10.339 164.974 10.2732 164.662 10.1418C164.37 10.0104 164.117 9.84138 163.902 9.63484L163.844 9.69117C164.058 9.89771 164.234 10.1512 164.37 10.4516C164.506 10.7333 164.575 11.0149 164.575 11.2966V26.9Z" fill="#CDF765"/>
<g clip-path="url(#clip0_13301_283)">
<path d="M16.3652 0.804155C16.3652 3.93525 15.6917 6.68656 14.4895 8.98935C13.1873 11.4829 11.2667 13.4488 8.90864 14.803C6.47134 16.2053 3.56552 16.9529 0.394447 16.9529C0.261816 16.9529 0.130908 16.9511 0 16.9477V8.76422C0.129186 8.76766 0.261816 8.76938 0.394447 8.76938C5.0813 8.76938 8.08013 6.88763 8.9207 3.15162C9.08261 2.43673 9.16529 1.65481 9.16529 0.804155C9.16529 0.747444 9.16529 0.692453 9.16357 0.635742H16.3635C16.3652 0.690734 16.3652 0.747444 16.3652 0.804155Z" fill="#CDF765"/>
<path d="M16.3652 17.216C16.3652 27.2366 9.47017 33.3647 0.394447 33.3647C0.261816 33.3647 0.130908 33.363 0 33.3596V25.1761C0.129186 25.1795 0.261816 25.1812 0.394447 25.1812C5.97871 25.1812 9.16529 22.5107 9.16529 17.216C9.16529 17.1593 9.16529 17.1043 9.16357 17.0493H16.3635C16.3652 17.1043 16.3652 17.161 16.3652 17.216Z" fill="#CDF765"/>
<path d="M32.7287 8.76422V16.9477C32.5978 16.9511 32.4669 16.9529 32.336 16.9529C29.1649 16.9529 26.2591 16.2053 23.8218 14.803C21.4638 13.4488 19.5432 11.4829 18.241 8.99107C17.0387 6.68656 16.3652 3.93525 16.3652 0.804155C16.3652 0.747444 16.3652 0.690734 16.367 0.635742H23.5669C23.5652 0.692453 23.5652 0.747444 23.5652 0.804155C23.5652 1.65481 23.6479 2.43673 23.8098 3.15162C24.6503 6.88763 27.6474 8.76938 32.336 8.76938C32.4686 8.76938 32.5996 8.76766 32.7287 8.76422Z" fill="#CDF765"/>
<path d="M32.7287 25.1761V33.3596C32.5978 33.363 32.4669 33.3647 32.336 33.3647C23.2603 33.3647 16.3652 27.2366 16.3652 17.216C16.3652 17.161 16.3652 17.1043 16.367 17.0493H23.5669C23.5652 17.1043 23.5652 17.1593 23.5652 17.216C23.5652 22.5107 26.75 25.1812 32.336 25.1812C32.4686 25.1812 32.5996 25.1795 32.7287 25.1761Z" fill="#CDF765"/>
</g>
<defs>
<clipPath id="clip0_13301_283">
<rect width="32.7287" height="32.7287" fill="white" transform="translate(0 0.635742)"/>
</clipPath>
</defs>
</svg>
