<svg width="45" height="40" viewBox="0 0 45 40" fill="none" xmlns="http://www.w3.org/2000/svg">
<path d="M18.6122 1V0.5H18.1122L15.699 0.5C11.1803 0.5 7.35191 2.13702 4.6664 5.53497C1.99401 8.91631 0.5 13.9821 0.5 20.76L0.5 39V39.5H1H18.1122H18.6122V39V19.24V18.74H18.1122L10.2755 18.74V18.7333C10.2755 15.8478 10.7147 13.8916 11.6063 12.6618C12.4695 11.4713 13.8255 10.8733 15.9184 10.8733H18.1122H18.6122V10.3733V1ZM44.5 1V0.5L44 0.5L41.5867 0.5C37.0681 0.5 33.2397 2.13702 30.5542 5.53497C27.8818 8.91631 26.3878 13.9821 26.3878 20.76V39V39.5H26.8878L44 39.5H44.5V39L44.5 19.24V18.74H44H36.1633V18.7333C36.1633 15.8478 36.6025 13.8916 37.4941 12.6618C38.3572 11.4713 39.7133 10.8733 41.8061 10.8733H44H44.5V10.3733V1Z" stroke="#CDF765"/>
</svg>
